<svg xmlns="http://www.w3.org/2000/svg" viewBox="0 0 75.53 154.46"><defs><style>.cls-1{fill:#ea0029;}</style></defs><title>Asset 6</title><g id="Layer_2" data-name="Layer 2"><g id="图层_1" data-name="图层 1"><path id="_Compound_Path_" data-name="&lt;Compound Path&gt;" class="cls-1" d="M56.75,77.09h0v58.62h-38V114.35a6.18,6.18,0,0,0-6.18-6.18H9.65v33.61a2.71,2.71,0,0,0,.79,1.92,2.74,2.74,0,0,0,1.93.8H66V70.77a2.76,2.76,0,0,0-.8-1.92,2.71,2.71,0,0,0-1.92-.79H9V12.55a3.46,3.46,0,0,1,3.46-3.46H75.41V0H6.18A6.18,6.18,0,0,0,0,6.18V77.09H56.75ZM75.53,64.52a6.18,6.18,0,0,0-6.18-6.18H18.75V18.75H69.24a6.17,6.17,0,0,0,6.17-6.17V9.83H12.47a2.73,2.73,0,0,0-2.72,2.72V67.31H63.29a3.46,3.46,0,0,1,3.46,3.46v74.47H12.37a3.45,3.45,0,0,1-3.46-3.46V108.17H0v40.11a6.18,6.18,0,0,0,6.18,6.18H75.53Z"/></g></g></svg>