<svg xmlns="http://www.w3.org/2000/svg" viewBox="0 0 58.1 133.55"><title>Asset 19</title><style>.cls-1{fill:#ffffff;}</style><g id="Layer_2" data-name="Layer 2"><g id="图层_1" data-name="图层 1"><path id="_Compound_Path_" data-name="&lt;Compound Path&gt;" class="cls-1" d="M46.44,133.55a3.36,3.36,0,0,1-3.37-3.36V83.8c0-6.84-2.67-10.51-7.18-12.52H15v62.27H0V0H36.9a20.09,20.09,0,0,1,20,20v24a21.74,21.74,0,0,1-12.86,19.7,21.38,21.38,0,0,1,14,20v49.75ZM36.06,56.26c4.51-2,5.67-5.68,5.67-11.85V20a5.27,5.27,0,0,0-5.5-5.17H15v41.4Z"/></g></g></svg>