<svg xmlns="http://www.w3.org/2000/svg" viewBox="0 0 58.1 136.22"><title>Asset 4</title><style>.cls-1{fill:#f8ee4c;}</style><g id="Layer_2" data-name="Layer 2"><g id="图层_1" data-name="图层 1"><path id="_Path_" data-name="&lt;Path&gt;" class="cls-1" d="M58.1,85.81v26.37a24,24,0,0,1-24,24H24a24,24,0,0,1-24-24V24A24,24,0,0,1,24,0h10a24,24,0,0,1,24,24v21H46.44a3.36,3.36,0,0,1-3.37-3.36V24a9,9,0,0,0-9-9H24a9,9,0,0,0-9,9v88.14a9,9,0,0,0,9,9h10c8.68,0,8.68-3.67,8.68-9v-23a3.37,3.37,0,0,1,3.37-3.37Z"/></g></g></svg>