<svg xmlns="http://www.w3.org/2000/svg" viewBox="0 0 146.56 190.51"><defs><style>.cls-1{font-size:27.72px;font-family:MHeiGB5-Bold, MHeiGB5 Bold;font-weight:700;}.cls-1,.cls-3,.cls-5{fill:#fff;}.cls-2,.cls-7{fill:#090f17;}.cls-2,.cls-3{fill-rule:evenodd;}.cls-4{fill:#010101;}.cls-6{fill:#cf2033;}</style></defs><title>Asset 33</title><g id="Layer_2" data-name="Layer 2"><g id="Layer_1-2" data-name="Layer 1"><path class="cls-2" d="M73.28,146.56a73.28,73.28,0,1,1,73.28-73.28,73.37,73.37,0,0,1-73.28,73.28"/><path class="cls-3" d="M73.28,141.32a68,68,0,1,1,68-68,68.11,68.11,0,0,1-68,68"/><path class="cls-2" d="M127.35,73.28A54.07,54.07,0,1,1,73.28,19.21a54.07,54.07,0,0,1,54.07,54.07"/><path class="cls-4" d="M30.52,35l-.16-.14c.13-.21.11-.33-.08-.51L25.7,30.12l-1.26,1.36c-.24.26-.3.39-.1.63l-.15.16L22.77,31l.15-.16c.2.13.32.07.56-.19l3.59-3.87c.24-.27.29-.39.15-.58l.15-.16,1.42,1.32-.15.16c-.26-.18-.37-.12-.62.14L26.76,29l4.57,4.24c.2.18.32.18.55,0l.16.15Z"/><path class="cls-4" d="M33.56,26.77l2,2.43c.17.21.29.23.57.06l.13.17L34.4,30.91l-.13-.16c.22-.25.22-.37.06-.57L30,24.8c-.16-.2-.28-.22-.56-.06l-.14-.16,1.83-1.49.14.17c-.23.24-.23.36-.06.57l1.64,2,2.6-2.1-1.64-2c-.16-.2-.28-.23-.57-.06l-.13-.17L34.91,20l.14.17c-.23.24-.23.36-.06.57l4.35,5.37c.16.2.28.23.57.06l.13.17-1.83,1.48-.14-.17c.23-.24.23-.36.06-.56l-2-2.44Z"/><path class="cls-4" d="M42.28,23.42l3.07-1.83c.31-.18.39-.29.31-.51l.19-.11.95,1.6-.19.11c-.16-.18-.29-.15-.59,0l-4.83,2.87-.11-.18c.34-.26.36-.38.22-.6l-3.54-5.95c-.14-.22-.25-.26-.66-.07L37,18.59l4.66-2.78c.31-.18.39-.29.31-.51l.19-.11.94,1.57-.19.11c-.14-.15-.28-.12-.58.06l-2.88,1.71,1,1.74,1.71-1c.3-.18.39-.29.31-.51l.19-.11.93,1.57-.18.11c-.15-.15-.28-.12-.58.06l-1.71,1Z"/><path class="cls-4" d="M52,15.93l1,3c.09.25.19.31.52.25l.07.21-2.23.76-.07-.21c.29-.15.33-.26.25-.51l-2.23-6.55c-.09-.25-.19-.31-.51-.25l-.07-.2L51,11.62l.07.21c-.29.15-.34.26-.25.51l.84,2.47,3.17-1.08L54,11.26c-.09-.25-.19-.31-.51-.25l-.07-.2,2.23-.76.07.2c-.29.15-.34.26-.25.51l2.23,6.55c.08.25.18.32.51.26l.07.2L56,18.53l-.06-.21c.29-.15.33-.26.25-.51l-1-3Z"/><path class="cls-4" d="M61.65,8.67c2.33-.42,4,1.16,4.4,3.45s-.59,4.34-2.92,4.76-4-1.15-4.4-3.44.58-4.35,2.92-4.77M62.9,15.6c1.35-.24,1.95-1.39,1.62-3.21S63.24,9.71,61.88,10s-2,1.39-1.63,3.2,1.29,2.69,2.65,2.44"/><path class="cls-4" d="M68.17,16v-.21c.28-.06.36-.15.35-.42L68.3,8.46c0-.26-.08-.36-.3-.4V7.85l2.56-.08V8c-.22,0-.28,0-.28.15,0,.26,2.81,4.35,3,5h0l-.14-4.86c0-.27-.09-.36-.35-.4V7.71l2.11-.07v.22c-.26,0-.33.15-.33.41l.21,6.92c0,.31.09.35.29.39v.22l-2.26.07v-.22c.16,0,.3-.07.29-.22S70.35,11.36,69.81,10h0l.15,5.36c0,.26.09.36.34.39v.22Z"/><path class="cls-4" d="M82.51,13.54l-1.17-.14c-.35-.05-.48,0-.57.35l-.22,0,.25-2.08H81c0,.33.26.55,1,.64l2.55.31,0,.22c-.33,0-.41,0-.45.35l-.22,1.77c0,.34,0,.36.16.41l0,.12a4.36,4.36,0,0,1-3.39,1,3.93,3.93,0,0,1-3.51-4.52,4,4,0,0,1,4.54-3.76,4.31,4.31,0,0,1,1.81.62,4.81,4.81,0,0,0,.8.5.89.89,0,0,0,.37-.11l.11.11L83.22,11l-.14-.08a.71.71,0,0,0,.1-.35c0-.38-.48-1-1.68-1.12-1.57-.19-2.6.84-2.8,2.56-.27,2.22,1.07,3,2.26,3.15a1.79,1.79,0,0,0,1.39-.32Z"/><path class="cls-4" d="M88.91,17.94l.07-.21c.29.05.39,0,.48-.26l2.24-6.54c.09-.25,0-.37-.25-.52l.07-.2,2.2.75-.07.21c-.29-.05-.39,0-.48.26l-.84,2.43.07.09c1.22-.69,3.31-1.72,3.36-1.85s-.05-.19-.1-.24l.07-.21,2.31.79-.07.21a.81.81,0,0,0-.56,0l-3.34,1.84L95,18.45c.21.91.3,1.37.63,1.57l-.07.2-2.25-.77.07-.21c.11,0,.19,0,.23-.15a35.69,35.69,0,0,0-.9-3.9l-1,.52L90.93,18c-.09.25-.05.37.25.52l-.07.2Z"/><path class="cls-4" d="M103.2,14.82c2.11,1.08,2.47,3.34,1.41,5.41s-3.11,3.1-5.22,2S96.92,18.91,98,16.83s3.1-3.09,5.22-2M100,21.09c1.23.63,2.4.07,3.24-1.57s.61-2.91-.62-3.54-2.4-.08-3.24,1.56-.6,2.92.62,3.55"/><path class="cls-4" d="M103.94,24.62l.13-.18c.25.12.37.09.52-.12l4-5.61c.15-.22.14-.34,0-.51l.13-.17,2.08,1.49-.13.18c-.18-.11-.25-.13-.31-.05s-.41,5.17-.69,5.82l0,0,2.84-3.95a.35.35,0,0,0,0-.53l.12-.17,1.72,1.23-.13.17a.34.34,0,0,0-.51.13l-4,5.62c-.18.25-.15.33,0,.49l-.13.17-1.83-1.32.12-.18c.15.07.28.13.37,0s.27-4.9.7-6.34h0l-3.13,4.35c-.16.22-.15.34,0,.52l-.13.18Z"/><path class="cls-4" d="M116.83,31.35l-.84-.82c-.26-.24-.38-.3-.67-.06l-.16-.16,1.46-1.5.17.14c-.18.28-.12.6.42,1.13l1.85,1.79-.15.16c-.24-.23-.34-.24-.58,0l-1.24,1.27c-.24.25-.21.29-.12.42l-.09.09a4.34,4.34,0,0,1-3.29-1.29,3.91,3.91,0,0,1,0-5.71,4,4,0,0,1,5.89-.25,4.39,4.39,0,0,1,1.07,1.6,4.6,4.6,0,0,0,.33.88,1.22,1.22,0,0,0,.36.14l0,.15-2.28.43-.07-.16a.61.61,0,0,0,.29-.21c.27-.28.22-1.06-.65-1.91-1.13-1.1-2.58-.9-3.79.34a2.51,2.51,0,0,0-.11,3.87,1.88,1.88,0,0,0,1.3.6Z"/><path class="cls-4" d="M8.19,65l.22,0c0,.42.09.51.36.53l6.89.58c.26,0,.36,0,.45-.49l.21,0-.46,5.42c0,.31,0,.44.24.51l0,.21-1.85-.15v-.22c.24,0,.3-.15.32-.46l.29-3.35-2-.17-.18,2.1c0,.36,0,.49.26.55v.22L11,70.17V70c.23,0,.28-.15.31-.51l.18-2.1-2.91-.24c-.26,0-.36,0-.44.5H8Z"/><path class="cls-4" d="M16.11,77.48c.17,2.36-1.57,3.84-3.89,4s-4.26-1-4.43-3.41,1.57-3.85,3.89-4,4.26,1,4.43,3.41m-7,.5c.1,1.38,1.18,2.1,3,2s2.8-1,2.7-2.37-1.18-2.09-3-2S9,76.61,9.09,78"/><path class="cls-4" d="M17.69,87.22c.58,2.3-.88,4.06-3.13,4.63s-4.38-.29-5-2.6.88-4.06,3.13-4.62,4.38.29,5,2.59m-6.83,1.72c.34,1.33,1.53,1.85,3.32,1.4s2.59-1.46,2.25-2.8-1.53-1.86-3.32-1.41-2.59,1.47-2.25,2.81"/><path class="cls-4" d="M12.72,98.36l.2-.08c.13.19.25.23.49.12l5.71-2.49-.74-1.71c-.14-.33-.24-.42-.54-.34l-.09-.2,1.78-.77.09.2c-.2.13-.19.26-.05.59l2.11,4.83c.14.33.24.42.47.37l.09.2-1.78.78-.09-.2c.27-.17.26-.3.12-.63l-.75-1.7L14,99.82c-.24.11-.3.22-.22.5l-.2.09Z"/><path class="cls-4" d="M16.5,105.73c.23.28.35.29.57.15l5.8-3.77c.22-.15.26-.26.1-.59l.19-.11,2.09,3.22c1,1.51.58,2.92-.32,3.5a1.83,1.83,0,0,1-2.21-.17l0,0a1.85,1.85,0,0,1-.8,2.46c-1,.66-2.39.32-3.32-1.12l-2.25-3.47Zm2,1.08.86,1.31c.59.92,1.24,1.32,1.94.86s.6-1.2,0-2.13l-.85-1.31Zm3-2,.89,1.36c.53.83,1,1,1.59.69s.55-.91,0-1.73l-.88-1.37Z"/><path class="cls-4" d="M22.3,114.55l.16-.14c.14.13.37,0,.49,0l6.42-2.81a2.3,2.3,0,0,0,.49-.25c.07-.07.07-.15-.1-.38l.16-.15,1.75,1.91-.16.15c-.17-.16-.3-.17-.41-.06a2.54,2.54,0,0,0-.34.57l-3.26,6c-.15.26-.15.35-.06.49l-.16.15-1.42-1.56.16-.14c.16.12.23.16.31.09a.57.57,0,0,0,.15-.23l.72-1.33-1.88-2.06-1.25.55a.72.72,0,0,0-.24.14c-.11.1-.16.25,0,.45l-.16.15Zm5.46,1.29,1.71-3,0,0-3.08,1.45Z"/><path class="cls-4" d="M34.65,116.48c.17-.21.16-.33-.11-.61l.14-.17,2,1.61-.14.16c-.38-.24-.5-.22-.67,0l-3.92,4.84,2.65,2.15c.28.22.4.26.64,0l.17.14-1.23,1.51L34,126c.11-.21,0-.33-.23-.55l-4.19-3.4.13-.17c.31.19.43.17.6,0Z"/><path class="cls-4" d="M41,121.32c.14-.23.12-.35-.19-.59l.11-.18,2.18,1.31L43,122c-.41-.19-.52-.15-.66.08l-3.22,5.34L42,129.22c.3.18.43.2.64-.05l.19.11-1,1.68-.19-.12c.08-.22,0-.32-.31-.51l-4.62-2.78.11-.19c.33.15.44.11.58-.12Z"/><path class="cls-4" d="M48.79,133.89l.06-.21c.2,0,.35-.15.43-.25l4.24-5.59a2,2,0,0,0,.29-.46c0-.09,0-.16-.26-.28l.07-.21,2.46.82-.07.2c-.23,0-.35,0-.4.15a4,4,0,0,0,0,.66l.08,6.83c0,.29,0,.37.19.46l-.07.2-2-.66.07-.21c.2,0,.29,0,.32-.07a.76.76,0,0,0,0-.27l0-1.51-2.65-.88-.82,1.08a.93.93,0,0,0-.14.25c0,.13,0,.29.23.39l-.07.2Zm5.39-1.55,0-3.41h0l-2,2.77Z"/><path class="cls-4" d="M60.13,134.73l.2.13a.53.53,0,0,0,0,.15c-.09.53,1.1,1.12,2,1.26,1.41.24,2-.16,2.08-.88.28-1.68-4.74-1.36-4.27-4.22.2-1.21,1.27-2.18,3.27-1.85a5,5,0,0,1,1.79.62,4.79,4.79,0,0,0,.77.46.46.46,0,0,0,.38-.13l.11.08-1.44,1.72-.2-.13.06-.26c.06-.35-.53-1-1.8-1.22-.87-.15-1.29.22-1.38.74-.26,1.63,4.77,1.23,4.25,4.38-.2,1.26-1.52,2.36-3.9,2a5.06,5.06,0,0,1-1.75-.64,4,4,0,0,0-.88-.49c-.09,0-.17.07-.3.17l-.14-.11Z"/><path class="cls-4" d="M69.85,135.94l.22.1a.49.49,0,0,0,0,.15c0,.55,1.26.94,2.15.95,1.42,0,1.91-.47,1.91-1.2,0-1.71-4.89-.6-4.87-3.5,0-1.23.91-2.36,2.94-2.34a4.78,4.78,0,0,1,1.86.34,5.47,5.47,0,0,0,.83.33.44.44,0,0,0,.36-.19l.13.07-1.16,1.91-.22-.09c0-.05,0-.17,0-.27,0-.35-.68-.92-2-.92-.88,0-1.24.42-1.24.95,0,1.64,4.89.46,4.87,3.66,0,1.27-1.13,2.56-3.55,2.55a5.56,5.56,0,0,1-1.83-.35,3.65,3.65,0,0,0-.94-.35c-.09,0-.16.09-.26.22l-.16-.1Z"/><path class="cls-4" d="M81.66,129.38c2.34-.38,4,1.23,4.34,3.53s-.68,4.33-3,4.71-4-1.23-4.33-3.53.67-4.33,3-4.71m1.12,7c1.36-.22,2-1.35,1.69-3.18s-1.24-2.7-2.6-2.48-2,1.35-1.69,3.17,1.23,2.71,2.6,2.49"/><path class="cls-4" d="M94.09,126.76l-.37,2.09-.16,0a.8.8,0,0,0,0-.15c-.18-.53-1-.76-1.81-.5-1.41.47-2,1.55-1.32,3.55.52,1.56,1.78,2.34,3.09,1.91.82-.28,1.38-1.06,1.22-1.54a1.4,1.4,0,0,0-.16-.29l.15-.12,1.77,1.19-.07.17a.38.38,0,0,0-.3-.06c-.34.11-.44,1.29-2.34,1.93-2.23.75-4.13-.61-4.83-2.69-.92-2.74.47-4.65,2.35-5.28a3.26,3.26,0,0,1,1.64-.14,3.48,3.48,0,0,0,.8.14.7.7,0,0,0,.27-.24Z"/><path class="cls-4" d="M99.46,132.57l-.09-.19c.39-.24.42-.36.3-.59l-3-6.25c-.11-.24-.22-.29-.64-.14l-.1-.19,2.35-1.12.1.19c-.39.24-.42.36-.3.59l3,6.25c.12.24.23.29.65.14l.1.19Z"/><path class="cls-4" d="M104.39,130.2l-.12-.19c.16-.12.1-.36.08-.49l-1.65-6.81a1.6,1.6,0,0,0-.17-.52c0-.08-.13-.1-.39,0L102,122l2.19-1.39.11.19c-.19.13-.22.26-.13.39a2.59,2.59,0,0,0,.5.44l5.33,4.26c.23.18.31.21.47.14l.12.18-1.78,1.13-.12-.18c.16-.14.2-.2.15-.29a.53.53,0,0,0-.2-.19l-1.18-.94-2.36,1.49.33,1.32a.65.65,0,0,0,.09.27c.08.12.22.19.45.07l.11.18Zm2.22-5.16-2.62-2.2,0,0,.89,3.29Z"/><path class="cls-4" d="M113.93,123.59l-.14-.17a.34.34,0,0,0,0-.51l-4-4.75-1.42,1.2c-.27.24-.34.35-.17.62l-.17.14-1.26-1.48.17-.14c.19.15.31.1.58-.13l4-3.41c.28-.23.34-.35.23-.56l.16-.14,1.25,1.48-.16.14c-.24-.21-.36-.16-.63.07l-1.42,1.21,4,4.75c.17.2.28.22.54.06l.14.17Z"/><path class="cls-4" d="M119.55,118.39l-.16-.14c.27-.37.26-.49.06-.66l-5.08-4.7c-.19-.17-.31-.18-.65.12l-.16-.15,1.77-1.91.15.14c-.27.37-.25.49-.06.66l5.09,4.7c.19.18.31.18.65-.12l.16.15Z"/><path class="cls-4" d="M119,106.11c1.37-1.94,3.66-2,5.56-.63s2.63,3.51,1.26,5.44-3.65,2-5.55.64-2.63-3.51-1.27-5.45m5.76,4.06c.79-1.13.41-2.36-1.1-3.43s-2.8-1-3.59.12-.42,2.37,1.09,3.43,2.8,1,3.6-.12"/><path class="cls-4" d="M129.94,104.26l-.19-.09c.07-.27,0-.38-.22-.5l-6.25-3c-.24-.11-.36-.08-.49.09l-.2-.09,1.09-2.31.2.09c-.08.2-.08.27,0,.31s5.15-.53,5.84-.37l0,0-4.41-2.08c-.23-.11-.35-.08-.5.14l-.2-.1.9-1.91.19.1c-.07.26,0,.36.22.48L132.21,98c.28.13.35.08.48-.08l.2.09-1,2-.19-.09c0-.15.07-.29-.08-.36s-4.86.62-6.35.46v0l4.85,2.29c.24.12.36.09.5-.12l.2.09Z"/><path class="cls-4" d="M128.37,87.61c-.26,0-.36,0-.49.38l-.21,0,.53-2.49.21,0c0,.44,0,.54.29.6l6.09,1.29.71-3.34c.08-.35.06-.48-.25-.59l0-.22,1.91.41,0,.21c-.24,0-.31.11-.38.46l-1.12,5.28-.22,0c0-.36,0-.45-.3-.51Z"/><path class="cls-4" d="M137.37,79.56h-.22c0-.24-.11-.32-.37-.34l-6.22-.49-.15,1.85c0,.36,0,.48.32.56l0,.21-1.93-.15V81c.24,0,.3-.14.32-.5l.42-5.26c0-.36,0-.48-.24-.55l0-.21,1.93.15v.22c-.32,0-.37.14-.4.49l-.15,1.86,6.22.49c.26,0,.36,0,.43-.34l.22,0Z"/><path class="cls-4" d="M130.18,71.52c-.27,0-.35.11-.37.41l-.22,0-.3-3.4c-.22-2.57,1.47-3.9,3.74-4.1,2.73-.23,4.19,1.07,4.41,3.7l.28,3.09-.22,0c-.07-.29-.17-.36-.43-.34Zm6.07-2.08-.08-.9c-.18-2.06-.89-2.73-3-2.54s-2.7,1-2.52,3l.08.9Z"/><path class="cls-4" d="M134.46,61.29a1.05,1.05,0,1,1,1.24.83,1,1,0,0,1-1.24-.83"/><path class="cls-5" d="M73.28,122.22a48.94,48.94,0,0,1,0-97.88"/><path class="cls-6" d="M73.28,24.34a48.94,48.94,0,0,1,0,97.88"/><path class="cls-6" d="M22,46.24l.94.54a1.81,1.81,0,0,1-.8.77.88.88,0,0,1-.76-.11L19,46.06l-.3.52L22,48.46l-.39.68-3.25-1.88-.84,1.46-.95-.55.84-1.45-3.22-1.86.4-.68L17.76,46l.3-.53-3.12-1.8.43-.75,6.08,3.51c.15.09.35,0,.58-.23m-6.47-.13,1,.6a2.34,2.34,0,0,1-1,.55,1.08,1.08,0,0,1-.7-.15l-1.53-.89.39-.68,1.17.68c.17.1.38.06.64-.11m-2.19.69,6.8,3.92-1.54,2.67a.52.52,0,0,1-.79.23L11.53,50Zm.28,1.84,4.78,2.77.32-.56L14,48.09Zm4,3.91c.07,0,.15,0,.25-.2l.17-.29-4.79-2.77-.32.55Zm1.06-4.67,1.07.62v.25A.34.34,0,0,0,20,49l1.21.7-.37.65-1.63-.94a.94.94,0,0,1-.52-.92Z"/><path class="cls-6" d="M126.81,51.2l.92-.53.58,1.88a.79.79,0,0,1-.4,1l-.81.47-.41-.71.52-.3c.08,0,.1-.17.05-.38Zm-3.5-4.27.91-.53.84.86c.11.11.21.14.31.09l.49-.29.43.75-.94.54a.57.57,0,0,1-.77-.12Zm1.39,2.4.91-.53.86.82c.1.11.2.14.3.08l.3-.17.43.75-.74.43a.58.58,0,0,1-.78-.13Zm5.73-6.21.4.69-.74.42.58,1,.91-.52.43.75-.77.44.54.5a.41.41,0,0,0,.53.09l.22-.13.41.72-.61.36.43.75a.56.56,0,0,1-.24.86L130,50.53l.34.59c0,.08.13.09.23,0l3.45-2,.39.68-3.87,2.24a.6.6,0,0,1-.92-.25l-1.22-2.12-.13.08-.58.34-.38-.65.26-.15c.16-.09.22-.26.17-.52l-.15-.79-.74.43-.43-.75.94-.54-.58-1-.79.45-.39-.68.78-.45-.34-.59.85-.49.34.59,1.59-.92-.34-.59.88-.51.34.59Zm-1.83,5.39,2.51-1.45-.77-.63-1.88,1.08Zm.55.55.47.82,2-1.18c.11-.07.14-.14.09-.22l-.4-.69Zm.63-3.31-.58-1-1.59.92.59,1Z"/><path class="cls-6" d="M57.14,43.84v7.7c0,.65.19.87,1,1v.53H52.34v-.53c.8-.12,1-.34,1-1v-17c0-.65-.19-.88-1-1V33h5.79v.53c-.8.11-1,.34-1,1V41h8.23v-6.4c0-.65-.19-.88-1-1V33h5.79v.53c-.8.11-1,.34-1,1v17c0,.65.19.87,1,1v.53H64.38v-.53c.8-.12,1-.34,1-1v-7.7Z"/><path class="cls-5" d="M76.78,53.06v-.53c.72-.12.91-.34.91-1v-17c0-.65-.19-.88-1-1V33h5.71v.53c-.72.11-.91.34-.91,1v6.32l.23.15c2.28-2.58,6.32-6.62,6.32-7s-.27-.42-.42-.5V33h6v.53a2,2,0,0,0-1.26.57l-6.28,6.93,5.29,8.34c1.22,2,1.79,2.94,2.71,3.13v.53H88.24v-.53c.27,0,.42-.19.42-.53s-1.79-2.9-5.22-8.35l-1.94,2v5.87c0,.65.19.87,1,1v.53Z"/><path class="cls-5" d="M76.59,113.91v-.53c.5,0,.69-.62.81-.92L83,96.16a4.52,4.52,0,0,0,.34-1.3c0-.23-.15-.38-.84-.45v-.54h6.36v.54c-.57,0-.8.26-.8.64a7.28,7.28,0,0,0,.46,1.56l5.45,15.85c.22.69.37.84.79.92v.53H89.55v-.53c.49-.08.68-.16.68-.43a1.58,1.58,0,0,0-.15-.64l-1.22-3.51H82L80.94,112a1.79,1.79,0,0,0-.15.69c0,.34.19.68.83.73v.53ZM88,106.14l-2.51-8h-.08l-2.47,8Z"/><path class="cls-6" d="M54.05,113.91v-.54c1-.11,1.22-.34,1.22-1v-17c0-.65-.19-.88-1.29-1v-.54H67.34c.77,0,1.07-.11,1.18-.68h.54v4.57h-.54c-.11-.57-.41-.69-1.18-.69H59.08v5h5.18c.87,0,1.18-.11,1.29-.76h.54v4.61h-.54c-.11-.53-.42-.65-1.29-.65H59.08v7.16c0,.65.19.88,1.33,1v.54Z"/><path class="cls-7" d="M68,61.36a.85.85,0,0,0,.86.08.4.4,0,0,1,.28-.16c.54-.47,1.09-1,1-1.48s-.19-.55-.66-.47a.53.53,0,0,1-.35.2,4.19,4.19,0,0,0-1.14.66l-.27.62a.59.59,0,0,0,.27.55"/><path class="cls-7" d="M46.92,52.58c-.08,0-.16,0-.23.08h0a.08.08,0,0,1-.08.08c-.74-.27-.27-1.37-.47-1.83-.08-.2-.27-.28-.74-.2A9.7,9.7,0,0,1,44,52.86a1.58,1.58,0,0,0-.28,2c.08.11.16.11.28.19.46.2.62-.55,1.17-.66.74.11.11.86.54,1.29.12,0,.31,0,.39.11s.47,0,.55-.11h0s.07-.08.15-.08,0-.12.08-.2c.59-1.13,1.56-2.26,1.37-3.28-.63-.23-.9.24-1.37.47"/><path class="cls-7" d="M67.09,70.45a1.21,1.21,0,0,0,.89.7h.4c.35-.16.62-.35.54-.82a1.27,1.27,0,0,0-.94-.89c-.07-.12-.27-.12-.42,0-.55.07-.47.62-.47,1"/><path class="cls-7" d="M52.62,54.85c.81,0,1.17,1,1.63,1.56a7.79,7.79,0,0,0,1.92.27h.19c2.69-.24,4.6-2.77,6.87-3.94.46-.47,0-.9-.28-1.09-2.1,0-3,3.2-5,2.73.2-1.37,1.64-2.38,2-3.67l-.12-.62c-1.24.43-2.3,1.6-3.47,2.49l-.08.08-.11.08-.08.12h-.74c-.47-.59.54-.86.46-1.49a.83.83,0,0,0-1-.47A22.66,22.66,0,0,1,49.22,54,5,5,0,0,0,49,56.33c1.28-.27,2-1.76,3.59-1.48"/><path class="cls-7" d="M63,58.9a.93.93,0,0,0,.67-.27.38.38,0,0,0,.15-.2,2.52,2.52,0,0,0,.28-.66c0-.08.11-.15.11-.27s-.11-.08-.11-.08a.68.68,0,0,0-.28-.35s-.11,0-.15,0c-.51,0-1.06.62-1.49.94-.35.66.28,1,.82.93"/><path class="cls-7" d="M79.3,66.12a3.16,3.16,0,0,0,.9-.35,5.09,5.09,0,0,0,1.36-2,1.06,1.06,0,0,0-1.36.12,6.67,6.67,0,0,0-1.49,1.52.69.69,0,0,0,.59.74"/><path class="cls-7" d="M84.13,67.8h.28c.39-.67,1.21-1.21.82-2a1.06,1.06,0,0,0-1.1.19,2.31,2.31,0,0,0-.89,1.09c-.12.55.43.74.89.67"/><path class="cls-7" d="M68.84,66.31a.84.84,0,0,0-.66,1.29l.74.2c.08-.12.08-.12.2-.12.43-.16,1-.55,1-1a1.43,1.43,0,0,0-1-.36Z"/><path class="cls-7" d="M75.16,68.34c.08,0,.08,0,.08-.11.39-.28.94-.43.94-1-.39-.43-.2-1.44-1-1.37h-.11c-.43.55-.9,1-.71,1.76.08.47.43.82.82.74"/><path class="cls-7" d="M69.12,63.27c-.28.2-.47.39-.39.74s.19.39.39.47a1.81,1.81,0,0,0,.54.2c.55-.47,1.56-.39,1.64-1.29.08-.74-.74-.55-1.17-.55a2.14,2.14,0,0,0-1,.43"/><path class="cls-7" d="M72.12,70.8c.2-.08.27-.2.47-.27l.23-.24a1.23,1.23,0,0,0,.24-1l-.24-.24c-.08-.11-.15-.19-.23-.31a.55.55,0,0,0-.47-.27.31.31,0,0,0-.27.12c-.75.27-.55,1-.63,1.55s.43.71.9.63"/><path class="cls-7" d="M65.8,60c0,.08.08.08.2.08.82-.54,1-1.56,1.44-2.57a1.89,1.89,0,0,0-1.64.93,2.2,2.2,0,0,0-.62,1,2.08,2.08,0,0,0,.62.54"/><path class="cls-7" d="M89.09,71.07c.35-.46,0-1.44-.55-1.17-.07,0-.19.16-.39.35a1.24,1.24,0,0,0-.08,1.21,1,1,0,0,0,.47.08.68.68,0,0,0,.55-.47"/><path class="cls-7" d="M45.91,59.8c.11,0,.11-.08.19-.08.2-.19.47-.27.55-.47l0,0s0-.07,0-.15l0-.08c-.08-.27-.35-.27-.55-.27a2.29,2.29,0,0,0-.54.35c.08.39-.2.93.35.74"/><path class="cls-7" d="M65.8,73.84a1.41,1.41,0,0,0,1-.19V73.1c-.36-.39-.55-1-1-1.21a1.66,1.66,0,0,0-.62-.07,1.48,1.48,0,0,0-.28,1.83,3.41,3.41,0,0,0,.9.19"/><path class="cls-7" d="M99,66.86l.24-.47c0-.31-.08-.43-.24-.51a.58.58,0,0,0-.23,0,1.57,1.57,0,0,0-.55.19c-.07,0-.19.2-.27.27-1.64,3.2.2,6.87-.47,10.19.2.07.67.27.74.07a.07.07,0,0,0,.08-.07c.28-2.85-.43-6.17.47-9a5.75,5.75,0,0,1,.23-.66"/><path class="cls-7" d="M91.47,76.77a6.64,6.64,0,0,0,1.64,2,3.56,3.56,0,0,0,2,.54,1.82,1.82,0,0,0,1.44-1.29c-.08-.27-.55-.74-.9-.38-1.21.54-1.95.38-2.49-.28s-1-1.71-1.64-2.46a3.51,3.51,0,0,0-.82-.54c-.08-.39-.82-.39-.82.08a6.56,6.56,0,0,1,.82,1l.82,1.33"/><path class="cls-7" d="M63.62,76.88a.28.28,0,0,1,.15.08s.12,0,.12-.11c.08.11.08.11.16.11.39,0,.66-.11.66-.46a.75.75,0,0,0-.66-.75H64c0,.08-.08.08-.2.2s-.11,0-.15,0-.24.23-.12.51c-.12.11,0,.27.12.38"/><path class="cls-7" d="M86.79,69.63c.19-.19.74-.47.74-.94.27-.46-.27-.62-.63-.74h-.11c-.16,0-.35.2-.47.28a4.41,4.41,0,0,0-.35.93,3.5,3.5,0,0,0,.35.28,1.09,1.09,0,0,0,.47.19"/><path class="cls-7" d="M44,64.4a7.26,7.26,0,0,0-.94.82,1.78,1.78,0,0,0-.7.63,2.8,2.8,0,0,0-.35.46,2.42,2.42,0,0,0-.31,1.21,1.19,1.19,0,0,0,.31-.07l.35-.12c.27-.2.43-.47.7-.66a4.33,4.33,0,0,1,.82-.71H44c1,.35,1.56-.19,2.1-.86.2-.27.35-.54.55-.81l0,0c.07-.12.15-.24.23-.36s.2-.23.27-.34a1.43,1.43,0,0,0-.27-.75c-.08-.11-.16-.23-.23-.31l0,0a2.41,2.41,0,0,0-.55-.35.88.88,0,0,0-.93.35,3.56,3.56,0,0,1-1.17,2"/><path class="cls-7" d="M42,51a1.05,1.05,0,0,0,.35.08,2.1,2.1,0,0,0,.7-.08,4.57,4.57,0,0,1,.94-.47c.74-.46,1.44-.93,2.1-1.36.2-.19.35-.31.55-.47l0,0,.23-.23a3.92,3.92,0,0,0,1.29-3.32,4.4,4.4,0,0,0-1.29-2.69.92.92,0,0,0-.23-.19l0,0a1.3,1.3,0,0,0-.55-.35c-.19-.2-.39-.2-.54-.32-.94.67,0,1.29.54,2a1.3,1.3,0,0,1,.35.83,1.36,1.36,0,0,1,.2.62,1.49,1.49,0,0,0,0,.19,2.51,2.51,0,0,1,0,.78c0,.08,0,.12,0,.16a2,2,0,0,1-.55,1A10.13,10.13,0,0,1,44,48.45a3.82,3.82,0,0,0-.94.55,3.55,3.55,0,0,0-.7.54,3.33,3.33,0,0,0-.35.39,1.79,1.79,0,0,0-.31.7A.68.68,0,0,0,42,51"/><path class="cls-7" d="M114.76,74.19c-2.93.82-1.29,4.22-3.59,5.7a37.9,37.9,0,0,1-9.79-.55c0-1.13,1.28-1.13,1.75-2,1.64-2.1-.59-3.82-.74-5.85.55-3.74,3.75-6.32,3.82-10.18,2-1.91,4.88-3.67,4.53-6.79,0-.46-.66-1-1-.74a12.77,12.77,0,0,1-2,3.67c-.47.19-.9,1-1.29.39.19-2,2.65-3.51,2-6-.67-1.21-1-3.59-2.77-3.59-.35,1.29.74,2.85-.28,4.14a.94.94,0,0,1-1.09-.28,7.28,7.28,0,0,0-4.76-4.6c-.66,0-.47.74-.08,1.09a5.35,5.35,0,0,1,3.48,4.61,1.12,1.12,0,0,1-.82,1.09A8.1,8.1,0,0,1,99,53.17c-.07,0-.15-.12-.23-.16a1.49,1.49,0,0,1-.55-.35c-1.75-1.29-3.19-3-5.14-4.21A10.26,10.26,0,0,0,92,47.9a.48.48,0,0,0-.54.08.71.71,0,0,0-.27.55c.07,0,.19.07.27.07A7.43,7.43,0,0,1,93.11,50c1.48,1.56,2.38,3.55,4.33,4.56-1.49.2-2.85.67-4.33.39a2.55,2.55,0,0,1-1-.27,2.08,2.08,0,0,1-.66-.2,2.82,2.82,0,0,1-.82-.5,13.79,13.79,0,0,1-2.11-3v-.11a9.44,9.44,0,0,0-1.75-2,1.29,1.29,0,0,0-.47-.35,3.75,3.75,0,0,0-2.19-.74.24.24,0,0,1-.19.11c0,.27-.08.63.19.82a.08.08,0,0,0,.08.08A4,4,0,0,1,86.32,50c.19.15.31.35.47.43a18.69,18.69,0,0,1,1.75,3.24l.2.15a6.76,6.76,0,0,0,1.91,1.79,7.33,7.33,0,0,0,.82.51c.54.2,1.09.39,1.64.55A12.28,12.28,0,0,0,97,56.8c.4.35-.07.89-.42,1.09a8.68,8.68,0,0,1-3.51.74,7.51,7.51,0,0,1-1.64-.12l-.82-.15c-.7-.2-1.37-.39-2.11-.67a8.11,8.11,0,0,1-1.75-.82c-.16-.07-.28-.19-.47-.19l-.08-.08-.47.35.55.55a5.21,5.21,0,0,1,.47.47,6.31,6.31,0,0,0,1.75,1.63,4.28,4.28,0,0,0,1.09.47,4.85,4.85,0,0,0,1,.24c.27,0,.55.11.82.15a11.19,11.19,0,0,0,1.64.08,13.2,13.2,0,0,0,5.14-1,2.79,2.79,0,0,0,.55-.2c.08,0,.16,0,.23-.08a16,16,0,0,0,2.62-1.56l.47.28c.07.66-.55.82-.67,1.48.82,1.56,2-1,3.12-.94a1.47,1.47,0,0,1,.55,1.29C104.57,65,97,68.23,100.71,74c.86,2.07-.58,3.47-1.68,4.84-.07.11-.15.19-.23.31s-.35.54-.55.82c0,.07-.07.19-.07.27a7.92,7.92,0,0,1-4.53.66c-.15,0-.35-.11-.54-.11A4.68,4.68,0,0,1,91.47,80a7.27,7.27,0,0,1-.82-.59,10.45,10.45,0,0,1-2.11-2.88c-.66-1.29-1.09-2.78-1.75-4.06a6.45,6.45,0,0,1-.47-.7,6.13,6.13,0,0,0-2.19-2.3,6.29,6.29,0,0,0-2.65-.94,8.56,8.56,0,0,0-1.28-.16,9.47,9.47,0,0,0-1.57.16,8.24,8.24,0,0,0-3.47,1.68c-.74.58-1.56,1.28-2.34,2l-.23.2-.47.35c-.08.2-.27.27-.35.39A19,19,0,0,0,69.12,76c-.39.35-.74.82-1.14,1.21a7.88,7.88,0,0,1-2.18,2,5.49,5.49,0,0,1-1.75.75h-.28s-.11,0-.15,0c-.31,0-.63,0-.94,0a2.07,2.07,0,0,1-1.29-2.37,11.93,11.93,0,0,1,2.23-5.43c0-.08.11-.15.15-.23l.28-.47c.58-.93,1.21-1.75,1.75-2.57a7.65,7.65,0,0,0,1.09-5.85c-.35-.55-.74-1.1-1.09-1.56a6.15,6.15,0,0,0-1.75-1.1c-.08,0-.16-.12-.28-.12a.26.26,0,0,1-.15-.07,27,27,0,0,0-5.07-1.21,2.26,2.26,0,0,0-2.19,1,.3.3,0,0,0-.08.16.3.3,0,0,1-.11.27A17.25,17.25,0,0,1,55.08,63c-.36.27-1,0-1.45-.08-.94-.74-.2-2.11-.31-3.12s-1.09-1.29-2.11-1.09c-.54.08-1.71.35-1.44,1.36.74.67,1.17-1,1.83,0,.9,2.23-1.29,3.79-2.85,5-.62.51-1.2,1.06-1.83,1.56-.08,0-.16.12-.23.16l0,0-.55.54A20.49,20.49,0,0,1,44,69c-.39.19-.67.35-.94.47s-.43.19-.7.27a1.08,1.08,0,0,1-.35,0,6.25,6.25,0,0,0-.78.15c-.55,1.09.82,1.84.74,3h0a.52.52,0,0,0,.35-.08c.35-.12.43-.55.7-.82a.57.57,0,0,1,.74-.27c0,.08.08.08.2.15a2.07,2.07,0,0,1,.46.82c1,1.68,1.1.2,1.64-.82a2,2,0,0,1,.55-.74h0a.69.69,0,0,1,.23-.16H47c.86-.19,1.13.75,1.4,1.17,2,.94.63-2.1,2.11-2.65s1.64,1.37,2.92,1.29c.82-.55.08-1.56.36-2.46.46-1.13,1.56-.27,2.38-.54.11,0,.11,0,.11-.12h.08s0,0,.08-.08l-.08-.2-.08-.19-.11-.43L56,66a.49.49,0,0,1,.16-.27c.11,0,.11,0,.11-.08s0,0,.08,0c.47-.15,1-.12,1.21-.62-1.21-1.1,0-2.11.7-2.85-.15-.47-.54-.55-.7-.74s0-.43,0-.63c2.18-.27,4.21.9,6,2.31v0a.94.94,0,0,1,0,.47c-.16.94-1.33,1.56-.47,2.5a2.27,2.27,0,0,1-1.21,1.28,1.77,1.77,0,0,0,.27,1.49c.47,1.44-1.36,1.29-1.83,2-.27.74.27,1.48-.27,2.1-.28.67-.9.12-1.29.12-1.83.47-.27,2.3-.82,3.47-.16,1.17-.86.78-1.64.67h-.19a2,2,0,0,0-.63.15c-.54.82.47,1.21.63,1.83v.39a1.2,1.2,0,0,1-1,.63c-.07.39-.35.82,0,1.09a3.88,3.88,0,0,1,1,.27l.11.12.08,0c.63.35,1.13.7,1.76,1,.35.62-.39,1-.55,1.56a3.78,3.78,0,0,0,3.67-.47c1.64.74-.67,1.91,0,2.92a4.94,4.94,0,0,0,2.38-1.52s.11-.07.15-.11.2-.12.28-.2a3,3,0,0,1,1-.35,2.36,2.36,0,0,0,.74.43,5.91,5.91,0,0,0,2.18.19,10.87,10.87,0,0,1,1.14.2.76.76,0,0,1,.35.15,6.33,6.33,0,0,0,2.65,1c.12.12.27.12.47.19l.23.08A5.3,5.3,0,0,1,74.69,88c.55.7-.07,1.45-.62,1.91-.39.08-.86.2-1.25.32-.08,0-.15,0-.23,0a.87.87,0,0,1-.47.11,4.12,4.12,0,0,1-2.46-.27c-.19,0-.39-.12-.54-.12A5.42,5.42,0,0,0,68,89.87a4.57,4.57,0,0,0-2.18.36,2.76,2.76,0,0,0-1.64,1.67c0,.28.16.43.55.43a3.3,3.3,0,0,1,1.09-.43A5.37,5.37,0,0,1,68,92a3.75,3.75,0,0,1,1.14.2c.27,0,.62.07.89.07.67.47-.07,1-.07,1.49-.39,1.24-.39,2.73.74,3.54a9.25,9.25,0,0,0,1.44.83c.12,0,.27.11.47,0a.32.32,0,0,0,.23-.08.57.57,0,0,0,.24-.08,1.1,1.1,0,0,0-.24-1.21,1.61,1.61,0,0,0-.23-.27l-.2-.2a2.32,2.32,0,0,0-.27-.43c-.55-.86-.9-1.83,0-2.69v-.08c.2,0,.27-.08.47-.19l.23-.12c.78-.43,1.6-.82,2.34-1.25a.28.28,0,0,0,.16-.08c1.21,1.37-.82,3.67.86,5.12a1.54,1.54,0,0,0,2.26,0c.27-.28,0-.71-.35-1,.27-2-.94-4.14-.08-6.09a1.1,1.1,0,0,0,.62-.27c.55-.35,1-1,1.57-1.36a1.68,1.68,0,0,1,1.63-.36c.47-.19.55-.54.47-1-.74-1.48-1.36-1.36-2.1-.94-.55.28-1,.75-1.57,1a2,2,0,0,1-1.55.39l-1.92-.82c-.74-.43-1.56-.94-2.34-1.4l-.23-.16-.47-.27c-.62-.39-1.17-.74-1.83-1.21a4.39,4.39,0,0,0-1.17-.63c-.39-.11-.74-.31-1.14-.39-.42-.27-.89-.54-1.24-.82a1,1,0,0,1,1-.54c.12.08.2.08.27.19.59.35.86.35,1.14.27.82-.46.7-2.57,2.1-2.69a1.41,1.41,0,0,0,.9-.54,2,2,0,0,0,.47-1c.08-.43.12-.86.23-1.28a1.75,1.75,0,0,1,1-1.21,1.62,1.62,0,0,0,1.36.46c1.29-.39,1.56-3,3.28-3.19.12.08.12.15.19.27.47.7,1,.55,1.57.27s1.36-1,2.1,0c.55.9-.19,1.72-.47,2.54a3.72,3.72,0,0,0-1.63,0,9.45,9.45,0,0,0-1.57.74c-.46.27-1,.66-1.48.94-.07.27-.15.81.12.89a3.35,3.35,0,0,0,1.36.28,4.47,4.47,0,0,0,1.57-.36c.35-.07.62-.19,1-.27.55.27,1.17.9.74,1.56a2.73,2.73,0,0,1-1.75.74,5.14,5.14,0,0,1-1.1.08,4,4,0,0,0-.47.08c-1.36.27-1.91,1.75-2.3,3,.12.55.67.43.94.43A2.67,2.67,0,0,1,78.63,82a9,9,0,0,1,1.57-.4,2.24,2.24,0,0,0,1-.62c1.29-1.21,2.11.19,2.92,1.09a2.14,2.14,0,0,0,.67.67c0,.27-.39.62-.67.89s-.54.74,0,1.1c0,0,.08,0,.08.11.67.28,1.41-.39,2.11-.39a2,2,0,0,0,.47-.27c1-.62.54-1.29,0-1.91a3.56,3.56,0,0,1-.47-.39c-.62-.55-1.25-1.09-1.09-1.72a4.83,4.83,0,0,0,1.09-.27c.19,0,.31-.12.47-.12a1,1,0,0,1,1,.2c1.09.66-.27,1.36.27,2.18.2,0,.4,0,.47.12,1.09.19,1.45,1.17,1.76,2.18a.62.62,0,0,0,.35.12.87.87,0,0,0,.82-.27c.47-.39.82-.94,1.56-.74l.08.07c1.75.82,3.51,0,5.14-.62a1,1,0,0,1,.55-.19L99,82.7a1.22,1.22,0,0,1,.43-.08c3.28-1.56,7.34-1.09,11.16-1.17l1,.7a2.87,2.87,0,0,1-.75,3c-1.83,2-2.73-1.48-4.48-1A2.88,2.88,0,0,0,104.3,86c.66,1.48,2.3-.19,3.67,0,1.91,1.29-1.29,2.5,0,4.14.08.47.54,1.09,1.09.74,2.11-1.41.74-4.6,3.59-5.35.9.47,1,1.95,1.83,2.85a2,2,0,0,0,2.19.27c.27-2.26-2.93-3.47-3.2-5.65.62-2.11.19-5.7,3.31-5.77a.78.78,0,0,1,0-.32v-.11c0-1.17-1.25-2-2.06-2.62M84.88,77.94a1.64,1.64,0,0,1-.75-.27,4.18,4.18,0,0,1-1.28-2.38,3.17,3.17,0,0,1,1.28.27,3.84,3.84,0,0,1,1.29,1.56.71.71,0,0,1-.54.82"/><path class="cls-7" d="M50.12,81.25C50,79.61,52,78.8,51.8,77.12c-.31-.74,0-2.19-1.13-2.19-.71.28-.28,1.37-.43,1.92a1.19,1.19,0,0,1-1.13,1.09,3.71,3.71,0,0,0-2.19-1.64c-.08,0-.16,0-.23-.08h0A1,1,0,0,0,46.1,76c-.39-.08-.82-.2-1.21-.28a2.53,2.53,0,0,0-.89.47,2.59,2.59,0,0,0-.94.63,3.45,3.45,0,0,0-.7.66A4.13,4.13,0,0,0,42,78c0,.11-.08.27-.12.39l.12.11a2.14,2.14,0,0,0,.35.28,2.2,2.2,0,0,0,.7.15,4.83,4.83,0,0,0,.94-.07,9.75,9.75,0,0,1,2.1-.67,1.53,1.53,0,0,1,.55.2h0c.07,0,.15.07.23.11a.87.87,0,0,1,.2.16,2.82,2.82,0,0,1-.2,1.68c-.08.15-.16.27-.23.39l0,0a1.26,1.26,0,0,1-.55.55c-.08.12-.27.12-.39.2a1.91,1.91,0,0,1-1.71-.2,10,10,0,0,0-.94-.35,2.31,2.31,0,0,0-.7-.2L42,80.9a.67.67,0,0,0-.31.08c-1.84.74-2.19,2.65-2.46,4.29.08.47,0,1.41.82,1.21A6.49,6.49,0,0,1,42,84.69l.35-.12a4,4,0,0,1,.7-.27A2.88,2.88,0,0,1,44,84a3.9,3.9,0,0,1,1.71.12.45.45,0,0,1,.39.27,1.39,1.39,0,0,1,.55.82l0,.08c.07.2.15.43.23.63a5,5,0,0,0,.94,1.75c.47,1-.35,1-.94,1.25l-.23.12,0,0c-.2.15-.28.35-.2.74.12,0,.12.07.2.15l0,0c.07,0,.15.12.23.16a5.93,5.93,0,0,0,2.85.81C53.51,89.6,49,87.3,49,85.19c1.09-1.75,3.86.47,5-1.09-.55-1.83-2.65-1.83-3.94-2.85"/><path class="cls-7" d="M42,63.43l.35-.31a6.43,6.43,0,0,0,.7-.75,1.15,1.15,0,0,0,.27-.27,1.67,1.67,0,0,0,.67-.74c.19-.47,0-.9,0-1.37a1.45,1.45,0,0,1,0-1c0-.27.19-.47.46-.74-.19-.2-.27-.35-.46-.55a6.09,6.09,0,0,0-.94-.54,3.27,3.27,0,0,1-.7-.35L42,56.6l-.24-.08c-1.25-.19-.27,1.45-1.17,1.64-1,.55-1.48-.47-2-.93-.89-1.37.82-2.19,1.21-3.48-.66-.82-1.67-1.91-2.84-1.48a1.26,1.26,0,0,0,.54,1.48c0,1.49-1.56,1.49-2.57,1.92-1.29.27-.08,1.28.27,1.83-.82,1.83,2.5,1.48,1.68,3.24.15.27.35.89.82.7,1.17-1.17,2.46.19,3.66.27-.54,1.68-2.84,2.85-3.23,4.8.58,3.94-4,5-6.32,7.06-.16.15-.55.62-.08.9C34.44,73.3,37.48,72,39.24,69c-.36-2.31,1.17-3.9,2.77-5.54"/></g></g></svg>