<svg xmlns="http://www.w3.org/2000/svg" xmlns:xlink="http://www.w3.org/1999/xlink" viewBox="0 0 133.3 192.19"><defs><style>.cls-1{mask:url(#mask);filter:url(#luminosity-noclip-2);}.cls-2{mix-blend-mode:multiply;fill:url(#linear-gradient);}.cls-3{font-size:27.72px;font-family:MHeiGB5-Bold, MHeiGB5 Bold;font-weight:700;}.cls-3,.cls-4{fill:#fff;}.cls-5{fill:#385cad;}.cls-6{mask:url(#mask-2);}.cls-7{fill:url(#linear-gradient-2);}.cls-8{fill:#bdcae0;}.cls-9{fill:#2b5597;}.cls-10{fill:#202945;}.cls-11{fill:#898a8d;}.cls-12{fill:#243746;}.cls-13{filter:url(#luminosity-noclip);}</style><filter id="luminosity-noclip" x="34.57" y="-7656.66" width="32.08" height="32766" filterUnits="userSpaceOnUse" color-interpolation-filters="sRGB"><feFlood flood-color="#fff" result="bg"/><feBlend in="SourceGraphic" in2="bg"/></filter><mask id="mask" x="34.57" y="-7656.66" width="32.08" height="32766" maskUnits="userSpaceOnUse"><g class="cls-13"/></mask><linearGradient id="linear-gradient" x1="17.93" y1="28.57" x2="60.98" y2="71.62" gradientUnits="userSpaceOnUse"><stop offset="0" stop-color="#fff"/><stop offset="1"/></linearGradient><filter id="luminosity-noclip-2" x="34.57" y="35.12" width="32.08" height="77.22" filterUnits="userSpaceOnUse" color-interpolation-filters="sRGB"><feFlood flood-color="#fff" result="bg"/><feBlend in="SourceGraphic" in2="bg"/></filter><mask id="mask-2" x="34.57" y="35.12" width="32.08" height="77.22" maskUnits="userSpaceOnUse"><g class="cls-1"><path id="白色渐变" class="cls-2" d="M36,36.4c-.56.57-1.47,1.4-1.47,5.33V70.6c.17,8.52,2.57,14.69,7,22.12,7,10.85,18,18.55,25.08,19.62V35.12H41.19C37.54,35.12,36.69,35.76,36,36.4Z"/></g></mask><linearGradient id="linear-gradient-2" x1="17.93" y1="28.57" x2="60.98" y2="71.62" gradientUnits="userSpaceOnUse"><stop offset="0" stop-color="#fff"/><stop offset="1" stop-color="#fff"/></linearGradient></defs><title>Asset 34</title><g id="Layer_2" data-name="Layer 2"><g id="Layer_1-2" data-name="Layer 1"><path class="cls-4" d="M129.2,90.17c2.18-5.26,3.05-11.68-1-13.94a5,5,0,0,0-2.43-.61c-.2-5.56-2.6-11.41-9.45-15.84-1.47-1.07-.46-4.42,1.36-4.42s5.18,0,6.42-1a6.84,6.84,0,0,0,2.66-6l-.06-.33a30.87,30.87,0,0,0-2.58-8.4c-3.77-8.14-10.93-15.63-21.27-22.28-4.76-3.06-13.38-6.19-20-8.34A22.71,22.71,0,0,0,43.94,25c0,.58,0,1.17.06,1.75H29.78a2.68,2.68,0,0,0-2.68,2.68V45.65c-2.6.69-4.15,1.2-4.4,1.28l-2.47.86A2.69,2.69,0,0,0,18.53,51l1.68,6.16A44.54,44.54,0,0,0,13,62.76l-1.56,1.47c-1.51,1.4-3.84,6.16-3.84,11.39a4.72,4.72,0,0,0-2.43.61c-4.07,2.26-3.2,8.68-1,13.94q.47,1.13,1,2.13c-2.7,3.53.27,9.09,4,13.18.54.6,1.1,1.16,1.65,1.67-1.19,4,3,8.35,7.45,11.23.65.41,1.3.79,1.93,1.13-.06,4.12,5.05,7.24,10.12,8.83.38.12.77.24,1.14.34,1.13,3.64,6.36,5.63,11.33,6.3a26.77,26.77,0,0,0,3.12.24c.71,1.41,2.29,2.88,5.72,3.23a6.09,6.09,0,0,0,1.92,4,6.38,6.38,0,0,0,5.67,1.67c1.26-.26,2.47-.76,6.56-4.94l.93-1,.93,1c4.09,4.18,5.3,4.68,6.57,4.94a6.37,6.37,0,0,0,5.66-1.67,6.09,6.09,0,0,0,1.92-4c3.43-.35,5-1.82,5.72-3.23a26.77,26.77,0,0,0,3.12-.24c5-.67,10.2-2.66,11.33-6.3.37-.1.76-.22,1.14-.34,5.07-1.59,10.18-4.71,10.12-8.83.63-.34,1.28-.72,1.93-1.13,4.5-2.88,8.64-7.25,7.45-11.23.55-.51,1.11-1.07,1.65-1.67,3.76-4.09,6.73-9.65,4-13.18C128.57,91.63,128.89,90.92,129.2,90.17Z"/><path id="外轮廓" class="cls-5" d="M31.85,31.49V70.35c.19,9.24,2.8,16,7.6,24C47,106.13,59.18,114.5,66.87,115.66,74,114.37,83.25,107.4,91,97.29a44.62,44.62,0,0,0,9.75-28.68V31.49Z"/><path id="左半外轮廓" class="cls-5" d="M36,36.4c-.56.57-1.47,1.4-1.47,5.33V70.6c.17,8.52,2.57,14.69,7,22.12,7,10.85,18,18.55,25.08,19.62V35.12H41.19C37.54,35.12,36.69,35.76,36,36.4Z"/><g class="cls-6"><path id="白色渐变-2" data-name="白色渐变" class="cls-7" d="M36,36.4c-.56.57-1.47,1.4-1.47,5.33V70.6c.17,8.52,2.57,14.69,7,22.12,7,10.85,18,18.55,25.08,19.62V35.12H41.19C37.54,35.12,36.69,35.76,36,36.4Z"/></g><path id="右半轮廓" class="cls-4" d="M97.26,36.4c.56.57,1.47,1.4,1.47,5.33V70.6c-.17,8.52-2.57,14.69-7,22.12-7,10.85-18,18.55-25.08,19.62V35.12H92.11C95.76,35.12,96.61,35.76,97.26,36.4Z"/><path id="蓝色船锚" class="cls-5" d="M89.31,93.52c-.65-.41-5.45.85-5.84,2.38-.17.66,1.49,2.3,1.49,2.3s-6.84,6.29-9.83,5.67S70.61,102.28,70,100a65.67,65.67,0,0,1-1.56-15c0-4,.08-5.65.15-9h3.24V73.31H68.69c0-1.25,0-2,0-2A4.67,4.67,0,0,0,71.36,67c0-3-2.32-4.38-4.62-4.47h-.17C64.27,62.66,62,64,62,67a4.67,4.67,0,0,0,2.62,4.26s0,.76,0,2H61.45V76h3.24c.07,3.39.14,5,.14,9a65.08,65.08,0,0,1-1.56,15c-.56,2.27-2.11,3.24-5.09,3.86s-9.82-5.67-9.82-5.67,1.66-1.64,1.49-2.3c-.4-1.53-5.2-2.79-5.85-2.38s-.54,2.08,1.09,2.8c.58.25,1.47,3,1.47,3s8.3,9.65,11.85,10.35c3.07.6,8.22,4.17,8.25,4.15s5.18-3.55,8.25-4.15c3.54-.7,11.85-10.35,11.85-10.35a10.63,10.63,0,0,0,.79.74c.46.39,2.49-2.15,2.35-4A4.71,4.71,0,0,0,89.31,93.52Zm-22.57-24h-.17a1.6,1.6,0,0,1-2.23-1.62,2.32,2.32,0,0,1,4.64,0A1.6,1.6,0,0,1,66.74,69.5Z"/><path id="白色船锚" class="cls-4" d="M66.66,62.56h-.09C64.27,62.66,62,64,62,67a4.67,4.67,0,0,0,2.62,4.26s0,.76,0,2H61.45V76h3.24c.07,3.39.14,5,.14,9a65.08,65.08,0,0,1-1.56,15c-.56,2.27-2.11,3.24-5.09,3.86s-9.82-5.67-9.82-5.67,1.66-1.64,1.49-2.3c-.4-1.53-5.2-2.79-5.85-2.38a3.7,3.7,0,0,0-.54,1.94c1.56,2.1,2.56,3.13,3.12,3.81a50.71,50.71,0,0,0,12.27,10.09,24.14,24.14,0,0,0,7.81,3S66.69,62.56,66.66,62.56Zm0,6.94h-.09a1.6,1.6,0,0,1-2.23-1.62,2.26,2.26,0,0,1,2.32-2.23Z"/><g id="后条幅"><path class="cls-5" d="M16.21,66.23c2,2,4.69,4.62,4.69,4.62s-.12,2-.39,8.85c7-6.81,12.11-7.25,12.11-7.25l0-15.14S24.71,58.23,16.21,66.23Z"/><path class="cls-4" d="M19.19,66.2c2,2,3.86,3.8,3.86,3.8s-.17-1.52-.44,5.39a30.17,30.17,0,0,1,10-5.55l0-10.27A24.31,24.31,0,0,0,19.19,66.2Z"/></g><g id="后条幅-2" data-name="后条幅"><path class="cls-5" d="M116.55,66.23c-2,2-4.69,4.62-4.69,4.62s.12,2,.39,8.85c-7-6.81-12.11-7.25-12.11-7.25l0-15.14S108,58.23,116.55,66.23Z"/><path class="cls-4" d="M113.57,66.2c-2,2-3.86,3.8-3.86,3.8s.16-1.52.43,5.39a30.17,30.17,0,0,0-10-5.55l0-10.27A24.34,24.34,0,0,1,113.57,66.2Z"/></g><path id="字幅" class="cls-5" d="M24.24,51.43,29,69a124,124,0,0,1,37.62-5.83A126.38,126.38,0,0,1,104.49,69l4.78-17.54s-16.6-6.31-42.62-6.31A149.59,149.59,0,0,0,24.24,51.43Z"/><path id="白字幅" class="cls-4" d="M26.79,52.61l3.65,13.75A139.6,139.6,0,0,1,66.66,61.5a142.26,142.26,0,0,1,36.42,4.86l3.65-13.75s-15.47-5.75-40.07-5.75A143.49,143.49,0,0,0,26.79,52.61Z"/><path class="cls-5" d="M31.08,54.91l2.09-.47A2.83,2.83,0,0,1,37,56.82q.66,3-2.39,3.75L32.47,61Zm2.45,4.81.7-.15c1.22-.24,1.67-1,1.33-2.43s-1.05-2-2.26-1.65l-.69.16Z"/><path class="cls-5" d="M38.11,59.79l1.25-6.57L40.94,53l3.18,5.85L42.77,59l-.68-1.23-2.45.39-.25,1.38Zm3.48-3L40.32,54.3h0l-.48,2.8Z"/><path class="cls-5" d="M44.79,58.76,44,52.51l1.31-.15L46,57.55l2.7-.33.13,1.05Z"/><path class="cls-5" d="M50.88,58.08l-1.36.13L48.91,52l1.35-.13Z"/><path class="cls-5" d="M51.48,58l1.81-6.44,1.6-.11,2.66,6.1-1.36.1-.57-1.28-2.48.18-.37,1.35Zm3.72-2.66-1-2.62h0l-.72,2.74Z"/><path class="cls-5" d="M61.93,57.39l-2.64-5.14,0,0,.19,5.2-1.26,0L58,51.24l2-.07L62.52,56l0,0-.18-4.93,1.25,0,.23,6.28Z"/><path class="cls-5" d="M71.5,55.32l-2-4.31,1.6.05L72.29,54l1.4-2.85,1.36,0-2.23,4.19,0,2-1.33,0Z"/><path class="cls-5" d="M76.87,57.58l-1.36-.07.35-6.28,1.35.08Z"/><path class="cls-5" d="M78,57.64l.5-6.26,4,.32-.08,1-2.71-.22L79.61,54l2.54.2-.09,1.05-2.54-.2-.21,2.68Z"/><path class="cls-5" d="M82.3,58l3-6,1.59.19,1.44,6.5L87,58.54l-.31-1.37-2.47-.3-.63,1.26Zm4.16-1.89-.52-2.77h0l-1.23,2.56Z"/><path class="cls-5" d="M92.65,59.46l-1.49-5.59,0,0L90.21,59,89,58.8l1.1-6.19L92,53l1.48,5.3,0,0,.86-4.86,1.24.22-1.1,6.19Z"/><path class="cls-5" d="M99.09,58.5l.26-1,2.47.62-.77,3.06a4.73,4.73,0,0,1-1.4-.14,10.06,10.06,0,0,1-1.4-.28c-1.84-.57-2.54-1.85-2.09-3.81s1.76-2.82,3.66-2.48,2.7,1.37,2.34,2.68l-1.38-.34c.17-.68-.15-1.13-1-1.33-1.13-.26-1.89.35-2.28,1.81s0,2.34,1.16,2.64a7.16,7.16,0,0,0,1.19.16s0,0,.07,0l.32-1.28Z"/><g id="足球"><path class="cls-4" d="M84.61,25.5c-.49-.14,0,.51-.07,1A18.18,18.18,0,0,1,83.6,31c-.21.59-1.68.49-1.94,1.05s.56,2,.17,2.59c-.19.29-.38.58-.58.86A18,18,0,1,1,82,15.61c.24.4,5.2,1.83,5.34,2.35s-4.52.19-4,.28c5.15.93,13,5.08,13.2,5.61.21.7-12.27-2.64-12.15-1.9.05.32-.18.91.14,1,4.61.61,14.22,6.25,14.24,6.81C98.73,29.86,87.78,26.41,84.61,25.5Z"/><path id="_Path_" data-name="&lt;Path&gt;" class="cls-5" d="M81.19,31.39s10.18,1.51,18.08,5.23C107.61,40.56,114,48.2,114,48.2a31.55,31.55,0,0,0-6.9-10C103.35,34.59,96.36,31,96.36,31a55.8,55.8,0,0,1,13,6.14c5.48,3.79,12.71,12,12.71,12s-1.7-14.81-21.78-27.71c-6.62-4.25-22.84-9-22.84-9l2.38,3.42s1.93.54,2.67.82S85,17.81,85,17.81l-2.2-.11-2.11-.1.43.67s4.48,1,5.72,1.45a30.71,30.71,0,0,1,7.49,3.69s-4.67-1.85-8.49-2.91c-1.82-.5-4.12-1-4.12-1s.79,3.14.79,3.32c0,.39,3.18,1.1,5.86,2a36.22,36.22,0,0,1,8.36,3.95,57.52,57.52,0,0,0-8.91-3c-3-.61-5.31-1.1-5.31-1.1Z"/><circle id="_Path_2" data-name="&lt;Path&gt;" class="cls-4" cx="66.86" cy="25.02" r="16.29" transform="translate(1.89 54.61) rotate(-45)"/><path class="cls-5" d="M66.86,42v0a17,17,0,0,1-.69-33.94h1.38A17,17,0,0,1,66.86,42Zm0-1.38h0a15.6,15.6,0,1,0,0-31.19h0a15.6,15.6,0,0,0,0,31.19Z"/><path id="_Path_3" data-name="&lt;Path&gt;" class="cls-5" d="M53.46,16.75l1.59,0,7.41-5.5.45-1.41a18.47,18.47,0,0,1,4-.49,25.9,25.9,0,0,1,3.78.42L71,11l7.59,5.42,1.55.07a25.6,25.6,0,0,1,1.79,3.62,14.55,14.55,0,0,1,.64,3.82l-1.11.68-2.84,8.9.44,1.5a16.61,16.61,0,0,1-3,2.93,11.72,11.72,0,0,1-3.34,1.74l-1-.93s-9.41.11-9.45.09-1.16,1-1.16,1a20.48,20.48,0,0,1-3.53-2.06A19.51,19.51,0,0,1,54.67,35l.64-1.21-3-8.84-1.19-.83a13.86,13.86,0,0,1,.7-3.75A19,19,0,0,1,53.46,16.75Z"/><polygon id="_Path_4" data-name="&lt;Path&gt;" class="cls-4" points="76.88 21.33 78.26 16.73 70.88 11.56 67.07 14.37 67.07 18.81 72.6 22.91 76.88 21.33"/><path id="_Path_5" data-name="&lt;Path&gt;" class="cls-4" d="M78.22,33.19s2.67-8.52,2.67-8.52L77,22l-4.23,1.32L70.64,30l2.56,3.26Z"/><path id="_Path_6" data-name="&lt;Path&gt;" class="cls-4" d="M62.5,38.12h9l1.31-4.45-2.6-3.36h-6.9s-2.37,3.32-2.38,3.36Z"/><path id="_Path_7" data-name="&lt;Path&gt;" class="cls-4" d="M55.67,33.37s4.84-.08,4.87-.1,2.35-3.42,2.35-3.42l-2.13-6.39-4-1.57-4,2.95Z"/><polygon id="_Path_8" data-name="&lt;Path&gt;" class="cls-4" points="57 21.45 60.7 22.91 66.46 18.53 66.56 14.35 62.76 11.65 55.43 17.06 57 21.45"/><path id="_Path_9" data-name="&lt;Path&gt;" class="cls-8" d="M54.18,17.33a4.82,4.82,0,0,0-.39.61,2.63,2.63,0,0,0-.26.7l.71-1.05Z"/><path class="cls-4" d="M53.53,18.86l-.08,0a.23.23,0,0,1-.14-.24,3.22,3.22,0,0,1,.29-.77,4.45,4.45,0,0,1,.41-.64.23.23,0,0,1,.23-.08.23.23,0,0,1,.16.17l.05.26a.17.17,0,0,1,0,.17l-.7,1.05A.26.26,0,0,1,53.53,18.86Z"/><path id="_Path_10" data-name="&lt;Path&gt;" class="cls-8" d="M64.31,10.74a1.87,1.87,0,0,1,.48-.41c.23-.15.32-.2.42-.2a.38.38,0,0,1,.18,0s-.35.15-.56.26Z"/><path class="cls-4" d="M64.31,11a.2.2,0,0,1-.16-.07.23.23,0,0,1,0-.28h0a1.66,1.66,0,0,1,.52-.46,1,1,0,0,1,.54-.23.58.58,0,0,1,.29.08.23.23,0,0,1,.11.2.24.24,0,0,1-.13.19,5.31,5.31,0,0,0-.54.26c-.2.1-.51.29-.51.29Z"/><path id="_Path_11" data-name="&lt;Path&gt;" class="cls-4" d="M79.07,17.55l-.17.92s.11-.26.24-.49a2.22,2.22,0,0,1,.19-.33.15.15,0,0,0-.1-.19A.11.11,0,0,0,79.07,17.55Z"/><path class="cls-4" d="M78.9,18.69h-.06a.22.22,0,0,1-.16-.25l.17-.92a.34.34,0,0,1,.33-.28.25.25,0,0,1,.12,0,.37.37,0,0,1,.24.46.21.21,0,0,1,0,.07,2.21,2.21,0,0,0-.18.3c-.12.22-.23.48-.23.48A.21.21,0,0,1,78.9,18.69Z"/><path id="_Path_12" data-name="&lt;Path&gt;" class="cls-4" d="M62.58,25.06a2.52,2.52,0,0,1-.17-1.89A5.3,5.3,0,0,1,65.2,21a6.45,6.45,0,0,0-1.94,2.16A9.45,9.45,0,0,0,62.58,25.06Z"/><path class="cls-4" d="M62.58,25.28a.23.23,0,0,1-.2-.12,2.71,2.71,0,0,1-.17-2.09,5.48,5.48,0,0,1,2.92-2.27.23.23,0,0,1,.27.12.22.22,0,0,1-.08.28,6.06,6.06,0,0,0-1.87,2.08,9.11,9.11,0,0,0-.66,1.83.22.22,0,0,1-.19.17ZM63.84,22a3.75,3.75,0,0,0-1.24,1.32,1.61,1.61,0,0,0,0,1.06,7.08,7.08,0,0,1,.51-1.26A5.78,5.78,0,0,1,63.84,22Z"/><path id="_Path_13" data-name="&lt;Path&gt;" class="cls-5" d="M81.35,32.4c.11-.07,15.77,6.7,15.77,6.7s-5.79-1.44-10.31-2.8c-2.46-.74-4.79-.88-5-.53s.8.56,1.86,1c2,.86,6.2,2.53,6.2,2.53L78.44,37.09Z"/></g><g id="青藤"><path id="_Path_14" data-name="&lt;Path&gt;" class="cls-9" d="M13.54,84.26c-.28,0-2-1.94-1.3-7.8S14.88,69,15.17,69s2.24,2.14,1.27,8.64C15.64,83,13.9,84.26,13.54,84.26Z"/><path id="_Path_15" data-name="&lt;Path&gt;" class="cls-9" d="M15.09,94.43c-.27-.05-1.56-2.29.23-7.91s4-6.83,4.31-6.77,1.79,2.52-.42,8.72C17.39,93.58,15.44,94.5,15.09,94.43Z"/><path id="_Path_16" data-name="&lt;Path&gt;" class="cls-9" d="M13.41,94.55c-.25.13-2.67-.75-4.92-6.2s-1.31-7.82-1.07-8,3,.78,5.3,7C14.62,92.42,13.72,94.37,13.41,94.55Z"/><path id="_Path_17" data-name="&lt;Path&gt;" class="cls-9" d="M19.36,106.4c-.19.21-2.76.21-6.75-4.13s-3.92-6.9-3.73-7.11,3.08-.3,7.36,4.7C19.77,104,19.59,106.13,19.36,106.4Z"/><path id="_Path_18" data-name="&lt;Path&gt;" class="cls-9" d="M21,105.69c-.27,0-2.23-1.64-2.42-7.53s1.51-7.78,1.8-7.83,2.52,1.79,2.52,8.37C22.91,104.12,21.38,105.64,21,105.69Z"/><path id="_Path_19" data-name="&lt;Path&gt;" class="cls-9" d="M29.7,115.66c-.26.11-2.58-1-4.28-6.66s-.53-7.91-.27-8,2.9,1.07,4.58,7.44C31.12,113.66,30,115.52,29.7,115.66Z"/><path id="_Path_20" data-name="&lt;Path&gt;" class="cls-9" d="M28.36,116.63c-.13.25-2.62.91-7.59-2.26s-5.56-5.65-5.43-5.91,2.9-1.08,8.32,2.65C28.13,114.18,28.52,116.3,28.36,116.63Z"/><path id="_Path_21" data-name="&lt;Path&gt;" class="cls-9" d="M39.6,124c-.06.28-2.29,1.57-7.91-.2s-6.84-4-6.79-4.3,2.52-1.79,8.73.4C38.74,121.71,39.67,123.66,39.6,124Z"/><path id="_Path_22" data-name="&lt;Path&gt;" class="cls-9" d="M40.63,122.51c-.21.18-2.75-.25-6-5.2s-2.71-7.45-2.49-7.63,3.09.22,6.47,5.86C41.44,120.19,40.91,122.28,40.63,122.51Z"/><path id="_Path_23" data-name="&lt;Path&gt;" class="cls-9" d="M51.19,129.12c0,.28-2,1.93-7.83,1.14s-7.42-2.78-7.42-3.07,2.18-2.2,8.67-1.1C50,127,51.19,128.75,51.19,129.12Z"/><path id="_Path_24" data-name="&lt;Path&gt;" class="cls-9" d="M52,127.45c-.18.21-2.76.23-6.78-4.08s-4-6.86-3.79-7.08,3.08-.32,7.4,4.65C52.39,125,52.23,127.17,52,127.45Z"/><path id="_Path_25" data-name="&lt;Path&gt;" class="cls-9" d="M65.18,127.18c-.09.27-2.47,1.23-7.8-1.29s-6.22-4.92-6.13-5.19,2.74-1.43,8.59,1.59C64.66,124.78,65.3,126.84,65.18,127.18Z"/><path id="_Path_26" data-name="&lt;Path&gt;" class="cls-9" d="M64.93,129.11c.1.26-1.12,2.53-6.84,4s-7.92.2-8-.07,1.19-2.85,7.62-4.26C63,127.61,64.8,128.77,64.93,129.11Z"/><path id="_Path_27" data-name="&lt;Path&gt;" class="cls-9" d="M65.74,131.92c0-.24-.5-.53-.7-.43-1.73.84-8.6,5.84-8.71,6.53a1.57,1.57,0,0,0,1.89,1.48C59.23,139.29,65.63,132.63,65.74,131.92Z"/><path id="_Path_28" data-name="&lt;Path&gt;" class="cls-9" d="M119.76,84.26c.28,0,2-1.94,1.3-7.8S118.42,69,118.13,69s-2.24,2.14-1.27,8.64C117.66,83,119.4,84.26,119.76,84.26Z"/><path id="_Path_29" data-name="&lt;Path&gt;" class="cls-9" d="M118.21,94.43c.27-.05,1.56-2.29-.23-7.91s-4-6.83-4.31-6.77-1.79,2.52.42,8.72C115.91,93.58,117.86,94.5,118.21,94.43Z"/><path id="_Path_30" data-name="&lt;Path&gt;" class="cls-9" d="M119.89,94.55c.25.13,2.67-.75,4.92-6.2s1.31-7.82,1.07-8-3,.78-5.3,7C118.68,92.42,119.58,94.37,119.89,94.55Z"/><path id="_Path_31" data-name="&lt;Path&gt;" class="cls-9" d="M113.94,106.4c.19.21,2.76.21,6.75-4.13s3.92-6.9,3.73-7.11-3.08-.3-7.36,4.7C113.53,104,113.71,106.13,113.94,106.4Z"/><path id="_Path_32" data-name="&lt;Path&gt;" class="cls-9" d="M112.28,105.69c.27,0,2.23-1.64,2.42-7.53s-1.51-7.78-1.8-7.83-2.52,1.79-2.52,8.37C110.39,104.12,111.92,105.64,112.28,105.69Z"/><path id="_Path_33" data-name="&lt;Path&gt;" class="cls-9" d="M103.6,115.66c.26.11,2.58-1,4.28-6.66s.53-7.91.27-8-2.9,1.07-4.58,7.44C102.18,113.66,103.27,115.52,103.6,115.66Z"/><path id="_Path_34" data-name="&lt;Path&gt;" class="cls-9" d="M104.94,116.63c.13.25,2.62.91,7.59-2.26s5.56-5.65,5.43-5.91-2.9-1.08-8.32,2.65C105.17,114.18,104.78,116.3,104.94,116.63Z"/><path id="_Path_35" data-name="&lt;Path&gt;" class="cls-9" d="M93.7,124c.06.28,2.29,1.57,7.91-.2s6.84-4,6.79-4.3-2.52-1.79-8.73.4C94.56,121.71,93.63,123.66,93.7,124Z"/><path id="_Path_36" data-name="&lt;Path&gt;" class="cls-9" d="M92.67,122.51c.21.18,2.75-.25,6-5.2s2.71-7.45,2.49-7.63-3.09.22-6.47,5.86C91.86,120.19,92.39,122.28,92.67,122.51Z"/><path id="_Path_37" data-name="&lt;Path&gt;" class="cls-9" d="M82.11,129.12c0,.28,2,1.93,7.83,1.14s7.42-2.78,7.42-3.07-2.18-2.2-8.67-1.1C83.35,127,82.11,128.75,82.11,129.12Z"/><path id="_Path_38" data-name="&lt;Path&gt;" class="cls-9" d="M81.3,127.45c.18.21,2.76.23,6.78-4.08s4-6.86,3.79-7.08-3.08-.32-7.4,4.65C80.91,125,81.07,127.17,81.3,127.45Z"/><path id="_Path_39" data-name="&lt;Path&gt;" class="cls-9" d="M68.12,127.18c.09.27,2.47,1.23,7.8-1.29s6.22-4.92,6.13-5.19-2.74-1.43-8.59,1.59C68.64,124.78,68,126.84,68.12,127.18Z"/><path id="_Path_40" data-name="&lt;Path&gt;" class="cls-9" d="M68.37,129.11c-.1.26,1.12,2.53,6.84,4s7.92.2,8-.07-1.19-2.85-7.62-4.26C70.31,127.61,68.5,128.77,68.37,129.11Z"/><path id="_Path_41" data-name="&lt;Path&gt;" class="cls-9" d="M67.56,131.92c0-.24.5-.53.7-.43,1.73.84,8.6,5.84,8.71,6.53a1.57,1.57,0,0,1-1.89,1.48C74.07,139.29,67.67,132.63,67.56,131.92Z"/></g><polygon class="cls-10" points="26.39 59.28 25.79 59.57 26.29 61.4 26.89 61.14 26.39 59.28"/><polygon class="cls-10" points="32.61 67.86 32.61 68.61 34.57 68.08 34.57 67.32 32.61 67.86"/><path class="cls-10" d="M66.66,63.14V64l3.65.07a4.39,4.39,0,0,0-.57-.52,6.64,6.64,0,0,0-.62-.39Z"/><path class="cls-11" d="M32.61,67.86C30.3,68.52,29,69,29,69l-2.14-7.84-.6.26,2.3,8.45s1.45-.51,4-1.23Z"/><path class="cls-12" d="M34.57,68.08a129.8,129.8,0,0,1,28.46-4,4.27,4.27,0,0,1,1.18-.89,129.85,129.85,0,0,0-29.64,4.15Z"/><path class="cls-11" d="M26.38,59.29,24.43,52.1l-.62.2,2,7.27Z"/><path class="cls-11" d="M66.66,64l-3.63,0a4,4,0,0,1,1.18-.89l2.45,0Z"/><path class="cls-11" d="M98.74,67.29a131.69,131.69,0,0,0-29.63-4.12,4.13,4.13,0,0,1,1.2.92,132,132,0,0,1,28.42,4.18Z"/><path class="cls-11" d="M100.14,68.65c2.51.7,3.92,1.19,3.92,1.19l.25-.93c-.48-.16-1.93-.64-4.16-1.25Z"/><polygon class="cls-10" points="98.73 67.3 98.73 68.27 100.14 68.65 100.15 67.66 98.73 67.3"/><path class="cls-5" d="M131.31,91c3.25-7.87,2.48-14.3-2-16.8a7.93,7.93,0,0,0-1.41-.59c-.76-6.34-4.19-11.69-10-15.56a1.74,1.74,0,0,1,.13-.46c2.9,0,5.82-.16,7.46-1.41A9.05,9.05,0,0,0,129,48.31v-.15l-.08-.47a33.48,33.48,0,0,0-2.76-9c-4-8.53-11.4-16.35-22.11-23.24C99.19,12.35,90.59,9.2,84,7.05A25,25,0,0,0,41.67,24.46H29.78a5,5,0,0,0-5,5V43.91c-1.63.46-2.62.79-2.87.87l-2.47.86a5,5,0,0,0-3.14,6l1.24,4.55a47.79,47.79,0,0,0-6.19,4.93L9.84,62.56c-1.93,1.78-4,6.32-4.47,11.1A7.23,7.23,0,0,0,4,74.24C-.49,76.74-1.26,83.17,2,91c.16.39.33.77.5,1.14C.61,96.09,2.37,101.51,7.43,107c.29.32.58.63.88.92C8,112,11.1,116.54,17,120.3c.33.21.67.42,1,.61.76,4,5,7.52,11.59,9.6l.14.05c2.45,4.79,9.58,6.25,12.7,6.67.74.1,1.46.17,2.16.22a8.62,8.62,0,0,0,5.05,3,8.51,8.51,0,0,0,2.28,3.7,8.64,8.64,0,0,0,6,2.42,8.83,8.83,0,0,0,1.7-.17c1.85-.37,3.37-1.19,7-4.87,3.67,3.68,5.19,4.5,7,4.87a8.62,8.62,0,0,0,7.69-2.25,8.51,8.51,0,0,0,2.28-3.7,8.59,8.59,0,0,0,5-3c.7,0,1.42-.12,2.16-.22,3.12-.42,10.25-1.88,12.7-6.67l.14-.05c6.63-2.08,10.83-5.6,11.59-9.6.33-.19.67-.4,1-.61,5.89-3.76,9-8.28,8.68-12.36.3-.29.59-.6.88-.92,5.06-5.5,6.82-10.92,4.94-14.84C131,91.81,131.15,91.43,131.31,91ZM127.1,89.3c-.28.68-.59,1.34-.9,2l-.66,1.28.87,1.14c1.73,2.27-.71,6.79-3.89,10.26-.51.55-1,1.07-1.53,1.54l-1,1,.41,1.36c.78,2.62-2.7,6.23-6.5,8.66-.6.38-1.19.73-1.77,1l-1.23.65,0,1.39c0,2.71-4.25,5.28-8.52,6.63-.36.11-.71.22-1.06.31l-1.21.33-.37,1.2c-.66,2.15-4.46,4-9.45,4.71a27.21,27.21,0,0,1-2.86.23L86,133l-.61,1.22c-.57,1.11-1.89,1.78-3.94,2l-1.93.2-.11,1.94a3.81,3.81,0,0,1-1.21,2.53A4.15,4.15,0,0,1,75.38,142a4.22,4.22,0,0,1-.79-.07c-.62-.13-1.47-.3-5.38-4.3l-.91-.94-1.65-1.75L65,136.69l-.91.94c-3.91,4-4.76,4.17-5.38,4.3a4.25,4.25,0,0,1-.8.07,4.13,4.13,0,0,1-2.85-1.15,3.81,3.81,0,0,1-1.21-2.53l-.11-1.94-1.93-.2c-2-.21-3.37-.88-3.93-2L47.26,133l-1.37,0a27,27,0,0,1-2.86-.23c-5-.67-8.79-2.56-9.45-4.71l-.37-1.2L32,126.48l-1.06-.31c-4.27-1.35-8.56-3.92-8.52-6.63l0-1.39-1.23-.65c-.57-.31-1.17-.66-1.77-1-3.8-2.43-7.28-6-6.5-8.66l.41-1.36-1-1c-.51-.47-1-1-1.53-1.54-3.18-3.47-5.62-8-3.89-10.26l.87-1.14L7.1,91.26c-.31-.62-.62-1.28-.9-2-1.85-4.48-2.56-9.64,0-11.07a2.44,2.44,0,0,1,1.2-.33L9.83,78V75.62c0-4.81,2.22-8.9,3.11-9.72l1.57-1.48a42,42,0,0,1,6.89-5.28l1.46-.9-2.13-7.81a.42.42,0,0,1,.25-.49l2.48-.86c.12,0,1.65-.54,4.23-1.23l1.69-.46v-18a.4.4,0,0,1,.4-.4H46.46l-.18-2.46c0-.52-.06-1-.06-1.57a20.42,20.42,0,0,1,35-14.34l.39.39.53.18c9.11,3,15.84,5.75,19.47,8.09,10,6.4,16.86,13.58,20.45,21.31a29.54,29.54,0,0,1,2.4,7.83l0,.17a4.56,4.56,0,0,1-1.78,4c-.34.21-1.52.48-5,.48a4.42,4.42,0,0,0-4.06,3.33A4.56,4.56,0,0,0,115,61.63l.1.06c5.37,3.48,8.2,8.19,8.4,14l.08,2.21h2.21a2.64,2.64,0,0,1,1.32.33C129.66,79.66,129,84.82,127.1,89.3Z"/></g></g></svg>