<svg xmlns="http://www.w3.org/2000/svg" viewBox="0 0 127.09 189.69"><defs><style>.cls-1{font-size:27.72px;font-family:MHeiGB5-Bold, MHeiGB5 Bold;font-weight:700;}.cls-1,.cls-4{fill:#fff;}.cls-2{fill:#ea2127;}.cls-3,.cls-6{fill:#ffca07;}.cls-5,.cls-7{fill:#f5f2f5;}.cls-6,.cls-7{fill-rule:evenodd;}</style></defs><title>Asset 32</title><g id="Layer_2" data-name="Layer 2"><g id="Layer_1-2" data-name="Layer 1"><path class="cls-2" d="M124.59,28.64,123.7,24h-4.77c-32.61,0-51.14-18-51.31-18.21L63.54,1.62,59.45,5.74C59.27,5.93,41,24,8.14,24H3.37l-.89,4.69A122.89,122.89,0,0,0,4,73.45C8.94,96,22.86,126.5,61.12,144.18l2.42,1.12L66,144.18C104.21,126.5,118.13,96,123.07,73.45a122.89,122.89,0,0,0,1.52-44.81Z"/><path class="cls-2" d="M63.53,146.56l-2.89-1.34C22,127.34,7.88,96.45,2.88,73.69A124.73,124.73,0,0,1,1.36,28.43l1.07-5.62H8.14c32.3,0,50.32-17.69,50.49-17.87L63.53,0l4.91,4.94c.73.72,18.71,17.87,50.49,17.87h5.72l1.06,5.62a123.49,123.49,0,0,1-1.52,45.26c-5,22.76-19.07,53.65-57.76,71.53ZM4.32,25.09l-.71,3.76A122.06,122.06,0,0,0,5.11,73.2c4.89,22.26,18.66,52.46,56.49,70l1.93.89,1.94-.89c37.84-17.49,51.6-47.69,56.49-69.95a120.82,120.82,0,0,0,1.5-44.35h0l-.71-3.76h-3.82c-32.7,0-51.33-17.77-52.1-18.53l-3.3-3.32L60.26,6.55c-.18.18-18.59,18.54-52.12,18.54Z"/><path class="cls-3" d="M121,31.31l-.84-4.41h-4.49C85,26.9,67.54,9.94,67.38,9.78L63.54,5.91,59.69,9.78C59.52,10,42.36,26.9,11.45,26.9H7l-.83,4.41A115.32,115.32,0,0,0,7.55,73.45C12.19,94.62,25.29,123.34,61.26,140L63.54,141,65.81,140c36-16.63,49.07-45.35,53.71-66.52A115.46,115.46,0,0,0,121,31.31Z"/><path class="cls-2" d="M116.72,35.19l-.78-4.08h-4.15c-28.41,0-44.54-15.71-44.69-15.86l-3.56-3.59L60,15.25c-.15.16-16,15.86-44.68,15.86H11.13l-.77,4.08a106.83,106.83,0,0,0,1.31,39C16,93.83,28.1,120.44,61.43,135.84l2.11,1,2.1-1c33.33-15.4,45.45-42,49.76-61.61a107.23,107.23,0,0,0,1.32-39Z"/><path class="cls-4" d="M11.48,31.05l-.71,3.73a107.38,107.38,0,0,0,1.32,38.86c4.28,19.52,16.35,46,49.52,61.32l1.92.89,1.93-.89c33.16-15.33,45.23-41.8,49.52-61.32a106.39,106.39,0,0,0,1.31-38.86l-.71-3.73h-3.8c-28.52,0-44.83-15.82-45-16l-3.26-3.29-3.25,3.28A51.65,51.65,0,0,1,48.5,23.13a72,72,0,0,1-33.22,7.92ZM63.53,136.8l-2.28-1.06c-33.49-15.48-45.67-42.21-50-61.91a107.94,107.94,0,0,1-1.32-39.2l.84-4.44h4.51c28.52,0,44.23-15.57,44.38-15.73l3.87-3.9,3.87,3.9c.16.15,16.23,15.73,44.38,15.73h4.52l.83,4.44a107.32,107.32,0,0,1-1.32,39.2c-4.32,19.7-16.51,46.43-50,61.91l-2.29,1.06Z"/><polygon class="cls-4" points="24.83 50.13 24.83 56.2 19.91 56.2 19.91 50.22 14.42 39.78 19.83 39.78 22.41 45.31 24.99 39.78 30.32 39.78 24.83 50.13 24.83 50.13"/><path class="cls-3" d="M20.34,55.8H24.4V50l5.23-9.86H25.27l-2.86,6.13-2.86-6.13H15.1l5.24,10V55.8Zm4.92.8H19.48V50.31L13.73,39.38h6.38l2.3,4.93,2.3-4.93H31L25.26,50.22V56.6Z"/><path class="cls-4" d="M37.44,50.58l-1.61-5.9-1.54,5.9Zm-4.6,5.62H28.07L33.4,39.78h4.93L43.66,56.2H38.81l-.56-2.14H33.4l-.56,2.14Z"/><path class="cls-3" d="M34.84,50.18h2l-1-3.84-1,3.84ZM38,51H33.75L35.81,43,38,51Zm1.16,4.82h3.93L38,40.18H33.72L28.65,55.8H32.5l.57-2.14h5.51l.57,2.14Zm5.08.8H38.48l-.57-2.14H33.74l-.57,2.14H27.5l5.58-17.22h5.57L44.23,56.6Z"/><polygon class="cls-4" points="49.05 39.78 54.38 48.7 54.21 44.95 54.21 39.78 58.9 39.78 58.9 56.2 54.3 56.2 48.97 47.27 49.21 51.02 49.21 56.2 44.53 56.2 44.53 39.78 49.05 39.78 49.05 39.78"/><path class="cls-3" d="M54.55,55.8h3.92V40.18H54.64V45l.24,5.41L48.79,40.18H45V55.8h3.83V51l-.35-5.47L54.55,55.8Zm4.78.8H54L49.51,49l.13,2v5.6H44.1V39.38h5.2L53.88,47,53.79,45V39.38h5.54V56.6Z"/><path class="cls-4" d="M67.35,49.33H65.82v3h2.1c1.45.06,2.15-.45,2.1-1.52.11-1.13-.78-1.63-2.67-1.51Zm.17-5.72h-1.7v2.68h2c1.13,0,1.7-.47,1.7-1.43s-.62-1.36-2-1.25Zm.64,12.59H60.9V39.78H68q6.14-.09,6.06,4.1a4.41,4.41,0,0,1-1.94,3.57,3.63,3.63,0,0,1,2.5,3.75q.07,5-6.46,5Z"/><path class="cls-3" d="M66.25,45.89h1.59c1.11,0,1.27-.49,1.27-1a.77.77,0,0,0-.17-.61A1.88,1.88,0,0,0,67.56,44H66.25v1.88Zm1.59.8H65.39V43.21H67.5a2.57,2.57,0,0,1,2.06.49,1.47,1.47,0,0,1,.4,1.18c0,1.16-.75,1.81-2.12,1.81ZM66.25,52h1.9a1.72,1.72,0,0,0,1.21-.33,1,1,0,0,0,.23-.78v0a.83.83,0,0,0-.19-.71,2.8,2.8,0,0,0-2-.38H66.25V52Zm1.9.8H65.39V48.93h2a3.35,3.35,0,0,1,2.69.63,1.59,1.59,0,0,1,.42,1.29A1.73,1.73,0,0,1,70,52.19a2.56,2.56,0,0,1-1.83.57Zm-6.83,3h6.84c2.27,0,3.91-.47,4.88-1.39a4.1,4.1,0,0,0,1.15-3.2c0-1.8-.77-2.9-2.21-3.38l-.74-.25.62-.44a4,4,0,0,0,1.77-3.27,3.11,3.11,0,0,0-.91-2.47c-.88-.85-2.48-1.26-4.71-1.22H61.32V55.8Zm6.84.8H60.47V39.38h7.78c2.35,0,4.06.5,5.09,1.47a3.94,3.94,0,0,1,1.15,3,4.8,4.8,0,0,1-1.58,3.45,4.08,4.08,0,0,1,2.14,3.85A4.84,4.84,0,0,1,73.66,55c-1.15,1.08-3,1.63-5.5,1.63Z"/><polygon class="cls-4" points="81.14 56.2 76.22 56.2 76.22 39.78 81.14 39.78 81.14 56.2 81.14 56.2"/><path class="cls-3" d="M76.65,55.8h4.06V40.18H76.65V55.8Zm4.92.8H75.79V39.38h5.78V56.6Z"/><path class="cls-4" d="M91.46,50.58l-1.62-5.9-1.53,5.9ZM86.85,56.2H82.09l5.33-16.42h4.93L97.67,56.2H92.83l-.57-2.14H87.42l-.57,2.14Z"/><path class="cls-3" d="M88.85,50.18H90.9l-1.05-3.84-1,3.84ZM92,51H87.76L89.83,43,92,51Zm1.16,4.82H97.1L92,40.18H87.74L82.67,55.8h3.85l.56-2.14H92.6l.57,2.14Zm5.08.8H92.49l-.56-2.14H87.76l-.57,2.14H81.51L87.1,39.38h5.56L98.25,56.6Z"/><polygon class="cls-4" points="103.06 39.78 108.39 48.7 108.23 44.95 108.23 39.78 112.91 39.78 112.91 56.2 108.31 56.2 102.98 47.27 103.22 51.02 103.22 56.2 98.54 56.2 98.54 39.78 103.06 39.78 103.06 39.78"/><path class="cls-3" d="M108.56,55.8h3.93V40.18h-3.83V45l.23,5.41-6.08-10.18H99V55.8h3.83V51l-.36-5.47,6.12,10.25Zm4.78.8h-5.28L103.52,49l.13,2v5.6H98.11V39.38h5.21L107.89,47,107.8,45V39.38h5.54V56.6Z"/><polygon class="cls-5" points="51.23 30.73 63 22.81 74.78 30.73 51.23 30.73 51.23 30.73"/><polygon class="cls-3" points="58.26 30.73 65.57 25.81 72.87 30.73 58.26 30.73 58.26 30.73"/><polygon class="cls-3" points="55.26 30.73 59.8 27.67 64.34 30.73 55.26 30.73 55.26 30.73"/><polygon class="cls-5" points="40.69 30.73 46.53 27.34 52.37 30.73 40.69 30.73 40.69 30.73"/><polygon class="cls-3" points="48.71 30.73 50.06 29.82 51.41 30.73 48.71 30.73 48.71 30.73"/><polygon class="cls-3" points="42.51 30.73 45.56 28.67 48.62 30.73 42.51 30.73 42.51 30.73"/><polygon class="cls-5" points="73.92 30.73 80.15 27.01 86.39 30.73 73.92 30.73 73.92 30.73"/><polygon class="cls-3" points="78.36 30.73 81.92 28.33 85.48 30.73 78.36 30.73 78.36 30.73"/><path class="cls-3" d="M59.24,32.67v3.44h-1v-2h-.79v-.69a.92.92,0,0,0,1-.77Z"/><path class="cls-3" d="M61.72,34.3a.45.45,0,0,0,.47-.49.44.44,0,0,0-.45-.43c-.28,0-.42.17-.43.47s.15.44.41.45Zm-1.33,1,.92-.06a.38.38,0,0,0,.41.26c.35,0,.53-.25.53-.77a1.24,1.24,0,0,1-.81.25,1.09,1.09,0,0,1-1.15-1.09q0-1.17,1.38-1.2c1,0,1.57.59,1.57,1.76s-.53,1.69-1.48,1.71c-.8,0-1.26-.28-1.37-.86Z"/><path class="cls-3" d="M63.64,34.64,64,32.72h2.16v.81H64.67l-.11.51a1.17,1.17,0,0,1,.71-.19,1.06,1.06,0,0,1,1.15,1.09c0,.78-.52,1.18-1.52,1.2a1.31,1.31,0,0,1-1.41-.92l1-.09s0,0,0,0a.45.45,0,0,0,.44.28.44.44,0,0,0,.48-.45c0-.33-.15-.49-.43-.49s-.35.06-.41.19l-.94,0Z"/><path class="cls-3" d="M66.83,34.64l.34-1.92h2.16v.81H67.87l-.11.51a1.15,1.15,0,0,1,.71-.19,1.06,1.06,0,0,1,1.15,1.09c0,.78-.52,1.18-1.53,1.2a1.32,1.32,0,0,1-1.41-.92l1-.09s0,0,0,0a.44.44,0,0,0,.43.28.45.45,0,0,0,.49-.45c0-.33-.16-.49-.43-.49s-.35.06-.42.19l-.94,0Z"/><path class="cls-3" d="M54.58,33.76a.65.65,0,0,1,.66.65.66.66,0,1,1-1.32,0,.65.65,0,0,1,.66-.65Z"/><path class="cls-3" d="M72.49,33.76a.65.65,0,0,1,.66.65.66.66,0,1,1-1.32,0,.65.65,0,0,1,.66-.65Z"/><path class="cls-6" d="M110.84,62.52c-.12-1.5-1.65-2.19-3.4-2.13l-.4.26c-.24.14-.27.22-.33.54.7,1.14,1.72,1.08,1.4,3.07a6,6,0,0,1-2.4.6c-.07.11-.14.22-.2.33.25,2.32,2.14.72,2.67,1.53,1,1.57-2.1,1.31-2.54,1.8a1.7,1.7,0,0,0,.27,1.2,3.59,3.59,0,0,0,2.2.27v1.93c-1.89.28-8,1-8.67,2.2,0,.53,3.45,4.19,4,4.34,2.24.61,5.77.11,6.34-1.47a1.55,1.55,0,0,0-1.6-2.07c-2.05.28-5.28,1.58-5.81-1.06a.91.91,0,0,0,.07-.14l4.6-.93c1.24-.2,2.56.13,3.47-.27a19.06,19.06,0,0,0-.4-8.8l.73-1.2Z"/><path class="cls-6" d="M105.17,71.19c.67-1-.08-5.35-.26-6.13l.6-1c-.15-1.39-1.62-2-3.27-1.93l-.33.13a1,1,0,0,0-.34.81l1.14.93c.29.42.14,4.33,0,5.07a4.59,4.59,0,0,1-3,.13l-.14-.07a2.35,2.35,0,0,1,0-1.46c.32-.5,2.13-.51,2.67-.74.27-.69.28-1.57-.4-1.86l-2.13.06c-.23-.11-.23-.1-.34-.33-.15-.46.23-.8.34-1.27a2.85,2.85,0,0,0-3.34-.93c-.17.24-.53.51-.33.93s.79.56.93,1.07c.59,2.14-.44,5,.07,6.93l.47.34,7.46-.54a1.37,1.37,0,0,0,.2-.13Z"/><path class="cls-6" d="M27.06,60.34c-.37.21-.67.21-.87.6v.4c.37.57,1.31.57,1.53,1.27.6,1.86-1.4,2-2.66,2a.81.81,0,0,0-.07.93c.49,1.06,1.41.54,2.6.8v1.4a.91.91,0,0,1-.07.14l-2.4.13c-.39.18-.49.46-.46,1.07.78.79,1.22.84,2.8.8,0,.58.09,1.15.13,1.73-2,1.32-8.64.9-8.67,3.8a18.1,18.1,0,0,0,4.34,3.2c2.12.56,7.63-.18,6.26-2.6-1-2.05-3.53.06-5.46-.26a4.82,4.82,0,0,1-2.14-1.27v-.13c1.49-1.83,6.28-.83,8.27-2.14a33.16,33.16,0,0,0,.07-7.33l-.54-1.2c.23-.31.45-.63.67-.94.44-1.44-1.87-2.46-3.33-2.4Z"/><path class="cls-6" d="M17.92,66.54c.29-.71.87-.8,1.53-1.13l1,.07c1.45.54,1.07,2.57-.14,3.06s-2.82-.67-2.4-2Zm3.27,4.6c2.44-.73,4.37-4,2.4-6.6-.45-.6-1.07-.72-1.73-1.13-1.12-.69-.37-1.25-2.74-1.2l-1,.33c-.3,1.81-2.43,1.78-3,3.6-1,3.25,2.92,6,6.07,5Z"/><path class="cls-4" d="M68.94,22.93a5.41,5.41,0,1,1-5.4-5.22,5.32,5.32,0,0,1,5.4,5.22Z"/><path class="cls-3" d="M63.54,27.69a4.77,4.77,0,1,1,4.94-4.77,4.85,4.85,0,0,1-4.94,4.77Zm0-10.2a5.43,5.43,0,1,0,5.62,5.43,5.53,5.53,0,0,0-5.62-5.43Z"/><polygon class="cls-2" points="63.53 19.81 65.6 19.09 64.79 17.97 62.25 17.97 61.48 19.09 63.53 19.81 63.53 19.81"/><polygon class="cls-2" points="65.42 25.45 64.18 27.2 65.52 27.65 67.57 26.21 67.52 24.87 65.42 25.45 65.42 25.45"/><polygon class="cls-2" points="61.65 25.45 62.89 27.2 61.55 27.65 59.5 26.21 59.55 24.87 61.65 25.45 61.65 25.45"/><polygon class="cls-2" points="60.45 22.05 60.38 19.93 59.02 20.33 58.24 22.66 59.1 23.71 60.45 22.05 60.45 22.05"/><polygon class="cls-2" points="66.63 22.05 66.69 19.93 68.05 20.33 68.83 22.66 67.97 23.71 66.63 22.05 66.63 22.05"/><polygon class="cls-3" points="63.54 20.03 64.39 21.76 66.3 22.04 64.92 23.38 65.24 25.28 63.54 24.39 61.83 25.28 62.16 23.38 60.77 22.04 62.68 21.76 63.54 20.03 63.54 20.03"/><path class="cls-3" d="M64.39,65.64s0,2,1,2.42,9.15,1.34,12.15,4.09c0,0-3.42-6.28-13.12-6.51Z"/><path class="cls-3" d="M62.68,65.64s0,2-1,2.42-9.15,1.34-12.14,4.09c0,0,3.41-6.28,13.11-6.51Z"/><path class="cls-5" d="M84.77,76.36s7.85,10.78,6.44,19.46-5.4,11.48-5.4,11.48a4,4,0,0,0,2.36-.25s-5,6.22-12.31,7.4a7.38,7.38,0,0,0,7.51-.9,8.73,8.73,0,0,1-1,2.46s9.3-3.23,9.5-15.66c0,0,1.23,1.39.83,2.46,0,0,3.5-10.38-2.52-19.63A3,3,0,0,0,93.29,82s-3.27.67-4.51-.8a59.87,59.87,0,0,0-4-4.84Z"/><path class="cls-3" d="M67.22,70.89s1.93-1.71,5.67,0S83.33,80.33,81,85.39c0,0-1.21-5.6-6.15-6.85,0,0,3.87,3.58.18,4.34s-5.12-5.64-9.2-6.44c0,0,4.55-.59,5.63,1a7.67,7.67,0,0,0-5.63-3.9s5.24-1.21,11.86,4.48c0,0-1.93-5.73-10.48-7.16Z"/><path class="cls-3" d="M81.88,74.75a24.86,24.86,0,0,0-5.8-6.36s5.78-3.72,16.76-2.69c0,0-7.18,1.43-10.6,6.28A5.17,5.17,0,0,0,80,70.33s1.35.86,1.91,4.42Z"/><path class="cls-5" d="M92.66,66.61s-5.45.53-9.4,6.59c0,0,4.94,4.17,5.67,6.66-1.13-5.3,1.87-12,3.73-13.25Z"/><path class="cls-5" d="M72.71,84.09s.17,6.07-3.39,7.84l.59-7.84L71,87.6s1-.85,1.69-3.51Z"/><path class="cls-3" d="M86.1,83.69a7.67,7.67,0,0,1,1.18,5.63l1.27-1.57s.09,13.3-4.32,17.2v-2.8s-2.37,6-4.15,7v-1.69s-2.63,3.24-4.41,4.07l1.09-3.13L69.91,102l7.85,4.15,2.83-4,.76,2.8s2.71-6.37,2.71-7.32l.79,2.31,1.25-3.8a5.33,5.33,0,0,1-1.5.84s3.62-7.59,1.5-13.29Z"/><path class="cls-5" d="M73,91.88a1.78,1.78,0,0,1-.48,3.46,1.71,1.71,0,0,1-1.68-1.46,1.15,1.15,0,0,0,0,.32A2.2,2.2,0,1,0,73,91.88Z"/><path class="cls-5" d="M70,95.28s1-3.71,7.33-3.69c0,0-1.87,7.44-7.33,3.69Zm-2.88-4.94s0,10.86,6.06,12.09c0,0-3.22-1.94-3-5.38l5,.24,3.13-5s.08,5.48-3,6.54c0,0,4.57-.62,6.6-7.94,0,0,1,7.15-1.52,10.5a13.49,13.49,0,0,0,4.17-10.5s.55.79.55,3.77a20.72,20.72,0,0,0-3.65-18.07s3.2,6.89,1.89,11.3c0,0-1.25-2.92-1.89-3.27,0,0,1.13,5.43-6.15,6.18,0,0,1.82-6.11-.68-8.25,0,0,.51,8.6-5.21,10.85l-2.29-3Z"/><path class="cls-5" d="M46.58,108l5.85,5.37,7.08,14.84s-4-3.75-4.52-4.84c0,0-1,1.5-.62,2.15,0,0-4-5.75-2.63-9.3a26.35,26.35,0,0,0-.86,4.74s-4.72-7.52-4.3-13Z"/><path class="cls-5" d="M42.3,76.36s-7.85,10.78-6.43,19.46,5.39,11.48,5.39,11.48a4,4,0,0,1-2.36-.25s5,6.22,12.31,7.4a7.38,7.38,0,0,1-7.51-.9,8.8,8.8,0,0,0,1,2.46s-9.31-3.23-9.5-15.66c0,0-1.23,1.39-.84,2.46,0,0-3.5-10.38,2.52-19.63A3,3,0,0,1,33.79,82s3.26.67,4.5-.8.13-.43,4-4.84Z"/><path class="cls-3" d="M59.85,70.89s-1.93-1.71-5.67,0-10.44,9.44-8.12,14.5c0,0,1.21-5.6,6.15-6.85,0,0-3.87,3.58-.17,4.34s5.11-5.64,9.19-6.44c0,0-4.55-.59-5.62,1a7.64,7.64,0,0,1,5.62-3.9S56,72.36,49.37,78.05c0,0,1.93-5.73,10.48-7.16Z"/><path class="cls-5" d="M54.36,84.09s-.17,6.07,3.39,7.84l-.59-7.84-1.1,3.51s-1-.85-1.7-3.51Z"/><path class="cls-3" d="M41,83.69a7.67,7.67,0,0,0-1.18,5.63l-1.27-1.57s-.08,13.3,4.32,17.2v-2.8s2.37,6,4.15,7v-1.69s2.63,3.24,4.41,4.07l-1.09-3.13L57.16,102l-7.85,4.15-2.83-4-.76,2.8S43,98.58,43,97.63l-.78,2.31L41,96.14a5.33,5.33,0,0,0,1.5.84S38.85,89.39,41,83.69Z"/><path class="cls-3" d="M63.38,76.57a6.75,6.75,0,0,1-6.86,4.32s4.23,1.15,6.86-.79c2.63,1.94,6.86.79,6.86.79a6.75,6.75,0,0,1-6.86-4.32Z"/><path class="cls-3" d="M63.38,84.61A5.31,5.31,0,0,1,58,88s3.34.91,5.4-.62c2.07,1.53,5.4.62,5.4.62a5.31,5.31,0,0,1-5.4-3.4Z"/><path class="cls-3" d="M64.4,81.46l-1,.53-1-.53A3.6,3.6,0,0,1,60,83.63a3.23,3.23,0,0,0,2.88-.53l.51,1.24.51-1.24a3.25,3.25,0,0,0,2.88.53,3.6,3.6,0,0,1-2.37-2.17Z"/><path class="cls-5" d="M69.27,102.47a5.82,5.82,0,0,1-11,0,6.77,6.77,0,0,0,1.23,5.21,3.49,3.49,0,0,1,3.71,1.77,7.4,7.4,0,0,1-1.69,3.45H66a7.4,7.4,0,0,1-1.69-3.45,3.48,3.48,0,0,1,3.7-1.77,6.79,6.79,0,0,0,1.24-5.21Z"/><polygon class="cls-5" points="63.63 110.89 62.23 113.29 54.22 113.29 52.57 109.65 55.29 112.25 61.13 112.25 62.93 110.38 63.63 110.89 63.63 110.89"/><polygon class="cls-5" points="63.86 110.89 65.25 113.29 73.26 113.29 74.91 109.65 72.2 112.25 66.35 112.25 64.56 110.38 63.86 110.89 63.86 110.89"/><path class="cls-5" d="M56.74,113.37A15.84,15.84,0,0,0,58.41,118s.18-2.58.09-4.71H56.74v.13Z"/><path class="cls-5" d="M70.8,113.37A15.94,15.94,0,0,1,69.14,118s-.18-2.58-.1-4.71h1.77a.57.57,0,0,1,0,.13Z"/><path class="cls-5" d="M56.74,121.75a8.87,8.87,0,0,1,1.67-3.07,22.6,22.6,0,0,1,.09,3.16H56.74v-.09Z"/><path class="cls-5" d="M70.8,121.75a8.9,8.9,0,0,0-1.66-3.07,23.6,23.6,0,0,0-.1,3.16h1.77a.28.28,0,0,0,0-.09Z"/><polygon class="cls-7" points="56.73 122.31 60.45 126.11 62.01 125.07 63.59 125.93 63.59 125.93 63.6 125.93 63.6 125.93 63.6 125.93 65.18 125.07 66.74 126.11 70.6 122.45 63.6 122.88 56.73 122.31 56.73 122.31"/><path class="cls-3" d="M45.11,74.75a24.86,24.86,0,0,1,5.8-6.36s-5.78-3.72-16.76-2.69c0,0,7.18,1.43,10.6,6.28A5.15,5.15,0,0,1,47,70.33s-1.36.86-1.92,4.42Z"/><path class="cls-5" d="M34.34,66.61s5.44.53,9.4,6.59c0,0-5,4.17-5.67,6.66,1.12-5.3-1.88-12-3.73-13.25Z"/><path class="cls-5" d="M80.64,108l-5.85,5.37-7.08,14.84s4-3.75,4.52-4.84c0,0,1,1.5.62,2.15,0,0,4-5.75,2.63-9.3a26.35,26.35,0,0,1,.86,4.74s4.72-7.52,4.3-13Z"/><path class="cls-3" d="M73.5,113.51H72s-.6,7.15-3.41,8.23H58.88c-2.81-1.08-3.12-8.23-3.12-8.23H54.27c.64,2.85,1.76,9.09,1.76,9.09a3.8,3.8,0,0,1,0-1.14,7.36,7.36,0,0,0,1.56,1.74,1.88,1.88,0,0,1-.06-.68c.75.84,6.17.42,6.17.42s5.42.42,6.17-.42a1.88,1.88,0,0,1-.06.68,7.36,7.36,0,0,0,1.56-1.74,3.8,3.8,0,0,1,0,1.14s1.41-6.24,2-9.09Z"/><path class="cls-4" d="M54.15,91.88A1.76,1.76,0,0,0,53,93.55a1.69,1.69,0,0,0,3.36.33c0,.11,0,.21,0,.32a2.21,2.21,0,1,1-2.18-2.32Z"/><path class="cls-4" d="M57.14,95.28s-1-3.71-7.32-3.69c0,0,1.86,7.44,7.32,3.69ZM60,90.34S60,101.2,54,102.43c0,0,3.22-1.94,3-5.38l-5,.24-3.13-5s-.09,5.48,3.05,6.54c0,0-4.58-.62-6.61-7.94,0,0-1,7.15,1.52,10.5a13.49,13.49,0,0,1-4.17-10.5s-.55.79-.55,3.77A20.74,20.74,0,0,1,45.7,76.57s-3.2,6.89-1.9,11.3c0,0,1.26-2.92,1.9-3.27,0,0-1.14,5.43,6.15,6.18,0,0-1.83-6.11.68-8.25,0,0-.51,8.6,5.21,10.85l2.28-3Z"/></g></g></svg>