<svg xmlns="http://www.w3.org/2000/svg" xmlns:xlink="http://www.w3.org/1999/xlink" viewBox="0 0 274.62 258.55"><defs><style>.cls-1,.cls-41{fill:none;}.cls-2{isolation:isolate;}.cls-3{font-size:27.72px;fill:#fff;font-family:MHeiGB5-Bold, MHeiGB5 Bold;font-weight:700;}.cls-4{fill:#c89e67;}.cls-5{fill:url(#New_Gradient_Swatch_1);}.cls-6{clip-path:url(#clip-path);}.cls-7{fill:#dea36d;}.cls-8{fill:#8a2432;}.cls-9{fill:url(#New_Gradient_Swatch_1-2);}.cls-10,.cls-18{fill:#3e2b2f;}.cls-11{fill:#e87200;}.cls-12,.cls-19{mix-blend-mode:overlay;}.cls-13{fill:url(#linear-gradient);}.cls-14{fill:url(#linear-gradient-2);}.cls-15{opacity:0.15;}.cls-16{clip-path:url(#clip-path-2);}.cls-17{clip-path:url(#clip-path-3);}.cls-18{fill-rule:evenodd;}.cls-19{fill:url(#linear-gradient-3);}.cls-20{clip-path:url(#clip-path-4);}.cls-21{fill:url(#New_Gradient_Swatch_1-3);}.cls-22{fill:url(#New_Gradient_Swatch_1-4);}.cls-23{fill:url(#New_Gradient_Swatch_1-5);}.cls-24{fill:url(#New_Gradient_Swatch_1-6);}.cls-25{fill:url(#New_Gradient_Swatch_1-7);}.cls-26{fill:url(#New_Gradient_Swatch_1-8);}.cls-27{fill:url(#New_Gradient_Swatch_1-9);}.cls-28{fill:url(#New_Gradient_Swatch_1-10);}.cls-29{fill:url(#New_Gradient_Swatch_1-11);}.cls-30{fill:url(#New_Gradient_Swatch_1-12);}.cls-31{fill:url(#New_Gradient_Swatch_1-13);}.cls-32{fill:url(#New_Gradient_Swatch_1-14);}.cls-33{fill:url(#New_Gradient_Swatch_1-15);}.cls-34{fill:url(#New_Gradient_Swatch_1-16);}.cls-35{fill:url(#New_Gradient_Swatch_1-17);}.cls-36{fill:url(#New_Gradient_Swatch_1-18);}.cls-37{fill:url(#New_Gradient_Swatch_1-19);}.cls-38{fill:url(#New_Gradient_Swatch_1-20);}.cls-39{fill:url(#New_Gradient_Swatch_1-21);}.cls-40{fill:url(#New_Gradient_Swatch_1-22);}.cls-41{stroke:#dab38d;stroke-miterlimit:10;stroke-width:0.66px;}</style><linearGradient id="New_Gradient_Swatch_1" x1="79" y1="126.28" x2="197.76" y2="126.28" gradientUnits="userSpaceOnUse"><stop offset="0" stop-color="#b68150"/><stop offset="0.51" stop-color="#dab38d"/><stop offset="1" stop-color="#b68150"/></linearGradient><clipPath id="clip-path"><path id="SVGID" class="cls-1" d="M138.35,194.23C66.17,162,79.76,80.42,80.38,76.42a46.77,46.77,0,0,0,14.35-.69c-.18,27.64-1.31,83.13,43.74,118.64,0,0,0,0,0,0l0,0c44.65-36.72,43.85-91.06,43.7-118.64a46.77,46.77,0,0,0,14.35.69C197.13,80.42,210.54,162,138.35,194.23Z"/></clipPath><linearGradient id="New_Gradient_Swatch_1-2" x1="164.83" y1="101.52" x2="116.2" y2="138.36" xlink:href="#New_Gradient_Swatch_1"/><linearGradient id="linear-gradient" x1="155.31" y1="146.54" x2="190.59" y2="147.1" gradientUnits="userSpaceOnUse"><stop offset="0" stop-color="#fff"/><stop offset="0.09" stop-color="#fff" stop-opacity="0.98"/><stop offset="0.22" stop-color="#fff" stop-opacity="0.91"/><stop offset="0.36" stop-color="#fff" stop-opacity="0.79"/><stop offset="0.52" stop-color="#fff" stop-opacity="0.64"/><stop offset="0.69" stop-color="#fff" stop-opacity="0.44"/><stop offset="0.87" stop-color="#fff" stop-opacity="0.19"/><stop offset="1" stop-color="#fff" stop-opacity="0"/></linearGradient><linearGradient id="linear-gradient-2" x1="155.29" y1="147.44" x2="190.57" y2="148" xlink:href="#linear-gradient"/><clipPath id="clip-path-2"><path class="cls-1" d="M181.08,150.86c3.4,0,3.92-2.43,4.71-4.58L187,143H175.55l-2.85,7.86Z"/></clipPath><clipPath id="clip-path-3"><path class="cls-1" d="M163.48,130.24,158.7,143l-2.94,7.86-5.36,14.29h13.45L172.14,143l1.76-4.7h10.89c3.38,0,4.63-.84,5.62-3.48l1.71-4.58Z"/></clipPath><linearGradient id="linear-gradient-3" x1="94.65" y1="150.53" x2="132.43" y2="145.25" xlink:href="#linear-gradient"/><clipPath id="clip-path-4"><path class="cls-1" d="M120.8,133.14,117.13,143h-3.44l4.78-12.76H108a4.49,4.49,0,0,0-4,2.9l-12,32H105.4l5.35-14.29h3.44l-5.36,14.29h13.45l13.07-34.91h-11A3.56,3.56,0,0,0,120.8,133.14Z"/></clipPath><linearGradient id="New_Gradient_Swatch_1-3" x1="113.57" y1="183.86" x2="164" y2="183.86" xlink:href="#New_Gradient_Swatch_1"/><linearGradient id="New_Gradient_Swatch_1-4" x1="113.57" y1="183.86" x2="164.01" y2="183.86" xlink:href="#New_Gradient_Swatch_1"/><linearGradient id="New_Gradient_Swatch_1-5" x1="113.57" y1="183.86" x2="164" y2="183.86" xlink:href="#New_Gradient_Swatch_1"/><linearGradient id="New_Gradient_Swatch_1-6" x1="113.57" y1="183.86" x2="164.01" y2="183.86" xlink:href="#New_Gradient_Swatch_1"/><linearGradient id="New_Gradient_Swatch_1-7" x1="113.57" y1="183.86" x2="164" y2="183.86" xlink:href="#New_Gradient_Swatch_1"/><linearGradient id="New_Gradient_Swatch_1-8" x1="113.57" y1="183.86" x2="164" y2="183.86" xlink:href="#New_Gradient_Swatch_1"/><linearGradient id="New_Gradient_Swatch_1-9" x1="113.57" y1="183.86" x2="164" y2="183.86" xlink:href="#New_Gradient_Swatch_1"/><linearGradient id="New_Gradient_Swatch_1-10" x1="113.57" y1="183.86" x2="164" y2="183.86" xlink:href="#New_Gradient_Swatch_1"/><linearGradient id="New_Gradient_Swatch_1-11" x1="113.57" y1="183.86" x2="164" y2="183.86" xlink:href="#New_Gradient_Swatch_1"/><linearGradient id="New_Gradient_Swatch_1-12" x1="113.57" y1="183.86" x2="164" y2="183.86" xlink:href="#New_Gradient_Swatch_1"/><linearGradient id="New_Gradient_Swatch_1-13" x1="113.57" y1="183.87" x2="164" y2="183.87" xlink:href="#New_Gradient_Swatch_1"/><linearGradient id="New_Gradient_Swatch_1-14" x1="113.56" y1="183.86" x2="164" y2="183.86" xlink:href="#New_Gradient_Swatch_1"/><linearGradient id="New_Gradient_Swatch_1-15" x1="101.12" y1="174.21" x2="176.23" y2="174.21" xlink:href="#New_Gradient_Swatch_1"/><linearGradient id="New_Gradient_Swatch_1-16" x1="101.12" y1="174.21" x2="176.23" y2="174.21" xlink:href="#New_Gradient_Swatch_1"/><linearGradient id="New_Gradient_Swatch_1-17" x1="101.12" y1="174.21" x2="176.23" y2="174.21" xlink:href="#New_Gradient_Swatch_1"/><linearGradient id="New_Gradient_Swatch_1-18" x1="101.12" y1="174.21" x2="176.23" y2="174.21" xlink:href="#New_Gradient_Swatch_1"/><linearGradient id="New_Gradient_Swatch_1-19" x1="101.12" y1="174.21" x2="176.23" y2="174.21" xlink:href="#New_Gradient_Swatch_1"/><linearGradient id="New_Gradient_Swatch_1-20" x1="101.12" y1="174.21" x2="176.23" y2="174.21" xlink:href="#New_Gradient_Swatch_1"/><linearGradient id="New_Gradient_Swatch_1-21" x1="101.12" y1="174.21" x2="176.23" y2="174.21" xlink:href="#New_Gradient_Swatch_1"/><linearGradient id="New_Gradient_Swatch_1-22" x1="101.12" y1="174.21" x2="176.23" y2="174.21" xlink:href="#New_Gradient_Swatch_1"/></defs><title>Asset 24</title><g class="cls-2"><g id="Layer_2" data-name="Layer 2"><g id="Layer_1-2" data-name="Layer 1"><path class="cls-4" d="M136.4,198.69c-30.86-13.79-51.24-38.76-58.92-72.2a141.68,141.68,0,0,1-2-50.8l.75-4.91,4.8.58a34.28,34.28,0,0,0,4.12.25c14.08,0,30.07-8,40.65-13.2,4.79-2.38,8.57-4.26,11.32-5l1.31-.36,1.31.36c2.74.75,6.52,2.62,11.3,5,10.59,5.26,26.58,13.21,40.67,13.21a34.11,34.11,0,0,0,4.11-.25l4.81-.58.75,4.91a141.8,141.8,0,0,1-2,50.82c-7.69,33.43-28.07,58.39-58.93,72.18l-2,.91Z"/><path class="cls-4" d="M90.2,158.44l-2.73,7.28a4.41,4.41,0,0,0,0,3l7.22,19.82a1.94,1.94,0,0,0,1.81,1.27h86a1.84,1.84,0,0,0,1.15-.39,1.9,1.9,0,0,0,.68-1l6-21.7a1.12,1.12,0,0,0-1.06-1.42l-7-.1"/><path class="cls-5" d="M196.38,76.42c-22.55,2.77-49.55-15.8-58-18.1-8.45,2.3-35.45,20.87-58,18.1-.62,4-14.1,85.61,58,117.83C210.47,162,197,80.41,196.38,76.42Z"/><g class="cls-6"><rect class="cls-7" x="46.86" y="218.2" width="106.85" height="3.01" transform="translate(-125.98 135.26) rotate(-45)"/><rect class="cls-7" x="46.86" y="211.23" width="106.86" height="3.01" transform="translate(-121.06 133.22) rotate(-45)"/><rect class="cls-7" x="46.86" y="204.27" width="106.86" height="3.01" transform="translate(-116.13 131.18) rotate(-45)"/><rect class="cls-7" x="46.86" y="197.31" width="106.86" height="3.01" transform="translate(-111.21 129.14) rotate(-45)"/><rect class="cls-7" x="46.86" y="190.34" width="106.86" height="3.01" transform="translate(-106.28 127.1) rotate(-45)"/><rect class="cls-7" x="46.86" y="183.38" width="106.85" height="3.01" transform="translate(-101.36 125.06) rotate(-45)"/><rect class="cls-7" x="46.86" y="176.41" width="106.85" height="3.01" transform="translate(-96.44 123.02) rotate(-45)"/><rect class="cls-7" x="46.86" y="169.45" width="106.85" height="3.01" transform="translate(-91.51 120.98) rotate(-45)"/><rect class="cls-7" x="46.86" y="162.49" width="106.86" height="3.01" transform="translate(-86.59 118.94) rotate(-45)"/><rect class="cls-7" x="46.86" y="155.52" width="106.85" height="3.01" transform="translate(-81.65 116.87) rotate(-44.99)"/><rect class="cls-7" x="46.86" y="148.56" width="106.85" height="3.01" transform="translate(-76.73 114.83) rotate(-44.99)"/><rect class="cls-7" x="46.86" y="141.59" width="106.85" height="3.01" transform="translate(-71.81 112.82) rotate(-45)"/><rect class="cls-7" x="46.86" y="134.63" width="106.85" height="3.01" transform="translate(-66.89 110.78) rotate(-45)"/><rect class="cls-7" x="46.86" y="127.67" width="106.85" height="3.01" transform="translate(-61.96 108.74) rotate(-45)"/><rect class="cls-7" x="46.86" y="120.7" width="106.85" height="3.01" transform="translate(-57.04 106.7) rotate(-45)"/><rect class="cls-7" x="46.86" y="113.74" width="106.85" height="3.01" transform="translate(-52.12 104.67) rotate(-45)"/><rect class="cls-7" x="46.86" y="106.77" width="106.86" height="3.01" transform="translate(-47.19 102.63) rotate(-45)"/><rect class="cls-7" x="46.86" y="99.81" width="106.85" height="3.01" transform="translate(-42.27 100.56) rotate(-44.99)"/><rect class="cls-7" x="46.86" y="92.84" width="106.85" height="3.01" transform="translate(-37.34 98.52) rotate(-44.99)"/><rect class="cls-7" x="46.86" y="85.88" width="106.85" height="3.01" transform="translate(-32.42 96.5) rotate(-45)"/><polygon class="cls-7" points="63.57 119.27 61.44 117.14 137 0 139.13 2.13 63.57 119.27"/><rect class="cls-7" x="174.72" y="166.28" width="3.01" height="106.85" transform="translate(-103.74 188.96) rotate(-45)"/><rect class="cls-7" x="174.72" y="159.31" width="3.01" height="106.85" transform="translate(-98.81 186.92) rotate(-45)"/><rect class="cls-7" x="174.72" y="152.35" width="3.01" height="106.85" transform="translate(-93.89 184.88) rotate(-45)"/><rect class="cls-7" x="174.72" y="145.38" width="3.01" height="106.86" transform="translate(-88.97 182.84) rotate(-45)"/><rect class="cls-7" x="174.72" y="138.42" width="3.01" height="106.86" transform="translate(-84.04 180.8) rotate(-45)"/><rect class="cls-7" x="174.72" y="131.46" width="3.01" height="106.85" transform="translate(-79.12 178.76) rotate(-45)"/><rect class="cls-7" x="174.72" y="124.49" width="3.01" height="106.85" transform="translate(-74.19 176.72) rotate(-45)"/><rect class="cls-7" x="174.72" y="117.53" width="3.01" height="106.85" transform="translate(-69.27 174.68) rotate(-45)"/><rect class="cls-7" x="174.72" y="110.56" width="3.01" height="106.85" transform="translate(-64.34 172.64) rotate(-45)"/><rect class="cls-7" x="174.72" y="103.6" width="3.01" height="106.85" transform="translate(-59.42 170.6) rotate(-45)"/><rect class="cls-7" x="174.72" y="96.64" width="3.01" height="106.85" transform="translate(-54.49 168.56) rotate(-45)"/><rect class="cls-7" x="174.72" y="89.67" width="3.01" height="106.85" transform="translate(-49.57 166.53) rotate(-45)"/><rect class="cls-7" x="174.72" y="82.71" width="3.01" height="106.85" transform="translate(-44.65 164.49) rotate(-45)"/><rect class="cls-7" x="174.72" y="75.74" width="3.01" height="106.85" transform="translate(-39.72 162.45) rotate(-45)"/><rect class="cls-7" x="174.72" y="68.78" width="3.01" height="106.85" transform="translate(-34.8 160.41) rotate(-45)"/><rect class="cls-7" x="174.72" y="61.82" width="3.01" height="106.85" transform="translate(-29.87 158.37) rotate(-45)"/><rect class="cls-7" x="174.72" y="54.85" width="3.01" height="106.85" transform="translate(-24.95 156.33) rotate(-45)"/><rect class="cls-7" x="174.72" y="47.89" width="3.01" height="106.85" transform="translate(-20.02 154.29) rotate(-45)"/><rect class="cls-7" x="174.72" y="40.92" width="3.01" height="106.85" transform="translate(-15.1 152.25) rotate(-45)"/><rect class="cls-7" x="174.72" y="33.96" width="3.01" height="106.85" transform="translate(-10.18 150.21) rotate(-45)"/><polygon class="cls-7" points="212.94 119.27 137.38 2.13 139.51 0 215.07 117.14 212.94 119.27"/></g><path class="cls-8" d="M199.5,76.08,199,73l-3,.37a35.92,35.92,0,0,1-4.34.25c-14.52,0-30.74-8.06-41.48-13.39-4.7-2.34-8.41-4.18-11-4.88l-.82-.22-.82.22c-2.58.7-6.29,2.54-11,4.88C115.84,65.51,99.62,73.57,85.1,73.57a35.92,35.92,0,0,1-4.34-.25l-3-.37-.48,3.13a139.84,139.84,0,0,0,2,50.1c7.54,32.86,27.56,57.38,57.87,70.92l1.28.58,1.28-.58C170,183.56,190,159,197.53,126.2A140.2,140.2,0,0,0,199.5,76.08ZM138.38,194.25C66.28,162,79.76,80.41,80.38,76.42a46.64,46.64,0,0,0,14.33-.69c-.17,27.61-1.35,83,43.64,118.5l0,0,0,0c45-35.47,43.82-90.89,43.65-118.5a46.62,46.62,0,0,0,14.33.69C197,80.41,210.47,162,138.38,194.25Z"/><path class="cls-9" d="M168.89,72c-13.56-5-25.41-12.28-30.51-13.67-5.1,1.39-17,8.7-30.51,13.67,1,97.37,29.56,121.48,30.48,122.24l0,0,0,0C139.33,193.47,167.91,169.36,168.89,72Z"/><path class="cls-10" d="M88.61,79.88a3.56,3.56,0,0,0-5,0,3.43,3.43,0,0,0-1,2.51,3.34,3.34,0,0,0,1,2.49,3.4,3.4,0,0,0,2.5,1,3.33,3.33,0,0,0,2.47-1,3.42,3.42,0,0,0,1-2.49A3.38,3.38,0,0,0,88.61,79.88Zm-1.09-.07,0-.16a2.13,2.13,0,0,1,.82.58c.34.34.51.61.51.82s-.2.48-.59.9l-.46-1a2.25,2.25,0,0,1-.43-.77A.74.74,0,0,1,87.52,79.81Zm-1.4-.59a2.86,2.86,0,0,1,1.21.35c0,.26-.25.49-.68.68a2.74,2.74,0,0,1-1.15.29A1.41,1.41,0,0,1,84.41,80,1.89,1.89,0,0,1,86.12,79.22Zm-1.86.63a5.86,5.86,0,0,0,1.13,1,3.76,3.76,0,0,1,.54,1.8.48.48,0,0,1-.54.54A2.22,2.22,0,0,1,84,82.55a1.88,1.88,0,0,1-.75-1.3C83.25,81,83.58,80.52,84.26,79.85Zm-.61,4.57a3,3,0,0,1-.72-1.93,1.68,1.68,0,0,1,.16-.74c1.22,1.25,2.13,1.8,2.72,1.67.08.06.12.25.12.59a2.07,2.07,0,0,1-.54,1.47A2.88,2.88,0,0,1,83.65,84.42Zm2.79,1.14h-.55a12.74,12.74,0,0,0,.31-2.14,10,10,0,0,0-.54-2.64,12.62,12.62,0,0,1,1.44-.43c.31,0,.59.47.85,1.4a5.76,5.76,0,0,1,.31,1.6C88.26,84.82,87.65,85.56,86.44,85.56Zm1.82-1.12a4.57,4.57,0,0,0,.16-1.64,1.37,1.37,0,0,1,.7-1.36,4,4,0,0,1,.23,1A3.13,3.13,0,0,1,89,83.66C88.77,84.15,88.52,84.41,88.26,84.44Z"/><path class="cls-10" d="M192.73,79.88a3.54,3.54,0,0,0-6,2.53,3.33,3.33,0,0,0,1,2.49,3.42,3.42,0,0,0,2.51,1,3.34,3.34,0,0,0,2.47-1,3.55,3.55,0,0,0,0-5Zm-1.09-.07,0-.16a2.13,2.13,0,0,1,.82.58,1.41,1.41,0,0,1,.5.82c0,.18-.19.48-.58.9l-.47-1a2.47,2.47,0,0,1-.43-.77A.67.67,0,0,1,191.64,79.81Zm-1.4-.59a2.79,2.79,0,0,1,1.2.35c0,.26-.25.49-.68.68a2.7,2.7,0,0,1-1.14.29,1.4,1.4,0,0,1-1.09-.54A1.89,1.89,0,0,1,190.24,79.22Zm-1.87.63a6.17,6.17,0,0,0,1.13,1,3.78,3.78,0,0,1,.55,1.8.48.48,0,0,1-.55.54,2.22,2.22,0,0,1-1.38-.68,1.86,1.86,0,0,1-.76-1.3C187.36,81,187.7,80.52,188.37,79.85Zm-.6,4.57a3,3,0,0,1-.72-1.93,1.55,1.55,0,0,1,.16-.74c1.21,1.25,2.12,1.8,2.72,1.67.08.06.12.25.12.59a2.07,2.07,0,0,1-.55,1.47A2.88,2.88,0,0,1,187.77,84.42Zm2.78,1.14H190a13.93,13.93,0,0,0,.31-2.14,9.67,9.67,0,0,0-.55-2.64,13.34,13.34,0,0,1,1.44-.43c.31,0,.6.47.86,1.4a6.16,6.16,0,0,1,.31,1.6C192.38,84.82,191.77,85.56,190.55,85.56Zm1.83-1.12a4.94,4.94,0,0,0,.15-1.64,1.38,1.38,0,0,1,.7-1.36,3.68,3.68,0,0,1,.24,1,3.13,3.13,0,0,1-.35,1.25C192.88,84.15,192.64,84.41,192.38,84.44Z"/><path class="cls-8" d="M169.72,152.94l4.36-12H190L187.75,147c-.07.18-.13.37-.2.55-.71,2-1.89,5.39-6.47,5.39Z"/><path class="cls-8" d="M147.39,167.24,162,128.15h33.11l-2.77,7.4c-1.32,3.53-3.38,4.84-7.58,4.84h-9.44l-.2.53h.06l-4.5,12h-.06l-5.35,14.3Z"/><path class="cls-11" d="M181.08,150.86c3.4,0,3.92-2.43,4.71-4.58L187,143H175.55l-2.85,7.86Z"/><path class="cls-11" d="M163.48,130.24,158.7,143l-2.94,7.86-5.36,14.29h13.45l5.35-14.29,2.94-7.86,1.76-4.7h10.89c3.38,0,4.63-.84,5.62-3.48l1.71-4.58Z"/><g class="cls-12"><path class="cls-13" d="M181.08,150.86c3.4,0,3.92-2.43,4.71-4.58L187,143H175.55l-2.85,7.86Z"/><path class="cls-14" d="M163.48,130.24,158.7,143l-2.94,7.86-5.36,14.29h13.45l5.35-14.29,2.94-7.86,1.76-4.7h10.89c3.38,0,4.63-.84,5.62-3.48l1.71-4.58Z"/></g><g class="cls-15"><g class="cls-16"><rect class="cls-11" x="-20.67" y="151.7" width="143.64" height="1.04" transform="translate(-92.61 80.67) rotate(-44.97)"/><rect class="cls-11" x="-17.47" y="151.7" width="143.64" height="1.04" transform="translate(-91.68 82.93) rotate(-44.97)"/><rect class="cls-11" x="-14.28" y="151.7" width="143.64" height="1.04" transform="translate(-90.7 85.09) rotate(-44.93)"/><rect class="cls-11" x="-11.09" y="151.7" width="143.64" height="1.04" transform="translate(-89.81 87.44) rotate(-44.97)"/><rect class="cls-11" x="-7.9" y="151.7" width="143.64" height="1.04" transform="translate(-88.87 89.69) rotate(-44.97)"/><rect class="cls-11" x="-4.7" y="151.7" width="143.64" height="1.04" transform="translate(-87.91 91.86) rotate(-44.93)"/><rect class="cls-11" x="-1.51" y="151.7" width="143.64" height="1.04" transform="translate(-87.01 94.21) rotate(-44.97)"/><rect class="cls-11" x="1.68" y="151.7" width="143.64" height="1.04" transform="translate(-86.07 96.46) rotate(-44.97)"/><rect class="cls-11" x="4.88" y="151.7" width="143.64" height="1.04" transform="translate(-85.11 98.63) rotate(-44.93)"/><rect class="cls-11" x="8.07" y="151.7" width="143.64" height="1.04" transform="translate(-84.19 100.93) rotate(-44.95)"/><rect class="cls-11" x="11.26" y="151.7" width="143.64" height="1.04" transform="translate(-83.27 103.23) rotate(-44.97)"/><rect class="cls-11" x="14.46" y="151.7" width="143.64" height="1.04" transform="translate(-82.32 105.44) rotate(-44.95)"/><rect class="cls-11" x="17.65" y="151.7" width="143.64" height="1.04" transform="translate(-81.39 107.7) rotate(-44.95)"/><rect class="cls-11" x="20.84" y="151.7" width="143.64" height="1.04" transform="translate(-80.47 110) rotate(-44.97)"/><rect class="cls-11" x="24.03" y="151.7" width="143.64" height="1.04" transform="translate(-79.52 112.21) rotate(-44.95)"/><rect class="cls-11" x="27.23" y="151.7" width="143.64" height="1.04" transform="translate(-78.59 114.46) rotate(-44.95)"/><rect class="cls-11" x="30.42" y="151.7" width="143.64" height="1.04" transform="translate(-77.68 116.83) rotate(-44.98)"/><rect class="cls-11" x="33.61" y="151.7" width="143.64" height="1.04" transform="translate(-76.72 118.98) rotate(-44.95)"/><rect class="cls-11" x="36.81" y="151.7" width="143.64" height="1.04" transform="translate(-75.81 121.34) rotate(-44.98)"/><rect class="cls-11" x="40" y="151.7" width="143.64" height="1.04" transform="translate(-74.87 123.54) rotate(-44.97)"/><rect class="cls-11" x="43.19" y="151.7" width="143.64" height="1.04" transform="translate(-73.94 125.85) rotate(-44.98)"/><rect class="cls-11" x="46.38" y="151.7" width="143.64" height="1.04" transform="translate(-73.01 128.11) rotate(-44.98)"/><rect class="cls-11" x="49.58" y="151.7" width="143.64" height="1.04" transform="translate(-72.07 130.31) rotate(-44.97)"/><rect class="cls-11" x="52.77" y="151.7" width="143.64" height="1.04" transform="translate(-71.12 132.51) rotate(-44.95)"/><rect class="cls-11" x="55.96" y="151.7" width="143.64" height="1.04" transform="translate(-70.2 134.83) rotate(-44.97)"/><rect class="cls-11" x="59.16" y="151.7" width="143.64" height="1.04" transform="translate(-69.26 137.08) rotate(-44.97)"/><rect class="cls-11" x="62.35" y="151.7" width="143.64" height="1.04" transform="translate(-68.32 139.22) rotate(-44.93)"/><rect class="cls-11" x="65.54" y="151.7" width="143.64" height="1.04" transform="translate(-67.39 141.47) rotate(-44.93)"/><rect class="cls-11" x="68.74" y="151.7" width="143.64" height="1.04" transform="translate(-66.46 143.73) rotate(-44.93)"/><rect class="cls-11" x="71.93" y="151.7" width="143.64" height="1.04" transform="translate(-65.53 146.05) rotate(-44.95)"/><rect class="cls-11" x="75.12" y="151.7" width="143.64" height="1.04" transform="translate(-64.59 148.37) rotate(-44.97)"/><rect class="cls-11" x="78.31" y="151.7" width="143.64" height="1.04" transform="translate(-63.66 150.49) rotate(-44.93)"/><rect class="cls-11" x="81.51" y="151.7" width="143.64" height="1.04" transform="translate(-62.73 152.88) rotate(-44.97)"/><rect class="cls-11" x="84.7" y="151.7" width="143.64" height="1.04" transform="translate(-61.79 155.07) rotate(-44.95)"/><rect class="cls-11" x="87.89" y="151.7" width="143.64" height="1.04" transform="translate(-60.86 157.39) rotate(-44.97)"/><rect class="cls-11" x="91.09" y="151.7" width="143.64" height="1.04" transform="translate(-59.93 159.58) rotate(-44.95)"/><rect class="cls-11" x="94.28" y="151.7" width="143.64" height="1.04" transform="translate(-58.99 161.9) rotate(-44.97)"/><rect class="cls-11" x="97.47" y="151.7" width="143.64" height="1.04" transform="translate(-58.05 164.22) rotate(-44.98)"/><rect class="cls-11" x="100.67" y="151.7" width="143.64" height="1.04" transform="translate(-57.12 166.42) rotate(-44.97)"/><rect class="cls-11" x="103.86" y="151.7" width="143.64" height="1.04" transform="translate(-56.18 168.74) rotate(-44.98)"/><rect class="cls-11" x="107.05" y="151.7" width="143.64" height="1.04" transform="translate(-55.25 171) rotate(-44.98)"/><rect class="cls-11" x="110.24" y="151.7" width="143.64" height="1.04" transform="translate(-54.32 173.19) rotate(-44.97)"/><rect class="cls-11" x="113.44" y="151.7" width="143.64" height="1.04" transform="translate(-53.39 175.44) rotate(-44.97)"/><rect class="cls-11" x="116.63" y="151.7" width="143.64" height="1.04" transform="translate(-52.45 177.7) rotate(-44.97)"/><rect class="cls-11" x="119.82" y="151.7" width="143.64" height="1.04" transform="translate(-51.52 179.96) rotate(-44.97)"/><rect class="cls-11" x="123.02" y="151.7" width="143.64" height="1.04" transform="translate(-50.59 182.21) rotate(-44.97)"/><rect class="cls-11" x="126.21" y="151.7" width="143.64" height="1.04" transform="translate(-49.65 184.47) rotate(-44.97)"/><rect class="cls-11" x="129.4" y="151.7" width="143.64" height="1.04" transform="translate(-48.72 186.73) rotate(-44.97)"/><rect class="cls-11" x="132.6" y="151.7" width="143.64" height="1.04" transform="translate(-47.77 189.06) rotate(-44.98)"/><rect class="cls-11" x="135.79" y="151.7" width="143.64" height="1.04" transform="translate(-46.85 191.23) rotate(-44.97)"/><rect class="cls-11" x="138.98" y="151.7" width="143.64" height="1.04" transform="translate(-45.9 193.57) rotate(-44.98)"/><rect class="cls-11" x="142.17" y="151.7" width="143.64" height="1.04" transform="translate(-44.98 195.74) rotate(-44.97)"/></g></g><g class="cls-15"><g class="cls-17"><rect class="cls-11" x="-20.67" y="151.7" width="143.64" height="1.04" transform="translate(-92.61 80.67) rotate(-44.97)"/><rect class="cls-11" x="-17.47" y="151.7" width="143.64" height="1.04" transform="translate(-91.68 82.93) rotate(-44.97)"/><rect class="cls-11" x="-14.28" y="151.7" width="143.64" height="1.04" transform="translate(-90.7 85.09) rotate(-44.93)"/><rect class="cls-11" x="-11.09" y="151.7" width="143.64" height="1.04" transform="translate(-89.81 87.44) rotate(-44.97)"/><rect class="cls-11" x="-7.9" y="151.7" width="143.64" height="1.04" transform="translate(-88.87 89.69) rotate(-44.97)"/><rect class="cls-11" x="-4.7" y="151.7" width="143.64" height="1.04" transform="translate(-87.91 91.86) rotate(-44.93)"/><rect class="cls-11" x="-1.51" y="151.7" width="143.64" height="1.04" transform="translate(-87.01 94.21) rotate(-44.97)"/><rect class="cls-11" x="1.68" y="151.7" width="143.64" height="1.04" transform="translate(-86.07 96.46) rotate(-44.97)"/><rect class="cls-11" x="4.88" y="151.7" width="143.64" height="1.04" transform="translate(-85.11 98.63) rotate(-44.93)"/><rect class="cls-11" x="8.07" y="151.7" width="143.64" height="1.04" transform="translate(-84.19 100.93) rotate(-44.95)"/><rect class="cls-11" x="11.26" y="151.7" width="143.64" height="1.04" transform="translate(-83.27 103.23) rotate(-44.97)"/><rect class="cls-11" x="14.46" y="151.7" width="143.64" height="1.04" transform="translate(-82.32 105.44) rotate(-44.95)"/><rect class="cls-11" x="17.65" y="151.7" width="143.64" height="1.04" transform="translate(-81.39 107.7) rotate(-44.95)"/><rect class="cls-11" x="20.84" y="151.7" width="143.64" height="1.04" transform="translate(-80.47 110) rotate(-44.97)"/><rect class="cls-11" x="24.03" y="151.7" width="143.64" height="1.04" transform="translate(-79.52 112.21) rotate(-44.95)"/><rect class="cls-11" x="27.23" y="151.7" width="143.64" height="1.04" transform="translate(-78.59 114.46) rotate(-44.95)"/><rect class="cls-11" x="30.42" y="151.7" width="143.64" height="1.04" transform="translate(-77.68 116.83) rotate(-44.98)"/><rect class="cls-11" x="33.61" y="151.7" width="143.64" height="1.04" transform="translate(-76.72 118.98) rotate(-44.95)"/><rect class="cls-11" x="36.81" y="151.7" width="143.64" height="1.04" transform="translate(-75.81 121.34) rotate(-44.98)"/><rect class="cls-11" x="40" y="151.7" width="143.64" height="1.04" transform="translate(-74.87 123.54) rotate(-44.97)"/><rect class="cls-11" x="43.19" y="151.7" width="143.64" height="1.04" transform="translate(-73.94 125.85) rotate(-44.98)"/><rect class="cls-11" x="46.38" y="151.7" width="143.64" height="1.04" transform="translate(-73.01 128.11) rotate(-44.98)"/><rect class="cls-11" x="49.58" y="151.7" width="143.64" height="1.04" transform="translate(-72.07 130.31) rotate(-44.97)"/><rect class="cls-11" x="52.77" y="151.7" width="143.64" height="1.04" transform="translate(-71.12 132.51) rotate(-44.95)"/><rect class="cls-11" x="55.96" y="151.7" width="143.64" height="1.04" transform="translate(-70.2 134.83) rotate(-44.97)"/><rect class="cls-11" x="59.16" y="151.7" width="143.64" height="1.04" transform="translate(-69.26 137.08) rotate(-44.97)"/><rect class="cls-11" x="62.35" y="151.7" width="143.64" height="1.04" transform="translate(-68.32 139.22) rotate(-44.93)"/><rect class="cls-11" x="65.54" y="151.7" width="143.64" height="1.04" transform="translate(-67.39 141.47) rotate(-44.93)"/><rect class="cls-11" x="68.74" y="151.7" width="143.64" height="1.04" transform="translate(-66.46 143.73) rotate(-44.93)"/><rect class="cls-11" x="71.93" y="151.7" width="143.64" height="1.04" transform="translate(-65.53 146.05) rotate(-44.95)"/><rect class="cls-11" x="75.12" y="151.7" width="143.64" height="1.04" transform="translate(-64.59 148.37) rotate(-44.97)"/><rect class="cls-11" x="78.31" y="151.7" width="143.64" height="1.04" transform="translate(-63.66 150.49) rotate(-44.93)"/><rect class="cls-11" x="81.51" y="151.7" width="143.64" height="1.04" transform="translate(-62.73 152.88) rotate(-44.97)"/><rect class="cls-11" x="84.7" y="151.7" width="143.64" height="1.04" transform="translate(-61.79 155.07) rotate(-44.95)"/><rect class="cls-11" x="87.89" y="151.7" width="143.64" height="1.04" transform="translate(-60.86 157.39) rotate(-44.97)"/><rect class="cls-11" x="91.09" y="151.7" width="143.64" height="1.04" transform="translate(-59.93 159.58) rotate(-44.95)"/><rect class="cls-11" x="94.28" y="151.7" width="143.64" height="1.04" transform="translate(-58.99 161.9) rotate(-44.97)"/><rect class="cls-11" x="97.47" y="151.7" width="143.64" height="1.04" transform="translate(-58.05 164.22) rotate(-44.98)"/><rect class="cls-11" x="100.67" y="151.7" width="143.64" height="1.04" transform="translate(-57.12 166.42) rotate(-44.97)"/><rect class="cls-11" x="103.86" y="151.7" width="143.64" height="1.04" transform="translate(-56.18 168.74) rotate(-44.98)"/><rect class="cls-11" x="107.05" y="151.7" width="143.64" height="1.04" transform="translate(-55.25 171) rotate(-44.98)"/><rect class="cls-11" x="110.24" y="151.7" width="143.64" height="1.04" transform="translate(-54.32 173.19) rotate(-44.97)"/><rect class="cls-11" x="113.44" y="151.7" width="143.64" height="1.04" transform="translate(-53.39 175.44) rotate(-44.97)"/><rect class="cls-11" x="116.63" y="151.7" width="143.64" height="1.04" transform="translate(-52.45 177.7) rotate(-44.97)"/><rect class="cls-11" x="119.82" y="151.7" width="143.64" height="1.04" transform="translate(-51.52 179.96) rotate(-44.97)"/><rect class="cls-11" x="123.02" y="151.7" width="143.64" height="1.04" transform="translate(-50.59 182.21) rotate(-44.97)"/><rect class="cls-11" x="126.21" y="151.7" width="143.64" height="1.04" transform="translate(-49.65 184.47) rotate(-44.97)"/><rect class="cls-11" x="129.4" y="151.7" width="143.64" height="1.04" transform="translate(-48.72 186.73) rotate(-44.97)"/><rect class="cls-11" x="132.6" y="151.7" width="143.64" height="1.04" transform="translate(-47.77 189.06) rotate(-44.98)"/><rect class="cls-11" x="135.79" y="151.7" width="143.64" height="1.04" transform="translate(-46.85 191.23) rotate(-44.97)"/><rect class="cls-11" x="138.98" y="151.7" width="143.64" height="1.04" transform="translate(-45.9 193.57) rotate(-44.98)"/><rect class="cls-11" x="142.17" y="151.7" width="143.64" height="1.04" transform="translate(-44.98 195.74) rotate(-44.97)"/></g></g><path class="cls-18" d="M134.91,158.56a3,3,0,0,0-2.64,1.68,4.37,4.37,0,0,0-.32,1.68c.3-.6.56-1.23.92-1.81a2.11,2.11,0,0,1,1.91-1.06c.39,0,.49-.17.59-.5a15,15,0,0,1,1.84-4.35,1.12,1.12,0,0,0,.17-.44c.17-1,.34-2,.49-3.08a.91.91,0,0,0-.14-.55c-.55-1-1.11-1.9-1.68-2.84a.75.75,0,0,0-.34-.32c-2.07-.73-3.29-2.39-4.55-4a21.64,21.64,0,0,1-4.24-12.06,18.22,18.22,0,0,1,1.1-8.2,15.39,15.39,0,0,1,2.63-4.2l.14-.19a.17.17,0,0,0,0-.07,7.94,7.94,0,0,0-2.8,3.28A17.84,17.84,0,0,0,126,133.35a27,27,0,0,0,2.36,8,12.34,12.34,0,0,0,5.9,5.86c1.39.66,1.55,1.83,1.94,3a3,3,0,0,1-1.09,3.26,8.71,8.71,0,0,1-3.93,2.33c-.52.12-1.06.17-1.56.25.14.73.3,1.45.39,2.18.31,2.44-1,4.2-3.76,4.34-1.62.08-3.24,0-4.86,0a1.22,1.22,0,0,0-.66.19,9.94,9.94,0,0,1-4.06,1.71,1.79,1.79,0,0,0-.73.36,12.42,12.42,0,0,1-5.38,3.16,10.15,10.15,0,0,1-1.9.22.88.88,0,0,1-.87-.82c-.06-1.48-1.06-2.51-1.64-3.74a33.07,33.07,0,0,1-3.28-11.18c-.25-2.87-.58-5.73-.83-8.6a21.26,21.26,0,0,1,.25-5.69,2.89,2.89,0,0,0-.12-.81,2,2,0,0,1,0-.65,15,15,0,0,1,1.67-5,29.71,29.71,0,0,1,10.93-11.32,14.13,14.13,0,0,1,5.37-1.81,2.79,2.79,0,0,0,1-.39c.86-.47,1.66-1,2.55-1.45a3.26,3.26,0,0,0,1.29-1.09c1.16-1.58,2.32-3.16,3.57-4.68a22.87,22.87,0,0,1,6.18-5.28c.14-.08.26-.18.4-.27a4,4,0,0,0,1.57-1.88,17.11,17.11,0,0,1,1.83-3.22,7.67,7.67,0,0,0,1.13-2.49c.26-1,.55-1.93.73-2.91a4.06,4.06,0,0,0-.09-1.51.45.45,0,0,0-.72-.27c-.34.18-.69.33-1,.53a4,4,0,0,1-4,0c-.31-.13-.53-.47-.89-.8.74-.07,1.29-.08,1.83-.18a2,2,0,0,0,1.5-1.25c.48-.94,1-1.84,1.57-2.75a1.87,1.87,0,0,1,.52-.49,1.9,1.9,0,0,1,3.17.69c.08.15.13.32.23.54a2.26,2.26,0,0,0,.63-1.78,6.15,6.15,0,0,0-.83-2.79,1.76,1.76,0,0,0-1.31-.73,6.45,6.45,0,0,0-3.7,1,5.57,5.57,0,0,1-6-.39,3.08,3.08,0,0,1-1.26-3A2.42,2.42,0,0,0,132,83.62a3.57,3.57,0,0,0,2.76-.54c.79-.62,1.5-1.32,2.23-2,.52-.49,1-1.08,1.52-1.53a3.24,3.24,0,0,1,3.12-.55,5,5,0,0,1,3.54,3.53c.23.8.4,1.61.61,2.48a3.21,3.21,0,0,0,.21-2.86,8.09,8.09,0,0,1-.92-5.91c.13-.5.28-1,.46-1.63.14.21.29.33.33.49a10.27,10.27,0,0,0,2.73,4.11,8.81,8.81,0,0,1,2.38,3l.15,0a4.77,4.77,0,0,0-.09-.77,4.29,4.29,0,0,0-1.49-2.14,3.87,3.87,0,0,1-.44-5.51,2.32,2.32,0,0,1,3.08-.42,2.52,2.52,0,0,1-.45.14,1.23,1.23,0,0,0-1,1.07,1.15,1.15,0,0,0,.55,1.35A3.46,3.46,0,0,1,153,78.1c.07,0,.13,0,.15-.09,1.34-2.34,3.42-3.05,6-2.77l2.5.31a5.46,5.46,0,0,0,3-.52,6.14,6.14,0,0,1-3.44,1.74c-.73.1-1.56.12-2,.82A3.67,3.67,0,0,1,157.5,79a2.07,2.07,0,0,0-1.2,1.67,1.12,1.12,0,0,0,.16-.22,3,3,0,0,1,2.58-1.8c1.27-.17,2.55-.28,3.81-.48a9.46,9.46,0,0,0,1.52-.52c-.82,1.47-1.63,2.19-4.48,4,1.74.58,3.49,1.12,4.58,2.72s2,3,1.56,5.14A6.46,6.46,0,0,0,163,86.05a7.7,7.7,0,0,1,1.56,5.45c-.52-1.81-.76-3.75-2.41-5,1,2,.15,4.37,1.62,6.24l-.22.12-2.69-1.71c.24.61.4,1.16.65,1.66a20.43,20.43,0,0,0,1.1,1.79.68.68,0,0,1-.08.91c-.56.65-1,1.67-1.53,2.35a6.27,6.27,0,0,0-.51,1c.75-.26.88-.54,1.61-.53-.32,1.16-.49,1.74-.78,2.86a3.27,3.27,0,0,0-.12,1.12,7.75,7.75,0,0,1-1,4.08c-.41.93-.79,1.88-1.13,2.84a6.71,6.71,0,0,0-.05,4.36,2,2,0,0,1-.34,1.86l-1,1.35a3,3,0,0,1,.07.94c-.27.84-.6,1.65-.91,2.48a.36.36,0,0,1-.13.19,4.59,4.59,0,0,1-3.21.89,6.63,6.63,0,0,1-3.34-1.21,18.29,18.29,0,0,1-1.73-1.89c-.09-.11,0-.39,0-.58.19-.67.41-1.33.58-1.87l1.54,1.28c-.72-1.09-1.41-2.1-2.08-3.14a.94.94,0,0,1-.09-.58,4.61,4.61,0,0,0,0-1.81,11.79,11.79,0,0,0-2.64-4.11,12.07,12.07,0,0,1-2.42-5.8,24.21,24.21,0,0,1,1-10.92.69.69,0,0,0,0-.49c-.23.56-.46,1.13-.68,1.69a19.34,19.34,0,0,0-.88,11.45,17,17,0,0,0,2.41,5,12,12,0,0,1,2.07,4.69,10.78,10.78,0,0,1-.13,4.76,1,1,0,0,0,.1.61,7.62,7.62,0,0,0,4.58,4.16,6.07,6.07,0,0,0,6.73-1.23,11.56,11.56,0,0,0,1.06-1.64c.81,2.33,1.75,4.67,1,7.22a6.94,6.94,0,0,1-3.18,4.14,2.13,2.13,0,0,1-.25.16,3,3,0,0,0-1.63,2,24.64,24.64,0,0,1-4.59,8.52,29.34,29.34,0,0,1-5,4.54,1.39,1.39,0,0,0-.49.74c-.32,1.32-.59,2.65-.88,4q-.54,2.52-1.06,5a1,1,0,0,0,0,.42,3.68,3.68,0,0,1-.74,3.15c-.72,1.12-1.31,2.34-1.93,3.53a2,2,0,0,0-.2.9c.09,2.13-.87,3.08-3,2.81a21.45,21.45,0,0,1-5.69-1.65,3.81,3.81,0,0,1-2-2.37.67.67,0,0,1,.15-.61,2.11,2.11,0,0,0,.72-1.77c0-.26,0-.52,0-.78a2.35,2.35,0,0,1,2.33-2.38C133.91,157.23,134.39,157.57,134.91,158.56ZM151.5,97.9a7.81,7.81,0,0,1-1.3-4.85c-.25.53-1.17,1.69-1.33,2.22a1.55,1.55,0,0,0,.07,1.19C149.52,97.22,150.84,97.21,151.5,97.9Z"/><path class="cls-18" d="M146.73,148.06a.81.81,0,0,1,.11-.32,6.18,6.18,0,0,1,4.93-2.65.88.88,0,0,1,.56.32,2.06,2.06,0,0,1,.31.59,14.3,14.3,0,0,0,3.56-5.88c-.14.24-.28.49-.44.72-.76,1.1-1.52,2.19-2.3,3.28a.65.65,0,0,1-.41.18,5.89,5.89,0,0,1-.84,0,6,6,0,0,0-3.17.29c-.07,0-.19,0-.34,0,.05-.11.06-.19.11-.23a23.27,23.27,0,0,0,6.38-8.54c.51-1,.95-2.12,1.43-3.17.06-.13.21-.33.28-.31.53.11.77-.34,1.15-.53a14.6,14.6,0,0,1,2.48-1.14c2.47-.74,5.88,2.32,5.85,4.66a2,2,0,0,1-1.45,2.1.73.73,0,0,0-.32.24c-.94,1-1.88,2-2.8,3a2,2,0,0,0-.29.52,26.32,26.32,0,0,1-3.72,6.36,5.42,5.42,0,0,0-1.06,2.2,8.51,8.51,0,0,1-1,2.2c-.36.6-.8.61-1.37.21a.76.76,0,0,0-.47-.11c-2.33.36-3.56-1.62-3.25-3.55.07-.39.18-.77.29-1.27-1.09,2-1.13,4.19.77,5.33a1,1,0,0,1,.31,1.49,5,5,0,0,1-4.65,2.44c-1.88-.08-2.05-.25-2.28-2.09a9.56,9.56,0,0,1,1.43-6.14c.05-.1.17-.16.26-.24a2.16,2.16,0,0,0,.08,1.89Z"/><path class="cls-18" d="M108.09,107.3a2.39,2.39,0,0,1,1.86-.8,6.43,6.43,0,0,1,4.28,1.65c.24.21.48.43.7.66,2,2.11,4.51,1.2,5.94-.29.83-.88,1.53-1.9,2.3-2.84a5.32,5.32,0,0,1,5.84-2,46.18,46.18,0,0,1,4.63,1.48c-1,.29-1.94.55-2.88.89a9.23,9.23,0,0,0-4.37,3.45c-.52.73-1,1.48-1.51,2.24-2.7,4.19-8.13,4-11.1.17-.36-.45-.6-1-1-1.45a21.86,21.86,0,0,0-2-2.33A3.51,3.51,0,0,0,108.09,107.3Z"/><path class="cls-18" d="M139.86,94.79a1.24,1.24,0,0,1-.22.12,2.25,2.25,0,0,0-1.73,2.79,6.86,6.86,0,0,1-1.45,5.06,3.52,3.52,0,0,1-3.81,1.24c-1.33-.29-2.63-.67-3.94-1a5,5,0,0,0-4.54,1.09c-.76.58-1.48,1.21-2.22,1.81l-.16-.09c.45-.92.83-1.89,1.36-2.76a6.38,6.38,0,0,1,5.52-3.17c1.18,0,2.36-.14,3.54-.2a2.39,2.39,0,0,0,2.13-1.51,16.84,16.84,0,0,1,1.09-2.06A4,4,0,0,1,139.86,94.79Z"/><path class="cls-18" d="M114,107a4.89,4.89,0,0,0,2.83-.27,3.57,3.57,0,0,0,2.56-3c.16-1.49.17-3,.21-4.49a5.77,5.77,0,0,1,1.3-4,3.74,3.74,0,0,1,3.28-1.29c1.35.16,2.68.45,4,.68a2.59,2.59,0,0,0,2.57-.76,8.15,8.15,0,0,1,1.18-.91c-.3.61-.58,1.11-.78,1.64a3.17,3.17,0,0,1-2.73,2.05,8.16,8.16,0,0,1-2.31-.26,3.45,3.45,0,0,0-4.21,2.71c-.4,1.64-.55,3.34-.81,5-.11.69-.18,1.39-.34,2.07a3,3,0,0,1-2.59,2.31A4.91,4.91,0,0,1,114,107Z"/><path class="cls-18" d="M123.43,114.68a7.29,7.29,0,0,1-2.19,2.61,7.9,7.9,0,0,1-3.69,1.63,7,7,0,0,1-4.48-1c-.65-.43-1.24-.94-1.88-1.4a1.67,1.67,0,0,0-2.65.36,4.47,4.47,0,0,1-2.68,1.59,2.92,2.92,0,0,1-1.25-.16,1.86,1.86,0,0,0,1.83-1.74c0-.14.09-.27.12-.41a3.36,3.36,0,0,1,2.26-2.71,4.77,4.77,0,0,1,4.21.39c.82.5,1.65,1,2.48,1.46a6.39,6.39,0,0,0,5,.44C121.47,115.47,122.38,115.06,123.43,114.68Z"/><path class="cls-18" d="M140.35,86.16c-1.46-.11-2,1.07-2.76,1.85a21.63,21.63,0,0,0-1.94,2.52,5.25,5.25,0,0,1-5.75,1.56,6.06,6.06,0,0,1-2-1.64,13,13,0,0,0-1.19-1.27A2.72,2.72,0,0,0,123,89c-.54.41-1,.89-1.55,1.36A6,6,0,0,1,123.62,87a2.91,2.91,0,0,1,2.76-.37c1.14.37,2.22.9,3.32,1.38a7.68,7.68,0,0,0,3.57.66,3.31,3.31,0,0,0,2.49-1.13,5.17,5.17,0,0,1,2-1.63,2.74,2.74,0,0,1,2-.09A2.65,2.65,0,0,1,140.35,86.16Z"/><path class="cls-18" d="M118.91,99.86c.62,2.9-.17,5.16-3,6.19-1.67.61-3.17-.13-4.65-.84a15.41,15.41,0,0,0-2.62-1,8,8,0,0,0-2.14-.16,2.76,2.76,0,0,0-2.48,1.64c-.52,1-.9,2.15-1.32,3.2a6.58,6.58,0,0,1,.24-2.69,10,10,0,0,1,2.23-3.6,4.21,4.21,0,0,1,3.37-1.12,9.4,9.4,0,0,1,4,1.06,10.42,10.42,0,0,0,2.42.86,2,2,0,0,0,2.14-.88C117.68,101.6,118.32,100.7,118.91,99.86Z"/><path class="cls-18" d="M98,115a7.88,7.88,0,0,0,1.47.41c.91.06,1.83,0,2.74,0,.55,0,.71-.32.59-.85a5.4,5.4,0,0,1,1.39-5,3.87,3.87,0,0,1,4-1.33,2.85,2.85,0,0,1,2,1.81c.31.73.55,1.49.86,2.33-.49-.33-.89-.63-1.32-.89a2.74,2.74,0,0,0-2.31-.53,2.62,2.62,0,0,0-1.88,2.31c0,.47-.12.95-.21,1.42-.34,1.64-.86,2.19-2.53,2.41A5.05,5.05,0,0,1,98,115Z"/><path class="cls-18" d="M121.89,103.84a20.17,20.17,0,0,1,1.77-5.3l0-.05a3.48,3.48,0,0,1,3.6-1.65l1.79.23a2.54,2.54,0,0,0,2.83-1.41,2.89,2.89,0,0,1,.76-1,1.35,1.35,0,0,1,1.69-.15c-.9.13-1.19.5-1.15,1.44a6.63,6.63,0,0,1,0,1.26,1.82,1.82,0,0,1-1.75,1.59c-1.33.14-2.66.34-4,.48a4.5,4.5,0,0,0-3,1.54c-.83.92-1.55,1.93-2.31,2.9a.62.62,0,0,0-.08.24Z"/><path class="cls-18" d="M114.2,120.3a7.3,7.3,0,0,1-2.09.28c-2.29-.31-3.69.79-4.4,2.91A6,6,0,0,1,106.2,126a3.13,3.13,0,0,1-1,.57,7.31,7.31,0,0,0,1.48-4.2A12.64,12.64,0,0,1,107,120a3.67,3.67,0,0,1,3.6-2.79,2.09,2.09,0,0,1,2,1.46c.27.77.58,1.43,1.6,1.35C114.21,120.1,114.2,120.2,114.2,120.3Z"/><path class="cls-18" d="M115.82,92c1.06,2.35,3.18,2,4.73.87a18.31,18.31,0,0,0,1.69-1.61c1.82-1.79,4-1.29,4.82,1.12.13.36.22.74.37,1.27-.33-.24-.52-.37-.7-.52a3.09,3.09,0,0,0-4-.22c-.75.5-1.47,1-2.21,1.55a3.77,3.77,0,0,1-2.63.84C116.38,95,115.58,93.81,115.82,92Z"/><path class="cls-18" d="M164.16,83.61a5.43,5.43,0,0,0-3.77-2,19.72,19.72,0,0,0,6.09-5.08C166.61,79.25,166.16,81.65,164.16,83.61Z"/><path class="cls-18" d="M132.73,106a23,23,0,0,0-5.82,6c-.9,1.18-1.85,2.31-2.8,3.45a6,6,0,0,1-.81.67c.91-1.7,1.78-3.37,2.72-5a10.47,10.47,0,0,1,5-4.49C131.58,106.3,132.16,106.15,132.73,106Z"/><path class="cls-18" d="M107.46,125.52c.28-.72.63-1.64,1-2.55a2.68,2.68,0,0,1,2.35-1.7c.63-.07,1.26-.11,1.68-.15Z"/><path class="cls-18" d="M138.5,99.55c0-.75,0-1.5,0-2.25a1.81,1.81,0,0,1,1.21-1.87c-.1.37-.21.7-.28,1a10.81,10.81,0,0,0-.28,1.59A2.38,2.38,0,0,1,138.5,99.55Z"/><path class="cls-8" d="M88.94,167.24l13-34.83a6.46,6.46,0,0,1,6-4.26h13.53l-.35.94a5.54,5.54,0,0,1,3.2-.94h14l-14.63,39.09Z"/><path class="cls-11" d="M120.8,133.14,117.13,143h-3.44l4.78-12.76H108a4.49,4.49,0,0,0-4,2.9l-12,32H105.4l5.35-14.29h3.44l-5.36,14.29h13.45l13.07-34.91h-11A3.56,3.56,0,0,0,120.8,133.14Z"/><path class="cls-19" d="M120.8,133.14,117.13,143h-3.44l4.78-12.76H108a4.49,4.49,0,0,0-4,2.9l-12,32H105.4l5.35-14.29h3.44l-5.36,14.29h13.45l13.07-34.91h-11A3.56,3.56,0,0,0,120.8,133.14Z"/><g class="cls-15"><g class="cls-20"><rect class="cls-11" x="-11.19" y="151.7" width="143.64" height="1.04" transform="translate(-89.8 87.28) rotate(-44.93)"/><rect class="cls-11" x="-8" y="151.7" width="143.64" height="1.04" transform="translate(-88.87 89.53) rotate(-44.93)"/><rect class="cls-11" x="-4.8" y="151.7" width="143.64" height="1.04" transform="translate(-87.97 91.88) rotate(-44.97)"/><rect class="cls-11" x="-1.61" y="151.7" width="143.64" height="1.04" transform="translate(-87.02 94.09) rotate(-44.95)"/><rect class="cls-11" x="1.58" y="151.7" width="143.64" height="1.04" transform="translate(-86.1 96.39) rotate(-44.97)"/><rect class="cls-11" x="4.78" y="151.7" width="143.64" height="1.04" transform="translate(-85.14 98.56) rotate(-44.93)"/><rect class="cls-11" x="7.97" y="151.7" width="143.64" height="1.04" transform="translate(-84.24 100.91) rotate(-44.97)"/><rect class="cls-11" x="11.16" y="151.7" width="143.64" height="1.04" transform="translate(-83.27 103.06) rotate(-44.93)"/><rect class="cls-11" x="14.36" y="151.7" width="143.64" height="1.04" transform="translate(-82.37 105.42) rotate(-44.97)"/><rect class="cls-11" x="17.55" y="151.7" width="143.64" height="1.04" transform="translate(-81.41 107.58) rotate(-44.93)"/><rect class="cls-11" x="20.74" y="151.7" width="143.64" height="1.04" transform="translate(-80.49 109.88) rotate(-44.95)"/><rect class="cls-11" x="23.93" y="151.7" width="143.64" height="1.04" transform="translate(-79.55 112.14) rotate(-44.95)"/><rect class="cls-11" x="27.13" y="151.7" width="143.64" height="1.04" transform="translate(-78.63 114.45) rotate(-44.97)"/><rect class="cls-11" x="30.32" y="151.7" width="143.64" height="1.04" transform="translate(-77.69 116.65) rotate(-44.95)"/><rect class="cls-11" x="33.51" y="151.7" width="143.64" height="1.04" transform="translate(-76.76 118.96) rotate(-44.97)"/><rect class="cls-11" x="36.71" y="151.7" width="143.64" height="1.04" transform="translate(-75.84 121.27) rotate(-44.98)"/><rect class="cls-11" x="39.9" y="151.7" width="143.64" height="1.04" transform="translate(-74.9 123.47) rotate(-44.97)"/><rect class="cls-11" x="43.09" y="151.7" width="143.64" height="1.04" transform="translate(-73.97 125.78) rotate(-44.98)"/><rect class="cls-11" x="46.28" y="151.7" width="143.64" height="1.04" transform="translate(-73.03 127.99) rotate(-44.97)"/><rect class="cls-11" x="49.48" y="151.7" width="143.64" height="1.04" transform="translate(-72.1 130.29) rotate(-44.98)"/><rect class="cls-11" x="52.67" y="151.7" width="143.64" height="1.04" transform="translate(-71.16 132.44) rotate(-44.95)"/><rect class="cls-11" x="55.86" y="151.7" width="143.64" height="1.04" transform="translate(-70.23 134.76) rotate(-44.97)"/><rect class="cls-11" x="59.06" y="151.7" width="143.64" height="1.04" transform="translate(-69.29 137.01) rotate(-44.97)"/><rect class="cls-11" x="62.25" y="151.7" width="143.64" height="1.04" transform="translate(-68.36 139.27) rotate(-44.97)"/><rect class="cls-11" x="65.44" y="151.7" width="143.64" height="1.04" transform="translate(-67.42 141.4) rotate(-44.93)"/><rect class="cls-11" x="68.64" y="151.7" width="143.64" height="1.04" transform="translate(-66.49 143.78) rotate(-44.97)"/><rect class="cls-11" x="71.83" y="151.7" width="143.64" height="1.04" transform="translate(-65.56 146.03) rotate(-44.97)"/><rect class="cls-11" x="75.02" y="151.7" width="143.64" height="1.04" transform="translate(-64.62 148.29) rotate(-44.97)"/><rect class="cls-11" x="78.21" y="151.7" width="143.64" height="1.04" transform="translate(-63.69 150.49) rotate(-44.95)"/><rect class="cls-11" x="81.41" y="151.7" width="143.64" height="1.04" transform="translate(-62.76 152.74) rotate(-44.95)"/><rect class="cls-11" x="84.6" y="151.7" width="143.64" height="1.04" transform="translate(-61.82 155.06) rotate(-44.97)"/><rect class="cls-11" x="87.79" y="151.7" width="143.64" height="1.04" transform="translate(-60.89 157.25) rotate(-44.95)"/><rect class="cls-11" x="90.99" y="151.7" width="143.64" height="1.04" transform="translate(-59.95 159.64) rotate(-44.98)"/><rect class="cls-11" x="94.18" y="151.7" width="143.64" height="1.04" transform="translate(-59.02 161.83) rotate(-44.97)"/><rect class="cls-11" x="97.37" y="151.7" width="143.64" height="1.04" transform="translate(-58.09 164.02) rotate(-44.95)"/><rect class="cls-11" x="100.57" y="151.7" width="143.64" height="1.04" transform="translate(-57.15 166.41) rotate(-44.98)"/><rect class="cls-11" x="103.76" y="151.7" width="143.64" height="1.04" transform="translate(-56.21 168.74) rotate(-45)"/><rect class="cls-11" x="106.95" y="151.7" width="143.64" height="1.04" transform="translate(-55.28 170.85) rotate(-44.97)"/><rect class="cls-11" x="110.14" y="151.7" width="143.64" height="1.04" transform="translate(-54.35 173.12) rotate(-44.97)"/><rect class="cls-11" x="113.34" y="151.7" width="143.64" height="1.04" transform="translate(-53.4 175.51) rotate(-45)"/><polygon class="cls-11" points="137.93 203.37 137.2 202.63 238.76 101.07 239.5 101.8 137.93 203.37"/><rect class="cls-11" x="119.72" y="151.7" width="143.64" height="1.04" transform="translate(-51.55 179.88) rotate(-44.97)"/><rect class="cls-11" x="122.92" y="151.7" width="143.64" height="1.04" transform="translate(-50.62 182.06) rotate(-44.95)"/><rect class="cls-11" x="126.11" y="151.7" width="143.64" height="1.04" transform="translate(-49.7 184.25) rotate(-44.93)"/><rect class="cls-11" x="129.3" y="151.7" width="143.64" height="1.04" transform="translate(-48.74 186.73) rotate(-44.98)"/><rect class="cls-11" x="132.49" y="151.7" width="143.64" height="1.04" transform="translate(-47.83 188.83) rotate(-44.95)"/><rect class="cls-11" x="135.69" y="151.7" width="143.64" height="1.04" transform="translate(-46.87 191.24) rotate(-44.98)"/><rect class="cls-11" x="138.88" y="151.7" width="143.64" height="1.04" transform="translate(-45.96 193.35) rotate(-44.95)"/><rect class="cls-11" x="142.07" y="151.7" width="143.64" height="1.04" transform="translate(-45 195.75) rotate(-44.98)"/><rect class="cls-11" x="145.27" y="151.7" width="143.64" height="1.04" transform="translate(-44.07 198.01) rotate(-44.98)"/><rect class="cls-11" x="148.46" y="151.7" width="143.64" height="1.04" transform="translate(-43.12 200.34) rotate(-45)"/><rect class="cls-11" x="151.65" y="151.7" width="143.64" height="1.04" transform="translate(-42.21 202.44) rotate(-44.97)"/></g></g><polygon class="cls-8" points="182.59 187.99 96.51 187.99 88.94 167.22 188.31 167.22 182.59 187.99"/><path class="cls-21" d="M109.48,182.63v.93H111v.65h-1.5v1.54h-.73V182h2.49v.66Z"/><path class="cls-22" d="M115.76,185.37a1.39,1.39,0,0,1-1,.41,1.42,1.42,0,0,1-1-.41c-.38-.39-.37-.86-.37-1.51s0-1.13.37-1.51a1.42,1.42,0,0,1,1-.41,1.39,1.39,0,0,1,1,.41c.38.38.37.86.37,1.51S116.14,185,115.76,185.37Zm-.55-2.57a.6.6,0,0,0-.47-.21.59.59,0,0,0-.48.21c-.14.16-.18.33-.18,1.06s0,.9.18,1.06a.61.61,0,0,0,.48.2.62.62,0,0,0,.47-.2c.14-.16.18-.33.18-1.06S115.35,183,115.21,182.8Z"/><path class="cls-23" d="M120.87,185.37a1.39,1.39,0,0,1-1,.41,1.38,1.38,0,0,1-1-.41c-.38-.39-.37-.86-.37-1.51s0-1.13.37-1.51a1.38,1.38,0,0,1,1-.41,1.39,1.39,0,0,1,1,.41,3.19,3.19,0,0,1,0,3Zm-.55-2.57a.58.58,0,0,0-.47-.21.62.62,0,0,0-.48.21c-.14.16-.18.33-.18,1.06s0,.9.18,1.06a.65.65,0,0,0,.48.2.61.61,0,0,0,.47-.2c.15-.16.19-.33.19-1.06S120.47,183,120.32,182.8Z"/><path class="cls-24" d="M125,182.63v3.12h-.74v-3.12h-1V182H126v.66Z"/><path class="cls-25" d="M129.9,185.75h-1.58V182h1.52A1,1,0,0,1,131,183a.87.87,0,0,1-.46.78.89.89,0,0,1,.52.85A1,1,0,0,1,129.9,185.75Zm-.12-3.12h-.72v.87h.72a.44.44,0,0,0,.49-.44C130.27,182.8,130.09,182.63,129.78,182.63Zm.05,1.53h-.77v.93h.77a.47.47,0,1,0,0-.93Z"/><path class="cls-26" d="M135.66,185.75l-.23-.67h-1.34l-.23.67h-.77l1.38-3.78h.58l1.38,3.78Zm-.88-2.67-.48,1.38h.94Z"/><path class="cls-27" d="M138.59,185.75V182h.74v3.12H141v.66Z"/><path class="cls-28" d="M143.34,185.75V182h.74v3.12h1.71v.66Z"/><path class="cls-29" d="M152.28,185.78a1.43,1.43,0,0,1-1-.41c-.38-.39-.37-.86-.37-1.51s0-1.13.37-1.51a1.43,1.43,0,0,1,1-.41,1.32,1.32,0,0,1,1.39,1.19h-.75a.62.62,0,0,0-.63-.54.63.63,0,0,0-.48.2c-.14.16-.18.34-.18,1.07s0,.91.18,1.06a.6.6,0,0,0,.48.2.61.61,0,0,0,.63-.53h.75A1.33,1.33,0,0,1,152.28,185.78Z"/><path class="cls-30" d="M156,185.75V182h.74v3.12h1.72v.66Z"/><path class="cls-31" d="M162,185.78a1.32,1.32,0,0,1-1.39-1.33V182h.74v2.46a.62.62,0,0,0,.65.69.63.63,0,0,0,.66-.69V182h.73v2.48A1.31,1.31,0,0,1,162,185.78Z"/><path class="cls-32" d="M167.51,185.75h-1.58V182h1.52a1,1,0,0,1,1.17,1.06.88.88,0,0,1-.47.78.89.89,0,0,1,.52.85A1,1,0,0,1,167.51,185.75Zm-.12-3.12h-.72v.87h.72a.44.44,0,0,0,.49-.44C167.88,182.8,167.7,182.63,167.39,182.63Zm.05,1.53h-.77v.93h.77a.47.47,0,1,0,0-.93Z"/><path class="cls-33" d="M105.63,178.39v-3.5h-2.84v3.5h-1.63V170h1.63v3.42h2.84V170h1.63v8.37Z"/><path class="cls-34" d="M110.87,178.39V170h5.51v1.46H112.5v2h3.31v1.46H112.5v2h3.88v1.45Z"/><path class="cls-35" d="M124.58,178.39l-3.31-5.14v5.14h-1.64V170h1.46l3.32,5.13V170H126v8.37Z"/><path class="cls-36" d="M134.81,177.51a3.09,3.09,0,0,1-2.37,1,3.05,3.05,0,0,1-2.25-.91c-.85-.85-.83-1.9-.83-3.34s0-2.5.83-3.35a3.21,3.21,0,0,1,5.41,1.77H134a1.42,1.42,0,0,0-1.51-1.22,1.34,1.34,0,0,0-1,.44c-.32.36-.4.74-.4,2.36s.08,2,.4,2.36a1.34,1.34,0,0,0,1,.44,1.55,1.55,0,0,0,1.17-.47,1.64,1.64,0,0,0,.38-1.12v-.32h-1.55v-1.36h3.17V175A3.31,3.31,0,0,1,134.81,177.51Z"/><path class="cls-37" d="M144.93,171.48v2.06h3.3V175h-3.3v3.4h-1.64V170h5.52v1.46Z"/><path class="cls-38" d="M151.88,178.39V170h5.52v1.46h-3.88v2h3.3v1.46h-3.3v2h3.88v1.45Z"/><path class="cls-39" d="M165.6,178.39l-3.32-5.14v5.14h-1.63V170h1.46l3.31,5.13V170h1.64v8.37Z"/><path class="cls-40" d="M175.82,177.51a3.33,3.33,0,0,1-4.62,0c-.85-.85-.82-1.9-.82-3.34s0-2.5.82-3.35a3.08,3.08,0,0,1,2.26-.91,3,3,0,0,1,3.15,2.68H175a1.42,1.42,0,0,0-1.51-1.22,1.37,1.37,0,0,0-1.05.44c-.31.36-.4.74-.4,2.36s.09,2,.4,2.36a1.37,1.37,0,0,0,1.05.44,1.55,1.55,0,0,0,1.16-.47,1.64,1.64,0,0,0,.38-1.12v-.32h-1.54v-1.36h3.16V175A3.31,3.31,0,0,1,175.82,177.51Z"/><line class="cls-41" x1="100.18" y1="179.98" x2="177.27" y2="179.98"/></g></g></g></svg>