<svg xmlns="http://www.w3.org/2000/svg" xmlns:xlink="http://www.w3.org/1999/xlink" viewBox="0 0 121.95 191.13"><defs><style>.cls-1{fill:none;}.cls-2{font-size:27.72px;fill:#fff;font-family:MHeiGB5-Bold, MHeiGB5 Bold;font-weight:700;}.cls-3{fill:#f5b31a;}.cls-4{fill:#2b3580;}.cls-5{clip-path:url(#clip-path);}</style><clipPath id="clip-path"><path class="cls-1" d="M61,11.37h0A74.15,74.15,0,0,0,17.25,25.55V90.87c0,27.33,31.84,28.59,43.73,39.44,11.89-10.85,43.72-12.11,43.72-39.44V25.55A74.14,74.14,0,0,0,61,11.37Z"/></clipPath></defs><title>Asset 35</title><g id="Layer_2" data-name="Layer 2"><g id="Layer_1-2" data-name="Layer 1"><path class="cls-3" d="M57.4,143.3c-3.64-3.33-9.83-6-16.37-8.83-7.85-3.39-16.74-7.23-23.69-13.34C9.22,114,5.27,105.09,5.27,93.91V17.09L7.46,15.5C23.1,4.15,41.6,0,61,0S98.86,4.15,114.5,15.5l2.18,1.59V93.91c0,11.18-3.94,20.08-12.07,27.22-7,6.11-15.84,10-23.68,13.34-6.55,2.83-12.73,5.5-16.38,8.83L61,146.56Z"/><path class="cls-4" d="M112.85,17.21C97.69,6.21,79.75,2.26,61,2.26s-36.72,4-51.88,15L7.44,18.42v75c0,23.89,19.08,32.13,34.41,38.76,6.52,2.81,12.68,5.48,16.41,8.87L61,143.57l2.71-2.48c3.73-3.39,9.89-6.06,16.41-8.87,15.33-6.63,34.41-14.87,34.41-38.76v-75ZM104.7,90.87c0,27.33-31.83,28.59-43.72,39.44C49.09,119.46,17.25,118.2,17.25,90.87V33.53a1.29,1.29,0,0,1,1.23-1.23A105.11,105.11,0,0,1,61,41.48a105.08,105.08,0,0,1,42.5-9.18,1.28,1.28,0,0,1,1.22,1.23Z"/><path class="cls-3" d="M14.9,81.1H15v2.77H14.9V83.7a.81.81,0,0,0-.08-.37.45.45,0,0,0-.18-.15,1.64,1.64,0,0,0-.49,0H11.6A2.91,2.91,0,0,1,10.51,83a1.29,1.29,0,0,1-.56-.53,1.7,1.7,0,0,1-.23-.92,1.57,1.57,0,0,1,.34-1.06,1,1,0,0,1,.77-.41.58.58,0,0,1,.43.17.54.54,0,0,1,.17.4.53.53,0,0,1-.15.39.47.47,0,0,1-.37.16l-.19,0L10.53,81a.48.48,0,0,0-.22-.1.19.19,0,0,0-.17.1.57.57,0,0,0-.11.38.46.46,0,0,0,.08.27.51.51,0,0,0,.27.15,5.69,5.69,0,0,0,1,0h2.78a1.56,1.56,0,0,0,.5,0,.35.35,0,0,0,.17-.17.67.67,0,0,0,.08-.35Z"/><path class="cls-3" d="M10,87H9.84V84.31H10v.17a.74.74,0,0,0,.08.36.36.36,0,0,0,.18.16,1.6,1.6,0,0,0,.49,0h3.42a1.68,1.68,0,0,0,.5,0,.4.4,0,0,0,.17-.17.7.7,0,0,0,.08-.35v-.17H15V87H14.9v-.17a.75.75,0,0,0-.08-.37.4.4,0,0,0-.18-.16,2.1,2.1,0,0,0-.49,0H10.73a1.51,1.51,0,0,0-.5,0,.36.36,0,0,0-.18.17.68.68,0,0,0-.07.35Z"/><path class="cls-3" d="M11.32,90.72V88.88l-.51-.22a1.19,1.19,0,0,0-.42-.11.35.35,0,0,0-.32.18,1.52,1.52,0,0,0-.09.51H9.84V87.51H10a.78.78,0,0,0,.23.46,3,3,0,0,0,.79.44l4.15,1.86v.08l-4.27,1.87a2.44,2.44,0,0,0-.76.45A.57.57,0,0,0,10,93H9.84V90.52H10v.1a.91.91,0,0,0,.08.43.22.22,0,0,0,.18.08l.14,0,.29-.12Zm.28-.13,1.79-.78L11.6,89Z"/><path class="cls-3" d="M15.2,95.07,12.31,98l2.22-.27a1.09,1.09,0,0,0,.61-.21.76.76,0,0,0,.14-.64l.14,0,.21,1.71h-.14a1.25,1.25,0,0,0-.17-.42.42.42,0,0,0-.23-.15,1.51,1.51,0,0,0-.53,0l-4.3.52,0-.12,3.88-4-3.29.41a.72.72,0,0,0-.57.27.75.75,0,0,0-.1.49v.12l-.14,0-.22-1.83.14,0a.84.84,0,0,0,.25.57.82.82,0,0,0,.6.1l3.65-.45.12-.13a.92.92,0,0,0,.23-.32.7.7,0,0,0,0-.37l.14,0Z"/><path class="cls-3" d="M17.38,103.78l-1.75.56,0-.13a2.35,2.35,0,0,0,.85-1.09,1.8,1.8,0,0,0,0-1.19,1.44,1.44,0,0,0-.61-.82,1.75,1.75,0,0,0-1-.24,4.53,4.53,0,0,0-1.2.22,4.25,4.25,0,0,0-1.19.57,1.46,1.46,0,0,0-.57,1.77,1.84,1.84,0,0,0,.15.36c.07.11.15.23.24.35l1-.34a1.13,1.13,0,0,0,.36-.16.42.42,0,0,0,.11-.22,1,1,0,0,0,0-.33l-.05-.12.14,0,.78,2.41-.13,0a1.11,1.11,0,0,0-.2-.36.38.38,0,0,0-.24-.1,1,1,0,0,0-.35.08l-1,.33a4.6,4.6,0,0,1-.64-.88,5,5,0,0,1-.46-1,3.45,3.45,0,0,1-.19-1.23,3.26,3.26,0,0,1,.24-1,2.48,2.48,0,0,1,.52-.78,2.64,2.64,0,0,1,1.05-.63,2.71,2.71,0,0,1,2.14.17,2.89,2.89,0,0,1,1.41,1.73,3.89,3.89,0,0,1,.16.68,3.6,3.6,0,0,1,0,.58,3.23,3.23,0,0,0,0,.47.36.36,0,0,0,.14.16.68.68,0,0,0,.33.07Z"/><path class="cls-3" d="M19.4,107.49l-1.49.88-.08-.14a1.76,1.76,0,0,0,.65-1,1.4,1.4,0,0,0-.11-1,.88.88,0,0,0-.48-.44.67.67,0,0,0-.54,0,.69.69,0,0,0-.23.22,1.51,1.51,0,0,0-.13.49,6,6,0,0,0,0,1,3.94,3.94,0,0,1-.14,1.48,1.5,1.5,0,0,1-1.88.82,1.82,1.82,0,0,1-1-.9,1.78,1.78,0,0,1-.18-.43,4.06,4.06,0,0,1-.1-.57.92.92,0,0,0-.08-.3.36.36,0,0,0-.17-.15.54.54,0,0,0-.29,0l-.07-.13,1.72-1,.06.12a2.36,2.36,0,0,0-.79,1.19,1.57,1.57,0,0,0,.13,1.12,1,1,0,0,0,.54.48.73.73,0,0,0,.6,0,.81.81,0,0,0,.26-.26,1,1,0,0,0,.14-.42,4,4,0,0,0,0-.81,6.76,6.76,0,0,1,0-1.18,1.73,1.73,0,0,1,.25-.69,1.41,1.41,0,0,1,.5-.47,1.4,1.4,0,0,1,1.15-.11,1.58,1.58,0,0,1,.94.79,2,2,0,0,1,.18.46,2.48,2.48,0,0,1,.07.47,1.09,1.09,0,0,0,.06.37.22.22,0,0,0,.13.11.62.62,0,0,0,.32,0Z"/><path class="cls-3" d="M19.65,108.24l1.7,2.08-.11.09-.08-.11a1,1,0,0,0-.31-.28.39.39,0,0,0-.24,0,1.65,1.65,0,0,0-.46.31l-2,1.62a2.65,2.65,0,0,0-.65.67.86.86,0,0,0-.07.51,1.07,1.07,0,0,0,.27.56,1.3,1.3,0,0,0,.6.44,1.16,1.16,0,0,0,.69,0,2.94,2.94,0,0,0,1-.62l1.65-1.35a1.33,1.33,0,0,0,.34-.37.47.47,0,0,0,0-.28,1.19,1.19,0,0,0-.24-.43l.11-.09,1.14,1.39-.11.09-.07-.08a.71.71,0,0,0-.3-.23.57.57,0,0,0-.34,0,1.28,1.28,0,0,0-.37.24l-1.53,1.25a5.07,5.07,0,0,1-1.1.75,1.45,1.45,0,0,1-.95,0,2.15,2.15,0,0,1-1.08-.77,2.51,2.51,0,0,1-.52-.92,1.51,1.51,0,0,1,0-.95,2.24,2.24,0,0,1,.66-.82l2-1.61a1.66,1.66,0,0,0,.41-.4.38.38,0,0,0,0-.24,1.12,1.12,0,0,0-.24-.39Z"/><path class="cls-3" d="M29.34,117.28l-1,1.43-.13-.09a1.74,1.74,0,0,0,.17-1.17,1.33,1.33,0,0,0-.53-.87.87.87,0,0,0-.62-.2.62.62,0,0,0-.47.26.55.55,0,0,0-.11.29,1.18,1.18,0,0,0,.07.5,8.45,8.45,0,0,0,.42.85,3.92,3.92,0,0,1,.5,1.41,1.43,1.43,0,0,1-.29.93,1.49,1.49,0,0,1-1.07.61,1.84,1.84,0,0,1-1.32-.38,1.7,1.7,0,0,1-.34-.31,3.41,3.41,0,0,1-.34-.48.84.84,0,0,0-.2-.24.34.34,0,0,0-.22-.06.54.54,0,0,0-.28.09l-.11-.09,1.15-1.59.11.08a2.29,2.29,0,0,0-.21,1.41,1.53,1.53,0,0,0,.58,1,1,1,0,0,0,.7.22.71.71,0,0,0,.52-.3.59.59,0,0,0,.13-.34,1,1,0,0,0,0-.44,3.87,3.87,0,0,0-.33-.75,5.46,5.46,0,0,1-.48-1.08,1.79,1.79,0,0,1-.06-.72,1.41,1.41,0,0,1,.25-.64,1.43,1.43,0,0,1,1-.59,1.61,1.61,0,0,1,1.19.32,2.31,2.31,0,0,1,.36.34,2.16,2.16,0,0,1,.25.4,1.24,1.24,0,0,0,.22.31.22.22,0,0,0,.17,0,.82.82,0,0,0,.26-.17Z"/><path class="cls-3" d="M30,117.92l2.32,1.37-.07.12-.12-.07a1.09,1.09,0,0,0-.39-.16.37.37,0,0,0-.23.07,2.08,2.08,0,0,0-.32.46l-1.3,2.19a2.66,2.66,0,0,0-.38.85.91.91,0,0,0,.11.5,1.12,1.12,0,0,0,.45.44,1.33,1.33,0,0,0,.72.21,1.22,1.22,0,0,0,.65-.23,3.27,3.27,0,0,0,.71-.93l1.08-1.82a1.08,1.08,0,0,0,.19-.47.39.39,0,0,0,0-.27,1.12,1.12,0,0,0-.37-.33l.07-.12,1.55.92-.07.12-.1-.06a.72.72,0,0,0-.36-.11.45.45,0,0,0-.31.13,1.31,1.31,0,0,0-.27.35l-1,1.7a5.21,5.21,0,0,1-.78,1.08,1.54,1.54,0,0,1-.89.35,2.21,2.21,0,0,1-1.27-.36,2.41,2.41,0,0,1-.81-.69,1.5,1.5,0,0,1-.29-.9,2.13,2.13,0,0,1,.34-1l1.3-2.2a1.94,1.94,0,0,0,.24-.5.36.36,0,0,0-.06-.24A1.07,1.07,0,0,0,30,118Z"/><path class="cls-3" d="M36.59,121.61l.87,4,1-2a1.08,1.08,0,0,0,.17-.62.75.75,0,0,0-.46-.47l.06-.13,1.54.77-.06.12a1.61,1.61,0,0,0-.45-.1.45.45,0,0,0-.25.12,1.37,1.37,0,0,0-.29.44l-1.93,3.88-.12-.06-1.22-5.45-1.47,3a.72.72,0,0,0-.09.63.74.74,0,0,0,.35.35l.11.06-.06.13-1.65-.83.06-.12a.65.65,0,0,0,1-.35l1.63-3.29,0-.17a1,1,0,0,0-.14-.37.72.72,0,0,0-.29-.23l.06-.13Z"/><path class="cls-3" d="M40.53,129.08l-.05.13L38,128.08l.06-.13.15.07a.78.78,0,0,0,.37.08.37.37,0,0,0,.21-.1,1.3,1.3,0,0,0,.24-.43l1.42-3.11a1.7,1.7,0,0,0,.17-.48.46.46,0,0,0-.08-.23.75.75,0,0,0-.29-.21l-.16-.07.06-.13,2.48,1.13-.06.13-.16-.07a.64.64,0,0,0-.36-.08.34.34,0,0,0-.22.1,1.93,1.93,0,0,0-.24.42l-1.42,3.12a1.53,1.53,0,0,0-.16.47.36.36,0,0,0,.08.23.78.78,0,0,0,.29.22Z"/><path class="cls-3" d="M44.7,125.37l1.07,4,.89-2.06a1.14,1.14,0,0,0,.13-.63.78.78,0,0,0-.49-.44l.06-.13,1.58.68-.06.13a1.1,1.1,0,0,0-.45-.07.41.41,0,0,0-.25.13,1.38,1.38,0,0,0-.26.45l-1.73,4-.12,0L43.57,126l-1.32,3a.71.71,0,0,0,0,.64.75.75,0,0,0,.37.33l.11.05-.06.13-1.69-.74.06-.13a.63.63,0,0,0,1-.39l1.47-3.37-.05-.17a1.09,1.09,0,0,0-.16-.37,1,1,0,0,0-.3-.21l0-.13Z"/><path class="cls-3" d="M53.37,129l-.74,1.68-.13-.05a2.28,2.28,0,0,0-.24-1.36,1.86,1.86,0,0,0-.87-.82,1.47,1.47,0,0,0-1-.09,1.77,1.77,0,0,0-.88.61,5,5,0,0,0-.63,1,4.36,4.36,0,0,0-.37,1.27,1.46,1.46,0,0,0,.18,1,1.6,1.6,0,0,0,.75.62,2,2,0,0,0,.37.12,2.65,2.65,0,0,0,.42.06l.44-1a1.24,1.24,0,0,0,.12-.38.33.33,0,0,0-.1-.22.6.6,0,0,0-.26-.2l-.12-.05.06-.13,2.31,1-.06.13a1.4,1.4,0,0,0-.4-.09.43.43,0,0,0-.24.11,1,1,0,0,0-.17.32l-.44,1a5,5,0,0,1-1.09-.11,5.57,5.57,0,0,1-1.07-.35,3.29,3.29,0,0,1-1-.68,2.91,2.91,0,0,1-.57-.84,2.51,2.51,0,0,1-.24-.91A2.76,2.76,0,0,1,49.13,128a2.84,2.84,0,0,1,2.23.1,3.15,3.15,0,0,1,.61.34,2.79,2.79,0,0,1,.43.38,2.29,2.29,0,0,0,.35.31.33.33,0,0,0,.22,0,.62.62,0,0,0,.27-.2Z"/><path class="cls-3" d="M70.27,128.61l.87,1.95.14-.06a1.38,1.38,0,0,0,.47-.33.88.88,0,0,0,.2-.47,1.82,1.82,0,0,0-.09-.69l.12,0,1.07,2.38-.12.06c-.25-.43-.5-.67-.77-.73a1.18,1.18,0,0,0-.76.09l-.14.06.65,1.45a1.57,1.57,0,0,0,.25.44.37.37,0,0,0,.23.09.69.69,0,0,0,.34-.08l.16-.07.06.13-2.48,1.12-.06-.13.15-.08a.65.65,0,0,0,.3-.22.33.33,0,0,0,.07-.23,1.51,1.51,0,0,0-.16-.46l-1.4-3.12a2,2,0,0,0-.24-.44.4.4,0,0,0-.23-.09.83.83,0,0,0-.35.07l-.16.08,0-.13,4-1.8.61,1.36-.14.07a1.38,1.38,0,0,0-.57-.6,1.17,1.17,0,0,0-.73-.07,4.58,4.58,0,0,0-.8.3Z"/><path class="cls-3" d="M75.58,125.88a2.59,2.59,0,0,1,2.15-.14,2.65,2.65,0,0,1,1.48,1.46,2.76,2.76,0,0,1,.15,1.83,2.54,2.54,0,0,1-1.59,1.78,2.63,2.63,0,0,1-2.37,0,2.81,2.81,0,0,1-1.27-1.4,2.62,2.62,0,0,1,0-2.09A2.51,2.51,0,0,1,75.58,125.88Zm.14.2a1.2,1.2,0,0,0-.71,1.1,4,4,0,0,0,.41,1.7,3.32,3.32,0,0,0,1.21,1.63,1.08,1.08,0,0,0,1,0,1,1,0,0,0,.52-.44,1.57,1.57,0,0,0,.18-.93,4.4,4.4,0,0,0-.39-1.36,4.64,4.64,0,0,0-.79-1.34,1.44,1.44,0,0,0-.74-.47A1.17,1.17,0,0,0,75.72,126.08Z"/><path class="cls-3" d="M81.27,123.37a2.54,2.54,0,0,1,2.14-.18,2.59,2.59,0,0,1,1.51,1.43,2.81,2.81,0,0,1,.2,1.82,2.58,2.58,0,0,1-1.56,1.81,2.61,2.61,0,0,1-2.37,0,2.76,2.76,0,0,1-1.3-1.37,2.56,2.56,0,0,1-.08-2.08A2.49,2.49,0,0,1,81.27,123.37Zm.14.2a1.17,1.17,0,0,0-.68,1.12,3.91,3.91,0,0,0,.44,1.69A3.33,3.33,0,0,0,82.41,128a1.08,1.08,0,0,0,1,0,1.11,1.11,0,0,0,.52-.45,1.55,1.55,0,0,0,.15-.94,4.13,4.13,0,0,0-.41-1.35,4.74,4.74,0,0,0-.82-1.33,1.45,1.45,0,0,0-.75-.45A1.1,1.1,0,0,0,81.41,123.57Z"/><path class="cls-3" d="M88.57,119.83l.64,1.25-.12.07a2.29,2.29,0,0,0-.56-.5,1.13,1.13,0,0,0-.52-.11,1.18,1.18,0,0,0-.49.18l-.34.17L89,124.46a1.65,1.65,0,0,0,.27.42.39.39,0,0,0,.23.07.63.63,0,0,0,.35-.09l.15-.08.07.12-2.42,1.26-.07-.12.16-.08a.68.68,0,0,0,.28-.24.34.34,0,0,0,.06-.24,1.87,1.87,0,0,0-.19-.45l-1.85-3.56-.33.17a1.11,1.11,0,0,0-.58.55,1.45,1.45,0,0,0,0,1l-.13.07L84.42,122Z"/><path class="cls-3" d="M93.17,119.91a2.6,2.6,0,0,1,1.1-.2,1.1,1.1,0,0,1,.84.55,1.16,1.16,0,0,1,.11,1.07A2.61,2.61,0,0,1,94,122.62L91.79,124l-.08-.12a1.21,1.21,0,0,0,.38-.32.36.36,0,0,0,.06-.24,1.32,1.32,0,0,0-.23-.48L90.14,120a2.14,2.14,0,0,0-.32-.43.4.4,0,0,0-.25,0,1.3,1.3,0,0,0-.45.2l-.07-.12,2.12-1.31a3.31,3.31,0,0,1,1.16-.53,1.37,1.37,0,0,1,.75.09,1.28,1.28,0,0,1,.54.46,1,1,0,0,1,.12.72A2.13,2.13,0,0,1,93.17,119.91Zm-1.25.64a1.92,1.92,0,0,0,.62-.52.88.88,0,0,0,.16-.51,1.05,1.05,0,0,0-.18-.55,1,1,0,0,0-.42-.41.79.79,0,0,0-.51-.08,2,2,0,0,0-.75.33Zm.16.26.88,1.42.1.16a.41.41,0,0,0,.25.21.39.39,0,0,0,.32-.07,1.18,1.18,0,0,0,.41-.42.85.85,0,0,0,.13-.54A1.16,1.16,0,0,0,94,121a1.23,1.23,0,0,0-.49-.47.88.88,0,0,0-.61-.1A2.49,2.49,0,0,0,92.08,120.81Z"/><path class="cls-3" d="M98.28,117.82,96.83,119l.14.53a1.15,1.15,0,0,0,.18.4.35.35,0,0,0,.34.14,1.51,1.51,0,0,0,.45-.24l.09.11L96.67,121l-.09-.11a.82.82,0,0,0,.22-.47,3.12,3.12,0,0,0-.13-.89l-1.11-4.42.06,0,4.11,2.19a2.56,2.56,0,0,0,.82.33.59.59,0,0,0,.38-.12l.09.11-2,1.56L99,119l.08-.07a.72.72,0,0,0,.28-.33.2.2,0,0,0,0-.19.33.33,0,0,0-.11-.09,1.37,1.37,0,0,0-.26-.16Zm-.28-.14-1.72-.93.48,1.9Z"/><path class="cls-3" d="M103.7,112.14l1.19,1.39-3.16,3.37-.11-.1.12-.12a.67.67,0,0,0,.19-.33.32.32,0,0,0,0-.23,1.3,1.3,0,0,0-.32-.37l-2.49-2.34a1.67,1.67,0,0,0-.4-.31.33.33,0,0,0-.24,0,.72.72,0,0,0-.29.2l-.12.13-.1-.1,1.9-2,.1.1-.15.16a.76.76,0,0,0-.2.32.37.37,0,0,0,0,.25,1.77,1.77,0,0,0,.32.36l2.42,2.27a1.49,1.49,0,0,0,.4.31.29.29,0,0,0,.24,0,1.47,1.47,0,0,0,.35-.31l.29-.32a1.4,1.4,0,0,0,.37-.6,1.24,1.24,0,0,0,0-.66,3.79,3.79,0,0,0-.41-.92Z"/><path class="cls-3" d="M106.91,107.39l1.43,1.16-2.52,3.87-.12-.08.09-.14a.75.75,0,0,0,.14-.35.36.36,0,0,0-.08-.23,1.3,1.3,0,0,0-.38-.3l-2.87-1.87a1.65,1.65,0,0,0-.44-.23.36.36,0,0,0-.24,0,.7.7,0,0,0-.25.26l-.1.14-.11-.08,1.51-2.32.12.07-.13.19a.84.84,0,0,0-.13.35.44.44,0,0,0,.07.24,2.2,2.2,0,0,0,.38.29l2.78,1.81a1.52,1.52,0,0,0,.46.24.3.3,0,0,0,.23-.06A1.64,1.64,0,0,0,107,110l.24-.37a1.36,1.36,0,0,0,.25-.65,1.33,1.33,0,0,0-.12-.66,3.61,3.61,0,0,0-.57-.82Z"/><path class="cls-3" d="M106.81,96.9l1.76.43,0,.15a1.88,1.88,0,0,0-1.2.35,1.66,1.66,0,0,0-.62.92,1.67,1.67,0,0,0,.06.94,1.64,1.64,0,0,0,.57.75,3.29,3.29,0,0,0,1.2.54,4.12,4.12,0,0,0,1.27.14,1.82,1.82,0,0,0,1-.33,1.58,1.58,0,0,0,.52-.88,1.79,1.79,0,0,0,0-.92,3,3,0,0,0-.51-1l.44.11a3,3,0,0,1,.42,1,2.76,2.76,0,0,1-.06,1.13,3.19,3.19,0,0,1-.68,1.35,2.29,2.29,0,0,1-1.17.74,2.69,2.69,0,0,1-1.38,0,2.78,2.78,0,0,1-1.28-.72,2.71,2.71,0,0,1-.75-1.27,2.75,2.75,0,0,1,0-1.45,3,3,0,0,1,.5-1.07,1.53,1.53,0,0,0,.24-.4.31.31,0,0,0,0-.23.49.49,0,0,0-.25-.18Z"/><path class="cls-3" d="M110.72,91.86l1.81.33-.34,4.61h-.14v-.17a.83.83,0,0,0,0-.37.37.37,0,0,0-.18-.17,1.68,1.68,0,0,0-.48-.07l-3.41-.25a1.9,1.9,0,0,0-.5,0,.47.47,0,0,0-.19.16.76.76,0,0,0-.1.34v.17H107l.2-2.76h.14v.22a.61.61,0,0,0,0,.37.35.35,0,0,0,.17.17,1.69,1.69,0,0,0,.48.08l3.31.24a1.52,1.52,0,0,0,.51,0,.33.33,0,0,0,.18-.17,1.9,1.9,0,0,0,.06-.46l0-.43a1.52,1.52,0,0,0-.1-.7,1.25,1.25,0,0,0-.42-.51,3.72,3.72,0,0,0-.9-.45Z"/><path class="cls-3" d="M107.28,91.06V88.37h.14v.13a1,1,0,0,0,.06.42.31.31,0,0,0,.18.16,1.88,1.88,0,0,0,.55,0h2.55a2.66,2.66,0,0,0,.93-.1.88.88,0,0,0,.37-.35,1.15,1.15,0,0,0,.15-.61,1.29,1.29,0,0,0-.19-.72,1.14,1.14,0,0,0-.52-.45,3.12,3.12,0,0,0-1.16-.15h-2.13a1.2,1.2,0,0,0-.5.08.4.4,0,0,0-.2.18,1.1,1.1,0,0,0-.09.49h-.14V85.7h.14v.11a.69.69,0,0,0,.09.36.46.46,0,0,0,.26.21,1.41,1.41,0,0,0,.44.05h2a5.14,5.14,0,0,1,1.32.12,1.43,1.43,0,0,1,.75.59,2.13,2.13,0,0,1,.34,1.28,2.48,2.48,0,0,1-.18,1,1.45,1.45,0,0,1-.63.7,2.14,2.14,0,0,1-1,.21h-2.55a2,2,0,0,0-.56.05.35.35,0,0,0-.17.17,1.05,1.05,0,0,0-.06.46Z"/><path class="cls-3" d="M109.72,81.83a2.82,2.82,0,0,1,.42-1,1.11,1.11,0,0,1,.91-.43,1.22,1.22,0,0,1,1,.47,2.66,2.66,0,0,1,.46,1.69v2.64h-.14a1.12,1.12,0,0,0-.07-.49.42.42,0,0,0-.17-.18,1.76,1.76,0,0,0-.53,0h-3.38a1.76,1.76,0,0,0-.53,0,.47.47,0,0,0-.18.19,1.28,1.28,0,0,0-.06.48h-.14V82.67a3.47,3.47,0,0,1,.16-1.27,1.31,1.31,0,0,1,.47-.59,1.21,1.21,0,0,1,.68-.21,1,1,0,0,1,.67.27A2,2,0,0,1,109.72,81.83Zm-.1,1.4a2.09,2.09,0,0,0-.12-.81,1,1,0,0,0-.35-.39,1.09,1.09,0,0,0-.57-.14A1,1,0,0,0,108,82a1,1,0,0,0-.34.4,2,2,0,0,0-.11.81Zm.3,0h1.86a.41.41,0,0,0,.31-.1.44.44,0,0,0,.11-.32,1.19,1.19,0,0,0-.14-.56.94.94,0,0,0-.39-.4,1.27,1.27,0,0,0-.58-.14,1.35,1.35,0,0,0-.66.17.92.92,0,0,0-.4.47A2.47,2.47,0,0,0,109.92,83.23Z"/><path class="cls-3" d="M98.61,73.64l-9.43-9.43A3.69,3.69,0,0,1,88.25,62V48.62a1.33,1.33,0,0,0-1.32-1.32H73.59a3.69,3.69,0,0,1-2.25-.93l-9.43-9.43a1.32,1.32,0,0,0-1.86,0l-9.44,9.43a3.66,3.66,0,0,1-2.25.93H35a1.32,1.32,0,0,0-1.31,1.32V62a3.64,3.64,0,0,1-.94,2.25l-9.43,9.43a1.32,1.32,0,0,0,0,1.86l9.43,9.44a3.62,3.62,0,0,1,.94,2.25v13.34A1.31,1.31,0,0,0,35,101.84H48.36a3.66,3.66,0,0,1,2.25.93l9.44,9.44a1.32,1.32,0,0,0,1.86,0l9.43-9.44a3.69,3.69,0,0,1,2.25-.93H86.93a1.32,1.32,0,0,0,1.32-1.31V87.19a3.66,3.66,0,0,1,.93-2.25l9.43-9.44A1.32,1.32,0,0,0,98.61,73.64Z"/><path class="cls-4" d="M100.89,73.58l-10-10a3.91,3.91,0,0,1-1-2.39V47a1.4,1.4,0,0,0-1.4-1.39H74.35a3.91,3.91,0,0,1-2.38-1l-10-10a1.38,1.38,0,0,0-2,0l-10,10a3.88,3.88,0,0,1-2.38,1H33.45A1.4,1.4,0,0,0,32.05,47V61.19a3.85,3.85,0,0,1-1,2.39l-10,10a1.41,1.41,0,0,0,0,2l10,10a3.83,3.83,0,0,1,1,2.38V102.1a1.4,1.4,0,0,0,1.4,1.4H47.6a3.87,3.87,0,0,1,2.38,1l10,10a1.4,1.4,0,0,0,2,0l10-10a3.9,3.9,0,0,1,2.38-1H88.5a1.4,1.4,0,0,0,1.4-1.4V88a3.88,3.88,0,0,1,1-2.38l10-10A1.39,1.39,0,0,0,100.89,73.58Zm-6.09-.9H80.15V58.25l6.08-6.13V62.71a3.91,3.91,0,0,0,1,2.39Zm-33,22.92a1.15,1.15,0,0,1-1.63,0l-4.3-4.3,4.38-2.15a1.88,1.88,0,0,1,1.47,0l4.38,2.15Zm-1.63-42a1.15,1.15,0,0,1,1.63,0l4.7,4.7a3.24,3.24,0,0,0,2,.81h6.88a1.15,1.15,0,0,1,1.15,1.15v5l-9.41,1.84a.93.93,0,0,0-.74,1l.86,10.23a.74.74,0,0,1-.76.81H55.52a.75.75,0,0,1-.76-.81L55.62,68a.92.92,0,0,0-.74-1l-9.41-1.84v-5a1.16,1.16,0,0,1,1.15-1.15H53.5a3.24,3.24,0,0,0,2-.81ZM46.62,90.08a1.15,1.15,0,0,1-1.15-1.15V67.27L51,70.59a1.43,1.43,0,0,1,.64,1.24L51,80.4a1.18,1.18,0,0,0,.7,1.12l7.06,2.74v0a2,2,0,0,1-.63,1.35l-5.23,4.43Zm22.54,0L63.85,85.4a2,2,0,0,1-.59-1.15l7-2.73A1.18,1.18,0,0,0,71,80.4l-.67-8.57A1.43,1.43,0,0,1,71,70.59l5.52-3.32V88.93a1.14,1.14,0,0,1-1.15,1.15Zm3.67-40.76h11l-6,6.07H70a3.18,3.18,0,0,1-2-.81l-5.2-5.2V40.69l7.64,7.64A3.91,3.91,0,0,0,72.83,49.32Zm-23.71,0a3.88,3.88,0,0,0,2.38-1l7.64-7.64v8.69l-5.2,5.2a3.18,3.18,0,0,1-2,.81H44.31l-6-6.07ZM34.73,65.1a3.85,3.85,0,0,0,1-2.39V51.94l6.08,6.13V72.68H27.15ZM27,76.35H41.8V91.23l-6.08,6V86.43a3.83,3.83,0,0,0-1-2.38ZM49.12,99.83H38.35l6.12-6.08H52a3.2,3.2,0,0,1,2,.82l5.2,5.2v8.69l-7.64-7.64A3.83,3.83,0,0,0,49.12,99.83Zm23.71,0a3.85,3.85,0,0,0-2.38,1l-7.64,7.64V99.77l5.2-5.2a3.2,3.2,0,0,1,2-.82h7.52l6.11,6.08ZM87.22,84.05a3.88,3.88,0,0,0-1,2.38V97.27l-6.08-6V76.35H94.92Z"/><g class="cls-5"><path class="cls-4" d="M79.17,126.54A18.19,18.19,0,1,1,61,108.35,18.2,18.2,0,0,1,79.17,126.54Z"/><path class="cls-3" d="M61,111.88h0a14.66,14.66,0,0,0-7.91,27l0,0,.07,0A14.66,14.66,0,0,0,61,141.2h0a14.66,14.66,0,0,0,7.8-2.25l.07,0,0,0a14.66,14.66,0,0,0-7.91-27Zm11.25,6.58L70.32,118l-4.84-3.48-1-1.37A13.93,13.93,0,0,1,72.23,118.46Zm-10.74-1.84,3.89-1.22,4.4,3.17-.08,4-4.12,1.2-4.12-2.86Zm-1,4.27-4.11,2.86-4.12-1.2-.09-4,4.4-3.17,3.89,1.22Zm-3-7.77-1,1.37L51.63,118l-1.9.49A13.87,13.87,0,0,1,57.51,113.12ZM50,135.05a13.8,13.8,0,0,1-2.93-8.5,11.31,11.31,0,0,1,.06-1.17L48.43,127h0l1.81,6.11h0Zm.59-2.61L49,127l2.9-3.66,4.14,1.2,1.69,5.28-2.7,3.84Zm10.35,8h0a13.69,13.69,0,0,1-5.25-1l2.18-.9h0l3.07-.06h0l3.06.06h0l2.18.9A13.68,13.68,0,0,1,61,140.41Zm3-2.5-3-.06h0l-3,.06L55.55,134l2.65-3.72h5.56L66.4,134Zm2.89-4.25-2.69-3.84,1.69-5.28,4.13-1.2L72.94,127l-1.62,5.44Zm4.82-.55h0L73.55,127h0l1.26-1.62c0,.39,0,.77,0,1.17a13.8,13.8,0,0,1-2.93,8.5Z"/><path class="cls-4" d="M72.23,118.46,70.32,118l-4.84-3.48-1-1.37A13.93,13.93,0,0,1,72.23,118.46Z"/><polygon class="cls-4" points="61.49 116.62 65.38 115.4 69.78 118.57 69.69 122.55 65.58 123.75 61.46 120.89 61.49 116.62"/><polygon class="cls-4" points="60.49 120.89 56.38 123.75 52.26 122.55 52.17 118.57 56.57 115.4 60.46 116.62 60.49 120.89"/><path class="cls-4" d="M57.51,113.12l-1,1.37L51.63,118l-1.9.49A13.87,13.87,0,0,1,57.51,113.12Z"/><path class="cls-4" d="M50,135.05a13.8,13.8,0,0,1-2.93-8.5,11.31,11.31,0,0,1,.06-1.17L48.43,127h0l1.81,6.11h0Z"/><polygon class="cls-4" points="50.63 132.44 49.02 127 51.92 123.34 56.06 124.54 57.75 129.82 55.05 133.66 50.63 132.44"/><path class="cls-4" d="M61,140.41h0a13.69,13.69,0,0,1-5.25-1l2.18-.9h0l3.07-.06h0l3.06.06h0l2.18.9A13.68,13.68,0,0,1,61,140.41Z"/><polygon class="cls-4" points="64.02 137.91 60.98 137.85 60.98 137.85 60.98 137.85 57.94 137.91 55.55 134.02 58.2 130.3 60.98 130.3 60.98 130.3 60.98 130.3 63.76 130.3 66.4 134.02 64.02 137.91"/><polygon class="cls-4" points="66.9 133.66 64.21 129.82 65.89 124.54 70.03 123.34 72.94 127 71.32 132.44 66.9 133.66"/><path class="cls-4" d="M71.72,133.11h0L73.55,127h0l1.26-1.62c0,.39,0,.77,0,1.17a13.8,13.8,0,0,1-2.93,8.5Z"/></g><path class="cls-3" d="M61.94,135.24a1,1,0,0,1-1.93,0,1,1,0,1,1,1.93,0Z"/><path class="cls-3" d="M110.57,74.56a1,1,0,0,1-1.93,0,1,1,0,1,1,1.93,0Z"/><path class="cls-3" d="M13.31,74.56a1,1,0,0,1-1.93,0,1,1,0,1,1,1.93,0Z"/><path class="cls-3" d="M46.64,14.66v7.8c0,2.38-2.47,2.84-3.91,2.84s-3.91-.46-3.91-2.84v-7.8H36.43v7.09c0,3.7,1.87,5.51,6.3,5.51h0c4.46,0,6.3-1.81,6.3-5.51V14.66Z"/><path class="cls-3" d="M61.14,26.92h2.93V14.66H61.69v9.39l-.15-.25A81.33,81.33,0,0,0,54.41,15a.83.83,0,0,0-.67-.3H51.48V26.92h2.38V17.65S57.74,22.15,61.14,26.92Z"/><path class="cls-3" d="M82.09,26.92H85V14.66H82.64v9.39l-.16-.25A76.09,76.09,0,0,0,75.39,15a.9.9,0,0,0-.7-.3H72.45V26.92h2.39V17.65S78.69,22.15,82.09,26.92Z"/><rect class="cls-3" x="67.04" y="14.66" width="2.45" height="12.26"/><path class="cls-3" d="M94.85,25.29c-2.83,0-4.26-.58-4.79-2.16a7.26,7.26,0,0,1-.24-2.2,6.69,6.69,0,0,1,.35-2.52c.66-1.62,2.39-2,5.09-2a20.94,20.94,0,0,1,4.63.64V15a23.36,23.36,0,0,0-5-.55c-2.89,0-6.21.43-7,3.95A12.36,12.36,0,0,0,87.6,21,10,10,0,0,0,88,24c1,2.85,3.94,3.16,6.56,3.24a18.23,18.23,0,0,0,5.53-.83v-6H97.72v4.46A11,11,0,0,1,94.85,25.29Z"/><path class="cls-3" d="M33.28,20.81a9.87,9.87,0,0,0-4.42-.93,16.25,16.25,0,0,1-3.94-.49,1.15,1.15,0,0,1-.79-1.29,1.22,1.22,0,0,1,.8-1.29,11.2,11.2,0,0,1,3.93-.4A32.91,32.91,0,0,1,34,17V15a33.64,33.64,0,0,0-5.8-.52c-1.46,0-4,.15-5.17,1.15a3.06,3.06,0,0,0-1.1,2.66,2.79,2.79,0,0,0,1.26,2.58c1,.62,2.85.78,4.86.88a11.28,11.28,0,0,1,3.54.5,1.27,1.27,0,0,1,.75,1.35,1.36,1.36,0,0,1-.78,1.33,10.82,10.82,0,0,1-4.21.43,25.08,25.08,0,0,1-5-.67v2.08a32.68,32.68,0,0,0,5.28.51c2,0,4.47-.07,5.8-1.1a3.13,3.13,0,0,0,1.11-2.65A2.93,2.93,0,0,0,33.28,20.81Z"/></g></g></svg>