<svg xmlns="http://www.w3.org/2000/svg" viewBox="0 0 146.56 192.19"><defs><style>.cls-1{font-size:27.72px;font-family:MHeiGB5-Bold, MHeiGB5 Bold;font-weight:700;}.cls-1,.cls-4{fill:#fff;}.cls-2,.cls-5{fill:#fbad25;}.cls-2,.cls-3,.cls-4{fill-rule:evenodd;}.cls-3,.cls-6{fill:#c02033;}.cls-7{fill:#20314e;}.cls-8{fill:#fffefe;}.cls-9{fill:#d0232a;}.cls-10{fill:#335aa1;}.cls-11{fill:#fee100;}.cls-12{fill:#221f1f;}.cls-13{fill:#713e34;}</style></defs><title>Asset 19</title><g id="Layer_2" data-name="Layer 2"><g id="Layer_1-2" data-name="Layer 1"><path class="cls-2" d="M0,73.28A73.28,73.28,0,1,0,73.28,0,73.37,73.37,0,0,0,0,73.28Z"/><path class="cls-3" d="M4.29,73.28a69,69,0,1,0,69-69,69.08,69.08,0,0,0-69,69Z"/><path class="cls-4" d="M7.22,73.28a66.06,66.06,0,1,1,66.06,66.06A66.13,66.13,0,0,1,7.22,73.28Z"/><path class="cls-3" d="M22.07,73.28A51.21,51.21,0,1,0,73.28,22.07,50.88,50.88,0,0,0,22.07,73.28Z"/><path class="cls-5" d="M73.28,124.83a51.56,51.56,0,1,1,51.56-51.55A51.26,51.26,0,0,1,73.28,124.83Zm0-102.41A50.92,50.92,0,0,0,22.42,73.28h0A50.86,50.86,0,1,0,73.28,22.42Z"/><path class="cls-4" d="M39.14,107.42a48.28,48.28,0,1,1,34.14,14.14,48,48,0,0,1-34.14-14.14Z"/><path class="cls-5" d="M73.28,121.91a48.31,48.31,0,0,1-34.39-14.25h0a48.63,48.63,0,1,1,34.39,14.25Zm0-96.56a47.93,47.93,0,0,0-33.89,81.82h0A47.93,47.93,0,1,0,73.28,25.35Z"/><path class="cls-3" d="M72.65,30.77s-1.11-.74-1.11-1.59c0,0,0-.06,0-.09,0-.57.67-1.12,1.73-1.61,1.06.49,1.68,1,1.73,1.61v.09c0,.85-1.09,1.58-1.1,1.59l.29.57,1.85-.67c.82,0,1.14.26,1.25.39a.43.43,0,0,1,.08.33,1.06,1.06,0,0,1-.36.92c-.68.47-2.23,0-2.76-.15l-.68-.25,1.77,4.43,3-.18L83,32.23l-.36-.52c-2.34,1.27-2.74,1-2.76,1a.07.07,0,0,1,0,0,3.14,3.14,0,0,1,.62-1.25l.12-.16-.16-.3c.16-.46,3.27-.81,6.92-.79a13.39,13.39,0,0,0-6.63,9H65.82a13.46,13.46,0,0,0-6.64-9c3.66,0,6.76.33,6.92.8,0,0,0,.07,0,.07l-.1.18.1.2a3.14,3.14,0,0,1,.62,1.25.07.07,0,0,1,0,0s-.42.23-2.77-1l-.36.52,4.72,3.93,2.95.18L73,31.91l-.67.25c-.54.2-2.08.62-2.76.15a.94.94,0,0,1-.36-.83.53.53,0,0,1,.07-.42c.11-.13.43-.37,1.36-.37l1.74.65.29-.57Z"/><path class="cls-5" d="M81,39.55H65.53l-.06-.28A13,13,0,0,0,59,30.51l.16-.66c1.61,0,6.91,0,7.25,1l.16.47h-.17A3.19,3.19,0,0,1,67,32.7a.47.47,0,0,1,0,.15L67,33l-.14.07c-.14.07-.57.29-2.82-.89h0l4.39,3.65L71,36l1.38-3.46c-.42.14-2.14.68-3,.07a1.25,1.25,0,0,1-.51-1.08.82.82,0,0,1,.15-.66c.18-.24.61-.51,1.63-.51l.12,0,1.45.54v0a2.48,2.48,0,0,1-1-1.7s0-.07,0-.12c.06-.7.71-1.34,1.94-1.9l.14-.07.15.07c1.22.57,1.87,1.21,1.93,1.9v.12a2.41,2.41,0,0,1-1,1.69v0L76,30.32h.07a1.9,1.9,0,0,1,1.51.52.79.79,0,0,1,.16.59,1.36,1.36,0,0,1-.52,1.16c-.87.61-2.64,0-3-.07L75.58,36l2.59-.16,4.37-3.65h0c-2.3,1.21-2.7,1-2.84.88L79.61,33l0-.11a.37.37,0,0,1,0-.18,3.3,3.3,0,0,1,.68-1.44L80.08,31l0-.14c.34-1,5.64-1,7.25-1l.16.66a13.15,13.15,0,0,0-6.45,8.76Zm-14.94-.7H80.46a14.1,14.1,0,0,1,5.63-8.29,20.47,20.47,0,0,0-5.18.53l.13.23-.26.34a4.77,4.77,0,0,0-.42.7,10.72,10.72,0,0,0,2.13-1l.28-.15.71,1-5,4.2-3.32.21L73.28,32.1l-1.84,4.61-3.32-.21-5-4.2.71-1,.28.15a10.72,10.72,0,0,0,2.13,1,4.81,4.81,0,0,0-.42-.71l0,0-.18-.36.09-.15a20.54,20.54,0,0,0-5.18-.53A13.9,13.9,0,0,1,66.1,38.85Zm8-7.11.26.1a3.58,3.58,0,0,0,2.44.18c.1-.07.2-.2.21-.63v-.06a.06.06,0,0,0,0,0s-.19-.23-.91-.26ZM70.55,31c-.82,0-1,.23-1,.24s0,0,0,.13v.07c0,.36.12.48.2.54a3.61,3.61,0,0,0,2.45-.18l.25-.1Zm2.73-3.17c-.85.41-1.35.86-1.38,1.25,0,0,0,0,0,.06,0,.51.6,1.06,1,1.3l.25.17-.51,1,.47-.18L73,31.3l.32.12.32-.12-.08.21.46.18-.49-1,.23-.22c.44-.31.94-.84.94-1.3v-.07C74.63,28.73,74.13,28.28,73.28,27.87Z"/><path class="cls-3" d="M86.87,112.33c-2-.33-2.78-.1-4.28-.9a13.29,13.29,0,0,0,3.82-3.37,21.38,21.38,0,0,0,3.47-4.42l-1.48.59A14,14,0,0,0,84,106.56c-1.42,1.44-1.7,2.68-3.6,3.86a54.77,54.77,0,0,0-5.09,2.81c-.6.36-1.27.79-2,1.31-.73-.52-1.4-1-2-1.31a52.92,52.92,0,0,0-5.09-2.81c-1.89-1.18-2.17-2.42-3.6-3.86a13.76,13.76,0,0,0-4.43-2.33l-1.47-.59a21.38,21.38,0,0,0,3.47,4.42A13,13,0,0,0,64,111.43c-1.5.8-2.27.57-4.29.9-2.36.4-2.75.94-4.9.33a9,9,0,0,0-1-.2A7,7,0,0,0,55.38,114a7.05,7.05,0,0,0,5.11,1.57c3.76,0,2.54-1.55,7-1.55a12.61,12.61,0,0,1,5.08,1.07c-1.3,1-2.79,2.19-4.5,3.74l.68.17a15.67,15.67,0,0,1,4.57-3.55A15.67,15.67,0,0,1,77.85,119l.68-.17c-1.71-1.55-3.21-2.78-4.51-3.74A12.65,12.65,0,0,1,79.11,114c4.42,0,3.19,1.55,7,1.55A7.06,7.06,0,0,0,91.18,114a7,7,0,0,0,1.61-1.53,8.58,8.58,0,0,0-1,.2c-2.16.61-2.54.07-4.91-.33Z"/><path class="cls-5" d="M68.83,119.37,67.3,119l.49-.45c1.43-1.29,2.78-2.43,4-3.39a12.31,12.31,0,0,0-4.38-.81,6.33,6.33,0,0,0-3.64.78,5.83,5.83,0,0,1-3.32.77,7.42,7.42,0,0,1-5.31-1.63,7.24,7.24,0,0,1-1.69-1.61L53,112l1,.18a7.93,7.93,0,0,1,.9.18,4.87,4.87,0,0,0,3.12,0c.45-.1,1-.23,1.63-.34s1.18-.16,1.64-.21a6.43,6.43,0,0,0,1.94-.38,14.11,14.11,0,0,1-3-2.81l-.5-.56a19.4,19.4,0,0,1-3.29-4.24L56,103l.83.33,1.47.59a14,14,0,0,1,4.55,2.42,13.8,13.8,0,0,1,1.3,1.58,7.36,7.36,0,0,0,2.21,2.21,57.67,57.67,0,0,1,5.11,2.82c.59.34,1.2.74,1.83,1.18.62-.44,1.23-.83,1.82-1.18,3.73-2.19,4.91-2.73,5.11-2.82a7.29,7.29,0,0,0,2.22-2.21,12.14,12.14,0,0,1,1.29-1.58c.83-.84,2.29-1.52,4.55-2.42l1.48-.59.83-.34-.39.82a19.56,19.56,0,0,1-3.31,4.27l-.51.55a14.17,14.17,0,0,1-3,2.79,6.56,6.56,0,0,0,2,.38c.46,0,1,.1,1.63.21h0c.68.11,1.18.24,1.63.34a4.87,4.87,0,0,0,3.12,0c.25-.07.55-.12.87-.18l1-.18-.52.71a7.24,7.24,0,0,1-1.69,1.61,7.43,7.43,0,0,1-5.32,1.63,5.81,5.81,0,0,1-3.31-.77,6.33,6.33,0,0,0-3.64-.78,12.19,12.19,0,0,0-4.38.81c1.27,1,2.63,2.12,4,3.39l.49.45-1.53.36-.14-.15a15.85,15.85,0,0,0-4.31-3.39A15.85,15.85,0,0,0,69,119.22Zm-1.32-5.71a12.76,12.76,0,0,1,5.16,1.1l.56.24-.34.25.23-.12.16-.08.16.08.23.12-.34-.25.55-.24a12.81,12.81,0,0,1,5.17-1.1h.06a7,7,0,0,1,4,.86,5.14,5.14,0,0,0,3,.69,6.8,6.8,0,0,0,4.92-1.5,7.74,7.74,0,0,0,.86-.71,5.42,5.42,0,0,1-3.44,0c-.44-.1-.93-.22-1.58-.33h0c-.63-.11-1.14-.16-1.59-.2a6.51,6.51,0,0,1-2.8-.74l-.59-.31.59-.31a11.51,11.51,0,0,0,3.42-3l.51-.55a31.19,31.19,0,0,0,2.72-3.25l-.55.21a13.68,13.68,0,0,0-4.31,2.26,12.59,12.59,0,0,0-1.22,1.5,8.22,8.22,0,0,1-2.44,2.41l0,0a52.49,52.49,0,0,0-5.05,2.78c-.64.38-1.31.81-2,1.29l-.2.15-.2-.15c-.69-.48-1.35-.92-2-1.29a52.49,52.49,0,0,0-5-2.78l0,0a8.15,8.15,0,0,1-2.43-2.4,12.16,12.16,0,0,0-1.24-1.51c-.73-.75-2.13-1.39-4.31-2.26l-.54-.21a29.76,29.76,0,0,0,2.7,3.22l.5.56a11.81,11.81,0,0,0,3.45,3l.59.31-.59.31a6.51,6.51,0,0,1-2.8.74c-.45,0-1,.09-1.59.2s-1.15.23-1.58.33a5.49,5.49,0,0,1-3.44,0,9,9,0,0,0,.86.7,6.79,6.79,0,0,0,4.91,1.5,5.18,5.18,0,0,0,3-.69,7,7,0,0,1,4-.86Z"/><path class="cls-3" d="M89.81,108.77c1.15-.89,1.86-2,3.1-4.1s2.16-3.36,2.43-4.91a13.69,13.69,0,0,0-1.58,1,15.88,15.88,0,0,0-3.49,2.88c-1,1.79-1.49,3.25-2.32,4.12-1.26,1.32-1.78,1.11-2.58,2.42a4.05,4.05,0,0,1,.9-.14c1.49,0,3.15,2.28,6,2.28a9.85,9.85,0,0,0,4.82-1.3,7.89,7.89,0,0,0,2.93-3.34c-2.42.87-1.63,1.21-5.37,1.21-2.32,0-3.31.35-4.86-.1Z"/><path class="cls-5" d="M92.29,112.65a7.74,7.74,0,0,1-4.17-1.47,4.27,4.27,0,0,0-1.85-.81,3.79,3.79,0,0,0-.81.13l-.83.21.44-.73a4.15,4.15,0,0,1,1.37-1.42,6.67,6.67,0,0,0,1.26-1.07,8.17,8.17,0,0,0,1.23-2.07c.29-.59.61-1.26,1-2s1.61-1.58,3.58-3a13.1,13.1,0,0,1,1.63-1l.64-.35-.13.72a11.5,11.5,0,0,1-1.76,3.81l-.72,1.21a16.26,16.26,0,0,1-2.64,3.74,8.94,8.94,0,0,0,2.08,0c.57,0,1.21-.08,2-.08,2.6,0,2.91-.15,3.75-.55a14.27,14.27,0,0,1,1.51-.63l.77-.28-.34.75a8.23,8.23,0,0,1-3.06,3.48A10.22,10.22,0,0,1,92.29,112.65Zm-6-3a4.55,4.55,0,0,1,2.22.92,7.08,7.08,0,0,0,3.8,1.36,9.51,9.51,0,0,0,4.62-1.24,8.13,8.13,0,0,0,2.38-2.37c-.22.09-.4.18-.56.26-.9.42-1.31.62-4.06.62-.79,0-1.42,0-2,.07a7.86,7.86,0,0,1-3-.18l-.67-.19.55-.42a12.82,12.82,0,0,0,3-4l.73-1.22a15,15,0,0,0,1.47-2.8c-.27.16-.55.34-.84.55a17.3,17.3,0,0,0-3.39,2.77c-.41.7-.73,1.36-1,1.94A9.3,9.3,0,0,1,88.21,108a7.74,7.74,0,0,1-1.37,1.15,4.4,4.4,0,0,0-.67.54Z"/><path class="cls-3" d="M94.86,106.14a19.32,19.32,0,0,0,4-6.18,26.44,26.44,0,0,0,1.53-3.62c.18-.6.51-.79.74-1.42-.8,1-1.66,1.52-3.18,3-1.73,1.7-1.76,2.41-2.77,4.65-.91,2-1.7,2.67-2.25,4.8,1,.06,2.18,0,3.4,0,2,0,4.3-.5,5.55-1.62,1.74-1.58,3.34-2.94,4.32-5.68-2.14,1.66-4.51,1.88-7.67,3.85-1.69,1.05-2.08,2-3.67,2.18Z"/><path class="cls-5" d="M94.78,107.76c-.67,0-1.31,0-1.87,0l-.43,0,.11-.42a11,11,0,0,1,1.33-3.07,19.08,19.08,0,0,0,.94-1.79c.21-.46.38-.86.53-1.21a8.7,8.7,0,0,1,2.32-3.54c.65-.64,1.18-1.1,1.64-1.51a13.26,13.26,0,0,0,1.51-1.47l.6.34a3.56,3.56,0,0,1-.42.79,2.12,2.12,0,0,0-.31.62,28.06,28.06,0,0,1-1.55,3.67l-.07.15a18.69,18.69,0,0,1-3.19,5.2,6,6,0,0,0,1-.71,12.28,12.28,0,0,1,1.46-1.09,24.85,24.85,0,0,1,4.15-2,14,14,0,0,0,3.5-1.81l1-.74-.41,1.13a13.12,13.12,0,0,1-4.18,5.61l-.23.21c-1.4,1.26-3.91,1.71-5.79,1.71H94.78Zm-1.4-.72c.66,0,1.39,0,2.16,0h.79c1.75,0,4.07-.4,5.32-1.53l.23-.21a13.73,13.73,0,0,0,3.55-4.26,21,21,0,0,1-2.68,1.24,24.69,24.69,0,0,0-4,2,12.52,12.52,0,0,0-1.39,1,4.08,4.08,0,0,1-2.42,1.2l-.89.09.59-.67a18.8,18.8,0,0,0,3.88-6l.07-.15a30.52,30.52,0,0,0,1.4-3.24l-.13.11c-.46.41-1,.87-1.62,1.49A8.13,8.13,0,0,0,96,101.48c-.15.36-.32.76-.53,1.23a19.92,19.92,0,0,1-1,1.85A10.8,10.8,0,0,0,93.38,107Z"/><path class="cls-3" d="M103.07,98c-.95,1.11-1.21,1.61-2.14,1.9a8.16,8.16,0,0,1,.65-.82c.74-.84,1.28-2.77,2.26-5.35a31.54,31.54,0,0,0,1.06-5.58c-.44.61-.87,1.28-1.36,2a17.3,17.3,0,0,0-1.73,3.09c-.84,2.3-.5,3-1.11,4.84-.52,1.52-.09,1.59-1.1,3.77,1.94-1,3.19-.88,4.72-1.64a10.83,10.83,0,0,0,3.22-2.34,25,25,0,0,0,1.35-2.4,8.14,8.14,0,0,0,1.84-2.87c-1,.64-1.88,1.55-3.4,2.5-1.84,1.15-3.49,2-4.26,2.88Z"/><path class="cls-5" d="M98.86,102.67l.43-.92a7.2,7.2,0,0,0,.75-2.34,6.2,6.2,0,0,1,.33-1.39,9.59,9.59,0,0,0,.42-2,12.41,12.41,0,0,1,.69-2.88A16.72,16.72,0,0,1,103.25,90l.38-.59c.34-.51.66-1,1-1.44l.63.25c-.06.4-.11.8-.17,1.21a22.93,22.93,0,0,1-.9,4.45c-.25.66-.47,1.27-.68,1.84-.32.9-.59,1.66-.87,2.29l.18-.22a12.17,12.17,0,0,1,2.91-2.08c.46-.27.94-.55,1.44-.86a24.05,24.05,0,0,0,2-1.5,13.44,13.44,0,0,1,1.34-1l.83-.53-.31.94a6.15,6.15,0,0,1-1.34,2.29c-.17.2-.35.42-.55.68a5.09,5.09,0,0,0-.5.93,5.53,5.53,0,0,1-.87,1.49,11.07,11.07,0,0,1-3.33,2.43,10.41,10.41,0,0,1-2.1.71,11.6,11.6,0,0,0-2.61.92Zm1.69-2.26a6.21,6.21,0,0,1-.27.79,16.6,16.6,0,0,1,1.91-.59,9.51,9.51,0,0,0,2-.66,10.45,10.45,0,0,0,3.11-2.25,5.11,5.11,0,0,0,.76-1.33,5.45,5.45,0,0,1,.59-1.06c.2-.27.39-.5.56-.7a8.55,8.55,0,0,0,.67-.88l-.21.17a22.71,22.71,0,0,1-2.12,1.55c-.5.31-1,.6-1.45.87a11.74,11.74,0,0,0-2.73,1.93h0l-.45.54a3.57,3.57,0,0,1-1.86,1.47Zm3.79-10.78-.12.18-.39.59a17.22,17.22,0,0,0-1.69,3,11.25,11.25,0,0,0-.65,2.73,9.92,9.92,0,0,1-.46,2.1,6.27,6.27,0,0,0-.3,1.28l0,.1c.17-.22.36-.46.6-.73a12.08,12.08,0,0,0,1.52-3.4c.21-.57.43-1.19.69-1.85A21.17,21.17,0,0,0,104.34,89.63Z"/><path class="cls-3" d="M112.69,85.7c-1.56,1.56-2.58,2.06-3.67,3.59-1,1.35-1.62,2.8-3,3.89,1-1.37,1.51-3.5,1.49-6.87a23.25,23.25,0,0,0-.25-4.3c-1.91,4.54-1.58,7.07-1.84,8.87a42.43,42.43,0,0,1-.65,4.67,8.16,8.16,0,0,0,3.12-1.69,21.54,21.54,0,0,0,3.18-3.35c1.54-1.65,2.6-4.72,3.24-7.05a7.11,7.11,0,0,1-1.64,2.24Z"/><path class="cls-5" d="M104.25,96.06l.21-.62a18.53,18.53,0,0,0,.43-2.86c.06-.59.12-1.21.2-1.75s.09-.84.12-1.35A20.88,20.88,0,0,1,107,81.87l.43-1,.23,1.11a22.86,22.86,0,0,1,.26,4.36,17.51,17.51,0,0,1-.54,4.92c.22-.32.43-.65.64-1s.49-.76.76-1.14a11.12,11.12,0,0,1,2.15-2.22c.45-.39,1-.84,1.55-1.42A6.45,6.45,0,0,0,114,83.31l.65.24c-.63,2.34-1.72,5.48-3.31,7.2-.28.3-.55.63-.85,1a13.27,13.27,0,0,1-2.39,2.41l-.42.31a7.42,7.42,0,0,1-2.81,1.43Zm2.85-12.63a20,20,0,0,0-1.19,6.09c0,.53-.06,1-.13,1.41s-.13,1.14-.2,1.73c-.09.88-.18,1.72-.3,2.37a7.08,7.08,0,0,0,2-1.14l.43-.31A12.5,12.5,0,0,0,110,91.29c.3-.36.59-.7.88-1a14,14,0,0,0,2.48-4.72l-.39.4h0c-.6.6-1.12,1-1.59,1.45a10.91,10.91,0,0,0-2,2.09c-.26.37-.5.75-.74,1.12a10.77,10.77,0,0,1-2.31,2.84l-.5-.47c1-1.39,1.44-3.57,1.42-6.67C107.17,85,107.14,84.07,107.1,83.43Z"/><path class="cls-3" d="M108.84,88.17c1.38-1.34,1.86-2.74,2.46-3.32,1-1,1-1.58,1.89-4a11.88,11.88,0,0,0,1-5.08c0-1.49.28-1.4,0-2.66-.57,1.12-1.46,1.68-2.17,4-.42,1.38-.68,2.91-1.49,5.15-.52,1.43-.77,2.13-1,2.62.2-2.41.69-4.63.14-6.38A23.55,23.55,0,0,0,108,73.75c0,1.26-.37,2.11-.5,3.79-.2,2.6.5,3.67.78,5.79a22.56,22.56,0,0,1,.56,4.84Z"/><path class="cls-5" d="M108.43,89.07l.06-.92A11.86,11.86,0,0,0,108.2,85c-.09-.5-.18-1-.26-1.62a18.62,18.62,0,0,0-.38-1.87,11.31,11.31,0,0,1-.41-4c.07-.83.18-1.47.28-2a11.19,11.19,0,0,0,.22-1.74l.66-.15a13.75,13.75,0,0,1,1.21,3.21c.13.46.28,1,.49,1.65a9.78,9.78,0,0,1,.15,3.81l0-.06c.52-1.44.81-2.58,1.07-3.58.13-.55.27-1.06.42-1.55A9.05,9.05,0,0,1,113.23,74a5.88,5.88,0,0,0,.63-1l.43-.84.23.91a3.39,3.39,0,0,1,.1,1.56,8.14,8.14,0,0,0-.06,1.18,12.21,12.21,0,0,1-1,5.22c-.26.66-.44,1.19-.58,1.61a5.1,5.1,0,0,1-1.4,2.47,5.29,5.29,0,0,0-.67,1,11.33,11.33,0,0,1-1.78,2.35Zm-.21-14c0,.18-.06.37-.1.55a18.85,18.85,0,0,0-.27,2,10.49,10.49,0,0,0,.39,3.77,18.94,18.94,0,0,1,.39,1.94c.08.57.17,1.09.26,1.59a15.46,15.46,0,0,1,.32,2.39,14,14,0,0,0,1.06-1.56,5.5,5.5,0,0,1,.78-1.1,4.4,4.4,0,0,0,1.22-2.2c.15-.43.33-1,.59-1.63a11.38,11.38,0,0,0,1-5,7.76,7.76,0,0,1,.07-1.29c0-.14,0-.25,0-.37l-.17.22a8.75,8.75,0,0,0-1.45,2.89c-.15.48-.28,1-.42,1.52a36.46,36.46,0,0,1-1.08,3.65l-.3.8c-.33.93-.52,1.45-.7,1.84l-.67-.17c0-.59.12-1.17.18-1.73a11.76,11.76,0,0,0,0-4.52c-.21-.67-.36-1.2-.49-1.67A16.31,16.31,0,0,0,108.22,75.05Z"/><path class="cls-3" d="M108.79,73.21a13.44,13.44,0,0,1,1.74,5.19c.85-2.79,1.62-2.85,2.46-7.09.78-3.92-.21-5.45-.67-7.09a23.2,23.2,0,0,0-.62,4.24c-.16,2.67,0,3.39-.64,5.05a8.81,8.81,0,0,0-.38,1.74c-.4-2.2,0-2.92-.91-4.93-.63-1.33-1.59-3.19-2.21-4.45,0,2.15.35,2.65.35,4a6.28,6.28,0,0,0,.88,3.36Z"/><path class="cls-5" d="M110.87,78.5l-.69-.06a11.74,11.74,0,0,0-1.43-4.52l-.27-.56-.13-.27a6.18,6.18,0,0,1-.79-3.24,7.79,7.79,0,0,0-.14-1.43,14.15,14.15,0,0,1-.21-2.55l.67-.16c.24.49.53,1.08.84,1.69.48,1,1,2,1.37,2.77a7.25,7.25,0,0,1,.72,3,9.66,9.66,0,0,0,.46-3.14c0-.45,0-1,.08-1.59a24.43,24.43,0,0,1,.63-4.3l.31-1.31.36,1.3c.09.29.18.57.29.87a10.74,10.74,0,0,1,.39,6.38,17.32,17.32,0,0,1-1.52,4.75A15.11,15.11,0,0,0,110.87,78.5Zm-2.87-11c0,.29.08.54.11.78a8.64,8.64,0,0,1,.15,1.54,5.78,5.78,0,0,0,.71,2.93l.14.27h0l.27.56A13.53,13.53,0,0,1,110.66,77c.18-.43.35-.79.52-1.15a16.6,16.6,0,0,0,1.46-4.59,9.85,9.85,0,0,0-.25-5.67,23.78,23.78,0,0,0-.34,2.91c0,.62-.06,1.13-.08,1.58a10.17,10.17,0,0,1-.58,3.57,8.48,8.48,0,0,0-.36,1.66l-.69,0a15.06,15.06,0,0,1-.22-2,6.65,6.65,0,0,0-.67-2.84c-.37-.81-.87-1.8-1.36-2.76Z"/><path class="cls-3" d="M110.83,70.83a13.65,13.65,0,0,0-.41-7.35c-.78-2.39-1.36-3.48-2.21-4.23a17,17,0,0,0,.72,6.67,15.08,15.08,0,0,0,1.9,4.91Z"/><path class="cls-5" d="M111,71.81l-.5-.8a15.21,15.21,0,0,1-1.91-4.86l0-.14a17.52,17.52,0,0,1-.76-6.37l0-.41,0-.72.55.48c.92.81,1.52,1.95,2.31,4.38a14,14,0,0,1,.43,7.51Zm-2.52-11.73a17.49,17.49,0,0,0,.75,5.75l0,.15a16.25,16.25,0,0,0,1.33,3.79,12.39,12.39,0,0,0-.54-6.18A11.88,11.88,0,0,0,108.51,60.08Z"/><path class="cls-3" d="M60.29,110a4.05,4.05,0,0,1,.9.14c-.8-1.31-1.33-1.1-2.59-2.42-.82-.87-1.26-2.33-2.31-4.12a15.88,15.88,0,0,0-3.49-2.88,13,13,0,0,0-1.59-1c.28,1.55,1.23,2.83,2.44,4.91a13.25,13.25,0,0,0,3.09,4.1c-1.55.45-2.53.1-4.85.1-3.75,0-3-.34-5.37-1.21A7.89,7.89,0,0,0,49.45,111a9.82,9.82,0,0,0,4.82,1.3c2.87,0,4.53-2.28,6-2.28Z"/><path class="cls-5" d="M54.27,112.65a10.28,10.28,0,0,1-5-1.36,8.14,8.14,0,0,1-3-3.48l-.34-.75.77.28a13.08,13.08,0,0,1,1.5.63c.84.4,1.16.55,3.76.55.81,0,1.45,0,2,.08a8.89,8.89,0,0,0,2.07,0,16.13,16.13,0,0,1-2.63-3.74l-.73-1.22a11.67,11.67,0,0,1-1.76-3.8l-.12-.72.64.35a13.88,13.88,0,0,1,1.63,1c2,1.4,3.18,2.29,3.58,3s.75,1.39,1,2a8.47,8.47,0,0,0,1.24,2.07,6.67,6.67,0,0,0,1.26,1.07A4.15,4.15,0,0,1,61.49,110l.44.73-.82-.21a4,4,0,0,0-.82-.13,4.17,4.17,0,0,0-1.86.82A7.78,7.78,0,0,1,54.27,112.65Zm-7-4.31a8,8,0,0,0,2.38,2.37A9.51,9.51,0,0,0,54.27,112a7,7,0,0,0,3.79-1.36,4.64,4.64,0,0,1,2.23-.92h.1a5.2,5.2,0,0,0-.68-.54A7.76,7.76,0,0,1,58.35,108,8.89,8.89,0,0,1,57,105.72c-.28-.57-.59-1.23-1-1.93A16.31,16.31,0,0,0,52.6,101c-.29-.22-.58-.4-.84-.56a15.16,15.16,0,0,0,1.46,2.79c.23.38.48.79.73,1.23,1.22,2.08,1.91,3.16,3,4l.54.42-.66.19a7.92,7.92,0,0,1-3,.18c-.55,0-1.18-.07-2-.07-2.76,0-3.17-.2-4.06-.62C47.67,108.52,47.49,108.43,47.27,108.34Z"/><path class="cls-3" d="M53.62,107.37c-.54-2.13-1.34-2.81-2.24-4.8-1-2.24-1.05-2.95-2.78-4.65-1.51-1.48-2.38-2-3.17-3,.22.63.56.82.73,1.42A27.89,27.89,0,0,0,47.69,100a19.35,19.35,0,0,0,4,6.18C50.11,106,49.72,105,48,104c-3.16-2-5.53-2.19-7.68-3.85,1,2.74,2.59,4.1,4.33,5.68,1.24,1.12,3.55,1.62,5.55,1.62,1.22,0,2.42,0,3.39,0Z"/><path class="cls-5" d="M51.78,107.76H50.23c-1.88,0-4.39-.45-5.79-1.71l-.22-.21a13.09,13.09,0,0,1-4.2-5.61l-.41-1.14,1,.75a13.81,13.81,0,0,0,3.5,1.81,24.8,24.8,0,0,1,4.14,2,12.7,12.7,0,0,1,1.48,1.09,5.09,5.09,0,0,0,1,.71,18.92,18.92,0,0,1-3.2-5.21l-.07-.14a28.58,28.58,0,0,1-1.54-3.67,2.13,2.13,0,0,0-.32-.62A3.58,3.58,0,0,1,45.1,95l.6-.34a12.91,12.91,0,0,0,1.49,1.45c.47.42,1,.89,1.66,1.53a8.61,8.61,0,0,1,2.32,3.53c.15.36.32.76.53,1.22a19.08,19.08,0,0,0,.94,1.79A10.88,10.88,0,0,1,54,107.28l.11.42-.42,0C53.08,107.75,52.45,107.76,51.78,107.76Zm-10.65-6.7a13.49,13.49,0,0,0,3.56,4.26l.22.21c1.25,1.13,3.57,1.53,5.32,1.53H51c.77,0,1.5,0,2.15,0A10.77,10.77,0,0,0,52,104.56a20.11,20.11,0,0,1-1-1.85l-.54-1.23a8.09,8.09,0,0,0-2.16-3.31c-.65-.63-1.17-1.09-1.63-1.5a.65.65,0,0,1-.12-.11A27.51,27.51,0,0,0,48,99.81l.06.13a19,19,0,0,0,3.89,6l.59.67-.89-.09a4.05,4.05,0,0,1-2.42-1.2,13.07,13.07,0,0,0-1.4-1,24.64,24.64,0,0,0-4-2A20.42,20.42,0,0,1,41.13,101.06Z"/><path class="cls-3" d="M47,101.9c-1-2.18-.57-2.25-1.09-3.77-.61-1.79-.27-2.54-1.12-4.84A16.56,16.56,0,0,0,43,90.2c-.49-.74-.92-1.41-1.36-2a31.61,31.61,0,0,0,1.05,5.58c1,2.58,1.52,4.51,2.27,5.35a9.92,9.92,0,0,1,.65.82c-.93-.29-1.2-.79-2.14-1.9-.78-.92-2.43-1.73-4.26-2.88-1.52-1-2.4-1.86-3.4-2.5a8,8,0,0,0,1.84,2.87A25,25,0,0,0,39,97.92a10.7,10.7,0,0,0,3.22,2.34c1.53.76,2.77.65,4.71,1.64Z"/><path class="cls-5" d="M47.69,102.67l-.9-.46a11.72,11.72,0,0,0-2.6-.92,10.28,10.28,0,0,1-2.11-.71,11.29,11.29,0,0,1-3.33-2.43,5.81,5.81,0,0,1-.87-1.49,5.07,5.07,0,0,0-.49-.93l-.54-.66a6.13,6.13,0,0,1-1.35-2.31l-.31-.94.83.53a16.5,16.5,0,0,1,1.33,1,21,21,0,0,0,2.06,1.51c.5.31,1,.6,1.45.87a12.22,12.22,0,0,1,2.9,2.07l.17.21c-.27-.61-.54-1.36-.85-2.24-.21-.58-.44-1.21-.7-1.88a22.86,22.86,0,0,1-.89-4.44l-.18-1.22L42,88c.34.47.67,1,1,1.53l.33.5a16.63,16.63,0,0,1,1.76,3.16,12,12,0,0,1,.7,2.88,9.59,9.59,0,0,0,.42,2,6.26,6.26,0,0,1,.33,1.4,7.1,7.1,0,0,0,.75,2.33Zm-11-8.94a8.29,8.29,0,0,0,.67.89c.18.2.36.42.56.69a4.93,4.93,0,0,1,.58,1.06,5.41,5.41,0,0,0,.76,1.33A10.63,10.63,0,0,0,42.39,100a9.71,9.71,0,0,0,2,.66,14.54,14.54,0,0,1,1.91.6c-.12-.32-.2-.58-.26-.8l-.48-.15a3.57,3.57,0,0,1-1.86-1.47c-.14-.16-.28-.34-.45-.53a11,11,0,0,0-2.72-1.92L39,95.45a20.12,20.12,0,0,1-2.13-1.56Zm5.51-4.1a20.41,20.41,0,0,0,.82,4c.26.68.49,1.31.7,1.89a12,12,0,0,0,1.5,3.35c.23.26.42.5.61.75l0-.11a6.42,6.42,0,0,0-.3-1.28,10,10,0,0,1-.46-2.09,10.85,10.85,0,0,0-.66-2.74,15.71,15.71,0,0,0-1.68-3l-.33-.5Z"/><path class="cls-3" d="M38.65,93.86a8.08,8.08,0,0,0,3.12,1.69,40.14,40.14,0,0,1-.65-4.67c-.26-1.8.07-4.33-1.84-8.87a22.33,22.33,0,0,0-.25,4.3c0,3.37.51,5.5,1.48,6.87-1.36-1.09-2-2.54-3-3.89-1.08-1.53-2.1-2-3.66-3.59a7.11,7.11,0,0,1-1.64-2.24c.63,2.33,1.7,5.4,3.23,7.05a22.11,22.11,0,0,0,3.19,3.35Z"/><path class="cls-5" d="M42.3,96.06l-.63-.17a7.55,7.55,0,0,1-2.82-1.44l-.4-.3a13.33,13.33,0,0,1-2.4-2.41q-.44-.54-.84-1c-1.59-1.71-2.68-4.86-3.32-7.2l.66-.24a6.77,6.77,0,0,0,1.57,2.15c.58.57,1.09,1,1.55,1.4a11.47,11.47,0,0,1,2.15,2.23q.39.57.75,1.14c.22.34.43.67.65,1a17.11,17.11,0,0,1-.54-4.92,23.62,23.62,0,0,1,.25-4.36l.24-1.1.43,1a20.88,20.88,0,0,1,1.75,7.61c0,.51.06,1,.12,1.35.07.55.14,1.16.2,1.76a18.57,18.57,0,0,0,.43,2.85ZM33.24,85.55a13.79,13.79,0,0,0,2.48,4.72c.29.32.57.66.87,1a12.89,12.89,0,0,0,2.26,2.29h0l.42.3a6.8,6.8,0,0,0,2,1.15c-.13-.65-.21-1.49-.31-2.36-.06-.6-.12-1.21-.2-1.74s-.09-.88-.12-1.4a19.93,19.93,0,0,0-1.2-6.11c0,.69-.06,1.6-.07,2.89,0,3.1.44,5.28,1.42,6.67l-.51.47A10.65,10.65,0,0,1,38,90.6c-.24-.36-.48-.74-.74-1.11a10.35,10.35,0,0,0-2-2.09c-.46-.4-1-.85-1.59-1.45Z"/><path class="cls-3" d="M33.36,80.89c.93,2.38.85,3,1.9,4,.6.58,1.08,2,2.45,3.32a23.22,23.22,0,0,1,.56-4.84c.29-2.12,1-3.19.79-5.79-.14-1.68-.48-2.53-.5-3.79a23.55,23.55,0,0,0-1.67,4.81c-.55,1.75-.06,4,.14,6.38-.23-.49-.47-1.19-1-2.62-.82-2.24-1.07-3.77-1.49-5.15-.71-2.34-1.61-2.9-2.17-4-.31,1.26,0,1.17,0,2.66a11.83,11.83,0,0,0,1,5.08Z"/><path class="cls-5" d="M38.13,89.07l-.66-.65a11.1,11.1,0,0,1-1.79-2.36,5.73,5.73,0,0,0-.66-1,5.1,5.1,0,0,1-1.4-2.47c-.15-.43-.33-.95-.58-1.61h0a12.14,12.14,0,0,1-1-5.22,6.65,6.65,0,0,0-.07-1.18A3.53,3.53,0,0,1,32,73.07l.23-.93.42.85a6.66,6.66,0,0,0,.64,1,9.15,9.15,0,0,1,1.55,3.09c.16.49.29,1,.42,1.55a35.81,35.81,0,0,0,1.07,3.58l0,.07a9.81,9.81,0,0,1,.16-3.82c.21-.65.35-1.18.48-1.64a15,15,0,0,1,1.21-3.22l.67.15a10.09,10.09,0,0,0,.21,1.75,16.14,16.14,0,0,1,.28,2,11.19,11.19,0,0,1-.4,4,18.06,18.06,0,0,0-.38,1.87c-.08.58-.17,1.09-.26,1.59a12,12,0,0,0-.3,3.18Zm-4.44-8.3c.26.67.44,1.2.59,1.63a4.42,4.42,0,0,0,1.23,2.2,5.7,5.7,0,0,1,.77,1.09,12.23,12.23,0,0,0,1.07,1.57,15.88,15.88,0,0,1,.32-2.41c.09-.49.18-1,.26-1.57a18.94,18.94,0,0,1,.39-1.94,10.93,10.93,0,0,0,.39-3.77,18.15,18.15,0,0,0-.28-1.95l-.09-.57a15.31,15.31,0,0,0-.63,2c-.13.46-.28,1-.49,1.66a11.81,11.81,0,0,0,0,4.53c.06.56.13,1.13.18,1.72l-.67.17c-.19-.4-.38-.93-.73-1.9l-.27-.74a34,34,0,0,1-1.08-3.65c-.14-.53-.27-1-.42-1.52a8.58,8.58,0,0,0-1.45-2.88l-.17-.23c0,.12,0,.23,0,.37a7.76,7.76,0,0,1,.07,1.29,11.46,11.46,0,0,0,1,5Z"/><path class="cls-3" d="M36,78.4a13.28,13.28,0,0,1,1.74-5.19,6.47,6.47,0,0,0,.88-3.36c0-1.33.35-1.83.35-4-.62,1.26-1.59,3.12-2.22,4.45-.93,2-.5,2.73-.9,4.93a8.81,8.81,0,0,0-.38-1.74c-.61-1.66-.48-2.38-.65-5.05a23.4,23.4,0,0,0-.61-4.24c-.46,1.64-1.45,3.17-.67,7.09.84,4.24,1.61,4.3,2.46,7.09Z"/><path class="cls-5" d="M35.69,78.5a16.16,16.16,0,0,0-.94-2.37,16.89,16.89,0,0,1-1.53-4.75,10.72,10.72,0,0,1,.4-6.38c.1-.3.2-.58.28-.87h.68a24.47,24.47,0,0,1,.62,4.3c0,.63.07,1.15.09,1.6a9.64,9.64,0,0,0,.46,3.13,7.09,7.09,0,0,1,.72-3c.38-.82.89-1.82,1.38-2.79l.83-1.67.67.16a15.16,15.16,0,0,1-.21,2.55A7.79,7.79,0,0,0,39,69.85a6.38,6.38,0,0,1-.79,3.24l-.13.27-.27.56a11.9,11.9,0,0,0-1.44,4.52ZM34.17,65.58a9.79,9.79,0,0,0-.26,5.66,16.18,16.18,0,0,0,1.47,4.59c.17.36.34.72.51,1.15a13.53,13.53,0,0,1,1.29-3.37l.27-.56c0-.09.09-.18.14-.27a5.78,5.78,0,0,0,.71-2.93,8.43,8.43,0,0,1,.15-1.53c0-.25.07-.5.11-.79l-.09.16c-.48,1-1,2-1.37,2.78a6.73,6.73,0,0,0-.66,2.83,13.66,13.66,0,0,1-.22,2l-.69,0a8.48,8.48,0,0,0-.36-1.66,9.89,9.89,0,0,1-.58-3.56c0-.45-.05-1-.09-1.58A24.34,24.34,0,0,0,34.17,65.58Z"/><path class="cls-3" d="M37.63,65.92a17,17,0,0,0,.72-6.67c-.86.75-1.43,1.84-2.21,4.23a13.65,13.65,0,0,0-.41,7.35,15.31,15.31,0,0,0,1.9-4.91Z"/><path class="cls-5" d="M35.53,71.81l-.15-.93a14,14,0,0,1,.43-7.51c.79-2.43,1.4-3.58,2.31-4.38l.55-.48,0,.72,0,.42A17.7,17.7,0,0,1,38,66l0,.18A15,15,0,0,1,36,71Zm2.52-11.73a11.88,11.88,0,0,0-1.58,3.51,12.38,12.38,0,0,0-.54,6.18A15.74,15.74,0,0,0,37.24,66l0-.19A17.31,17.31,0,0,0,38.05,60.08Z"/><path class="cls-5" d="M27.4,112.83a2.8,2.8,0,1,1,2.8-2.8A2.81,2.81,0,0,1,27.4,112.83Zm0-4.9a2.1,2.1,0,1,0,2.1,2.1A2.1,2.1,0,0,0,27.4,107.93Z"/><circle class="cls-6" cx="23.55" cy="104.19" r="2.45"/><path class="cls-5" d="M23.55,107a2.8,2.8,0,1,1,2.8-2.8A2.8,2.8,0,0,1,23.55,107Zm0-4.9a2.1,2.1,0,1,0,2.1,2.1A2.1,2.1,0,0,0,23.55,102.09Z"/><circle class="cls-6" cx="32.42" cy="115.51" r="2.45"/><path class="cls-5" d="M32.42,118.31a2.8,2.8,0,1,1,2.8-2.8A2.8,2.8,0,0,1,32.42,118.31Zm0-4.9a2.1,2.1,0,1,0,2.1,2.1A2.1,2.1,0,0,0,32.42,113.41Z"/><path class="cls-5" d="M119.16,112.83A2.8,2.8,0,1,1,122,110,2.8,2.8,0,0,1,119.16,112.83Zm0-4.9a2.1,2.1,0,1,0,2.1,2.1A2.1,2.1,0,0,0,119.16,107.93Z"/><circle class="cls-6" cx="123.01" cy="104.19" r="2.45"/><path class="cls-5" d="M123,107a2.8,2.8,0,1,1,2.8-2.8A2.8,2.8,0,0,1,123,107Zm0-4.9a2.1,2.1,0,1,0,2.1,2.1A2.1,2.1,0,0,0,123,102.09Z"/><circle class="cls-6" cx="114.14" cy="115.51" r="2.45"/><path class="cls-5" d="M114.14,118.31a2.8,2.8,0,1,1,2.8-2.8A2.8,2.8,0,0,1,114.14,118.31Zm0-4.9a2.1,2.1,0,1,0,2.1,2.1A2.1,2.1,0,0,0,114.14,113.41Z"/><path class="cls-6" d="M73.83,51.94q4.62-2.1,4.71-6.63V42.64h.67q1.29,0,1.29.15v.09a9,9,0,0,0-.19,2v.33a7,7,0,0,0,4.76,6.34,12.05,12.05,0,0,0-1.43,1.58,9.51,9.51,0,0,1-4.09-4.72,9.72,9.72,0,0,1-4.39,4.72A5.91,5.91,0,0,0,73.83,51.94Z"/><path class="cls-5" d="M83.67,53.29l-.07,0a9.58,9.58,0,0,1-4.06-4.57,9.82,9.82,0,0,1-4.34,4.57l-.06,0,0-.06A5.75,5.75,0,0,0,73.78,52l-.13-.09.14-.06c3-1.38,4.6-3.58,4.67-6.55V42.56h.75c1.27,0,1.38.1,1.38.23v.09a9.1,9.1,0,0,0-.19,2v.33a7,7,0,0,0,4.7,6.26l.13,0-.1.1a12.63,12.63,0,0,0-1.42,1.56ZM74,52a6.14,6.14,0,0,1,1.18,1.11,9.58,9.58,0,0,0,4.29-4.64l.08-.19.08.19a9.37,9.37,0,0,0,4,4.64,14,14,0,0,1,1.29-1.43,7.11,7.11,0,0,1-4.69-6.36v-.34a9.17,9.17,0,0,1,.19-2.07v0a4.41,4.41,0,0,0-1.2-.08h-.58v2.58C78.57,48.31,77,50.54,74,52Zm6.41-9.16Z"/><path class="cls-6" d="M86.5,43.22a32.87,32.87,0,0,0,4.63-.77l.28,0a17,17,0,0,1,1,1.47l-.43,0-1.71.19v1.53h1.81v1.24H90.27v1.19L91,47.6a9.76,9.76,0,0,1,1.24,1.91l-1.09.81A5.19,5.19,0,0,0,90.27,49v4.38H88.79v-3.9a16.51,16.51,0,0,1-1.48,2,2.47,2.47,0,0,0-1.09-.95,13,13,0,0,0,2.43-3.67h-2.1V45.65h2.24V44.26a5.72,5.72,0,0,0-.72.1,10.84,10.84,0,0,0-1.09.1A3.29,3.29,0,0,0,86.5,43.22Zm5.91.81h4.48v8.14H95.37v-.85H93.84v1H92.41Zm3,1.33H93.84V50h1.53Z"/><path class="cls-5" d="M90.36,53.5H88.7V49.8a15.66,15.66,0,0,1-1.32,1.77l-.08.08-.06-.1a2.43,2.43,0,0,0-1.06-.91l-.11-.06.08-.08A12.75,12.75,0,0,0,88.51,47H86.46V45.56H88.7v-1.2c-.13,0-.34,0-.61.09-.51,0-.88.06-1.1.09h-.08l0-.08a3.35,3.35,0,0,0-.46-1.21l-.08-.12h.14a33.59,33.59,0,0,0,4.61-.76l.35-.06,0,0c.5.69.84,1.19,1,1.49l.05.1H97v8.32h-1.7v-.85H93.93v1H92.32V49.54l-1.23.91,0-.1a5.58,5.58,0,0,0-.69-1.09Zm-1.48-.17h1.3V48.81l.15.16a5.3,5.3,0,0,1,.83,1.21l1-.7A9.39,9.39,0,0,0,91,47.72l-.78.52V46.8H92V45.73H90.18V44h.08L92,43.84l.3,0c-.18-.29-.49-.74-.9-1.31l-.23,0a32.32,32.32,0,0,1-4.49.75,3.49,3.49,0,0,1,.4,1.07l1-.09a5.15,5.15,0,0,1,.72-.09h.09v1.55H86.64V46.8h2.14l0,.12a13.14,13.14,0,0,1-2.37,3.61,2.5,2.5,0,0,1,1,.83,17.41,17.41,0,0,0,1.4-1.9l.16-.25Zm3.62-1.15h1.25v-1h1.7v.86H96.8v-8H92.5ZM91,47.48l0,.06a9.94,9.94,0,0,1,1.25,1.93l0,.05V44L92,44l-1.63.18v1.36h1.8V47h-1.8v.94Zm4.45,2.64h-1.7V45.27h1.7Zm-1.52-.18h1.35V45.45H93.93Z"/><path class="cls-6" d="M51,47.17V45.73h2.46V42.66H54.7a.83.83,0,0,1,.42.14.85.85,0,0,1,0,.18,3,3,0,0,0-.09.79v9.3H53.49v-1.9a12.83,12.83,0,0,0-1.72.88,2,2,0,0,0-.7.33,8.4,8.4,0,0,1-.74-1.49,13.86,13.86,0,0,0,3.16-1.21V47.17Zm6.5-3.49v2.65a12.23,12.23,0,0,0,2.14-1.67l.93,1.21c.16.18.25.27.28.27-1.11.63-2.23,1.21-3.35,1.77v3.26c0,.31.13.45.47.42h1.07c.34.09.53-.45.56-1.63a7.53,7.53,0,0,0,1.53.74c0,1.64-.63,2.4-1.81,2.28H57.21c-.84,0-1.24-.37-1.21-1.21V42.56a5.18,5.18,0,0,1,1.67.1.12.12,0,0,1,0,.09A4,4,0,0,0,57.53,43.68Z"/><path class="cls-5" d="M55.07,53.16H53.4V51.3a14.13,14.13,0,0,0-1.59.83h0a1.78,1.78,0,0,0-.67.31l-.06,0L51,52.43a7.33,7.33,0,0,1-.75-1.51l0-.09.1,0a14.17,14.17,0,0,0,3.09-1.17V47.26H50.94V45.64H53.4V42.57h1.3a.89.89,0,0,1,.48.17l0,0v0a.56.56,0,0,1-.05.21,3.22,3.22,0,0,0-.08.76ZM53.58,53h1.31V43.77A2.76,2.76,0,0,1,55,43a.49.49,0,0,0,0-.12.83.83,0,0,0-.33-.1H53.58v3.06H51.11v1.27h2.47v2.65l0,0A14.15,14.15,0,0,1,50.45,51a9.32,9.32,0,0,0,.64,1.31,2,2,0,0,1,.65-.29,11.73,11.73,0,0,1,1.72-.88l.12-.05Zm6,.09H57.21a1.12,1.12,0,0,1-1.3-1.3V42.48H56a5.4,5.4,0,0,1,1.7.1l.06,0v.06a.21.21,0,0,1,0,.13,3.75,3.75,0,0,0-.09.89v2.49a11.7,11.7,0,0,0,2-1.57l.07-.08.06.08.93,1.21a2.42,2.42,0,0,0,.23.25h.32l-.29.16c-1.09.61-2.2,1.19-3.31,1.75v3.2a.32.32,0,0,0,.06.26.39.39,0,0,0,.31.07h1.1a.14.14,0,0,0,.14,0c.12-.1.28-.44.31-1.52V49.8l.13.08a7.23,7.23,0,0,0,1.52.74l.06,0v.06a2.71,2.71,0,0,1-.67,2A1.43,1.43,0,0,1,59.58,53.08Zm-.23-.19a1.37,1.37,0,0,0,1.12-.29,2.5,2.5,0,0,0,.6-1.84,7.19,7.19,0,0,1-1.36-.65c0,.86-.15,1.34-.38,1.51a.29.29,0,0,1-.27.05H58a.53.53,0,0,1-.45-.12.47.47,0,0,1-.1-.39v-3.3l0,0c1.08-.54,2.16-1.11,3.22-1.7l-.18-.21-.87-1.13a12.36,12.36,0,0,1-2.09,1.61l-.13.09V43.68a4.19,4.19,0,0,1,.09-1v0a7,7,0,0,0-1.46-.06v9.12a1.11,1.11,0,0,0,.25.87,1.15,1.15,0,0,0,.87.25Z"/><path class="cls-6" d="M62.46,51.86a6,6,0,0,0,2.42-2.41,13.82,13.82,0,0,1,1.49.83,18.38,18.38,0,0,1-2.6,2.56C62.87,52.25,62.43,51.93,62.46,51.86ZM66.6,42.7l2-.27a8.73,8.73,0,0,0,.19,1.11h4.14V44.8H62.56V43.54H67C66.79,43.11,66.66,42.83,66.6,42.7Zm.47,6.37H64.18V45.59h7.26v3.48H68.69v3a.87.87,0,0,1-.51.88,5.34,5.34,0,0,1-2,.28,6.83,6.83,0,0,0-.46-1.44c1,.06,1.44-.09,1.35-.46Zm2.79-1.16V46.8H65.67v1.11Zm1.9,4.65c-.59-.49-1.42-1.13-2.51-1.9a6,6,0,0,0,1.07-1.07,29.94,29.94,0,0,1,2.61,1.81C72.52,51.77,72.14,52.16,71.76,52.56Z"/><path class="cls-5" d="M66.11,53.3v-.07a6.89,6.89,0,0,0-.46-1.42l-.06-.14h.14c.85.06,1.14-.06,1.23-.17a.19.19,0,0,0,0-.18V49.16H64.1V45.5h7.43v3.66H68.78v2.89a1,1,0,0,1-.56,1,5.47,5.47,0,0,1-2,.29Zm-.26-1.43a6.68,6.68,0,0,1,.4,1.25,5.37,5.37,0,0,0,1.89-.26.8.8,0,0,0,.47-.81V49h2.74V45.67H64.27V49h2.88v2.32a.35.35,0,0,1-.06.31C66.92,51.82,66.52,51.9,65.85,51.87ZM63.77,53l-.05,0c-1.42-.92-1.38-1-1.33-1.09v0h0a5.92,5.92,0,0,0,2.38-2.38l0-.08.07,0c1.54.82,1.54.84,1.54.91v0l0,0a19.15,19.15,0,0,1-2.62,2.57ZM62.58,51.9a12.12,12.12,0,0,0,1.18.83,17.69,17.69,0,0,0,2.48-2.43c-.12-.08-.45-.27-1.32-.74A6.18,6.18,0,0,1,62.58,51.9Zm9.19.78-.06,0c-.59-.49-1.43-1.13-2.51-1.9l-.09-.07.09-.07a5.83,5.83,0,0,0,1-1.06l0-.06.07,0A28.45,28.45,0,0,1,73,51.33l.08.06-.08.07c-.39.37-.78.76-1.15,1.16Zm-2.37-2c1,.72,1.79,1.32,2.36,1.79.33-.36.68-.7,1-1-.7-.54-1.52-1.12-2.45-1.7A5.61,5.61,0,0,1,69.4,50.65ZM69.94,48H65.58V46.71h4.36Zm-4.18-.18h4v-.94h-4ZM73,44.88H62.47V43.45h4.37c-.15-.35-.26-.59-.32-.71l0-.11,2.17-.31v.11a6.41,6.41,0,0,0,.17,1H73Zm-10.33-.17H72.79V43.63H68.67v-.07c-.11-.5-.17-.84-.19-1l-1.74.24.32.74.06.12H62.64Z"/><path class="cls-5" d="M20.35,87,11.7,88.7l-.59-2.91a3.67,3.67,0,0,1,.13-2.19,1.7,1.7,0,0,1,1.28-1.07,2,2,0,0,1,1.36.21,2.62,2.62,0,0,1,1,1.12h0a2.73,2.73,0,0,1,.34-1.74,2,2,0,0,1,1.32-.9,2.22,2.22,0,0,1,2,.55A3.9,3.9,0,0,1,19.74,84Zm-7.93.27,2.7-.55-.23-1.16a2.38,2.38,0,0,0-.69-1.37,1.29,1.29,0,0,0-1.2-.3c-.81.16-1.09.86-.84,2.11Zm3.68-.74,3-.61-.31-1.53a2.55,2.55,0,0,0-.72-1.47,1.35,1.35,0,0,0-1.23-.32c-1,.21-1.33,1.07-1,2.61Z"/><path class="cls-6" d="M11.56,88.9l-.62-3.07a3.87,3.87,0,0,1,.13-2.3,1.91,1.91,0,0,1,1.42-1.17,2.1,2.1,0,0,1,1.47.23,2.4,2.4,0,0,1,.78.68A2.78,2.78,0,0,1,15.12,82a2.17,2.17,0,0,1,1.43-1,2.41,2.41,0,0,1,2.15.59,4,4,0,0,1,1.21,2.3l.64,3.16Zm1.37-6.23a2.31,2.31,0,0,0-.37,0,1.52,1.52,0,0,0-1.16,1,3.42,3.42,0,0,0-.12,2.09l.55,2.73,8.31-1.68L19.57,84a3.65,3.65,0,0,0-1.11-2.11,2,2,0,0,0-1.84-.51,1.76,1.76,0,0,0-1.2.82,2.53,2.53,0,0,0-.31,1.63V84l-.28.06-.09-.11a2.35,2.35,0,0,0-1-1A1.78,1.78,0,0,0,12.93,82.67Zm-.65,4.76L12,86a2.68,2.68,0,0,1,0-1.56,1.21,1.21,0,0,1,1-.76,1.52,1.52,0,0,1,1.35.35,2.6,2.6,0,0,1,.74,1.47l.27,1.33ZM13.33,84,13,84a.89.89,0,0,0-.7.54,2.54,2.54,0,0,0,0,1.36L12.55,87l2.37-.48-.2-1a2.31,2.31,0,0,0-.63-1.28A1.08,1.08,0,0,0,13.33,84ZM16,86.69l-.3-1.5a3.5,3.5,0,0,1,0-1.9,1.45,1.45,0,0,1,1.12-.91,1.57,1.57,0,0,1,1.39.36A2.8,2.8,0,0,1,19,84.3L19.32,86Zm1.22-4a1.77,1.77,0,0,0-.3,0,1.08,1.08,0,0,0-.87.69,3.18,3.18,0,0,0,0,1.7l.23,1.15,2.67-.54-.27-1.36A2.52,2.52,0,0,0,18,83,1.17,1.17,0,0,0,17.18,82.69Z"/><path class="cls-5" d="M18.62,73.56,18.94,79l-8.81.52-.31-5.18,1-.06.24,3.88L13.89,78l-.22-3.6,1-.06.21,3.6,3-.17-.25-4.12Z"/><path class="cls-6" d="M10,79.69l-.33-5.54L11,74.07,11.23,78l2.47-.15-.21-3.6,1.35-.08.22,3.6,2.61-.16-.24-4.11,1.35-.08.34,5.76Zm0-5.21.29,4.84,8.45-.51-.3-5.06-.65,0L18,77.9l-3.31.2-.22-3.6-.65,0,.21,3.6-3.17.19-.23-3.89Z"/><path class="cls-5" d="M11,68.66l0,1,6.89.27,0-1,1,0-.13,3.24-1,0,0-1-6.89-.27,0,1-1,0L10,68.62Z"/><path class="cls-6" d="M18.89,72.39l-1.31,0,0-1-6.54-.26,0,1L9.73,72l.14-3.59,1.31,0,0,1,6.55.26,0-1,1.31.06ZM17.94,72l.62,0,.11-2.89-.61,0,0,1-7.24-.3,0-1-.61,0-.12,2.89.61,0,0-1L18,71Z"/><path class="cls-5" d="M16.43,63.45a3.65,3.65,0,0,1,2.4,1,3.1,3.1,0,0,1,.42,3.18l-1.11-.1a1.75,1.75,0,0,0,.35-1c.1-1.05-.63-1.65-2.18-1.8l-5.6-.51.12-1.3Z"/><path class="cls-6" d="M19.35,67.81l-1.54-.14.2-.25a1.78,1.78,0,0,0,.31-.9c.09-.94-.58-1.47-2-1.6l-5.78-.53.16-1.65,5.77.53A3.76,3.76,0,0,1,19,64.33a2.85,2.85,0,0,1,.73,2.31,3,3,0,0,1-.27,1.07Zm-.91-.43.7.06a2.61,2.61,0,0,0,.19-.83,2.47,2.47,0,0,0-.63-2,3.46,3.46,0,0,0-2.28-.95L11,63.12l-.08.95,5.42.5c1.66.15,2.44.82,2.34,2A2.25,2.25,0,0,1,18.44,67.38Z"/><path class="cls-5" d="M13.09,57.7l-.26.93,6.65,1.86.26-.94.93.26-.88,3.12-.92-.26.26-.93-6.65-1.85-.26.93-.92-.26.87-3.12Z"/><path class="cls-6" d="M19.92,63.15l-1.27-.35.26-.94-6.3-1.76-.27.94-1.26-.36,1-3.46,1.26.36-.26.93,6.31,1.76.26-.93,1.26.35Zm-.84-.6.59.17.78-2.79-.59-.16-.26.93-7-2,.26-.93-.59-.16-.78,2.78.59.16.26-.93,7,1.95Z"/><path class="cls-5" d="M24.21,50.68,23.6,52.1l-8.3,2a2.75,2.75,0,0,1-.67.09v0a9.14,9.14,0,0,1,1.16.43l5.7,2.44L21,58.25l-8.12-3.46.64-1.5,8.14-1.89a6,6,0,0,1,.72-.15v0a9.3,9.3,0,0,1-1.21-.45L15.58,48.4l.51-1.18Z"/><path class="cls-6" d="M21.07,58.48l-8.44-3.6.75-1.74,8.22-1.92.12,0-.62-.26L15.36,48.5,16,47l8.44,3.59-.71,1.67-8.39,2h0l.54.22L21.71,57Zm-8-3.78L20.88,58l.37-.86-5.54-2.37a9.12,9.12,0,0,0-1.13-.42l-.21,0,.13-.3.13,0a3.68,3.68,0,0,0,.63-.09L23.47,52,24,50.77l-7.8-3.32-.37.86,5.42,2.31a10.63,10.63,0,0,0,1.18.44l.21,0-.13.3-.12,0a5.36,5.36,0,0,0-.69.14l-8,1.87Z"/><path class="cls-5" d="M28.22,42.57A7.6,7.6,0,0,1,27,45.83a5,5,0,0,1-3,2.25,4.11,4.11,0,0,1-3.43-.68,4.27,4.27,0,0,1-2-3.09,5.51,5.51,0,0,1,1-3.88,7.36,7.36,0,0,1,1.92-2l1,.68a5.92,5.92,0,0,0-2.16,2,3.8,3.8,0,0,0-.68,2.81,3.35,3.35,0,0,0,1.56,2.32,3.37,3.37,0,0,0,2.7.62,3.72,3.72,0,0,0,2.24-1.7A4.51,4.51,0,0,0,27,43.3L25,42l-1.22,1.82-.83-.56,1.94-2.9Z"/><path class="cls-6" d="M23,48.38a4.6,4.6,0,0,1-2.55-.83,4.48,4.48,0,0,1-2.05-3.22,5.64,5.64,0,0,1,1-4,7.56,7.56,0,0,1,2-2.1l.09-.06,1.37.91-.26.14a5.72,5.72,0,0,0-2.09,2,3.71,3.71,0,0,0-.66,2.68,3.2,3.2,0,0,0,1.49,2.21,3.23,3.23,0,0,0,2.56.59A3.58,3.58,0,0,0,26,45.05a4.34,4.34,0,0,0,.72-1.67L25,42.22,23.8,44l-1.13-.76,2.14-3.2,3.6,2.41,0,.1a7.73,7.73,0,0,1-1.29,3.33A5.22,5.22,0,0,1,24,48.25,4,4,0,0,1,23,48.38Zm-1.5-9.79a7.61,7.61,0,0,0-1.77,1.93,5.31,5.31,0,0,0-1,3.76,4.16,4.16,0,0,0,1.89,3,4,4,0,0,0,3.29.66,5,5,0,0,0,2.87-2.19A7.47,7.47,0,0,0,28,42.66L24.9,40.57l-1.74,2.62.55.36,1.21-1.82,2.22,1.48v.11a4.73,4.73,0,0,1-.8,1.92A3.9,3.9,0,0,1,24,47a3.55,3.55,0,0,1-2.83-.64,3.52,3.52,0,0,1-1.65-2.45A4.08,4.08,0,0,1,20.23,41a6.34,6.34,0,0,1,2-1.94Z"/><path class="cls-5" d="M36.37,33l-1.06,1.12-2.93-.46a3.41,3.41,0,0,0-1.35,0,1.84,1.84,0,0,0-.88.54l-.64.69,2.7,2.54-.89,1-6.43-6.05L27,30.1a3.76,3.76,0,0,1,2-1.26,2.06,2.06,0,0,1,1.84.59c.89.83.95,1.92.2,3.26l0,0a2.14,2.14,0,0,1,.81-.23,7.56,7.56,0,0,1,1.25.1Zm-9.86-1,2.27,2.13,1-1.12a2.16,2.16,0,0,0,.66-1.36A1.48,1.48,0,0,0,30,30.49a1.34,1.34,0,0,0-1.14-.37,2.39,2.39,0,0,0-1.29.81Z"/><path class="cls-6" d="M31.33,38.63l-6.68-6.29L26.87,30A4,4,0,0,1,29,28.67a2.21,2.21,0,0,1,2,.63,2.46,2.46,0,0,1,.43,3.09,2.43,2.43,0,0,1,.47-.08,6.09,6.09,0,0,1,1.28.1l3.56.48-1.35,1.43-3-.47a3.3,3.3,0,0,0-1.29,0,1.64,1.64,0,0,0-.79.49l-.52.56,2.7,2.54Zm-6.19-6.3,6.17,5.8.66-.69-2.71-2.55.76-.81a2,2,0,0,1,1-.59,3.78,3.78,0,0,1,1.43,0l2.84.45.76-.81-2.89-.39a6.91,6.91,0,0,0-1.21-.09,1.84,1.84,0,0,0-.74.21l-.11.05-.19-.18,0-.14c.72-1.27.67-2.26-.16-3.05A1.86,1.86,0,0,0,29.06,29a3.55,3.55,0,0,0-1.93,1.2Zm3.65,2.12-2.52-2.37,1.18-1.27A2.67,2.67,0,0,1,28.84,30a1.47,1.47,0,0,1,1.29.41,1.67,1.67,0,0,1,.54,1.37A2.37,2.37,0,0,1,30,33.2Zm-2-2.39,2,1.9.94-1a2.07,2.07,0,0,0,.61-1.26,1.29,1.29,0,0,0-.43-1.08,1.11,1.11,0,0,0-1-.32,2.25,2.25,0,0,0-1.19.75Z"/><path class="cls-5" d="M41.49,29l-4.24,3.38-5.5-6.89,4.06-3.25.63.8-3,2.43,1.76,2.2L38,25.43l.63.79-2.82,2.25,1.85,2.32,3.22-2.57Z"/><path class="cls-6" d="M37.22,32.64,31.5,25.47,35.83,22l.85,1.06-3,2.43,1.55,1.94L38,25.19l.85,1.06L36,28.5l1.64,2L40.89,28,41.73,29ZM32,25.52l5.29,6.62,4-3.16-.41-.51L37.61,31l-2.07-2.6,2.82-2.25L38,25.68l-2.82,2.25-2-2.48,3-2.43-.41-.52Z"/><path class="cls-5" d="M49.94,24l-1.35.76L40.8,21.27a3,3,0,0,1-.58-.34l0,0A11.47,11.47,0,0,1,40.84,22l3,5.39L42.77,28l-4.34-7.68,1.42-.81L47.46,23a6.45,6.45,0,0,1,.67.32h0a9.14,9.14,0,0,1-.69-1.09l-3-5.28,1.13-.63Z"/><path class="cls-6" d="M42.7,28.28l-4.51-8,1.65-.93,7.7,3.48.11.05c-.1-.17-.22-.36-.34-.58l-3.07-5.44,1.42-.8,4.52,8-1.58.89-7.87-3.51,0,0,.29.51,3.14,5.55Zm-4-7.86,4.16,7.38.82-.46-3-5.25a9.39,9.39,0,0,0-.64-1l-.13-.16.28-.16.12,0a3.61,3.61,0,0,0,.55.32l7.72,3.44,1.11-.63-4.17-7.38-.82.47,2.9,5.13a8,8,0,0,0,.68,1.06l.13.16-.28.16L48,23.47a4.34,4.34,0,0,0-.64-.31l-7.53-3.41Z"/><path class="cls-5" d="M59.32,20.62,58.08,21l-1.27-3.77L52,18.9l1.27,3.77L52,23.08l-2.82-8.35,1.24-.42,1.22,3.63,4.84-1.63-1.23-3.63,1.24-.42Z"/><path class="cls-6" d="M51.9,23.31,49,14.62l1.57-.53,1.22,3.63,4.51-1.52L55,12.57,56.61,12l2.93,8.69L58,21.26,56.7,17.49,52.2,19l1.27,3.77Zm-2.48-8.47,2.7,8,.91-.3-1.27-3.77,5.16-1.74,1.27,3.77.91-.31-2.71-8-.91.31,1.23,3.63-5.17,1.74-1.22-3.63Z"/><path class="cls-5" d="M66.93,19.27l-5.35.9-1.47-8.7,5.12-.86.17,1-3.84.65L62,15l3.55-.6.17,1L62.2,16,62.7,19l4.06-.69Z"/><path class="cls-6" d="M61.44,20.37l-1.53-9,5.47-.93.22,1.35-3.83.65.41,2.44,3.56-.6L66,15.58l-3.55.6.43,2.58,4.07-.69.22,1.34Zm-1.13-8.75L61.73,20l5-.85-.11-.65-4.06.69L62,15.89l3.56-.6-.11-.65-3.56.6-.53-3.13,3.84-.65-.11-.65Z"/><path class="cls-5" d="M77.83,11.33l-3.89-.12-.09,2.95,3.61.11,0,1-3.6-.11L73.7,19l-1.3,0,.27-8.82,5.19.16Z"/><path class="cls-6" d="M73.87,19.19l-1.65-.05L72.5,10l5.54.17,0,1.37-3.89-.12L74,14l3.61.11,0,1.35L74,15.34Zm-1.29-.39,1,0L73.65,15l3.61.11,0-.65-3.61-.11.1-3.3,3.89.12,0-.67-4.84-.14Z"/><path class="cls-5" d="M79.35,14.86a4.46,4.46,0,0,1,1.94-3.09A5,5,0,0,1,85,11.2a4.63,4.63,0,0,1,3.09,1.85,4.24,4.24,0,0,1,.66,3.4,4.52,4.52,0,0,1-1.93,3.1,4.9,4.9,0,0,1-3.69.58A4.77,4.77,0,0,1,80,18.27,4.23,4.23,0,0,1,79.35,14.86Zm1.36.17a3.55,3.55,0,0,0,.43,2.7,3.27,3.27,0,0,0,2.22,1.4A3.42,3.42,0,0,0,86,18.7a3.51,3.51,0,0,0,1.39-2.37A3.58,3.58,0,0,0,87,13.57a3.28,3.28,0,0,0-2.25-1.38,3.32,3.32,0,0,0-2.64.5A3.51,3.51,0,0,0,80.71,15Z"/><path class="cls-6" d="M84.38,20.42a6.94,6.94,0,0,1-1.25-.12,5,5,0,0,1-3.26-1.93,4.42,4.42,0,0,1-.69-3.54h0a4.67,4.67,0,0,1,2-3.21A5.17,5.17,0,0,1,85.07,11,4.84,4.84,0,0,1,88.27,13,4.42,4.42,0,0,1,89,16.49a4.48,4.48,0,0,1-4.58,3.93Zm-.6-9.17a4.16,4.16,0,0,0-4.26,3.64h0a4.08,4.08,0,0,0,.64,3.27,4.57,4.57,0,0,0,3,1.79,4.66,4.66,0,0,0,3.56-.55,4.29,4.29,0,0,0,1.85-3A4.13,4.13,0,0,0,88,13.15a4.57,4.57,0,0,0-3-1.78A6.73,6.73,0,0,0,83.78,11.25Zm.46,8.14a5,5,0,0,1-.92-.09A3.38,3.38,0,0,1,81,17.82,3.68,3.68,0,0,1,80.54,15h0A3.69,3.69,0,0,1,82,12.54a3.9,3.9,0,0,1,5.14.93,3.77,3.77,0,0,1,.41,2.89,3.63,3.63,0,0,1-1.46,2.48A3.25,3.25,0,0,1,84.24,19.39ZM84,12.29a3,3,0,0,0-1.76.54,3.34,3.34,0,0,0-1.35,2.23h0a3.4,3.4,0,0,0,.41,2.57A3.11,3.11,0,0,0,83.39,19a3.23,3.23,0,0,0,2.53-.41,3.35,3.35,0,0,0,1.32-2.25,3.55,3.55,0,0,0-.36-2.64,3.19,3.19,0,0,0-2.14-1.3A5,5,0,0,0,84,12.29Z"/><path class="cls-5" d="M90.45,17.16a4.52,4.52,0,0,1,2.49-2.67,5,5,0,0,1,3.79.16,4.63,4.63,0,0,1,2.68,2.41,4.25,4.25,0,0,1,0,3.46,4.52,4.52,0,0,1-2.49,2.67,5.46,5.46,0,0,1-6.47-2.56A4.24,4.24,0,0,1,90.45,17.16Zm1.3.42a3.52,3.52,0,0,0-.09,2.73,3.21,3.21,0,0,0,1.91,1.8,3.42,3.42,0,0,0,2.69.09,3.52,3.52,0,0,0,1.82-2.06,3.68,3.68,0,0,0,.15-2.78,3.31,3.31,0,0,0-2-1.79,3.36,3.36,0,0,0-2.69,0A3.53,3.53,0,0,0,91.75,17.58Z"/><path class="cls-6" d="M95.32,23.68a6,6,0,0,1-2.2-.46,5,5,0,0,1-2.83-2.52,4.49,4.49,0,0,1,0-3.61h0a4.69,4.69,0,0,1,2.59-2.76,5.15,5.15,0,0,1,3.93.16A4.85,4.85,0,0,1,99.57,17a4.42,4.42,0,0,1,0,3.6A4.68,4.68,0,0,1,97,23.36,4.46,4.46,0,0,1,95.32,23.68Zm-4.71-6.46a4.1,4.1,0,0,0,0,3.33,4.61,4.61,0,0,0,2.64,2.34,4.67,4.67,0,0,0,3.6.14,4.33,4.33,0,0,0,2.39-2.57,4.07,4.07,0,0,0,0-3.33,4.55,4.55,0,0,0-2.58-2.32A4.81,4.81,0,0,0,93,14.66a4.31,4.31,0,0,0-2.39,2.56Zm4.48,5.39a4.35,4.35,0,0,1-1.59-.33,3.42,3.42,0,0,1-2-1.9,3.66,3.66,0,0,1,.09-2.86,3.71,3.71,0,0,1,1.93-2.13,3.9,3.9,0,0,1,4.87,1.9,3.82,3.82,0,0,1-.15,2.91,3.7,3.7,0,0,1-1.91,2.16A3.05,3.05,0,0,1,95.09,22.61Zm-3.34-5,.16.07a3.35,3.35,0,0,0-.09,2.59A3.09,3.09,0,0,0,93.63,22a3.28,3.28,0,0,0,2.56.09,3.39,3.39,0,0,0,1.73-2,3.48,3.48,0,0,0,.14-2.65,3.1,3.1,0,0,0-1.85-1.68,3.19,3.19,0,0,0-2.55,0,3.41,3.41,0,0,0-1.75,1.94Z"/><path class="cls-5" d="M108.36,22.1l-2.49-1.51-4.05,6.67-1.12-.68,4-6.67-2.47-1.51.53-.86,6.08,3.69Z"/><path class="cls-6" d="M101.88,27.5l-1.42-.86L104.51,20,102,18.46l.71-1.16,6.38,3.87-.71,1.17-2.49-1.51Zm-.94-1,.82.5,4-6.67,2.49,1.51.35-.57-5.79-3.51-.34.57,2.47,1.5Z"/><path class="cls-5" d="M105.32,29.55l5.61-6.81,2.29,1.89a3.58,3.58,0,0,1,1.28,1.78,1.72,1.72,0,0,1-.32,1.64,2,2,0,0,1-1.19.69,2.52,2.52,0,0,1-1.5-.21h0a2.72,2.72,0,0,1,.84,1.57,1.94,1.94,0,0,1-.46,1.53,2.18,2.18,0,0,1-1.89.82,3.87,3.87,0,0,1-2.29-1Zm3.59-2.31-2,2.37,1.2,1a2.61,2.61,0,0,0,1.49.68,1.33,1.33,0,0,0,1.15-.53c.65-.78.36-1.67-.85-2.66Zm2.39-2.9-1.75,2.13.91.76a2.4,2.4,0,0,0,1.4.63,1.31,1.31,0,0,0,1.12-.52c.53-.64.3-1.36-.67-2.17Z"/><path class="cls-6" d="M110.09,32.64H110a4.11,4.11,0,0,1-2.4-1l-2.48-2,5.84-7.08,2.42,2a3.81,3.81,0,0,1,1.34,1.87,1.88,1.88,0,0,1-.36,1.8,2.11,2.11,0,0,1-1.28.75,2.61,2.61,0,0,1-1,0,2.63,2.63,0,0,1,.49,1.21,2.12,2.12,0,0,1-.49,1.66A2.37,2.37,0,0,1,110.09,32.64Zm-4.52-3.11,2.21,1.82a3.68,3.68,0,0,0,2.19.94,2,2,0,0,0,1.75-.76,1.81,1.81,0,0,0,.42-1.39,2.56,2.56,0,0,0-.79-1.47l-.11-.11.18-.23.14,0a2.43,2.43,0,0,0,1.4.2,1.76,1.76,0,0,0,1.08-.63,1.53,1.53,0,0,0,.29-1.49,3.46,3.46,0,0,0-1.23-1.69L111,23Zm4.15,1.94h-.08a2.8,2.8,0,0,1-1.59-.73l-1.34-1.1L108.89,27l1.18,1q1.94,1.61.87,2.91A1.53,1.53,0,0,1,109.72,31.47Zm-2.52-1.88,1.08.88a2.41,2.41,0,0,0,1.37.65,1.19,1.19,0,0,0,1-.47c.57-.7.3-1.49-.83-2.42l-.9-.74ZM111.93,28h-.08a2.53,2.53,0,0,1-1.5-.67l-1-.86,2-2.4,1.14.94a2.77,2.77,0,0,1,1,1.23,1.19,1.19,0,0,1-.27,1.18A1.46,1.46,0,0,1,111.93,28Zm-2.14-1.59.78.64a2.22,2.22,0,0,0,1.3.59,1.12,1.12,0,0,0,1-.45.86.86,0,0,0,.2-.86,2.37,2.37,0,0,0-.84-1.06l-.87-.72Z"/><path class="cls-5" d="M116.7,40.74l-1-1.08,1.13-2.37-2.78-3.14-2.45.87-1-1.08,9.16-3,.92,1Zm.66-4.41,1.74-3.57a4.23,4.23,0,0,1,.36-.52l0,0a3.06,3.06,0,0,1-.57.29l-3.75,1.29Z"/><path class="cls-6" d="M116.75,41.06l-1.21-1.37,1.13-2.37-2.62-3-2.45.87-1.21-1.37,9.52-3.07L121,32ZM116,39.63l.7.8,3.91-8.38-.77-.87L111,34l.69.79,2.46-.87,2.93,3.33Zm1.44-3-2.58-2.93,4-1.38a2.39,2.39,0,0,0,.53-.27l.12-.07.2.21-.07.14a4.45,4.45,0,0,0-.34.5Zm-2-2.77L117.32,36,119,32.69v0h0Z"/><path class="cls-5" d="M120.2,46.23l-2.92-4.45,7.37-4.84.72,1.08-6.53,4.3,2.2,3.35Z"/><path class="cls-6" d="M120.15,46.47,117,41.73l7.66-5,.91,1.39-6.53,4.29,2.2,3.35Zm-2.63-4.64L120.25,46l.55-.36-2.2-3.36L125.13,38l-.53-.79Z"/><path class="cls-5" d="M123.15,52.14l-2.37-4.77,7.91-3.91.58,1.16-7,3.47,1.78,3.6Z"/><path class="cls-6" d="M123.07,52.37l-2.52-5.07,8.22-4.08.73,1.48-7,3.47,1.78,3.6Zm-2-4.92,2.2,4.46.6-.3L122,48l7-3.47-.42-.85Z"/><path class="cls-5" d="M127,63.51a6.87,6.87,0,0,1-1.18-2.58,4.91,4.91,0,0,1,.32-3.66,4.16,4.16,0,0,1,2.77-2,4.36,4.36,0,0,1,3.68.57,5.36,5.36,0,0,1,2.17,3.28,6.63,6.63,0,0,1,.24,2.4l-1.15.29a5.42,5.42,0,0,0-.08-2.43,3.88,3.88,0,0,0-1.63-2.42,3.43,3.43,0,0,0-2.83-.38,3.3,3.3,0,0,0-2.19,1.58,3.63,3.63,0,0,0-.27,2.74A5.43,5.43,0,0,0,128,63.24Z"/><path class="cls-6" d="M126.89,63.7l-.07-.08A6.87,6.87,0,0,1,125.6,61a5.12,5.12,0,0,1,.33-3.78,4.34,4.34,0,0,1,2.89-2.13,4.54,4.54,0,0,1,3.82.6A5.58,5.58,0,0,1,134.88,59a7,7,0,0,1,.24,2.47v.12l-1.54.39.05-.27a5.25,5.25,0,0,0-.07-2.36A3.74,3.74,0,0,0,132,57.07a3.28,3.28,0,0,0-2.7-.36,3.14,3.14,0,0,0-2.08,1.49,3.47,3.47,0,0,0-.25,2.62,5.33,5.33,0,0,0,1.17,2.3l.2.21Zm3.25-8.46a5.48,5.48,0,0,0-1.24.16,4,4,0,0,0-2.66,2,4.74,4.74,0,0,0-.3,3.52A6.85,6.85,0,0,0,127,63.31l.68-.17a5.77,5.77,0,0,1-1.07-2.24,3.83,3.83,0,0,1,.28-2.87,3.47,3.47,0,0,1,2.31-1.66,3.64,3.64,0,0,1,3,.4,4.11,4.11,0,0,1,1.7,2.53,5.68,5.68,0,0,1,.12,2.24l.78-.2a6.85,6.85,0,0,0-.25-2.22,5.18,5.18,0,0,0-2.1-3.17A4,4,0,0,0,130.14,55.24Z"/><path class="cls-5" d="M127.37,70.62l-.57-5.28,8.77-1,.14,1.29-7.77.84.43,4Z"/><path class="cls-6" d="M127.21,70.82l-.61-5.64,9.12-1,.18,1.65-7.77.84.43,4ZM127,65.49l.53,4.94.66-.07-.43-4,7.77-.84-.11-1Z"/><path class="cls-5" d="M130.73,79.47c-2.49-.11-3.69-1.45-3.58-4s1.36-3.67,3.76-3.57l5.36.22-.06,1.3-5.3-.22c-1.77-.07-2.68.74-2.75,2.43s.75,2.49,2.46,2.56l5.39.22-.06,1.3Z"/><path class="cls-6" d="M136.12,79.86l-5.4-.22c-2.59-.11-3.85-1.52-3.74-4.21a4,4,0,0,1,1.07-2.87,3.81,3.81,0,0,1,2.87-.86l5.53.22-.07,1.65-5.48-.22c-1.66-.07-2.5.67-2.57,2.26s.69,2.31,2.3,2.37l5.56.23Zm-5.38-.57,5,.21,0-1-5.22-.22c-1.81-.07-2.7-1-2.63-2.74S129,72.93,130.92,73l5.13.21,0-.95-5.18-.21a3.43,3.43,0,0,0-2.61.77,3.66,3.66,0,0,0-1,2.62c-.11,2.49,1,3.75,3.41,3.85Z"/><path class="cls-5" d="M126.8,81.47l8.64,1.78-.59,2.9a3.63,3.63,0,0,1-1,2,1.7,1.7,0,0,1-1.61.48,1.87,1.87,0,0,1-1.16-.72,2.62,2.62,0,0,1-.52-1.43h0a2.7,2.7,0,0,1-1,1.47,1.94,1.94,0,0,1-1.56.31,2.2,2.2,0,0,1-1.61-1.29,3.78,3.78,0,0,1-.21-2.48Zm3.73,2.09-3-.62-.32,1.53a2.55,2.55,0,0,0,.09,1.63,1.34,1.34,0,0,0,1,.78c1,.2,1.64-.46,2-2Zm3.68.76-2.71-.56-.24,1.16a2.43,2.43,0,0,0,.1,1.54,1.32,1.32,0,0,0,1,.75c.81.16,1.35-.37,1.6-1.62Z"/><path class="cls-6" d="M132.66,88.81a3,3,0,0,1-.42,0A2.12,2.12,0,0,1,131,88a2.52,2.52,0,0,1-.45-.93,2.77,2.77,0,0,1-.84,1,2.12,2.12,0,0,1-1.7.34A2.4,2.4,0,0,1,126.24,87a4.08,4.08,0,0,1-.22-2.6l.65-3.15,9,1.85L135,86.18a3.89,3.89,0,0,1-1,2.06A1.91,1.91,0,0,1,132.66,88.81Zm-2.21-2.58.29.06,0,.14a2.37,2.37,0,0,0,.48,1.33,1.69,1.69,0,0,0,1.06.66,1.54,1.54,0,0,0,1.45-.43,3.51,3.51,0,0,0,.92-1.88l.56-2.73-8.3-1.71-.58,2.81a3.76,3.76,0,0,0,.19,2.38,2,2,0,0,0,1.5,1.18,1.76,1.76,0,0,0,1.42-.27,2.53,2.53,0,0,0,.93-1.39Zm2.17,1.18-.32,0a1.47,1.47,0,0,1-1.1-.85,2.6,2.6,0,0,1-.11-1.64l.27-1.33,3,.62-.3,1.45a2.38,2.38,0,0,1-.84,1.59A1.13,1.13,0,0,1,132.62,87.41Zm-1-3.44-.21,1a2.28,2.28,0,0,0,.08,1.42,1.12,1.12,0,0,0,.86.65.89.89,0,0,0,.71-.1,2.07,2.07,0,0,0,.69-1.37l.23-1.1Zm-3,3.12a1.61,1.61,0,0,1-.37,0,1.52,1.52,0,0,1-1.14-.87,2.83,2.83,0,0,1-.1-1.74l.35-1.7,3.35.69-.3,1.49C130.13,86.36,129.53,87.09,128.64,87.09Zm-1-3.94-.28,1.36a2.42,2.42,0,0,0,.08,1.52,1.17,1.17,0,0,0,.89.68c.88.18,1.45-.43,1.75-1.86l.23-1.15Z"/><path class="cls-6" d="M42.65,128.8l-.15.22-2-1.35-.45-5.41-.73-.44L37.83,124c-.59.67-.47,1.25.39,1.75l-.15.22-3.34-2.29.15-.21c.74.59,1.35.45,1.82-.44L40,118.17c.56-.61.44-1.18-.34-1.72l.12-.18,3.34,2.29q3,2.11,1.73,4c-.77,1.07-1.92,1.2-3.46.41l.49,4.53A1.45,1.45,0,0,0,42.65,128.8Zm-1.12-10.19-1.89,2.77q2.76,2,3.94.31c.65-1,.31-2-1-3C42,118.35,41.65,118.31,41.53,118.61Z"/><path class="cls-5" d="M42.52,129.14l-2.09-1.42v0L40,122.31l-.63-.37-1.46,2.13a1,1,0,0,0-.34.83c0,.28.28.55.71.8l.08,0-.26.37-3.48-2.39.25-.37.07.06a1.13,1.13,0,0,0,.92.32,1.25,1.25,0,0,0,.77-.73L40,118.12a1,1,0,0,0,.32-.77,1.29,1.29,0,0,0-.64-.83l-.08,0,.22-.32,3.42,2.34c2,1.43,2.62,2.83,1.76,4.15-.78,1.07-1.93,1.24-3.43.51l.47,4.38a1.34,1.34,0,0,0,.68,1.2l.08.05Zm-1.92-1.52,1.87,1.28.05-.07a1.53,1.53,0,0,1-.68-1.29l-.51-4.69.14.07c1.51.78,2.6.65,3.35-.38.8-1.22.22-2.54-1.71-3.91l-3.27-2.23,0,0a1.4,1.4,0,0,1,.65.9,1.15,1.15,0,0,1-.37.9l-3.33,4.87a1.39,1.39,0,0,1-.88.81,1.19,1.19,0,0,1-1-.3l0,.07,3.2,2.19.05-.07a1.34,1.34,0,0,1-.71-.87,1.21,1.21,0,0,1,.38-1l1.54-2.25.85.5v0Zm1.57-5.06a4.66,4.66,0,0,1-2.58-1.11l-.07,0,1.94-2.83a.35.35,0,0,1,.23-.23c.21-.07.51,0,.92.32,1.37,1,1.72,2,1,3.08a1.76,1.76,0,0,1-1.17.8A1.62,1.62,0,0,1,42.17,122.56Zm-2.41-1.2a3.92,3.92,0,0,0,2.69,1,1.62,1.62,0,0,0,1-.73c.63-1,.3-1.91-1-2.84-.45-.3-.66-.33-.76-.29a.19.19,0,0,0-.13.13v0Z"/><path class="cls-6" d="M53.2,131.46l-1.56,1.82-7.19-3.21.11-.24c.8.43,1.35.23,1.64-.61l2.48-5.55c.4-.71.19-1.26-.65-1.63l.09-.2L55.21,125l-.73,1.77-.37-.16c.44-1,0-1.71-1.44-2.22l-1.78-.79c-.33-.19-.55-.11-.66.23L49,126.61l2.09.93a1.23,1.23,0,0,0,2-.56l.31.14L52.09,130l-.32-.15c.36-.89,0-1.49-.93-1.81l-2.06-1-1.4,3.11c-.53.27.07.73,1.82,1.4q2.17,1.14,3.63-.31Z"/><path class="cls-5" d="M51.66,133.38l-7.33-3.27.19-.41.08.05a1.17,1.17,0,0,0,.95.17,1.11,1.11,0,0,0,.57-.73l2.48-5.56a1,1,0,0,0,.15-.83,1.25,1.25,0,0,0-.75-.68l-.08,0,.16-.35.08,0,7.16,3.2-.8,1.94-.52-.24,0-.08a1.27,1.27,0,0,0,.07-1,2.4,2.4,0,0,0-1.46-1.08l-1.78-.79a.45.45,0,0,0-.36-.08.4.4,0,0,0-.19.25l-1.2,2.71,2,.89a1.15,1.15,0,0,0,1.89-.52l0-.08.47.21-1.38,3.08-.47-.21,0-.08a1.27,1.27,0,0,0,.05-1,1.46,1.46,0,0,0-.93-.68l-2-.94-1.37,3.06h0c-.09.05-.14.1-.14.15s.21.42,1.95,1.08c1.43.76,2.59.67,3.54-.28l0,0,.53.23ZM44.57,130l7,3.14,1.45-1.67-.21-.09a2.93,2.93,0,0,1-3.69.27c-1.8-.68-2-1-2-1.23s.06-.22.21-.3L48.73,127l2.14,1a1.62,1.62,0,0,1,1,.77,1.39,1.39,0,0,1,0,1.08l.15.07,1.23-2.76-.15-.07a1.44,1.44,0,0,1-.86.8,1.53,1.53,0,0,1-1.23-.27l-2.15-1,1.27-2.86a.5.5,0,0,1,.29-.35.56.56,0,0,1,.5.08l1.76.79a2.47,2.47,0,0,1,1.56,1.17,1.45,1.45,0,0,1,0,1.08l.2.1.66-1.62L48.17,122l0,0a1.4,1.4,0,0,1,.77.74,1.22,1.22,0,0,1-.16,1l-2.48,5.54a1.23,1.23,0,0,1-.66.83,1.28,1.28,0,0,1-1-.13Z"/><path class="cls-6" d="M66.46,127.92l0,.2c-1-.26-1.57.21-1.73,1.41l-1.6,6.9-.28-.06-4.56-8.61h-.06L57,132.89c-.4,1.22-.09,1.9.94,2l-.06.26-3.34-.77.06-.26c1,.38,1.6-.08,1.79-1.39l1.36-5.87a2,2,0,0,0-1.22-1l0-.2,2.45.56,4,7.65,1-4.47c.35-1.16,0-1.83-.94-2l0-.21Z"/><path class="cls-5" d="M63.15,136.54l-.4-.09,0,0-4.5-8.47-1.15,5a1.74,1.74,0,0,0,0,1.46,1.16,1.16,0,0,0,.88.46H58l-.11.44-3.5-.81.1-.45.09,0a1.21,1.21,0,0,0,1,0,1.76,1.76,0,0,0,.63-1.33l1.35-5.84a1.87,1.87,0,0,0-1.14-1h-.09l.09-.39,2.57.6L63,133.59l1-4.24a1.78,1.78,0,0,0,0-1.4,1.2,1.2,0,0,0-.85-.51l-.09,0,.09-.38,3.5.81-.09.38-.08,0a1.22,1.22,0,0,0-1,.08,1.7,1.7,0,0,0-.59,1.25Zm-.29-.25.16,0,1.57-6.82a1.84,1.84,0,0,1,.67-1.36,1.34,1.34,0,0,1,1.08-.13v0l-3.16-.73v0a1.32,1.32,0,0,1,.88.58,1.94,1.94,0,0,1,0,1.54L63,134.09,59,126.27l-2.32-.54v0a2.13,2.13,0,0,1,1.19,1.07l0,0v0l-1.35,5.87a1.9,1.9,0,0,1-.73,1.45,1.28,1.28,0,0,1-1.08,0l0,.08,3.16.73,0-.08a1.27,1.27,0,0,1-.91-.53,1.9,1.9,0,0,1,0-1.6l1.21-5.21.18,0v0Z"/><path class="cls-6" d="M67.1,137v-.27c1,.1,1.38-.35,1.3-1.34l.19-5.92c.14-.81-.27-1.23-1.22-1.26v-.22l4,.13v.22c-1,0-1.42.36-1.29,1.18l-.09,2.67,4.39.14.09-2.67c.14-.81-.27-1.23-1.22-1.26v-.22l4.05.13v.22c-1,0-1.48.36-1.35,1.18l-.19,6.07c-.15.89.28,1.31,1.27,1.27v.27l-4-.13v-.27c.95.1,1.38-.35,1.3-1.34l.08-2.67L70,132.72l-.09,2.82c-.18.89.23,1.31,1.22,1.27v.27Z"/><path class="cls-5" d="M77.16,137.36h-.08l-4.14-.13v-.45h.1a1.11,1.11,0,0,0,1-.22,1.24,1.24,0,0,0,.25-1l.08-2.58-4.21-.14L70,135.55a1,1,0,0,0,.12.89,1.22,1.22,0,0,0,1,.28h.1l0,.45h-.08L67,137v-.45h.1a1.11,1.11,0,0,0,.95-.22,1.24,1.24,0,0,0,.25-1l.19-5.92a1,1,0,0,0-.14-.82,1.3,1.3,0,0,0-1-.36h-.09v-.39h.09l4.14.13v.39h-.09a1.35,1.35,0,0,0-1.05.3.94.94,0,0,0-.16.79l-.08,2.59,4.22.14.08-2.58a1,1,0,0,0-.14-.82,1.3,1.3,0,0,0-1-.36h-.09V128h.09l4.14.13v.39h-.09a1.43,1.43,0,0,0-1.11.31.92.92,0,0,0-.15.78l-.2,6.09a1,1,0,0,0,.16.88,1.26,1.26,0,0,0,1,.29h.1Zm-4-.31,3.87.13v-.09h0a1.36,1.36,0,0,1-1-.35,1.19,1.19,0,0,1-.2-1l.19-6.06a1.05,1.05,0,0,1,.2-.9,1.45,1.45,0,0,1,1.13-.37h0v0l-3.88-.12v0a1.38,1.38,0,0,1,1,.42,1.17,1.17,0,0,1,.17.95l-.08,2.74h-.09L70,132.22l.09-2.75a1.08,1.08,0,0,1,.2-.91,1.37,1.37,0,0,1,1.07-.36h0v0L67.47,128v0a1.38,1.38,0,0,1,1,.42,1.17,1.17,0,0,1,.17.95l-.18,5.9a1.41,1.41,0,0,1-.31,1.16,1.24,1.24,0,0,1-1,.28v.08l3.87.13v-.09h0a1.29,1.29,0,0,1-1-.35,1.16,1.16,0,0,1-.16-1l.09-2.9H70l4.47.15-.08,2.75a1.4,1.4,0,0,1-.31,1.16,1.28,1.28,0,0,1-1,.28Z"/><path class="cls-6" d="M87.47,133.26l-.29,2.37L79.42,137l0-.26c.91-.08,1.25-.56,1-1.42l-1-6c-.06-.81-.54-1.15-1.44-1l0-.21,7.65-1.31.38,1.88-.39.06c-.18-1-1-1.39-2.44-1l-1.91.33c-.38,0-.52.22-.43.56l.52,3,2.25-.38a1.24,1.24,0,0,0,1.35-1.59l.33-.05.54,3.15-.33.06c-.2-.94-.8-1.27-1.79-1l-2.26.33.57,3.36c-.29.52.47.57,2.29.15a2.83,2.83,0,0,0,2.85-2.27Z"/><path class="cls-5" d="M79.35,137.07l-.07-.45h.09a1.18,1.18,0,0,0,.89-.39,1.07,1.07,0,0,0,.06-.92l-1-6a1.06,1.06,0,0,0-.34-.78,1.27,1.27,0,0,0-1-.15l-.08,0L77.8,128h.09l7.73-1.32.41,2-.57.1v-.09a1.24,1.24,0,0,0-.52-.89,2.37,2.37,0,0,0-1.81-.08l-1.92.33a.45.45,0,0,0-.34.13.36.36,0,0,0,0,.31l.5,2.92,2.16-.37a1.41,1.41,0,0,0,1.06-.39,1.36,1.36,0,0,0,.22-1.09v-.09l.5-.08.57,3.32-.5.09,0-.08a1.25,1.25,0,0,0-.53-.88,1.42,1.42,0,0,0-1.15,0l-2.18.32.56,3.31v0c0,.1-.07.16,0,.2s.41.24,2.23-.18c1.61-.17,2.52-.89,2.78-2.2v-.06l.57-.1-.31,2.56H87.2Zm.13-.29,0,.08,7.6-1.3.27-2.2-.22,0c-.29,1.35-1.27,2.11-2.92,2.29-1.87.43-2.26.28-2.39.11a.34.34,0,0,1,0-.36L81.27,132l2.34-.35a1.6,1.6,0,0,1,1.29.07,1.35,1.35,0,0,1,.58.91l.17,0-.51-3-.17,0a1.46,1.46,0,0,1-.26,1.14,1.54,1.54,0,0,1-1.18.46l-2.32.4-.53-3.09a.49.49,0,0,1,0-.45.59.59,0,0,1,.46-.21l1.9-.32a2.53,2.53,0,0,1,2,.1,1.45,1.45,0,0,1,.58.92l.22,0-.35-1.71L78,128.16v0a1.33,1.33,0,0,1,1,.19,1.17,1.17,0,0,1,.41.9l1,6a1.07,1.07,0,0,1-1,1.51Z"/><path class="cls-6" d="M99.78,127.66l-.31.14q-.64-1.29-2-.51l-2,.84,1.22,2.72c.26.86.85,1,1.75.56l.11.24-3.74,1.68-.11-.24c.91-.29,1.1-.89.57-1.78l-2.42-5.39c-.27-.78-.82-1-1.65-.61l-.09-.19,7.08-3.18.84,1.72-.36.17c-.44-1-1.31-1.11-2.62-.4l-1.77.79c-.4.14-.49.36-.28.65l1.25,2.77,2-.89a1.25,1.25,0,0,0,.91-1.87l.31-.14Z"/><path class="cls-5" d="M94.78,133.45,94.6,133l.09,0a1.11,1.11,0,0,0,.76-.58,1.28,1.28,0,0,0-.23-1.07L92.79,126a1.06,1.06,0,0,0-.52-.67,1.3,1.3,0,0,0-1,.11l-.08,0-.16-.36,7.23-3.25.92,1.89-.53.23,0-.08a1.3,1.3,0,0,0-.73-.73,2.35,2.35,0,0,0-1.77.37l-1.78.8c-.19.07-.3.15-.32.24s0,.17.09.28l1.21,2.7,1.9-.85a1.48,1.48,0,0,0,.93-.68,1.38,1.38,0,0,0-.06-1.08l0-.07.46-.21,1.39,3.07-.47.21,0-.07a1.28,1.28,0,0,0-.73-.72,1.49,1.49,0,0,0-1.13.24l-1.93.81,1.19,2.64a1,1,0,0,0,.53.72,1.37,1.37,0,0,0,1.1-.2l.08-.05.19.41Zm.06-.31,0,.08,3.59-1.62,0-.07a1.43,1.43,0,0,1-1.17.16,1.19,1.19,0,0,1-.62-.82l-1.26-2.79,2.08-.87a1.59,1.59,0,0,1,1.26-.26,1.39,1.39,0,0,1,.8.74l.16-.08-1.24-2.75-.16.07a1.48,1.48,0,0,1,0,1.13,1.64,1.64,0,0,1-1,.78l-2,.92-1.29-2.85a.49.49,0,0,1-.1-.42c0-.15.18-.26.43-.35l1.76-.79a2.47,2.47,0,0,1,1.91-.38,1.38,1.38,0,0,1,.79.74l.2-.09-.76-1.57-6.92,3.11,0,0a1.32,1.32,0,0,1,1.07-.08,1.2,1.2,0,0,1,.61.77l2.42,5.38a1.39,1.39,0,0,1,.24,1.22A1.17,1.17,0,0,1,94.84,133.14Z"/><path class="cls-6" d="M107.86,119l-.28.2a3.23,3.23,0,0,0-4.08-.33,3.43,3.43,0,0,0-1.36,1.95,4,4,0,0,0,.88,3.45q2.24,3.2,5.25,1.34a4.41,4.41,0,0,0,1.92-3l.38.06a5.15,5.15,0,0,1-2.33,3.58q-4.06,2.55-6.66-1.09-2.23-3.7,1.48-6.67a7.64,7.64,0,0,1,1.91-.84.94.94,0,0,0,.45-.24.66.66,0,0,0,.33-.74l.24-.16Z"/><path class="cls-5" d="M105.14,127.44a4.43,4.43,0,0,1-3.63-2.17c-1.51-2.51-1-4.79,1.49-6.79a8.1,8.1,0,0,1,2-.86c.33-.11.39-.18.4-.2l0,0a.58.58,0,0,0,.3-.64l0-.06.36-.24,2,2.61-.42.27,0,0a3.13,3.13,0,0,0-4-.32,3.47,3.47,0,0,0-1.33,1.9,3.94,3.94,0,0,0,.88,3.38c1.46,2.1,3.14,2.53,5.13,1.32a4.36,4.36,0,0,0,1.87-2.91l0-.09.55.09v.09a5.26,5.26,0,0,1-2.37,3.63A6,6,0,0,1,105.14,127.44Zm.35-9.91a1,1,0,0,1-.49.26,7.61,7.61,0,0,0-1.9.84c-2.44,2-2.92,4.1-1.45,6.54,1.72,2.4,3.86,2.75,6.54,1.06a5.08,5.08,0,0,0,2.28-3.42l-.21,0a4.55,4.55,0,0,1-1.94,3c-2,1.25-3.86.79-5.37-1.37a4.11,4.11,0,0,1-.9-3.52,3.58,3.58,0,0,1,1.4-2,3.3,3.3,0,0,1,4.13.29l.16-.11L106,116.69l-.12.08A.77.77,0,0,1,105.49,117.53Z"/><path class="cls-7" d="M55.92,56.6H90.67V83.93s-1.34,22.76-17.44,22.76-17.35-22.5-17.35-22.5Z"/><path class="cls-8" d="M90.69,59.48V76s-.94,1.24-2.24,3.13A27.81,27.81,0,0,1,85.34,83a48.32,48.32,0,0,1-3.7,3.44A3.77,3.77,0,0,0,80.8,91c1,2.43,3.67,2.22,4.64,1.91s2.14-1.73,2.87-2.58,2.4-3.22,2.4-3.22v3.27S89.1,106.49,73.26,107H73.2c-15.86-.49-17.32-16-17.32-16V87.33s1.51,2.16,2.25,3S60,92.58,61,92.9s3.61.52,4.66-1.91a3.77,3.77,0,0,0-.84-4.6A50.08,50.08,0,0,1,61.1,83,27.81,27.81,0,0,1,58,79.11c-1.3-1.89-2.1-2.9-2.1-2.9V59.41H68.07l1.71,1.77H70a1.53,1.53,0,0,1-.41-1.1c0-.92,1.16-1.56,2.28-1.43a1.66,1.66,0,0,1,1.35,1.13,1.77,1.77,0,0,1,1.39-1.13c1.11-.13,2.27.51,2.27,1.43a1.19,1.19,0,0,1-.21.84l.13.06,1.58-1.52H90.69Z"/><path class="cls-5" d="M55.88,79.19s2,2.7,2.7,3.58S61.42,85.9,62,86.43s1.44,1.07,1.78,1.38a2,2,0,0,1,0,2.65,2,2,0,0,1-3.22,0,30.3,30.3,0,0,1-3.39-4c-.91-1.33-1.21-1.81-1.35-2.07,0-1.63,0-5.27,0-5.27"/><path class="cls-5" d="M90.71,79s-2.12,2.9-2.85,3.78S85,85.9,84.42,86.43,83,87.5,82.64,87.81a2,2,0,0,0,0,2.65,2,2,0,0,0,3.22,0,29.6,29.6,0,0,0,3.4-4c.91-1.33,1.34-2.07,1.49-2.34V79"/><path class="cls-9" d="M63.66,96.22a2,2,0,1,0,2,2,2,2,0,0,0-2-2"/><path class="cls-10" d="M63.66,96.22a2,2,0,1,0,2,2,2,2,0,0,0-2-2"/><path class="cls-9" d="M82.78,96.22a2,2,0,1,0,2,2,2,2,0,0,0-2-2"/><path class="cls-10" d="M82.78,96.22a2,2,0,1,0,2,2,2,2,0,0,0-2-2"/><path class="cls-6" d="M90.13,64a7.07,7.07,0,0,0-2.35-2.24,7.48,7.48,0,0,0-4.83-.4,32.78,32.78,0,0,0-6.56,2.17,2.18,2.18,0,0,1-2.28.06,3.38,3.38,0,0,1-.85-1.11,4.66,4.66,0,0,1-.93,1.11,2.16,2.16,0,0,1-2.28-.06,32.69,32.69,0,0,0-6.57-2.17,7.59,7.59,0,0,0-4.84.39,6.92,6.92,0,0,0-2.38,2.14c-.37.56-.37.73-.37.73V72a14.43,14.43,0,0,0,.87,2.13A44.49,44.49,0,0,0,60.93,80a48.37,48.37,0,0,0,4,4.17c1,1,3.16,2.2,3.47,4s.21,3.66-1.43,4.91a11.7,11.7,0,0,1-2.06,1.29,3.58,3.58,0,0,1,2.64,3.81v7.84s1.63.45,2.24.57V97.44s2.18,2.3,2.57,7.45v2s.39,0,.86,0,.9,0,.9,0v-2c.39-5.15,2.56-7.45,2.56-7.45v9.18c.7-.12,2.25-.57,2.25-.57V98.21a3.58,3.58,0,0,1,2.64-3.81,11.34,11.34,0,0,1-2.06-1.29c-1.65-1.25-1.75-3.1-1.44-4.91s2.42-3,3.47-4a49.81,49.81,0,0,0,4-4.17,43.36,43.36,0,0,0,4.16-5.86c.6-1.18,1-2.19,1-2.19V65a6.21,6.21,0,0,0-.56-1M60.82,77.09l-.45-.84s3.93,3.35,6,4.27c0,0,.32,2.61,1.1,3.25a47.89,47.89,0,0,1-6.64-6.68m13.27-1.61a.79.79,0,0,1-.42.77l-.45,0c-1.09,0-.9-.83-.9-.83s0-2.4,0-3.78c0-1.11.39-1.16.83-1.17s.41,0,.41,0c.52.07.56.42.56.94Zm2.55-9.29c-.47.7-1.57,2.33-2.67,2.4a3.15,3.15,0,0,1-.56,0,3.47,3.47,0,0,1-1,0c-1.07-.24-2.2-1.7-2.66-2.4a15.2,15.2,0,0,0-1.63-1.87c.46,0,1,.63,2.27,1.91a4.37,4.37,0,0,0,3,.92,3.68,3.68,0,0,0,2.5-.92c1.32-1.28,1.82-1.89,2.27-1.91a15.43,15.43,0,0,0-1.62,1.87m9,10.9A47.89,47.89,0,0,1,79,83.77c.79-.64,1.11-3.25,1.11-3.25,2-.92,6-4.27,6-4.27Z"/><path class="cls-11" d="M74.86,89.92a6.41,6.41,0,0,1,1.42-4.42,3.38,3.38,0,0,0,1-3,2.58,2.58,0,0,0-1.73-2,4.56,4.56,0,0,1-2-2l-.29-.93c0,.06-.12.47-.12.47a4.5,4.5,0,0,1-2.22,2.43,2.55,2.55,0,0,0-1.74,2c-.32,1.36.44,2.18,1,3a8.26,8.26,0,0,1,1.34,4.41,8.14,8.14,0,0,1-1.62,4.64c.92.22,3.09,1.68,3.08,5.79,0,2.59,0,6.64,0,6.64a.76.76,0,0,0,.26,0,1.22,1.22,0,0,0,.33,0s0-5,0-6.4c0-3.46,2-5.77,3-6a9.53,9.53,0,0,1-1.7-4.63"/><path class="cls-12" d="M66.94,75.63c-1.47,1.54-4.79.77-7.42-1.71s-3.58-5.75-2.12-7.28,4.79-.77,7.42,1.71,3.59,5.74,2.12,7.28"/><path class="cls-12" d="M79.49,75.63c1.47,1.54,4.79.77,7.43-1.71S90.5,68.17,89,66.64s-4.79-.77-7.42,1.71S78,74.09,79.49,75.63"/><path class="cls-12" d="M74.78,81.56c-.69-.27-1.39.51-1.56.73-.17-.22-.87-1-1.56-.73a1.44,1.44,0,0,0-1,1.74c.19.79,1,1.15,1.29,1.38a5.13,5.13,0,0,1,1.25,1.63l0,.11.1-.25a5.68,5.68,0,0,1,1.29-1.57c.28-.24,1-.51,1.19-1.3a1.46,1.46,0,0,0-1-1.74"/><path class="cls-11" d="M64.92,98.17a1.27,1.27,0,0,1-2.53,0,1.27,1.27,0,0,1,2.53,0"/><path class="cls-11" d="M81.51,98.17a1.27,1.27,0,1,0,1.27-1.26,1.26,1.26,0,0,0-1.27,1.26"/><path class="cls-8" d="M66.61,75.3c-1.24,1.29-4.07.63-6.33-1.5s-3.08-4.9-1.84-6.21,4.08-.63,6.33,1.5S67.85,74,66.61,75.3"/><path class="cls-8" d="M79.82,75.3c1.24,1.29,4.08.63,6.33-1.5s3.08-4.9,1.84-6.21-4.07-.63-6.33,1.5S78.58,74,79.82,75.3"/><path class="cls-13" d="M66.58,72.47a3,3,0,1,1-2.95-2.94,2.94,2.94,0,0,1,2.95,2.94"/><path class="cls-11" d="M65.65,72.47a2,2,0,1,1-2-2,2,2,0,0,1,2,2"/><path class="cls-13" d="M79.85,72.47a3,3,0,1,0,3-2.94,2.95,2.95,0,0,0-3,2.94"/><path class="cls-11" d="M80.79,72.47a2,2,0,1,0,2-2,2,2,0,0,0-2,2"/><path class="cls-10" d="M74.52,94s-1.26-.92-1.26-3.46c0-.28-.08-.28-.08,0,0,2.62-1.27,3.46-1.27,3.46a3.68,3.68,0,0,1,1.27,1.69l0,.1.08-.19A3.57,3.57,0,0,1,74.52,94"/><path class="cls-5" d="M58.58,63.23c.22,0,12.35-2.33,12,13.09,0,0-1.74-7.08-5.24-10.15a10.69,10.69,0,0,0-7.44-2.66,4.42,4.42,0,0,1,.71-.28"/><path class="cls-5" d="M87.86,63.23c-.22,0-12.19-2.33-12,13.09,0,0,1.73-7.08,5.23-10.15a10.7,10.7,0,0,1,7.44-2.66,4.61,4.61,0,0,0-.7-.28"/><path class="cls-13" d="M76.65,60.94l4.09-4.11v2.6a2,2,0,0,1,.53-.22L83,56.83v2s0-.06.34-.06l1.5-2v1.75h.47l1.44-1.75v1.85a1,1,0,0,1,.37.12l1.62-2v2.38a.68.68,0,0,1,.24.2l1.75-2.58,0,5.35a9.76,9.76,0,0,0-3.28-2.48c-1.81-.75-4.42-.19-5.81.14a39.88,39.88,0,0,0-5.4,1.95c-.65.31-1.72.17-1.72-.71a.67.67,0,0,1,.8-.73c-.65.18-.38,1,.27,1.1a.85.85,0,0,0,.85-.23l.09-.11Z"/><path class="cls-13" d="M85.23,95a7.8,7.8,0,0,0,3.53-1.6,15.32,15.32,0,0,1-2,4.58,4,4,0,0,0-1.53-3"/><path class="cls-13" d="M55.89,62A8.85,8.85,0,0,1,59,59.7c1.82-.75,4.42-.19,5.82.14a39.88,39.88,0,0,1,5.4,1.95c.65.31,1.72.17,1.72-.71a.66.66,0,0,0-.79-.73c.65.18.38,1-.28,1.1a.85.85,0,0,1-.85-.23l-4.32-4.39v2.6a2,2,0,0,0-.53-.22l-1.7-2.38v2s0-.06-.34-.06l-1.5-2v1.75h-.46l-1.45-1.75v1.85a.94.94,0,0,0-.36.12l-1.64-2v2.38a.69.69,0,0,0-.23.2l-1.61-2.58Z"/><path class="cls-13" d="M82.7,102.14a14.12,14.12,0,0,1-2.22,1.2v-1.93a4.06,4.06,0,0,0,2.22.73"/><path class="cls-13" d="M61.21,95a7.89,7.89,0,0,1-3.54-1.6,15.42,15.42,0,0,0,2,4.58,4,4,0,0,1,1.53-3"/><path class="cls-13" d="M63.73,102.14a14.24,14.24,0,0,0,2.23,1.2v-1.93a4.06,4.06,0,0,1-2.23.73"/><path class="cls-8" d="M90.69,59.48V76s-.94,1.24-2.24,3.13A27.81,27.81,0,0,1,85.34,83a48.32,48.32,0,0,1-3.7,3.44A3.77,3.77,0,0,0,80.8,91c1,2.43,3.67,2.22,4.64,1.91s2.14-1.73,2.87-2.58,2.4-3.22,2.4-3.22v3.27S89.1,106.49,73.26,107H73.2c-15.86-.49-17.32-16-17.32-16V87.33s1.51,2.16,2.25,3S60,92.58,61,92.9s3.61.52,4.66-1.91a3.77,3.77,0,0,0-.84-4.6A50.08,50.08,0,0,1,61.1,83,27.81,27.81,0,0,1,58,79.11c-1.3-1.89-2.1-2.9-2.1-2.9V59.41H68.07l1.71,1.77H70a1.53,1.53,0,0,1-.41-1.1c0-.92,1.16-1.56,2.28-1.43a1.66,1.66,0,0,1,1.35,1.13,1.77,1.77,0,0,1,1.39-1.13c1.11-.13,2.27.51,2.27,1.43a1.19,1.19,0,0,1-.21.84l.13.06,1.58-1.52H90.69Z"/><path class="cls-5" d="M55.88,79.19s2,2.7,2.7,3.58S61.42,85.9,62,86.43s1.44,1.07,1.78,1.38a2,2,0,0,1,0,2.65,2,2,0,0,1-3.22,0,30.3,30.3,0,0,1-3.39-4c-.91-1.33-1.21-1.81-1.35-2.07,0-1.63,0-5.27,0-5.27"/><path class="cls-5" d="M90.71,79s-2.12,2.9-2.85,3.78S85,85.9,84.42,86.43,83,87.5,82.64,87.81a2,2,0,0,0,0,2.65,2,2,0,0,0,3.22,0,29.6,29.6,0,0,0,3.4-4c.91-1.33,1.34-2.07,1.49-2.34V79"/><path class="cls-7" d="M63.66,96.22a2,2,0,1,0,2,2,2,2,0,0,0-2-2"/><path class="cls-7" d="M82.78,96.22a2,2,0,1,0,2,2,2,2,0,0,0-2-2"/><path class="cls-6" d="M90.13,64a7.07,7.07,0,0,0-2.35-2.24,7.48,7.48,0,0,0-4.83-.4,32.78,32.78,0,0,0-6.56,2.17,2.18,2.18,0,0,1-2.28.06,3.38,3.38,0,0,1-.85-1.11,4.66,4.66,0,0,1-.93,1.11,2.16,2.16,0,0,1-2.28-.06,32.69,32.69,0,0,0-6.57-2.17,7.59,7.59,0,0,0-4.84.39,6.92,6.92,0,0,0-2.38,2.14c-.37.56-.37.73-.37.73V72a14.43,14.43,0,0,0,.87,2.13A44.49,44.49,0,0,0,60.93,80a48.37,48.37,0,0,0,4,4.17c1,1,3.16,2.2,3.47,4s.21,3.66-1.43,4.91a11.7,11.7,0,0,1-2.06,1.29,3.58,3.58,0,0,1,2.64,3.81v7.84s1.63.45,2.24.57V97.44s2.18,2.3,2.57,7.45v2s.39,0,.86,0,.9,0,.9,0v-2c.39-5.15,2.56-7.45,2.56-7.45v9.18c.7-.12,2.25-.57,2.25-.57V98.21a3.58,3.58,0,0,1,2.64-3.81,11.34,11.34,0,0,1-2.06-1.29c-1.65-1.25-1.75-3.1-1.44-4.91s2.42-3,3.47-4a49.81,49.81,0,0,0,4-4.17,43.36,43.36,0,0,0,4.16-5.86c.6-1.18,1-2.19,1-2.19V65a6.21,6.21,0,0,0-.56-1M60.82,77.09l-.45-.84s3.93,3.35,6,4.27c0,0,.32,2.61,1.1,3.25a47.89,47.89,0,0,1-6.64-6.68m13.27-1.61a.79.79,0,0,1-.42.77l-.45,0c-1.09,0-.9-.83-.9-.83s0-2.4,0-3.78c0-1.11.39-1.16.83-1.17s.41,0,.41,0c.52.07.56.42.56.94Zm2.55-9.29c-.47.7-1.57,2.33-2.67,2.4a3.15,3.15,0,0,1-.56,0,3.47,3.47,0,0,1-1,0c-1.07-.24-2.2-1.7-2.66-2.4a15.2,15.2,0,0,0-1.63-1.87c.46,0,1,.63,2.27,1.91a4.37,4.37,0,0,0,3,.92,3.68,3.68,0,0,0,2.5-.92c1.32-1.28,1.82-1.89,2.27-1.91a15.43,15.43,0,0,0-1.62,1.87m8,12.08A49.16,49.16,0,0,1,79,83.77c.79-.64,1.11-3.25,1.11-3.25,2-.92,6-4.27,6-4.27l-.46.84c-.32.41-.65.8-1,1.18"/><path class="cls-5" d="M74.86,89.92a6.41,6.41,0,0,1,1.42-4.42,3.38,3.38,0,0,0,1-3,2.58,2.58,0,0,0-1.73-2,4.56,4.56,0,0,1-2-2l-.29-.93c0,.06-.12.47-.12.47a4.5,4.5,0,0,1-2.22,2.43,2.55,2.55,0,0,0-1.74,2c-.32,1.36.44,2.18,1,3a8.26,8.26,0,0,1,1.34,4.41,8.14,8.14,0,0,1-1.62,4.64c.92.22,3.09,1.68,3.08,5.79,0,2.59,0,6.64,0,6.64a.76.76,0,0,0,.26,0,1.22,1.22,0,0,0,.33,0s0-5,0-6.4c0-3.46,2-5.77,3-6a9.53,9.53,0,0,1-1.7-4.63"/><path class="cls-7" d="M66.94,75.63c-1.47,1.54-4.79.77-7.42-1.71s-3.58-5.75-2.12-7.28,4.79-.77,7.42,1.71,3.59,5.74,2.12,7.28"/><path class="cls-5" d="M58.58,63.23c.22,0,12.35-2.33,12,13.09,0,0-1.74-7.08-5.24-10.15a10.69,10.69,0,0,0-7.44-2.66,4.42,4.42,0,0,1,.71-.28"/><path class="cls-5" d="M87.86,63.23c-.22,0-12.19-2.33-12,13.09,0,0,1.73-7.08,5.23-10.15a10.7,10.7,0,0,1,7.44-2.66,4.61,4.61,0,0,0-.7-.28"/><path class="cls-7" d="M79.49,75.63c1.47,1.54,4.79.77,7.43-1.71S90.5,68.17,89,66.64s-4.79-.77-7.42,1.71S78,74.09,79.49,75.63"/><path class="cls-7" d="M74.78,81.56c-.69-.27-1.39.51-1.56.73-.17-.22-.87-1-1.56-.73a1.44,1.44,0,0,0-1,1.74c.19.79,1,1.15,1.29,1.38a5.13,5.13,0,0,1,1.25,1.63l0,.11.1-.25a5.68,5.68,0,0,1,1.29-1.57c.28-.24,1-.51,1.19-1.3a1.46,1.46,0,0,0-1-1.74"/><path class="cls-5" d="M64.92,98.17a1.27,1.27,0,0,1-2.53,0,1.27,1.27,0,0,1,2.53,0"/><path class="cls-5" d="M81.51,98.17a1.27,1.27,0,1,0,1.27-1.26,1.26,1.26,0,0,0-1.27,1.26"/><path class="cls-8" d="M66.61,75.3c-1.24,1.29-4.07.63-6.33-1.5s-3.08-4.9-1.84-6.21,4.08-.63,6.33,1.5S67.85,74,66.61,75.3"/><path class="cls-8" d="M79.82,75.3c1.24,1.29,4.08.63,6.33-1.5s3.08-4.9,1.84-6.21-4.07-.63-6.33,1.5S78.58,74,79.82,75.3"/><path class="cls-13" d="M66.58,72.47a3,3,0,1,1-2.95-2.94,2.94,2.94,0,0,1,2.95,2.94"/><path class="cls-5" d="M65.65,72.47a2,2,0,1,1-2-2,2,2,0,0,1,2,2"/><path class="cls-13" d="M79.85,72.47a3,3,0,1,0,3-2.94,2.95,2.95,0,0,0-3,2.94"/><path class="cls-5" d="M80.79,72.47a2,2,0,1,0,2-2,2,2,0,0,0-2,2"/><path class="cls-7" d="M74.52,94s-1.26-.92-1.26-3.46c0-.28-.08-.28-.08,0,0,2.62-1.27,3.46-1.27,3.46a3.68,3.68,0,0,1,1.27,1.69l0,.1.08-.19A3.57,3.57,0,0,1,74.52,94"/><path class="cls-13" d="M76.65,60.94l4.09-4.11v2.6a2,2,0,0,1,.53-.22L83,56.83v2s0-.06.34-.06l1.5-2v1.75h.47l1.44-1.75v1.85a1,1,0,0,1,.37.12l1.62-2v2.38a.68.68,0,0,1,.24.2l1.75-2.58,0,5.35a9.76,9.76,0,0,0-3.28-2.48c-1.81-.75-4.42-.19-5.81.14a39.88,39.88,0,0,0-5.4,1.95c-.65.31-1.72.17-1.72-.71a.67.67,0,0,1,.8-.73c-.65.18-.38,1,.27,1.1a.85.85,0,0,0,.85-.23l.09-.11Z"/><path class="cls-13" d="M85.23,95a7.8,7.8,0,0,0,3.53-1.6,15.32,15.32,0,0,1-2,4.58,4,4,0,0,0-1.53-3"/><path class="cls-13" d="M55.89,62A8.85,8.85,0,0,1,59,59.7c1.82-.75,4.42-.19,5.82.14a39.88,39.88,0,0,1,5.4,1.95c.65.31,1.72.17,1.72-.71a.66.66,0,0,0-.79-.73c.65.18.38,1-.28,1.1a.85.85,0,0,1-.85-.23l-4.32-4.39v2.6a2,2,0,0,0-.53-.22l-1.7-2.38v2s0-.06-.34-.06l-1.5-2v1.75h-.46l-1.45-1.75v1.85a.94.94,0,0,0-.36.12l-1.64-2v2.38a.69.69,0,0,0-.23.2l-1.61-2.58Z"/><path class="cls-13" d="M82.7,102.14a14.12,14.12,0,0,1-2.22,1.2v-1.93a4.06,4.06,0,0,0,2.22.73"/><path class="cls-13" d="M61.21,95a7.89,7.89,0,0,1-3.54-1.6,15.42,15.42,0,0,0,2,4.58,4,4,0,0,1,1.53-3"/><path class="cls-13" d="M63.73,102.14a14.24,14.24,0,0,0,2.23,1.2v-1.93a4.06,4.06,0,0,1-2.23.73"/><path class="cls-13" d="M86.66,63.32S77.89,62.12,76,75c0,0,2.55-10.56,9.63-11.47Z"/><path class="cls-13" d="M59.78,63.32S68.55,62.12,70.42,75c0,0-2.54-10.56-9.62-11.47Z"/></g></g></svg>