<svg xmlns="http://www.w3.org/2000/svg" xmlns:xlink="http://www.w3.org/1999/xlink" viewBox="0 0 150.76 190.56"><defs><style>.cls-1{fill:none;}.cls-2{font-size:27.72px;font-family:MHeiGB5-Bold, MHeiGB5 Bold;font-weight:700;}.cls-2,.cls-3,.cls-4{fill:#fff;}.cls-3{stroke:#231f20;stroke-miterlimit:10;stroke-width:1.72px;}.cls-5{fill:url(#radial-gradient);}.cls-6{clip-path:url(#clip-path);}.cls-7{fill:#aa182c;}.cls-8{fill:#ff5100;}.cls-9{fill:#ff8300;}.cls-10{fill:#ffc629;}.cls-11{fill:#ea0029;}.cls-12{fill:#0a0f18;}.cls-13{fill:#acaeb0;}</style><radialGradient id="radial-gradient" cx="75.41" cy="78.92" r="60.25" gradientUnits="userSpaceOnUse"><stop offset="0" stop-color="#ce2339"/><stop offset="0.33" stop-color="#ce2339"/><stop offset="0.36" stop-color="#c82238"/><stop offset="0.66" stop-color="#851c2a"/><stop offset="0.89" stop-color="#5b1822"/><stop offset="1" stop-color="#4b161f"/></radialGradient><clipPath id="clip-path"><path class="cls-1" d="M74.76,55.17h1.68c6.55.11,30.67,1.21,42.55,8.19a111.86,111.86,0,0,0,.27,19.9c1.25,11.73.22,20.75-8.69,29.42a108.9,108.9,0,0,1-34.95,22.63,108.79,108.79,0,0,1-35-22.63C31.74,104,30.72,95,32,83.27a112.84,112.84,0,0,0,.28-20c11.92-6.92,36-8,42.52-8.12Z"/></clipPath></defs><title>Asset 27</title><g id="Layer_2" data-name="Layer 2"><g id="Layer_1-2" data-name="Layer 1"><path class="cls-3" d="M75.62,147.42l-2.71-.92a114.88,114.88,0,0,1-27.6-15c-3.36-2.25-5.45-3.79-5.47-3.81l-.11-.07A61.82,61.82,0,0,1,28.8,116.86,37.4,37.4,0,0,1,21.72,104,32.68,32.68,0,0,1,19.9,92.8c-.06-1.51,0-3,0-4.71a81.33,81.33,0,0,1,.67-8.39v-.09a109.13,109.13,0,0,0,.18-13.56c-2-20.44-9.1-28.16-9.17-28.24l-.18-.21L1.2,24.16l6.09-4.8C23.52,7.43,47.7.86,75.37.86s51.82,6.56,68,18.48l.07.05,6.07,4.76L139.31,37.73c0,.05-5,5.67-7.71,19.53,0,.35-.1.71-.16,1.06v.1q-.1.8-.24,1.59v0a94,94,0,0,0-.32,22.16c1.35,12.68.83,26.13-12,38.52-.48.46-1,.91-1.43,1.35a68.63,68.63,0,0,1-6.3,5.56l-.13.09-.92.66A116.35,116.35,0,0,1,78.3,146.5Z"/><path class="cls-4" d="M4.67,24.6l4.09-3.22c16.54-12.15,40.8-18,66.61-18s50.05,5.86,66.57,18l4.16,3.25L137.49,36s-5.45,5.85-8.34,20.79c-.07.42-.13.83-.19,1.25s-.15,1-.23,1.57h0a96.65,96.65,0,0,0-.34,22.8c1.28,12,.81,24.81-11.26,36.46-.48.47-.95.91-1.42,1.35a64.53,64.53,0,0,1-6.11,5.39l-.09.07-.91.66a114.65,114.65,0,0,1-31.09,17.76l-1.89.64-1.9-.64a111.42,111.42,0,0,1-27-14.65c-3.26-2.19-5.33-3.71-5.42-3.77l-.09-.07A59.55,59.55,0,0,1,30.74,115.3a35,35,0,0,1-6.64-12.12,29.62,29.62,0,0,1-1.69-10.39c-.06-1.47-.06-3,0-4.61a80.73,80.73,0,0,1,.65-8.2v-.13a110.23,110.23,0,0,0,.19-14C21.09,44,13.41,36.09,13.41,36.09Z"/><path class="cls-5" d="M134.33,32.92l-2.15-1.61c-9.52,6.71-13.54,3.76-13.54,3.76-5.91-3.22,2.28-9.52,2.28-9.52l-2.82-1.48c-11,7.78-18.25,5.09-18.25,5.09-8-2.81-2.41-10.72-2.41-10.72l-5-1.08c-5.12,8.54-15,9.54-16.7,9.64l-.37,0-.36,0c-1.71-.1-11.58-1.1-16.71-9.64l-5,1.08S59,26.35,51,29.16c0,0-7.25,2.69-18.24-5.09l-2.82,1.48s8.19,6.3,2.28,9.52c0,0-4,3-13.55-3.76L16.5,32.92s8.75,7.6,11.19,32.62a114.33,114.33,0,0,1-.18,14.72,77.84,77.84,0,0,0-.65,8.06c-.06,1.52-.07,3,0,4.49A26,26,0,0,0,28.34,102a31,31,0,0,0,5.91,10.82A53.88,53.88,0,0,0,44,122.44s2.07,1.53,5.31,3.72A106.68,106.68,0,0,0,75.08,140.3l.54.18.53-.18c.69-.23,14.63-5.09,29.75-17.17.61-.43.95-.69.95-.69a60.45,60.45,0,0,0,5.73-5.09c.48-.45,1-.89,1.42-1.36,10.13-9.84,11.31-20.35,10-33.09A101.73,101.73,0,0,1,124.33,59h0c.16-1,.27-2,.42-2.9C128.11,38.55,134.33,32.92,134.33,32.92Z"/><g class="cls-6"><rect class="cls-7" x="69.59" y="54.76" width="11.66" height="81.36"/><polygon class="cls-7" points="55.67 126.15 44.01 118.31 44.01 54.77 55.67 54.77 55.67 126.15"/><polygon class="cls-7" points="106.82 118.55 95.16 127.98 95.16 54.76 106.82 54.76 106.82 118.55"/></g><path class="cls-8" d="M80.75,12.54a5.17,5.17,0,1,1-5.18-5.16,5.17,5.17,0,0,1,5.18,5.16"/><path class="cls-9" d="M47.35,15.13a3.78,3.78,0,1,1-3.77-3.78,3.77,3.77,0,0,1,3.77,3.78"/><path class="cls-9" d="M110.75,15.13A3.78,3.78,0,1,1,107,11.35a3.77,3.77,0,0,1,3.78,3.78"/><path class="cls-10" d="M25.1,22.48a3.58,3.58,0,1,1-3.58-3.58,3.58,3.58,0,0,1,3.58,3.58"/><path class="cls-10" d="M133.21,22.48a3.58,3.58,0,1,1-3.58-3.58,3.58,3.58,0,0,1,3.58,3.58"/><path class="cls-11" d="M41.77,61.82s-3.38,8.05.79,15.11a18.69,18.69,0,0,0-.79-15.11"/><path class="cls-11" d="M35.89,70s-.46,8.72,5.85,14a18.66,18.66,0,0,0-5.85-14"/><path class="cls-11" d="M35.9,80.35s.55,8.71,7.42,13.19A18.68,18.68,0,0,0,35.9,80.35"/><path class="cls-11" d="M34.69,92.25s4.09,7.72,12.19,9a18.67,18.67,0,0,0-12.19-9"/><path class="cls-11" d="M41.17,101.88s4.35,7.57,12.49,8.53a18.64,18.64,0,0,0-12.49-8.53"/><path class="cls-11" d="M42.88,112.34s7.29,4.82,15,2a18.69,18.69,0,0,0-15-2"/><path class="cls-11" d="M50.82,119.36s8.31,2.69,15-2.06a18.63,18.63,0,0,0-15,2.06"/><path class="cls-11" d="M58.62,124s8.66,1.13,14.35-4.76A18.65,18.65,0,0,0,58.62,124"/><path class="cls-11" d="M70.79,126.81s3.44-5.8,6-6.55c0,0-5.07,2-6.86,5.46,0,0-1.29,3,.84,1.09"/><path class="cls-11" d="M108.49,61.82s3.38,8.05-.79,15.11a18.69,18.69,0,0,1,.79-15.11"/><path class="cls-11" d="M114.37,70s.46,8.72-5.85,14a18.66,18.66,0,0,1,5.85-14"/><path class="cls-11" d="M114.36,80.35s-.54,8.71-7.42,13.19a18.68,18.68,0,0,1,7.42-13.19"/><path class="cls-11" d="M115.56,92.25s-4.08,7.72-12.18,9a18.7,18.7,0,0,1,12.18-9"/><path class="cls-11" d="M109.09,101.88s-4.35,7.57-12.49,8.53a18.67,18.67,0,0,1,12.49-8.53"/><path class="cls-11" d="M107.38,112.34s-7.29,4.82-15,2a18.68,18.68,0,0,1,15-2"/><path class="cls-11" d="M99.43,119.36s-8.29,2.69-15-2.06a18.61,18.61,0,0,1,15,2.06"/><path class="cls-11" d="M91.65,124s-8.66,1.13-14.37-4.76A18.69,18.69,0,0,1,91.65,124"/><path class="cls-11" d="M79.46,126.81s-3.42-5.8-6-6.55c0,0,5.07,2,6.85,5.46,0,0,1.3,3-.84,1.09"/><path class="cls-10" d="M122.55,59.76h0a158.05,158.05,0,0,1,4.24-18.64c-18.32-12.34-50-12.21-51.22-12.2s-32.89-.14-51.21,12.2a164,164,0,0,1,4.4,19.65,109.13,109.13,0,0,1,0,22.16c-1.31,12.35-.17,22.53,9.65,32.07a108.52,108.52,0,0,0,36.68,23.55l.53.18.51-.18A108.42,108.42,0,0,0,112.81,115c9.82-9.54,11-19.72,9.66-32.07A108.83,108.83,0,0,1,122.55,59.76ZM74.76,55.17h1.68c6.55.11,30.67,1.21,42.55,8.19a111.86,111.86,0,0,0,.27,19.9c1.25,11.73.22,20.75-8.69,29.42a108.9,108.9,0,0,1-34.95,22.63,108.79,108.79,0,0,1-35-22.63C31.74,104,30.72,95,32,83.27a112.84,112.84,0,0,0,.28-20c11.92-6.92,36-8,42.52-8.12Z"/><polygon class="cls-12" points="27.99 50.65 27.63 49.77 30.87 48.41 27.96 41.43 29.05 40.97 30.11 43.51 33.5 42.1 33.89 43.05 30.5 44.46 31.97 47.95 36.02 46.26 36.39 47.14 27.99 50.65"/><path class="cls-12" d="M37.53,39.75c-.24-.19-.62-.45-1.11-.77l-.52-.36.7-.7,1.61,1Zm.5,2.49c-.49-.36-1-.73-1.64-1.14l.67-.68c.55.31,1.09.64,1.64,1Zm1.56,1.43a1.89,1.89,0,0,0-.25-.32c-.13-.14-.23-.25-.3-.31l.26,3.41-1,0A32.16,32.16,0,0,0,38.05,43h.43l.45,0v0a6.16,6.16,0,0,0,1.4-2.44L38.68,41l-.24-.77,1.5-.46-.32-1-1.13.35-.24-.77L39.38,38,39.09,37l.91-.29.29.95,1.65-.51-.3-1,.91-.28.3.95,1.32-.41.24.76-1.32.41.32,1,1.64-.5.24.76-1.79.56a4.89,4.89,0,0,0,2.45,1l-.18,1a7.09,7.09,0,0,1-1.67-.61l.57,1.83-3.18,1,.12.4c.1.38.34.49.75.33l2.26-.7c.45-.11.65-.33.59-.66,0-.11,0-.3-.05-.58a1.28,1.28,0,0,1,0-.36,6.73,6.73,0,0,0,.89.05,5.73,5.73,0,0,1,.09,1c0,.61-.33,1-1.06,1.25l-2.77.86a1.06,1.06,0,0,1-1.46-.7l-.59-1.91c-.2.31-.42.61-.64.92m.95-5.22.31,1L42.5,39l-.32-1Zm.77,1.73a9.88,9.88,0,0,1-.4,1.16l2.59-.8a5.26,5.26,0,0,1-.84-.66l-.11-.09ZM41,42.12l.28.91,2.31-.72-.29-.91Z"/><path class="cls-12" d="M49.32,40.08l-.64-2.91L48,38.27a7.13,7.13,0,0,0-.53-.94,7.38,7.38,0,0,0,1.44-3.06l1-.07a3,3,0,0,1-.18.59c-.06.14-.09.25-.13.34l2.24-.49a1.26,1.26,0,0,0-.2-.19,4.84,4.84,0,0,0-.47-.57l1-.36a4.18,4.18,0,0,1,.41.42,3.68,3.68,0,0,1,.37.42l-.22.09,3-.66.15.68-3.11.68.14.59,2.72-.59.14.63-2.72.6.12.56,2.72-.6L56,37l-2.72.59.13.6,3.14-.69.14.67-6.45,1.42.06.3Zm-.75,1.42-.17-.78,3.84-.85-.1-.48,1-.22.11.49,3.84-.84.17.78-3.17.7a8,8,0,0,0,3.65.37l-.1.3c-.1.25-.17.45-.22.59a8.39,8.39,0,0,1-3.93-.78l.39,1.76-1,.21L52.49,41a10.19,10.19,0,0,1-3.22,2.43c-.21-.21-.43-.46-.67-.71a8.28,8.28,0,0,0,3.14-1.91Zm.84-5.63.13.6L51.9,36l-.13-.6Zm.27,1.24.13.56,2.35-.52L52,36.59Zm.26,1.19.13.6,2.36-.52-.13-.59Z"/><path class="cls-12" d="M60.09,41.48l-1.16-8.67,8.26-1.11,1.16,8.67-1,.14,0-.41-6.22.83.06.42Zm0-7.9L61,40.1l6.21-.84-.87-6.52Zm.8,2.17-.12-.87L64,34.44l-.14-1,.95-.13.14,1,1.13-.15.11.87-1.13.15.34,2.58a1,1,0,0,1-1,1.41l-.49.06a3.92,3.92,0,0,1-.61.12c-.11-.29-.23-.58-.34-.88.35,0,.67,0,1-.09s.61-.23.54-.6l-.28-2.05A8.77,8.77,0,0,1,61.61,39a4.82,4.82,0,0,0-.58-.54,1,1,0,0,0-.13-.14,7.47,7.47,0,0,0,2.5-2.88Z"/><path class="cls-12" d="M71.79,35.05l0-3.51,7.16,0V35l-3,0v1.45l3.4,0v.92H76V39c.71,0,2,0,3.94,0a3.94,3.94,0,0,0-.31.88c-2,0-3.3,0-4,0a3.32,3.32,0,0,1-3-1.36,7.87,7.87,0,0,1-1.25,1.8c-.26-.3-.5-.57-.73-.8a5,5,0,0,0,1.55-3.75l1,.15q-.08.8-.18,1.41a2.51,2.51,0,0,0,1.91,1.6V35Zm1.06-2.64v1.72l5,0V32.39Z"/><path class="cls-12" d="M82.75,32.92l.12-.92,3,.35-.11.91-1-.11-.25,2.13.87.1-.1.91-.87-.1-.28,2.31h.08a7.72,7.72,0,0,0,1,0l-.12,1c-.84,0-1.86,0-3,.1l0-1h1.19l.29-2.47-1-.12.11-.91,1,.12L83.82,33Zm7.89,7.38A8.17,8.17,0,0,1,88.79,37l-.31,2.65c0,.82-.5,1.18-1.39,1.07A9.64,9.64,0,0,1,86,40.61a6.91,6.91,0,0,0-.08-1l.49.09.42.05c.45.08.68-.1.71-.53l.16-1.33c-.22.13-.56.31-1,.53s-.9.49-1.15.64l-.3-1c1.11-.49,2-.88,2.6-1.2l.29-2.5-2.24-.26.1-.88,2.24.27.19-1.64,1,.11-.19,1.63,1.44.17-.43-.55c-.23-.26-.4-.45-.51-.6l.7-.37a3,3,0,0,1,.37.42c.27.31.46.53.58.64l-.71.46,1.14.14-.1.87-2.58-.3,0,.23a.83.83,0,0,1,0,.2,6.66,6.66,0,0,0,.36,1.58c.48-.44,1-.86,1.38-1.27l.69.7c-.77.63-1.36,1.09-1.78,1.37a8,8,0,0,0,1.51,2.18c-.06.07-.16.21-.31.42l-.31.39m-4.07-3.43c-.26-.63-.54-1.23-.83-1.8l.84-.32c.3.57.58,1.15.84,1.75Z"/><path class="cls-12" d="M93.9,41.54l.94-4.8a12.38,12.38,0,0,1-1.15,1.13,6.44,6.44,0,0,0,0-1.32,15.17,15.17,0,0,0,2.66-3.8l.92.46c-.36.63-.74,1.24-1.14,1.84l-1.32,6.67Zm1.82.43-.33-.87a10.29,10.29,0,0,0,2.53-.79l.43.79c-.14,0-.33.1-.58.15a14,14,0,0,1-2,.72m-.11-2.2.16-.79.78.16,1.13-5.7,5.14,1-1.13,5.7.79.16-.16.79Zm2-1.2-.15.76,3.23.63.15-.74Zm.28-1.38-.15.75,3.22.63.15-.75Zm.27-1.43-.14.75,3.22.64.15-.75Zm.28-1.38-.14.74,3.22.64.14-.75Zm2.88,8.67a17.15,17.15,0,0,0-2.06-1.77l.62-.58c.27.21.64.51,1.11.92l1,.74Z"/><path class="cls-12" d="M104.57,43.32a4.24,4.24,0,0,0-.64-.82,18.15,18.15,0,0,0,2.76-1.93l.74.77a22.84,22.84,0,0,1-2.86,2m.8-3.55,1.64-4c2.08.59,4.36,1.1,6.83,1.55l.07,1c-2.53-.5-4.62-1-6.24-1.39l-.91,2.25,2.36.65.51-1.8,1,.29-.51,1.81,3.35.93-.25.92L109.9,41l-.7,2.5c-.21.92-.75,1.25-1.63,1-.25,0-.68-.15-1.3-.32,0-.18,0-.52,0-1l1.14.32a.54.54,0,0,0,.77-.46l.64-2.28Zm6.5,5.55c-.12-.24-.3-.64-.54-1.19l-.85-1.9.91-.3c.21.4.5,1,.88,1.83.29.59.49,1,.6,1.25Z"/><path class="cls-12" d="M114.72,47,116,43.45l4,1.44-1.26,3.48-.91-.32.2-.54-2.16-.79-.2.58Zm1.07-4.53.29-.79,1.32.48a1.23,1.23,0,0,0,0-.21c-.11-.51-.22-.9-.3-1.17l.9-.13a2,2,0,0,0,.11.37,7,7,0,0,1,.27,1l-.86.13,1.29.47.18-.14c.52-.46.9-.82,1.16-1.09l.71.63-1.11.94,1.29.47-.29.79Zm.83,2.1L116.09,46l2.15.78.54-1.48Zm.26-4.34.3-.8,1.87.69a5.43,5.43,0,0,0,0-.83c0-.11,0-.2,0-.25l1,.21c0,.24,0,.59,0,1a1.27,1.27,0,0,0,0,.2l1.58.57-.29.79Zm2.63,8.59,2.93-8.09,3.2,1.17-.31.85-1.73,2.07a3,3,0,0,1,.25,2.57c-.34,1-.95,1.39-1.83,1.12a6,6,0,0,1-.91-.29c.07-.35.13-.69.17-1,.25.12.5.22.74.31.46.16.78,0,1-.55a3.14,3.14,0,0,0-.32-2.35l1.74-2.22-1.41-.5-2.63,7.26Z"/><path class="cls-12" d="M45.18,54.61A2.72,2.72,0,0,1,44.47,57a4,4,0,0,1-2.3,1.33,4.22,4.22,0,0,1-2.44-.29,5.93,5.93,0,0,0-1.46-.49c-.3.06-.47.21-.49.45a6.53,6.53,0,0,0,0,1.17l-.23,0-.93-4.85.23,0,.45.88a7.36,7.36,0,0,0,1,1.41A4.67,4.67,0,0,0,40,57.87a3.54,3.54,0,0,0,2.15.21,1.63,1.63,0,0,0,1-.56,1.1,1.1,0,0,0,.26-.92,1.34,1.34,0,0,0-.49-.86,3.12,3.12,0,0,0-1.25-.44l-1.85-.36a12.86,12.86,0,0,1-2.12-.61,2.53,2.53,0,0,1-1.46-2.12,2.93,2.93,0,0,1,.64-2.45,3.74,3.74,0,0,1,2.29-1.4,3.36,3.36,0,0,1,1.57.09l1.56.5a.49.49,0,0,0,.45-.42,2.29,2.29,0,0,0,0-.85l.27,0,.69,3.6-.25,0a8.21,8.21,0,0,0-.43-.73,4.49,4.49,0,0,0-1-1.09,4.64,4.64,0,0,0-1.38-.77,3.05,3.05,0,0,0-1.48,0,1.71,1.71,0,0,0-1,.53,1,1,0,0,0-.32.9,1.2,1.2,0,0,0,.52.79,3.17,3.17,0,0,0,.93.39l1.4.26c.59.1,1.21.23,1.85.4a3.79,3.79,0,0,1,1.69.92,3.17,3.17,0,0,1,.93,1.77"/><path class="cls-12" d="M55.26,55.27l-6.38,1.18-.05-.21.27-.06a5,5,0,0,0,.52-.15.89.89,0,0,0,.49-.33,1.12,1.12,0,0,0,.08-.63l-.09-.63L48.9,48l-.15-.62a1,1,0,0,0-.29-.56.84.84,0,0,0-.61-.13l-.74.09,0-.22,6.35-1.18,0,.22-.73.17a.87.87,0,0,0-.52.31,1.13,1.13,0,0,0-.07.64l.09.63,1.21,6.5.15.62a1,1,0,0,0,.31.57,1.08,1.08,0,0,0,.61.1l.71-.09Z"/><path class="cls-12" d="M64.65,54,58,54.77l0-.21.42-.05c.19-.06.37-.1.55-.14a.65.65,0,0,0,.41-.26,1,1,0,0,0,.13-.63l-.05-.64-.73-6.49-.1-.63a1.2,1.2,0,0,0-.28-.59.76.76,0,0,0-.48-.17h-.54l-.44,0,0-.22,6.4-.74a6.14,6.14,0,0,1,3,.15,3,3,0,0,1,1.14,1,2.55,2.55,0,0,1,.43,1.19,3.63,3.63,0,0,1-.06,1.19,2.22,2.22,0,0,1-.48,1,2.55,2.55,0,0,1-.93.65,5.18,5.18,0,0,1-1.5.35l-1.44.17-.91.13.3,2.63.1.63a1.08,1.08,0,0,0,.27.59.77.77,0,0,0,.48.16,5.72,5.72,0,0,0,.59,0l.4,0Zm-.27-7.31A5.42,5.42,0,0,0,64,45.2q-.28-.72-.72-.78a2.92,2.92,0,0,0-.83,0l-.57,0,.58,5.13.56-.09a7.47,7.47,0,0,0,.75-.19c.31-.1.5-.4.59-.9a6.31,6.31,0,0,0,0-1.69"/><path class="cls-12" d="M74,48.35A13,13,0,0,0,74.39,52c.29,1,.79,1.45,1.49,1.44a1.35,1.35,0,0,0,.81-.21.87.87,0,0,0,.34-.46,3.23,3.23,0,0,0,.08-.6c0-.23,0-.52,0-.86v-.53a4.52,4.52,0,0,0-.05-.81,1.05,1.05,0,0,0-.19-.62.67.67,0,0,0-.44-.2,3.87,3.87,0,0,0-.56,0l-.45,0v-.21l6.46,0V49l-.64,0a.9.9,0,0,0-.57.2,1,1,0,0,0-.18.63l0,.64v1.81l0,1.24H80.3a2,2,0,0,0-.63-.73,1.63,1.63,0,0,0-1-.32,2.73,2.73,0,0,0-1.37.6,4.29,4.29,0,0,1-2.37.6,4.54,4.54,0,0,1-3.44-1.47,5.19,5.19,0,0,1-1.42-3.7,4.94,4.94,0,0,1,1.53-3.78A5.86,5.86,0,0,1,78,43.93a12.49,12.49,0,0,0,1.3.61.54.54,0,0,0,.53-.3,5.21,5.21,0,0,0,.26-.85h.28v4.45h-.24A6.91,6.91,0,0,0,78.73,45a3,3,0,0,0-2.45-1.19,1.91,1.91,0,0,0-1.76,1.38,8.31,8.31,0,0,0-.57,3.2"/><path class="cls-12" d="M102.17,45.81l-.63,4.43-.21,0c-.27-.88-.52-1.62-.77-2.24a5.35,5.35,0,0,0-1-1.61A2.53,2.53,0,0,0,98,45.52l-1-.19-.62,4.38.63.06a1.5,1.5,0,0,0,1.3-.58,3.08,3.08,0,0,0,.63-1.5l.25,0-.7,5-.26,0A3.2,3.2,0,0,0,98,51a1.51,1.51,0,0,0-1.09-.94L96.26,50l-.46,3.29-.07.64a1.07,1.07,0,0,0,.13.65.76.76,0,0,0,.44.31l.52.12.43.08,0,.22-6.65-.94,0-.23.41,0,.54,0A.7.7,0,0,0,92,54a1.08,1.08,0,0,0,.28-.58l.12-.62.92-6.47.06-.64a1,1,0,0,0-.12-.64.72.72,0,0,0-.42-.28,4.51,4.51,0,0,0-.53-.13l-.42-.08,0-.22Z"/><path class="cls-12" d="M108.78,57.64a5.36,5.36,0,0,1-3.5-2.26,5.34,5.34,0,0,1,1.54-7.3,5.47,5.47,0,0,1,4.12-.59,4.18,4.18,0,0,1,1.64.7l1.27,1.12a.55.55,0,0,0,.59-.16,2.49,2.49,0,0,0,.36-.75l.26.06-.9,4.26-.23,0c-.16-1.18-.28-2-.37-2.41A3.37,3.37,0,0,0,113,49a2.13,2.13,0,0,0-1.36-.86,1.9,1.9,0,0,0-2,1,7.71,7.71,0,0,0-1.22,3,7.41,7.41,0,0,0,0,3.44A2.2,2.2,0,0,0,110,57.3a2.48,2.48,0,0,0,2.15-.47,5,5,0,0,0,1.49-2.11l.22.09a4.56,4.56,0,0,1-1.81,2.42,4.22,4.22,0,0,1-3.31.41"/><path class="cls-4" d="M56.48,68.18S43,70,45.35,78.42c0,0,2,6.26,4.07,9.44,0,0,3.28-5.87,8-5.07,0,0,12.92.5,15.11,12.22A29.48,29.48,0,0,1,66,113.11s12.43-8.45,9.24-21c0,0-1.49-10-14.71-12.62,0,0-8.35-1.69-10.44,2.29,0,0-3.87-7.06,1.49-9l5.07-2.09a5.91,5.91,0,0,1,7.06,2.59l6.16-4.37-11,.09s-1-.79,1.1-1.79c0,0,9.54-7.85,20.67-2.28,0,0,4.57,1.39,13.42,11.13,0,0,3,3.48,4.57-.2,0,0,4,7.39-5.63,9.25,0,0,1.26,7,8.15,3.91,0,0,1.53,9.41-11.13,8.15,0,0,9.61,8.21,14.57-2.92a15.2,15.2,0,0,0-.92-10.8s-2,5.23-5.5,2.85c0,0,10.14-7.09.13-16.7,0,0,.53,4.38-2.05,2.79,0,0-9.34-11.33-21.47-11.67,0,0-12.45-.33-17.62,6.76,0,0,.05.39-.67.73"/><path class="cls-13" d="M75.61,146.69l-2.67-.91A114.19,114.19,0,0,1,45.61,131c-3.33-2.23-5.39-3.75-5.41-3.77l-.11-.08a61.62,61.62,0,0,1-10.83-10.67,37.1,37.1,0,0,1-7-12.79,32.14,32.14,0,0,1-1.8-11c-.06-1.5-.05-3,0-4.67a82.66,82.66,0,0,1,.66-8.31v-.09a106.86,106.86,0,0,0,.18-13.42c-2-20.24-9-27.88-9.08-27.95L12.06,38,1.94,24.66l6-4.75C24,8.1,48,1.59,75.37,1.59s51.3,6.5,67.37,18.3l.07,0,6,4.72L138.68,38.09s-5,5.61-7.64,19.33c0,.35-.11.71-.15,1.06l0,.1c-.07.52-.15,1.05-.23,1.57v0a92.78,92.78,0,0,0-.32,21.94c1.34,12.56.82,25.86-11.88,38.13L117,121.58a65.84,65.84,0,0,1-6.24,5.5l-.13.1s-.33.25-.9.65a116.07,116.07,0,0,1-31.47,18ZM15.92,34.88C17,36.06,24.16,44.71,26.23,65.7l0,.12A113.14,113.14,0,0,1,26.06,80l0,.22a78.67,78.67,0,0,0-.63,7.88c-.06,1.6-.06,3,0,4.42v.17A27.38,27.38,0,0,0,27,102.1l0,.06a32.16,32.16,0,0,0,6.12,11.16l0,.06a56.15,56.15,0,0,0,10,9.81l0,0s2,1.51,5.26,3.66l.07.05A108.25,108.25,0,0,0,74.53,141.1l1.09.37,1.07-.37a110.4,110.4,0,0,0,30-17.18l.1-.08.87-.63.08-.06a60.76,60.76,0,0,0,5.77-5.09l.07-.07c.46-.42.92-.85,1.38-1.3,11.18-10.8,11.61-22.75,10.4-34.06a98.55,98.55,0,0,1,.35-23.21c.09-.52.16-1,.23-1.53l0-.1c0-.4.11-.79.17-1.18v-.09C129,42.17,134.13,35.79,135,34.85l7-9.3-2.18-1.71c-15.23-11.16-38.1-17.3-64.41-17.3S26.16,12.69,10.93,23.87L8.81,25.54Z"/><path class="cls-4" d="M75.62,147.42l-2.71-.92a114.88,114.88,0,0,1-27.6-15c-3.36-2.25-5.45-3.79-5.47-3.81l-.11-.07A61.82,61.82,0,0,1,28.8,116.86,37.4,37.4,0,0,1,21.72,104,32.68,32.68,0,0,1,19.9,92.8c-.06-1.51,0-3,0-4.71a81.33,81.33,0,0,1,.67-8.39v-.09a109.13,109.13,0,0,0,.18-13.56c-2-20.44-9.1-28.16-9.17-28.24l-.18-.21L1.2,24.16l6.09-4.8C23.52,7.43,47.7.86,75.37.86s51.82,6.56,68,18.48l.07.05,6.07,4.76L139.31,37.73c0,.05-5,5.67-7.71,19.53,0,.35-.1.71-.16,1.06v.1q-.1.8-.24,1.59v0a94,94,0,0,0-.32,22.16c1.35,12.68.83,26.13-12,38.52-.48.46-1,.91-1.43,1.35a68.63,68.63,0,0,1-6.3,5.56l-.13.09-.92.66A116.35,116.35,0,0,1,78.3,146.5ZM15.32,34.49c1.08,1.19,8.32,9.92,10.42,31.13v.12a113.45,113.45,0,0,1-.19,14.31l0,.22c-.29,2.51-.59,5.12-.64,8-.06,1.62-.06,3.07,0,4.47v.18a27.56,27.56,0,0,0,1.57,9.51l0,.06a32.54,32.54,0,0,0,6.18,11.27l.06.07a56.83,56.83,0,0,0,10,9.9l.05,0s2.07,1.52,5.31,3.7l.08,0a109.62,109.62,0,0,0,26.32,14.32l1.1.37,1.08-.37a111.51,111.51,0,0,0,30.35-17.36l.1-.08.88-.63.08-.06a64.81,64.81,0,0,0,5.83-5.14l.07-.07c.46-.43.93-.87,1.39-1.32,11.3-10.91,11.72-23,10.51-34.4a99.37,99.37,0,0,1,.35-23.45c.09-.53.16-1,.23-1.55l0-.1c0-.4.11-.79.17-1.19l0-.08c2.81-14.51,8-21,8.86-21.9l7.07-9.39-2.2-1.72C125.05,12.06,102,5.85,75.37,5.85s-49.71,6.22-65.1,17.51L8.14,25Z"/></g></g></svg>