<svg xmlns="http://www.w3.org/2000/svg" viewBox="0 0 57.43 136.23"><title>Asset 8</title><style>.cls-1{fill:#ea0029;}</style><g id="Layer_2" data-name="Layer 2"><g id="图层_1" data-name="图层 1"><path id="_Path_" data-name="&lt;Path&gt;" class="cls-1" d="M33.39,121.2c8.68,0,9-7,9-9V80.8H28.74a3.36,3.36,0,0,1-3.36-3.37V65.78H57.43v46.41a24,24,0,0,1-24,24H24a24,24,0,0,1-24-24V24A24,24,0,0,1,24,0h9.35a24,24,0,0,1,24,24v21H45.77a3.36,3.36,0,0,1-3.37-3.36V24a9,9,0,0,0-9-9H24a9,9,0,0,0-9,9v88.15a9,9,0,0,0,9,9Z"/></g></g></svg>