<svg xmlns="http://www.w3.org/2000/svg" viewBox="0 0 70.79 154.48"><defs><style>.cls-1{fill:#ffffff;}</style></defs><title>Asset 5</title><g id="Layer_2" data-name="Layer 2"><g id="图层_1" data-name="图层 1"><path id="_Compound_Path_" data-name="&lt;Compound Path&gt;" class="cls-1" d="M52,93.33v61.15h9.08V86.37a11.75,11.75,0,0,0-.91-4.93,6.26,6.26,0,0,0-2.37-2.75,7.84,7.84,0,0,0-2.22-.93,13.76,13.76,0,0,0-3.54-.4H12.47A3.37,3.37,0,0,1,10,76.24a3.73,3.73,0,0,1-1-2.52V0H6.18A6.18,6.18,0,0,0,0,6.18v74a6.18,6.18,0,0,0,6.18,6.18H46.49s5.54-.67,5.54,7M61.85,0V154.48h8.94V0ZM52,67.62H18.75V0h-9V73.72a3.05,3.05,0,0,0,.8,2,2.63,2.63,0,0,0,1.92.88h39.6a14.38,14.38,0,0,1,4.16.54,7.51,7.51,0,0,1,3.35,2,7.29,7.29,0,0,1,1.49,2.42.36.36,0,0,1,0,.09V0H52Z"/></g></g></svg>