<svg xmlns="http://www.w3.org/2000/svg" viewBox="0 0 75.53 154.38"><defs><style>.cls-1{fill:#ffffff;}</style></defs><title>Asset 10</title><g id="Layer_2" data-name="Layer 2"><g id="图层_1" data-name="图层 1"><path id="_Compound_Path_" data-name="&lt;Compound Path&gt;" class="cls-1" d="M62.93,9.83H9.75V67.35h47a11.54,11.54,0,0,0,2.06-.19,9.72,9.72,0,0,0,3.48-1.34,7.15,7.15,0,0,0,2.07-2.07,8.82,8.82,0,0,0,1.27-4.56V12.55a2.71,2.71,0,0,0-.8-1.92,2.67,2.67,0,0,0-1.92-.8m-6.16,8.92V58.23h-38V18.75Zm-38,135.63h50.6a6.18,6.18,0,0,0,6.18-6.18V6.18A6.18,6.18,0,0,0,69.35,0H0V77H56.77v58.59h-38V114.35a6.18,6.18,0,0,0-6.18-6.18H9.75v36.62H62.93a2.73,2.73,0,0,0,2.72-2.72V62.9a1.34,1.34,0,0,0-.07.18,7.75,7.75,0,0,1-2,2.74A10,10,0,0,1,58.6,68a12.18,12.18,0,0,1-1.83.14H9v-59H62.93a3.46,3.46,0,0,1,3.46,3.46V58.78h0c0,.1,0,.19,0,.29v83a3.46,3.46,0,0,1-3.46,3.46H9V108.17H0v46.21Z"/></g></g></svg>