<svg xmlns="http://www.w3.org/2000/svg" viewBox="0 0 259.63 90.38"><defs><style>.cls-1{fill:#fff;stroke:#fff;stroke-miterlimit:10;stroke-width:2.83px;}</style></defs><title>Asset 1</title><g id="Layer_2" data-name="Layer 2"><g id="图层_1" data-name="图层 1"><rect class="cls-1" x="1.42" y="1.42" width="256.79" height="87.55" rx="4.74" ry="4.74"/><path d="M45.59,73.35V70.74H79V64.48H52.32v-2.6H79V56.25H56.81V34H79V28.38H48.06v-2.6H79V19L65.4,20.22c-2.71.28-5.57.28-8.36.49L56,18.11c15.64-.71,31-2.12,45.36-5.63l1.78,2.39a208.24,208.24,0,0,1-21.21,3.8v7.11h31.2v2.6H81.89V34h22.3V56.25H81.89v5.63h26.79v2.6H81.89v6.26H115.1v2.61ZM79,36.61H59.75v6.48H79Zm0,9.08H59.75v8H79Zm22.29-9.08H81.89v6.48h19.35Zm0,9.08H81.89v8h19.35Z"/><path d="M211.63,73.28h-36.3c-9.06-.92-13.16-3.45-17.88-7l-10.61,7.81L144.52,72a104.25,104.25,0,0,0,12.39-8.73V40.69H146.46v-2.6H160V64.76c5.42,4.37,11.54,5.91,18.43,5.91h27.71c2.24-.21,4.56-.21,6.73-.35ZM159.92,26.13c-1.78-3.8-5-7.11-8.51-9.93l2.4-1.47a35,35,0,0,1,8.67,9.64A21.13,21.13,0,0,1,159.92,26.13Zm48,38.7a25.42,25.42,0,0,1-5.27.42c-1.93-.07-3.79-.14-5.65-.14-2.55-.77-3.17-2.18-3.71-4.36V42.24h-8.6c.08,11-3.4,20.13-14.86,25.34L168,65c11.07-5,13.55-12.24,13.78-22.73H169.06v-2.6h18.81V26.55H176a27.37,27.37,0,0,1-5.65,9.78l-2.4-1.55c3.64-4.85,7.2-11.19,7.89-19.28l2.56.85A43.41,43.41,0,0,1,177,24h10.84V14.23H191V24h12.77v2.6H191V39.64h18.8v2.6H196.38V60.82a2.92,2.92,0,0,0,2,1.69H206a3.68,3.68,0,0,0,2.63-2.11,30.37,30.37,0,0,0,.39-3.87l2.87,1.2C211.56,60.82,210.94,63.78,207.92,64.83Z"/></g></g></svg>