<svg xmlns="http://www.w3.org/2000/svg" viewBox="0 0 489.73 38.39"><defs><style>.cls-1{fill:#fff;}</style></defs><title>资源 2</title><g id="图层_2" data-name="图层 2"><g id="Layer_1" data-name="Layer 1"><path class="cls-1" d="M5.71,36.46,3.82,33.77a3.9,3.9,0,0,0,1.76-2.48V15.42H0V12.35H8.78V30l3.57-2.81v3.49Zm1.6-27.6A18.27,18.27,0,0,0,2,2.52L4.12.67A18.24,18.24,0,0,1,9.87,6.93ZM35.12,37a2.3,2.3,0,0,1-2,1.26c-1.64.08-2.86-1.6-3.61-2.81a27.66,27.66,0,0,1-2.27-4.75,29.73,29.73,0,0,1-7.1,6.72l-2.69-2.1A26.19,26.19,0,0,0,26.17,27a94,94,0,0,1-2.06-16H16.38v5h7.35A59.46,59.46,0,0,1,23,26.93a2.78,2.78,0,0,1-1.34,2.31c-1,.67-3,.29-4.41.13l-.63-3.15a17,17,0,0,0,2.6.55c.46.08.84,0,.88-.46a63,63,0,0,0,.5-7.35H16.38v3.86c0,1.51-.08,3.11-.17,4.62-.21,3.7-.8,7.73-3.28,10.92l-2.86-2c2.1-2.27,2.77-6,2.94-9.7.08-1.6.17-2.9.17-4.37V7.94H23.94c-.13-2.23-.21-4.58-.29-7.56h3.11c0,2.77.17,5.42.29,7.56h8.57v2.94L27.26,11a84.31,84.31,0,0,0,1.26,12.48,36.78,36.78,0,0,0,2.86-10l2.86,1.43A40,40,0,0,1,29.7,27.47a24.63,24.63,0,0,0,3,7,30.92,30.92,0,0,0,1-6l3,1.64A36.45,36.45,0,0,1,35.12,37ZM32.22,7.56a13.89,13.89,0,0,0-4.45-4.87L29.87.92A15.43,15.43,0,0,1,34.7,5.84Z"/><path class="cls-1" d="M111.77,36.5H94.59c-7.69,0-9.49-2.18-11.55-4.41-1.81,1.64-3.65,3.28-5.92,5.25l-2.39-2.52c2.6-1.89,4.24-3.7,6.39-5.46v-13H75.73v-2.9H84.3V29.32l.88.8c3.49-2.35,4.37-5.67,4.16-9.24h-4.2V17.81h6.68a6.67,6.67,0,0,0-.88-1.47H87.11V3.7h3.95A13.71,13.71,0,0,0,92.32,0l3.36.71c-.46,1.18-1,2.65-1.18,3h4.33V15.25c1.81-2.6,3.82-8.61,3.91-15l2.9.71a43.82,43.82,0,0,1-.84,6.59l7.56,0v3.07H110c-.21,4.83-.55,8.28-2.31,12.43a55.49,55.49,0,0,1,5.08,7.52l-2.31,2.1a46.66,46.66,0,0,0-4.33-6.55,34.35,34.35,0,0,1-5.76,6.93L98.24,31a34.7,34.7,0,0,0,6-7.52,38.28,38.28,0,0,0-3.36-4.54l1.89-2.1a26.87,26.87,0,0,1,2.81,3.44l.25-.55a29.22,29.22,0,0,0,1.3-9.07h-2.9a34.21,34.21,0,0,1-3.32,7.48l-.55-.17v2.94H92.28l0,1.55h6.81c-.13,2.9-.38,6.43-1.22,8.23a3.27,3.27,0,0,1-2.44,2.06,16.66,16.66,0,0,1-4.07-.17L91,29.49a12.35,12.35,0,0,0,2.86.59c1,0,1.34-.63,1.6-1.64a16.18,16.18,0,0,0,.34-2.94H91.86a10.58,10.58,0,0,1-4.28,6.43c1.3,1.18,3.78,1.47,5.63,1.55,3.4.17,7.31.21,10.8,0l9-.42Zm-30-26.3a22.8,22.8,0,0,0-5.55-7.52L78.58,1A24.72,24.72,0,0,1,84.51,8.4ZM95.64,6.76H90.3V8.53h5.33Zm0,4.83H90.3v1.72h5.33Zm2.48,5.13.13-.38H94.46a7.84,7.84,0,0,1,.67,1.47h5Z"/><path class="cls-1" d="M159.22,11.64V38.35H155.9V16.72a23.67,23.67,0,0,1-3.49,4.12l-3.19-1.64c6.09-5.33,8.28-11.72,10.46-18.9l3.11,1.18A102.71,102.71,0,0,1,159.22,11.64Zm25.2,5.17-2.94-1.18a39.77,39.77,0,0,0,1.81-5.08h-6.72V33.82c0,1.6-.13,3.11-1.72,3.82-2,.88-3.95.25-6,.46l-1.18-3.4,4.5.13a1.35,1.35,0,0,0,1-1V10.54h-5a29.63,29.63,0,0,1-5,8.23L160,17.56c4.83-6.26,6.17-10.08,7.48-17.22l3.28.71a42.15,42.15,0,0,1-1.34,6.3h18A42.81,42.81,0,0,1,184.43,16.8ZM163,30.79l-2.6-2.14A21.74,21.74,0,0,0,168.3,17.1l2.94,1.39C169.77,22.89,167.25,27.77,163,30.79Zm22.6.76c-1.81-5.12-3.95-9.24-7.39-12.27l2.77-1.72a29,29,0,0,1,7.56,12.22Z"/><path class="cls-1" d="M229.24,20.33V16.84h32.56v3.49Z"/><path class="cls-1" d="M338,36h-8.78L321.68,36A19.44,19.44,0,0,1,308,30.58a23.37,23.37,0,0,1-4,7.81l-2.77-1.93A17.46,17.46,0,0,0,305,28.27a49.77,49.77,0,0,0,.63-8.15l3.15.46a46.12,46.12,0,0,1-.29,6.18A9.53,9.53,0,0,0,312.06,30V17.1h-8.7V14h7.44V9.33h-6.17V6.26h6.17v-6H314v6h5.38V9.33H314V14h6.93V17.1h-5.67v4.33h5v3.07h-5v7.14c3.82,1.64,9.33,1.39,13.86,1.39,1.6,0,8.23-.17,10.33-.34Zm-2.23-7.86a3.79,3.79,0,0,1-2.94,1.72h-6.76a3.37,3.37,0,0,1-3.66-3.32v-13h9.91V6.47H321V3.4h14.53V19.16h-3.19V16.63h-6.72V26c0,.8.17.88,1,.88h5.42c1,0,1.51-.88,1.89-2.18a37,37,0,0,0,.88-3.7l3,1.3A23.39,23.39,0,0,1,335.8,28.19Z"/><path class="cls-1" d="M412.49,34.66a2.92,2.92,0,0,1-2.86,1.43H399.47c-2.06,0-3.07-1.6-3.07-4V18.57c-.5,6.47-1.81,8.95-5.46,12.77-2.23,2.31-6.85,4.92-12.22,6.3l-2.35-3A25.72,25.72,0,0,0,384.64,32c4.54-2.48,7.73-6.22,8.32-11.47.13-1.18.34-3.57.34-4.75V7.69h3.19v9.79l3.11-.08V32c0,.88.17,1,1.26,1h8.28c1.09,0,1.3-.76,1.6-2.14l.5-2.39,2.81,1.6A13.75,13.75,0,0,1,412.49,34.66Zm-9.28-8.15V5.42H387.33V26.51h-3.19V2.35H406.4V26.51Z"/><path class="cls-1" d="M458.05,34.49l-1.89-2.69A2.73,2.73,0,0,0,457.59,30V16.42h-4.07V13.36h7.39V29.28l5-2.65v3.53Zm2.65-25.2a19,19,0,0,0-6-5.25L457,1.81A26.58,26.58,0,0,1,463.14,7Zm2.23,27V33.23h5.13V13.36h3.19V33.23h5.38V6.43H465.49V3.36h23V6.43h-8.7V16.84h7.48v3.07h-7.48V33.23h9.91v3.07Z"/></g></g></svg>