<svg xmlns="http://www.w3.org/2000/svg" viewBox="0 0 980.9 1632.15"><defs><style>.cls-1{fill:#fff;}</style></defs><title>资源 1</title><g id="图层_2" data-name="图层 2"><g id="Layer_1" data-name="Layer 1"><path class="cls-1" d="M119.07,325.65h5.2v20h3.44v3.66h-3.44v6.45h-3.66V349.3H109.82v-3.66Zm1.55,20V330.21l-7.14,15.44Z"/><path class="cls-1" d="M146.2,337.48h4.73v4.73H146.2Zm0,13.54h4.73v4.73H146.2Z"/><path class="cls-1" d="M186.45,347.06v.47c0,5.33-3.53,8.64-8.17,8.64-4.9,0-8.21-3.44-8.21-8.81v-1.08h3.66v1.08c0,3.4,1.68,5.16,4.56,5.16,2.54,0,4.51-1.76,4.51-5v-.47a4.85,4.85,0,0,0-5.12-4.82h-2.19v-3.61h2.19c2.62,0,5.12-1.25,5.12-4.3v-.47c0-3.22-2-5-4.51-5-2.88,0-4.56,1.76-4.56,5.16v1.08h-3.66V334c0-5.37,3.31-8.81,8.21-8.81,4.64,0,8.17,3.31,8.17,8.64v.47a6.84,6.84,0,0,1-3.57,6.15A7.24,7.24,0,0,1,186.45,347.06Z"/><path class="cls-1" d="M204.29,347.37V333.95c0-5.5,3.35-8.73,8.21-8.73s8.17,3.22,8.17,8.73v13.42c0,5.38-3.27,8.81-8.17,8.81S204.29,352.74,204.29,347.37Zm12.73,0V333.95c0-3.44-1.76-5.07-4.56-5.07s-4.51,1.63-4.51,5.07v13.42c0,3.4,1.68,5.16,4.56,5.16S217,350.76,217,347.37Z"/><path class="cls-1" d="M17.72,327.84v30.31h-3V327.84H1.2v-2.92H34.47v2.92Zm11.64,20a29.62,29.62,0,0,0-9.88-8.32l1.36-2.28a23.54,23.54,0,0,1,6.56,4,32.89,32.89,0,0,1,4.2,4.28Z"/><path class="cls-1" d="M72.56,344.83v14.64h-3V344.83H54v-2.92H69.52v-9.8H62.16a30.2,30.2,0,0,1-5.88,8.44L53.6,339a27.2,27.2,0,0,0,8.12-15.56l2.8,1.12a26.91,26.91,0,0,1-1.12,4.68H83.31v2.92H72.56v9.8H86.71v2.92Z"/><path class="cls-1" d="M174.57,1629.06C92.72,1612.74,37.25,1515.3,16,1397.35c-13.82-75.47-15-155.48-16-236,11,55.07,60.51,228.11,197.43,203.24,53.32-10.52,111.12-63.42,163.54-149.34L980.9,186.48,476,1351.42c-53.71,125.3-154.4,306.65-301.39,277.64"/><path class="cls-1" d="M32.09,21.46a14.76,14.76,0,0,1-14.37,9.62C8.78,31.08,2.1,24.83,2.1,15.54A15,15,0,0,1,17.52,0,14.75,14.75,0,0,1,31.84,9.45l-6,2.56a8.78,8.78,0,0,0-8.23-5.5,8.69,8.69,0,0,0-8.95,9c0,5.38,3.7,9,8.95,9a9,9,0,0,0,8.53-5.75Z"/><path class="cls-1" d="M92.36,30.25V18.78H77.66V30.25H71.15V.84h6.51V12.31h14.7V.84h6.51V30.25Z"/><path class="cls-1" d="M139.61,30.25V.84h6.51V30.25Z"/><path class="cls-1" d="M205.42,30.25,193.37,6.8V30.25h-6.51V.84h10.59l12.18,23.69V.84h6.51V30.25Z"/><path class="cls-1" d="M280.1,30.25l-2.65-6.72H263.89l-2.6,6.72h-7.14L265.48.84H275.9l11.34,29.41ZM266.36,17H275L270.69,5.63Z"/><path class="cls-1" d="M10.08,90.25H3.57V60.84H27.94v6.51H10.08v5H27.51v6.47H10.08Z"/><path class="cls-1" d="M81.78,60c8.74,0,15.63,6.26,15.63,15.54S90.51,91.08,81.78,91.08c-8.95,0-15.63-6.26-15.63-15.54S73,60,81.78,60Zm0,6.51a8.83,8.83,0,0,0-9.12,9,8.71,8.71,0,0,0,9.12,9,8.83,8.83,0,0,0,9.12-9A8.71,8.71,0,0,0,81.78,66.51Z"/><path class="cls-1" d="M150.82,60c8.74,0,15.63,6.26,15.63,15.54s-6.89,15.54-15.63,15.54c-8.95,0-15.63-6.26-15.63-15.54S142.09,60,150.82,60Zm0,6.51a8.83,8.83,0,0,0-9.12,9,8.71,8.71,0,0,0,9.12,9,8.83,8.83,0,0,0,9.12-9A8.71,8.71,0,0,0,150.82,66.51Z"/><path class="cls-1" d="M229.41,67.35h-9.87V90.25H213V67.35H203.2V60.84h26.21Z"/><path class="cls-1" d="M267.62,90.25V60.84h17.52c5.59,0,9.41,3.4,9.41,8.53a7.46,7.46,0,0,1-2.73,6.13,7.62,7.62,0,0,1,2.73,6.18c0,5.12-3.82,8.57-9.41,8.57Zm17-17.94c1.89,0,3.4-.59,3.4-2.44s-1.51-2.52-3.4-2.52h-10.5v5Zm0,11.43c1.89,0,3.45-.63,3.45-2.48s-1.55-2.48-3.45-2.48H274.13v5Z"/><path class="cls-1" d="M357.89,90.25l-2.65-6.72H341.67l-2.6,6.72h-7.14l11.34-29.41h10.42L365,90.25ZM344.15,77h8.61l-4.29-11.38Z"/><path class="cls-1" d="M426.14,90.25H403V60.84h6.51V83.73h16.59Z"/><path class="cls-1" d="M488.08,90.25H465V60.84h6.51V83.73h16.59Z"/><path class="cls-1" d="M1.68,144.87l4.92-4.2a14,14,0,0,0,9.66,3.91c4.08,0,6.64-.88,6.64-2.9s-2.1-2.44-4.62-2.65l-5-.42c-6.34-.55-10.71-3.44-10.71-9.07s5-9.54,12.39-9.54c9.37,0,13.44,6.09,13.44,6.09l-5,3.95s-2.65-3.53-8.4-3.53c-3.95,0-5.8,1.09-5.8,2.86,0,1.51,1.43,2.35,4.12,2.56l5,.42c6.55.55,11.34,3.11,11.34,9s-5.21,9.75-13.4,9.75C5.88,151.08,1.68,144.87,1.68,144.87Z"/><path class="cls-1" d="M94.46,137.85c0,8.11-5.84,13.23-13.11,13.23S68.25,146,68.25,137.85v-17h6.51v16.8c0,4.5,2.94,6.93,6.59,6.93s6.6-2.44,6.6-6.93v-16.8h6.51Z"/><path class="cls-1" d="M165.32,150.25V127.94l-7.64,22.31h-8.95l-7.65-22.31v22.31h-6.51V120.84h10.59l8,23,8.07-23h10.59v29.41Z"/><path class="cls-1" d="M243.31,150.25V127.94l-7.65,22.31h-8.95l-7.64-22.31v22.31h-6.51V120.84h10.59l8,23,8.07-23h10.59v29.41Z"/><path class="cls-1" d="M290.56,150.25V120.84h6.51v29.41Z"/><path class="cls-1" d="M361.5,127.35h-9.87v22.89h-6.51V127.35h-9.83v-6.51H361.5Z"/><path class="cls-1" d="M18.32,226.68h-16v-3.44c0-4.56,2.36-7.18,5.25-9.76L12.56,209a6.7,6.7,0,0,0,2.54-4.56c0-3-1.76-4.64-4.51-4.64S6,201.44,6,204.88v1.81H2.37v-1.81c0-5.5,3.35-8.73,8.17-8.73s8.13,3.31,8.13,8.38c0,3.31-1.94,5.72-4.47,8l-5.5,4.9A6.84,6.84,0,0,0,6,222.6V223h12.3Z"/><path class="cls-1" d="M36.29,218.3V204.88c0-5.5,3.35-8.73,8.21-8.73s8.17,3.22,8.17,8.73V218.3c0,5.38-3.27,8.81-8.17,8.81S36.29,223.67,36.29,218.3Zm12.73,0V204.88c0-3.44-1.76-5.07-4.56-5.07s-4.51,1.63-4.51,5.07V218.3c0,3.4,1.68,5.16,4.56,5.16S49,221.69,49,218.3Z"/><path class="cls-1" d="M72.89,202.6H69.66v-2.79a3.76,3.76,0,0,0,3.87-3.23h3v30.1H72.89Z"/><path class="cls-1" d="M111.59,204.75v.43a7.26,7.26,0,0,1-3.27,6.23,8,8,0,0,1,3.27,6.67v.43c0,5.38-3.27,8.6-8.17,8.6s-8.17-3.23-8.17-8.6v-.43a8,8,0,0,1,3.27-6.67,7.26,7.26,0,0,1-3.27-6.23v-.43c0-5.37,3.27-8.6,8.17-8.6S111.59,199.38,111.59,204.75Zm-3.66.65v-.65c0-3.14-1.63-4.94-4.51-4.94s-4.52,2-4.52,4.94v.65c0,2.75,2,4.17,4.52,4.17S107.93,208.15,107.93,205.4Zm-9,12.47v.65c0,3,1.63,4.94,4.52,4.94s4.51-2,4.51-4.94v-.65c0-2.84-1.81-4.69-4.43-4.69A4.45,4.45,0,0,0,98.9,217.87Z"/><path class="cls-1" d="M130.51,222h4.73v4.73h-4.73Z"/><path class="cls-1" d="M154.37,218.3V204.88c0-5.5,3.35-8.73,8.21-8.73s8.17,3.22,8.17,8.73V218.3c0,5.38-3.27,8.81-8.17,8.81S154.37,223.67,154.37,218.3Zm12.73,0V204.88c0-3.44-1.76-5.07-4.56-5.07s-4.51,1.63-4.51,5.07V218.3c0,3.4,1.68,5.16,4.56,5.16S167.1,221.69,167.1,218.3Z"/><path class="cls-1" d="M192.47,218.08v.43c0,3,1.63,4.94,4.51,4.94s4.51-2,4.51-4.94v-4.08c0-2.84-1.81-4.69-4.43-4.69a4.52,4.52,0,0,0-4.6,3.83h-3.66l.86-17h14.62v3.66H193.2l-.47,7.4A6.83,6.83,0,0,1,197.2,206c4.47,0,8,3.23,8,8.6v3.87c0,5.38-3.27,8.6-8.17,8.6s-8.17-3.23-8.17-8.6v-.43Z"/><path class="cls-1" d="M224.07,222h4.73v4.73h-4.73Z"/><path class="cls-1" d="M247.94,218.3V204.88c0-5.5,3.35-8.73,8.21-8.73s8.17,3.22,8.17,8.73V218.3c0,5.38-3.27,8.81-8.17,8.81S247.94,223.67,247.94,218.3Zm12.73,0V204.88c0-3.44-1.76-5.07-4.56-5.07s-4.51,1.63-4.51,5.07V218.3c0,3.4,1.68,5.16,4.56,5.16S260.67,221.69,260.67,218.3Z"/><path class="cls-1" d="M294.85,213.27a7.21,7.21,0,0,1-4.51,1.59c-4.9,0-8.17-3.23-8.17-8.6v-1.5c0-5.37,3.27-8.6,8.17-8.6s8.17,3.22,8.17,8.6v13.76c0,5.38-3.27,8.6-8.17,8.6s-8.17-3.23-8.17-8.6v-.65h3.65v.65c0,3.14,1.63,4.94,4.52,4.94s4.51-2,4.51-4.94Zm0-6.79v-1.72c0-3-1.63-4.94-4.51-4.94s-4.52,2-4.52,4.94v1.72c0,2.84,1.81,4.69,4.43,4.69A4.45,4.45,0,0,0,294.85,206.47Z"/><path class="cls-1" d="M11.56,432.51v-2.6l-8.76,2L.76,429l10.8-2.28V414.59H1.64v-3h9.92V400.84h3v31.67Zm17.56.12h-5.2c-3,0-3.8-2.08-3.8-3.92V400.84h3v12.36a19.64,19.64,0,0,0,8.56-4.84l2.44,1.92a23.75,23.75,0,0,1-11,6v11.16a1.92,1.92,0,0,0,1.64,2.12h3.76c1.56,0,2.24-3.24,2.84-6.6l3.08,1C33.43,430.19,32.43,432.63,29.11,432.63Z"/><path class="cls-1" d="M54,432.27l-1.84-2.72c3.4-.76,9.2-3.8,11.56-6.92l2,2A27.37,27.37,0,0,1,54,432.27Zm-.6-25.92v-2.92H69.08a15,15,0,0,0-4.84-3.24l2.28-2a16.39,16.39,0,0,1,6.16,4.6l-.68.64H86.55v2.92Zm18.72,15v10.2a3,3,0,0,1-3,3.24H64.48l-1.08-3.28a42.48,42.48,0,0,0,4.84.2c.52,0,.8-.44.8-1v-9.32H58.84V409.48H81v11.88Zm5.92-9H61.88v6H78Zm7.92,19.68c-3.08-3.12-7.92-6.48-11.44-7l2-2.44c3.76,1,8.76,4.36,11.56,7.16Z"/><path class="cls-1" d="M135,434.19h-3.48L130.39,431a14,14,0,0,0,4,.28c.6,0,.92-.32.92-.92v-7.88h-6c-.56,4.84-1,8.12-3.6,12.16l-3.12-1.2a16.18,16.18,0,0,0,2.6-5.16H117v6.6h-3v-6.6h-9v-2.92h9v-2.88h-6V408.36h6v-3h-8.4v-2.92h8.4V399h3v3.44h8.4v2.92H117v3h6v14.08h-6v2.88h8.4v2.28c1-3.72,1-7.08,1-13.6V400.64h12v30C138.31,432.63,137.43,434.19,135,434.19Zm-15-22.92h-9v2.36h9Zm0,5.28h-9v3h9Zm15.32-13h-5.92v6.28h5.92Zm0,9.2h-5.92v6.76h5.92Z"/><path class="cls-1" d="M168.72,424.63a7.43,7.43,0,0,1-5.8,1.44l-1-3.44c2.12.36,4.2.64,5.32-.6,1.32-2,0-3.92-1.28-5.72a36.65,36.65,0,0,0-3.4-3.88,56.5,56.5,0,0,0,4.44-8.76h-6v31h-3V400.76H170.4v2.68a65.52,65.52,0,0,1-4.16,8.56c1.88,2.08,4,4.48,4.52,7.44A5.26,5.26,0,0,1,168.72,424.63Zm17.12,9.44v-2.64H175v2.64h-3V401.56h17v32.51Zm0-29.59H175v10.12h10.8Zm0,13H175v11h10.8Z"/><path class="cls-1" d="M211.12,433.11l0-31.75h30.67v2.88H214.12v26h29v2.88ZM236.27,429l-.64-1.12a56.39,56.39,0,0,0-6.52-8.8,45.4,45.4,0,0,1-10.64,10.16l-2.36-2.56a37.32,37.32,0,0,0,11-10,83,83,0,0,0-10.28-9.28l2.28-1.88a84,84,0,0,1,9.68,8.56,88.1,88.1,0,0,0,5.44-8.68l2.56,1.4c-1.36,2.64-2.44,4.64-3.84,6.84-.68,1-1.44,1.88-2,2.76a55.14,55.14,0,0,1,8,10.8Z"/><path class="cls-1" d="M261.8,430V427h14.56V407.2H263.92v-2.92h28.28v2.92H279.76V427h14.6V430Z"/><path class="cls-1" d="M345.39,434c-7.4-3.84-11.92-8.2-15.32-16.12-1.56,4.6-7.12,11.8-14.84,16l-2.4-2.36a39.24,39.24,0,0,0,7.28-5.44,26.24,26.24,0,0,0,6.56-8.72c2.32-4.72,2-11.72,2.12-17.52H332a106.37,106.37,0,0,1-.6,12.64,2.85,2.85,0,0,0,.48,1.88c3.24,8,7.52,13.48,15.84,17Z"/><path class="cls-1" d="M398.35,427.23a24.6,24.6,0,0,1-9.08-13.16L388.15,410l-.08,14.12h6.48V427h-6.48v7.68h-3V427h-6.32v-2.92H385V411.59a29.77,29.77,0,0,1-10,15.64l-2.12-2.16v9.44h-3v-19c-.12.12-2.44,3.12-3.68,4.28-1.12-.64-1.48-1.16-2.68-1.8,4.72-4.12,8.2-12.24,9.76-19.12l2.64,1.28a35.79,35.79,0,0,1-3,10v14.8c3.48-3.16,6.2-6.52,7.56-10.28.64-1.8,1.16-3.56,1.56-5h-7.52v-2.92H385V399h3v7.76H399v2.92h-7.92a36.21,36.21,0,0,0,3.2,8.64,24.17,24.17,0,0,0,6.36,6.6C399.83,425.75,399.19,426.43,398.35,427.23Z"/><path class="cls-1" d="M433.48,405.48a26.63,26.63,0,0,1-6.76,5.08L441,409.4a14.53,14.53,0,0,0-2.72-1.56l1.88-1.92a33.32,33.32,0,0,1,9.6,6.84l-2.16,2.12c-.92-1-2.16-2.16-3.28-3.16l-23,2.32-1.56-2.72a31.37,31.37,0,0,0,9.44-5.84H417.68v-2.92h14a14.52,14.52,0,0,0-3-2.52l2.6-1.64a15.48,15.48,0,0,1,4.24,4.16h14.72v2.92Zm10.32,28c-1.56,1-3.76.4-5.68.56l-1.16-3.2,4.28.24a1,1,0,0,0,1-1v-2.6H426.12v6.4h-3V414.39h22.28v16.68A3.6,3.6,0,0,1,443.79,433.51Zm-1.6-16.2H426.12v2h16.08Zm0,5H426.12v2.48h16.08Z"/><path class="cls-1" d="M480.12,413.83l-2.52-1.48a16.53,16.53,0,0,0,1.92-3.72h-4.4a21.85,21.85,0,0,1-4.76,7.92l-2.48-2c4-4.4,5.8-9.56,6-15.56l3,1a38.84,38.84,0,0,1-.88,5.8h6.56v2.84A22.58,22.58,0,0,1,480.12,413.83Zm-5.52,20.32-2-2.6a3.08,3.08,0,0,0,1.76-2.88V412.83h3v16.24l5.24-3.4v3.4C479.88,430.71,477.92,432,474.6,434.15Zm24.88-24.76v-3.52h-13v3.52h-3V403h8.68a9.73,9.73,0,0,0-3.8-2.76l2.28-1.84a12.27,12.27,0,0,1,5.2,4l-1.24.56,8,0v6.44Zm-1.4,25.4v-2.64H489v2.64h-3V410.23h14v9.52H489v2.72h12.16v12.32Zm-1.2-21.64H489v3.68h7.92Zm1.2,12.24H489v3.84h9.12Z"/><path class="cls-1" d="M522.44,431.91l-2.36-2.6a34.73,34.73,0,0,0,11.76-9.72l2.12,1.92C531.36,425.71,526.88,429.39,522.44,431.91Zm12.08-25.08-5,8.36h7.16v-5.32h3v5.32h12.48v2.92H539.72v13.68a3.37,3.37,0,0,1-2.32,2.76,14.33,14.33,0,0,1-4,.2l-1.16-3,3.92.2a.55.55,0,0,0,.52-.44v-13.4H525.56v-2.68l5.28-8.6h-10.6v-2.92h12.2l2.32-4.6,2.76,1.08-1.8,3.52h18.64v2.92Zm17.44,25a44.63,44.63,0,0,0-10.68-9.72L543,420a46.31,46.31,0,0,1,11.4,9.44Z"/><path class="cls-1" d="M606.43,421a31.71,31.71,0,0,1-9.84-5.72,31.24,31.24,0,0,1-7.16,4.4l13.72.08v14.88H600v-2.08h-7.52l-.08,2.2h-3.16v-15c-.76.36-2.52,1-3.32,1.32L585.2,420h-3.44v6.72c1.28-.52,3.28-1.32,5.4-2.08v3.08c-2,.84-3.76,1.56-5.48,2.32l-8.4,3.6-.16-.36-2-2.32c1.16-.48,1.92-.64,2.48-.92V416h3v12.84l2.12-.84V412.71H574.2V400.84h11.44v10.08c3.4-3.4,4.84-7.6,6.32-12.32l2.8,1a15,15,0,0,1-1,2.92h10.56V405a19.37,19.37,0,0,1-5.52,8.28c2.12,2,6.2,4,9.92,5.32Zm-23.8-17.28H577.2v6h5.44Zm8.72,4.52a21,21,0,0,1-3.72,4.92l-2-1.24v.76h-3.88v4.4h3.88v1a32.21,32.21,0,0,0,9-5A38.51,38.51,0,0,1,591.36,408.28ZM600,422.71H592.4v7H600Zm-6.84-17.28a24.5,24.5,0,0,0,3.6,5.68,19.83,19.83,0,0,0,3.88-5.68Z"/><path class="cls-1" d="M633.18,402h5.2v20h3.44v3.66h-3.44v6.45h-3.66v-6.45H623.93V422Zm1.55,20V406.57L627.59,422Z"/><path class="cls-1" d="M672.42,416.11c-.32,1-.6,2.32-.88,3.16h16a57.37,57.37,0,0,1-3.16,12.52,4,4,0,0,1-3.88,2.64,16.66,16.66,0,0,1-4.12-.8l-1.16-3.84a20.17,20.17,0,0,0,5,1.6,1.34,1.34,0,0,0,1.24-.68,33.81,33.81,0,0,0,2.48-8.52H667.34l1.8-6.08H658.7v-2.76h34.07v2.76Zm-7.32-4.48v-11.2h21.08v11.2Zm18-8.28h-15v5.36h15Z"/></g></g></svg>