<svg xmlns="http://www.w3.org/2000/svg" xmlns:xlink="http://www.w3.org/1999/xlink" viewBox="0 0 106.99 200.86"><defs><style>.cls-1{fill:none;}.cls-2{fill:#f8ee4c;}.cls-3{fill:#dd2a2a;}.cls-4{clip-path:url(#clip-path);}.cls-5{font-size:27.72px;fill:#fff;font-family:MHeiPRC-Light-GBpc-EUC-H, MHeiPRC;}</style><clipPath id="clip-path"><path class="cls-1" d="M53.24,72.59a35.9,35.9,0,0,0-21.05,7c-.47.34-.92.7-1.36,1.06-.69.56-1.36,1.15-2,1.76l-.59.58c-.62.62-1.21,1.26-1.78,1.92s-1,1.16-1.44,1.76c-.58.77-1.14,1.56-1.65,2.37a35.31,35.31,0,0,0-5.55,17.39,35.72,35.72,0,0,0,9.37,25.83c.13.16.27.3.41.45l.63.64.59.58c.65.61,1.31,1.2,2,1.76.44.37.89.72,1.36,1.06a35.74,35.74,0,0,0,42.35.17c.75-.55,1.48-1.12,2.18-1.73.32-.27.63-.56,1-.84s.71-.67,1-1l.63-.64.41-.45a35.55,35.55,0,0,0,3.83-43.19c-.52-.81-1.07-1.6-1.66-2.37-.45-.6-.93-1.19-1.43-1.76s-1.16-1.3-1.78-1.92c-.34-.34-.7-.68-1-1s-.63-.57-1-.84c-.7-.6-1.43-1.18-2.18-1.73a35.56,35.56,0,0,0-20.59-6.86h-.7Z"/></clipPath></defs><title>Asset 37</title><g id="Layer_2" data-name="Layer 2"><g id="Layer_1-2" data-name="Layer 1"><path class="cls-2" d="M0,0V104.41a53.49,53.49,0,0,0,107,0h0V0Z"/><path class="cls-3" d="M84.67,5H5v99.36a48.13,48.13,0,0,0,9,28,49.05,49.05,0,0,0,39.86,20.4,48.54,48.54,0,0,0,41-22.91,48,48,0,0,0,7.29-25.45V5Z"/><polygon class="cls-2" points="11.08 11.52 11.08 36.3 36.01 36.3 36.01 31.42 16.07 31.42 16.07 16.4 35.96 16.4 35.96 11.52 11.08 11.52"/><polygon class="cls-2" points="41.05 11.43 66.07 11.43 66.07 16.4 46.03 16.4 46.03 21.47 66.07 21.47 66.07 26.44 46.03 26.44 46.03 36.29 41.05 36.29 41.05 11.43"/><path class="cls-2" d="M76,16.4h15v5.07H76Zm-5-5V36.3h5V26.44h15V36.3h5V11.43Z"/><path class="cls-2" d="M53.19,61.69a42.64,42.64,0,0,0-25,8.36q-.82.6-1.62,1.26-1.23,1-2.37,2.1l-.71.68c-.73.73-1.44,1.49-2.12,2.28s-1.16,1.38-1.71,2.1c-.69.91-1.35,1.85-2,2.82A42,42,0,0,0,11.07,102a42.55,42.55,0,0,0,11.14,30.72l.5.54.74.76.71.68q1.14,1.1,2.37,2.1.79.64,1.62,1.26a42.5,42.5,0,0,0,50.36.2c.9-.65,1.76-1.34,2.6-2.06.38-.32.76-.66,1.13-1s.84-.8,1.25-1.21l.75-.76.49-.53A42.49,42.49,0,0,0,95.86,102a42,42,0,0,0-6.58-20.66c-.62-1-1.28-1.92-2-2.83-.54-.72-1.11-1.42-1.7-2.1s-1.38-1.54-2.12-2.27c-.41-.41-.83-.82-1.25-1.21s-.75-.67-1.13-1c-.84-.72-1.7-1.4-2.6-2.06A42.35,42.35,0,0,0,54,61.7h-.84Z"/><g class="cls-4"><rect class="cls-3" x="17.36" y="72.59" width="72.21" height="71.32"/></g><polygon class="cls-3" points="65.17 68.84 62.76 68.04 64.24 70.1 62.74 72.13 65.15 71.37 66.63 73.42 66.64 70.89 69.06 70.12 66.66 69.33 66.67 66.8 65.17 68.84"/><polygon class="cls-3" points="75.35 73.83 73.56 72.57 74.27 74.65 72.52 75.97 74.72 75.93 75.45 78 76.08 75.91 78.29 75.85 76.48 74.6 77.12 72.5 75.35 73.83"/><polygon class="cls-3" points="52.43 66.14 49.09 66.14 51.8 68.1 50.76 71.27 53.47 69.31 56.17 71.27 55.14 68.1 57.84 66.14 54.5 66.14 53.47 62.97 52.43 66.14"/><polygon class="cls-3" points="40.37 69.33 37.96 70.12 40.38 70.89 40.39 73.42 41.87 71.37 44.29 72.13 42.78 70.1 44.26 68.04 41.85 68.84 40.35 66.8 40.37 69.33"/><polygon class="cls-3" points="30.54 74.6 28.74 75.85 30.94 75.91 31.57 78 32.3 75.93 34.5 75.97 32.75 74.64 33.47 72.57 31.66 73.83 29.9 72.5 30.54 74.6"/><path class="cls-2" d="M45.41,43.06h6.42v7.55H45.41v5.67H43.7V50.61H37.45V43.06H43.7V40h1.71c0,.14,0,3.11,0,3.11M39.11,49H43.7V44.68H39.11Zm6.3,0h4.67V44.68H45.41Z"/><path class="cls-2" d="M54.71,56.33H69.58V40.75H54.71ZM67.85,54.8H56.35V42.28h11.5Z"/><polygon class="cls-2" points="62.82 51.68 66.89 51.68 66.89 53.08 57.42 53.08 57.42 51.68 61.28 51.68 61.28 48.98 58.15 48.98 58.15 47.63 61.28 47.63 61.28 45.39 57.64 45.39 57.64 44.01 66.56 44.01 66.56 45.39 62.82 45.39 62.82 47.63 66.17 47.63 66.17 48.98 62.82 48.98 62.82 51.68"/><polygon class="cls-2" points="66.05 50.67 65.11 51.47 63.9 50.05 64.83 49.25 66.05 50.67"/><path class="cls-2" d="M24.28,118.81a7.34,7.34,0,0,1,0-4,11.93,11.93,0,0,0,2,5.22,4,4,0,0,1,.12-2.7c.05-.16.09-.29.12-.42a5.06,5.06,0,0,0,1.38,2,7.33,7.33,0,0,1,0-4,7.68,7.68,0,0,0,1.78,4c-.06-.78.62-1.53.72-2.19a.66.66,0,0,0,0-.14,5.41,5.41,0,0,0,.39.52,5.91,5.91,0,0,1,.33-3.14,10.07,10.07,0,0,0,1.3,4.21,2.89,2.89,0,0,1,.13-2.06c.6-1.35.62-1.78.26-2.55s-1.1-1.87-.9-2.93a6.27,6.27,0,0,0-2.11,3.94c-.09-.15-.18-.31-.28-.46a5.93,5.93,0,0,1-1.09-3.51,10.1,10.1,0,0,0-2,3.62,1.63,1.63,0,0,0-.11-.17c-.57-1-1.65-2.22-1.54-3.59-1.38,1.69-3.74,5.4-.5,8.34"/><path class="cls-2" d="M58.53,113.15c1-.91,1.79-.17,2.31,0a3.47,3.47,0,0,0-.64.24,2.34,2.34,0,0,1-.92.25.75.75,0,0,1-.75-.53m-1-4.36a6.1,6.1,0,0,0-2.83,1.06c1.82-1,6.86-1.4,6.9,2.29-1.91-1.09-3.4-.33-4.81.44s-2.59,1.43-4.08.62a3.67,3.67,0,0,1-1.27-1c.1,2.15,2.69,3.39,4.49,2.82-.27,2.43.48,4,2.66,5.52,1.39,1,3.51,1.9,2.41,3.69a1.81,1.81,0,0,1-2.25.4c-1-.58-1.54-4.32-7.29-6.28a2.91,2.91,0,0,1-2.13,2.46,2.77,2.77,0,0,1-3.35-2,2.7,2.7,0,0,0,.7,1,2.46,2.46,0,0,0,3.58-.23,2.73,2.73,0,0,0-.28-3.73,2.6,2.6,0,0,0-.51-.36,3.12,3.12,0,0,0-.68-.25,10.29,10.29,0,0,0-3.11,0,11.59,11.59,0,0,1-6.84-1c-1.14-.61-3.51-1.73-4.49-4.16.08,3.25,1,7.32,9.43,8.55-.72.52-5.52.65-7.14,0,1.21,2.07,7.15,4,9.68,3.94-.73.54-3.73.57-4.8.38,2.08,1.79,6.25,2.23,10,1.53-.26.57-1.83,1.21-3.29,1.47a6.86,6.86,0,0,0,4.91.84,4,4,0,0,1,2.71.21,2.72,2.72,0,0,1,1.48,2.85,2.48,2.48,0,0,1-.64,1.33,2.13,2.13,0,0,0,.31-1.24,2.64,2.64,0,0,0-.67-1.81,10.32,10.32,0,0,1-6.52.18,13.94,13.94,0,0,1-5-2.81,6.77,6.77,0,0,0,3,3.13c-2,.23-4.18-1.26-5.3-1.92A7,7,0,0,0,46.74,130c-10.9-1.61-15.31-12.83-15.31-12.83s3.46,12.23,14.88,14.16c-12.5.08-17.73-13.19-17.73-13.19A20.85,20.85,0,0,0,47.3,133.17c-16.93,1.24-22.66-14.89-22.66-14.89s3.54,17.15,23.83,17.45a6.64,6.64,0,0,1-3.09,2.52c2.81.66,5.79-.78,8.28-2.21a7.21,7.21,0,0,1-3.45,3.1c2.2.24,4.79-1,7.77-2.94A8.11,8.11,0,0,1,55.33,139a14.15,14.15,0,0,0,11.54-10c2.61,1,7,1.69,9,.63a8.91,8.91,0,0,1-4-2.17c1.69.21,5.94.36,8.08-1.52-1.18.25-6-.53-6.89-1.73,2.71-.07,7,.33,10-4-2,1.27-6.84,1.58-9.48.57,2.51-.49,11.09-1.89,11.78-11.39a10.47,10.47,0,0,1-11.06,6.91,3.18,3.18,0,0,1-.59,3.34,2.62,2.62,0,0,1-1.15.72,2,2,0,0,1-.06,1.15,1.93,1.93,0,0,1-2.49,1.16,1.44,1.44,0,0,1-.39-.2,1.8,1.8,0,0,0,2.29-1.1,1.87,1.87,0,0,0,.1-.9,2.14,2.14,0,0,0-.06-.27,3.16,3.16,0,0,0,.71-.25h0a2.49,2.49,0,0,0,1.3-2,2.55,2.55,0,0,0-1.55-2.55l-.3-.1a2.49,2.49,0,0,0-2.6.94c-1.72,2.07-1.53,7.26-3.32,7.75-.91-4.95-8.65-5.35-7.83-7.24a2,2,0,0,0,2.14-.27c.44-.32.9-.11,1.37.09a1.48,1.48,0,0,0,2.21-.67c-.35.21-.7.27-1.54,0s-.78-.6-.5-1.15a2,2,0,0,1,1.49-1c.71-.09,1.33,0,1.39,1.08,1.58-3-1.12-3.64-2.8-2.33,0-.18,0-.35,0-.52a1.26,1.26,0,0,0,.66-1.52,1.28,1.28,0,0,0-1.16-.87,1.25,1.25,0,0,0-.56-1.25,1.22,1.22,0,0,0-1.48.12,1.08,1.08,0,0,0-.89-.7h-.13a1.09,1.09,0,0,0-1.07.93"/><path class="cls-2" d="M61.87,80a2.81,2.81,0,0,0-1,.19,7.39,7.39,0,0,1,3.06,1,12.17,12.17,0,0,0-4.46-.07,2.67,2.67,0,0,1,1.49.62c.66.58,1.05,1.23,2,1.19s2-.32,2.84.18c0,0-.84-2.5-2.84-3a4.21,4.21,0,0,0-1-.13h0"/><path class="cls-2" d="M53.08,91.62h0a4.91,4.91,0,0,0-2.38.58,1.67,1.67,0,0,0-.7,2.15c.43-.91,1-.91,1-.91a1.62,1.62,0,0,0,0,1.75c.37-1.06,1-1,1-1a2.24,2.24,0,0,0,0,1.28,26.11,26.11,0,0,0,2.18-2.35s.41-.51,1-1.16a7.1,7.1,0,0,0-2.09-.33Z"/><path class="cls-2" d="M46.17,83.82a1.2,1.2,0,0,0,.75,0,1.78,1.78,0,0,1,.61,0c.47.1.56.44.71,1.08a1.45,1.45,0,0,0-1.09-.31c-.47,0-.95,0-1.67-.91a11,11,0,0,1-.92-2c-.08-.18-.53-1.73-3-2.08a4.45,4.45,0,0,0-4.47,2.33c-.58,1-.28,2-2.19,3.42a4.22,4.22,0,0,0,1.82-1.54c1.18-2.36,1.91-3,3.2-3.21S42.79,80.4,43.7,83c-1,1-2.3.08-3.28-.81a6.44,6.44,0,0,0,.18,2.1,8,8,0,0,0-7,6.57,11.81,11.81,0,0,0-.33,2.7,13,13,0,0,0,1.32,6,7.82,7.82,0,0,0,2.54,2.88,3.48,3.48,0,0,1-2,.39,4.37,4.37,0,0,1-.94-.26,18.42,18.42,0,0,0-2.45-.92,14.59,14.59,0,0,0-6.92.07c-1.12.37-2.62,1.47-2.78,2.75a1.72,1.72,0,0,0,.12.84,2.4,2.4,0,0,0,.52.8c.19-.69.37-1.46,1.36-1.61a1.84,1.84,0,0,0,1.22,1.7,1.46,1.46,0,0,1,1.38-1.69c-.1.34.1,1.17,1.13,1.63,0-.94.81-2.33,2.79-2.64a5.55,5.55,0,0,1,4.21,1.27,6.5,6.5,0,0,0,3.31,1.42,4.29,4.29,0,0,0,2.79-.75,5.18,5.18,0,0,0,.88-.78,3.56,3.56,0,0,0,.73-1.83,4.55,4.55,0,0,0-.23-2,2.89,2.89,0,0,1,.69,1.34,4.58,4.58,0,0,1-.4,2.69c5.37,1.32,10.59.29,14.8-5.18a32.27,32.27,0,0,1,3.31-4.17A4.58,4.58,0,0,1,63,92.49a3.19,3.19,0,0,1,4.27.86,3.19,3.19,0,0,0-4.38-.2,4.33,4.33,0,0,0-1.52,3.42,3,3,0,0,0,1.51,2.52c2,1.19,2,.91,3,1.67.64.6,1.36,1.22.9,2-.17.31-.93.3-1.22.28a5.55,5.55,0,0,1-1.64-.4,17.89,17.89,0,0,0-2.8-.79,7.35,7.35,0,0,0-2.52,0,3.91,3.91,0,0,0-3.23,2.46,1.61,1.61,0,0,0,.51,1.71c.13-.86.39-1.58,1.41-1.59a1.74,1.74,0,0,0,.89,1.62,1.43,1.43,0,0,1,1.59-1.57,1.94,1.94,0,0,0,.78,1.68c.12-.91.47-1.87,2.39-2a6.12,6.12,0,0,1,2.7.67,10.92,10.92,0,0,0,1.64.5,3,3,0,0,0,2.48-.73,1.78,1.78,0,0,0,.55-.79,4.08,4.08,0,0,0,0-1.76c-.37-1.91-2.57-3-2.57-3a4.85,4.85,0,0,1,3,3,3.7,3.7,0,0,1-.15,2.93c2.87,1.62,7.33,1.24,7.33,1.24a6.05,6.05,0,0,0,5.17-3c1.38-2.54,1.21-7.59-3.13-11.9-5.14-5.1-13.71-6.54-19.73-6.48a12,12,0,0,1-1.58-.06c-2.6-.28-3.13-1.4-2.9-2.2.34-1.18,1.9-1.58,3-1.82a11.85,11.85,0,0,1,1.68-.2,2.91,2.91,0,0,1,.72,0c-4.86-.87-7.41,1.84-6.15,4,.9,1.53,4.94,1.53,4.94,1.53a32.13,32.13,0,0,1,8.51,1.44c7.82,2.61,10.93,6.64,11.68,10,.82,3.64-2.57,4.09-4.57,3.52a9.44,9.44,0,0,1-4.09-2.53,2.26,2.26,0,0,1,1.86-.08c-.56-1.56-3-1.93-3-1.93.56-.75,1.92-.56,1.92-.56a3.55,3.55,0,0,0-1.71-1.45,9,9,0,0,0-1.92-.59c.61-.76,2.15-.47,2.15-.47a5,5,0,0,0-1.21-1,9.38,9.38,0,0,0-3.31-1.14A4,4,0,0,1,68.87,91c-.37-1-3-2.83-6-2.86a7.55,7.55,0,0,0-6.12,3.05A51.75,51.75,0,0,1,51.26,97a8.66,8.66,0,0,1-3.16,1.76c-.88.26-1.15.12-1.22,0s.1-.61.32-.89a10.52,10.52,0,0,1,1.95-1.6c-3.27-1-7,1-7,1-.13-1.89,2.65-2.59,2.65-2.59-2.45-1.27-5.8-.09-5.8-.09.37-1.47,2.75-1.8,2.75-1.8-1.27-1.14-2.41-.68-3.09-1.54-.83-1,.18-2.43.18-2.43a3.76,3.76,0,0,1,1.45-1.3,4.39,4.39,0,0,0-1,2.45c.82-.83,2-1.87,2.83-1.6A3,3,0,0,0,42.3,91a3.34,3.34,0,0,1,3.37-2.65,2.89,2.89,0,0,1-.92,2.13A4.48,4.48,0,0,0,48,88.79c.28.37.11,1.18-.63,1.71,1.33,0,3.17-.87,3-2.83-.43,1.06-.74.7-1.33.48-2.05-1.06-3.66-.05-2.7-1.48.46-.69,1.24-.36,2.07,0s1.64.65,2.28,0c.19.11.28.47.11.91.68-.25.77-.78,1-1.34.27.14.33.57.29,1,2-.91.46-5-.93-2.54a2.89,2.89,0,0,0-2.07.12c.33-3.23-3.87-1.65-3.13-5.69a3,3,0,0,0,.23,4.69"/><path class="cls-2" d="M28.06,86.51c.57.25,1.19.45,1.17,1.32a1.64,1.64,0,0,0-1.66.67c.58.15,1.5.3,1.3,1.38-.4-.15-.93-.08-1.51.56a1.93,1.93,0,0,1,1.22.52c1.91,2.32-.47,4.71.51,7.72A2.21,2.21,0,0,0,32,100.25a10.84,10.84,0,0,0,2.22-.7A12.54,12.54,0,0,1,33.07,96c-1.13.54-1.83.24-2.15-.82a10,10,0,0,1,.37-3.86,8.44,8.44,0,0,0,.11-2.51c-.21-1.65-.75-2.35-1.85-2.61a1.69,1.69,0,0,0-.33,0,2.22,2.22,0,0,0-1.16.33"/><text class="cls-5" transform="translate(24.7 198.09) scale(1.1 1)">中国</text></g></g></svg>