<svg xmlns="http://www.w3.org/2000/svg" xmlns:xlink="http://www.w3.org/1999/xlink" viewBox="0 0 143.18 189.69"><defs><style>.cls-1{fill:none;}.cls-2{font-size:27.72px;font-family:MHeiGB5-Bold, MHeiGB5 Bold;font-weight:700;}.cls-2,.cls-5{fill:#fff;}.cls-3{fill:#861719;}.cls-4{fill:#2babe2;}.cls-6{clip-path:url(#clip-path);}.cls-7{fill:#f7d87f;}</style><clipPath id="clip-path"><path class="cls-1" d="M18.57,56.27c3.37,28.7,14.37,70.25,49.35,83.28,35-13,46-54.58,49.36-83.28Z"/></clipPath></defs><title>Asset 31</title><g id="Layer_2" data-name="Layer 2"><g id="Layer_1-2" data-name="Layer 1"><text class="cls-2" transform="translate(6.94 181.66) scale(1.1 1)">天津權健</text><path class="cls-3" d="M123.46,23C84.86,27.93,67.91.69,67.91.69S51,27.93,12.39,23c0,0-4.94,100.35,55.52,122.86C128.39,123.35,123.46,23,123.46,23Z"/><path class="cls-4" d="M118.62,27.37C83.39,31.87,67.91,7,67.91,7S52.45,31.87,17.21,27.37c0,0-4.5,91.62,50.7,112.18C123.13,119,118.62,27.37,118.62,27.37Z"/><path class="cls-5" d="M97.87,96.87a26.39,26.39,0,0,0,.72-4.52c1.47-.63,5.54-2.93,4.28-8.76,0,0-2.81,1.26-4.18,5.53,0-1.73-.12-3.44-.27-5.12a1.45,1.45,0,0,1,0-.3c1-.93,3.24-3.89,1.06-9,0,0-1.57,1.15-1.93,4.34a27.64,27.64,0,0,0-.94-2.87c.17-.46,2-5.29-1.07-7.73A13.36,13.36,0,0,0,95,72.76a19.33,19.33,0,0,0-2.13-3.2c-.3-3.24-4.26-4.6-4.26-4.6.3,3,3,4.35,4,4.72a25.07,25.07,0,0,1,2.31,3.76,14.28,14.28,0,0,0-3.78-2.07s1,4.47,5,4.8a30.63,30.63,0,0,1,1.39,4.5v.27s-2-3.38-3.39-3c0,0,.44,5.21,3.93,6.11a51.94,51.94,0,0,1,.23,5.45c-.41-1-1.39-3.18-2.73-3.83,0,0-1.73,4,2.53,6.89a27.3,27.3,0,0,1-1.19,5.61c-.33.44-.62.9-.94,1.41,0,0,.24-4.37-1.27-5.11,0,0-2.48,4.61.71,7.35a29.77,29.77,0,0,1-4.58,6.61c.25-.91.82-3.78-.61-5.22,0,0-3,3.76-1.22,7.12l-4,2.53a4.15,4.15,0,0,0,.27-4.21,5.45,5.45,0,0,0-3.16,6l-1.93,1.2a18.73,18.73,0,0,1-2.53-1c-2.38-1.17-6-.61-9.66,1.05-3.68-1.64-7.31-2.21-9.65-1.05a19.86,19.86,0,0,1-2.53,1l-1.93-1.2a5.46,5.46,0,0,0-3.17-6,4.11,4.11,0,0,0,.27,4.2l-4-2.52c1.73-3.37-1.2-7.13-1.2-7.13-1.47,1.44-.85,4.31-.62,5.22a30,30,0,0,1-4.57-6.61c3.16-2.74.7-7.35.7-7.35-1.51.74-1.31,5.11-1.31,5.11a12.18,12.18,0,0,0-.9-1.38,29.62,29.62,0,0,1-1.2-5.62c4.27-2.88,2.55-6.91,2.55-6.91-1.35.65-2.34,2.81-2.73,3.83A51.83,51.83,0,0,1,37.84,84c3.48-.9,3.91-6.11,3.91-6.11-1.34-.35-3.36,3-3.36,3v-.27a26.46,26.46,0,0,1,1.39-4.5c4-.33,5-4.8,5-4.8A13.89,13.89,0,0,0,41,73.44a30.43,30.43,0,0,1,2.31-3.76c1-.37,3.65-1.69,4-4.72,0,0-4,1.39-4.26,4.6a21.64,21.64,0,0,0-2.14,3.2,13.2,13.2,0,0,0-.55-4.31c-3.09,2.44-1.2,7.29-1,7.71A19.57,19.57,0,0,0,38.34,79c-.36-3.18-1.93-4.32-1.93-4.32-2.18,5.11.09,8,1,9a1.45,1.45,0,0,1,0,.3c-.15,1.7-.27,3.39-.29,5.13C35.8,84.85,33,83.6,33,83.6c-1.24,5.83,2.81,8.12,4.3,8.78A24.66,24.66,0,0,0,38,96.87a10.27,10.27,0,0,0-4.84-3.24c-.87,4.86,4.49,7.32,6.5,8.05A25.16,25.16,0,0,0,42,105.87a13.07,13.07,0,0,0-4.1-2c1.07,7.78,8.52,7.18,8.52,7.18l4,2.61c-1.89-.32-5.34-.67-7.33.25,0,0,3,3.73,10.27,1.66l1,.68a32.22,32.22,0,0,1-6.31,1.15c3.45,2.87,10.18-.53,10.18-.53a6.27,6.27,0,0,1,8.06.68h3.18a6.3,6.3,0,0,1,8.07-.67s6.7,3.4,10.18.53a32.35,32.35,0,0,1-6.31-1.15l1-.68c7.22,2.07,10.28-1.66,10.28-1.66-2-.92-5.46-.57-7.35-.25l4-2.61s7.45.6,8.54-7.18a13,13,0,0,0-4.1,2,29.28,29.28,0,0,0,2.38-4.19c2-.75,7.36-3.2,6.5-8.05A10.22,10.22,0,0,0,97.87,96.87ZM81,69.65s-4.31-3.77-12-4V72S73.88,72.3,81,69.65ZM85.62,74a22.29,22.29,0,0,0-3-3.12s-5,2.76-13.62,3V78S78,78.12,85.62,74Zm1.08,1.38s-5.61,4-17.64,4.44v8.17s4.4,5.38,11.32,5.38c10.32,0,9.75-9.5,9.68-10.35A18,18,0,0,0,86.7,75.33ZM69,111c7.68-.28,12-4,12-4-7.15-2.66-12-2.39-12-2.39Zm16.58-8.33C78,98.47,69,98.58,69,98.58v4.19c8.62.27,13.63,3,13.63,3A25.42,25.42,0,0,0,85.61,102.66ZM69.06,90.89v5.93c12,.47,17.64,4.46,17.64,4.46,3.92-5.13,4-12,4-12-2,5.64-8.77,6-11,6C74.28,95.25,69.06,90.89,69.06,90.89ZM66.84,111v-6.42s-4.82-.27-12,2.39C54.85,107,59.16,110.71,66.84,111Zm.08-12.41s-9-.11-16.66,4.08a25.93,25.93,0,0,0,3,3.13s5-2.75,13.65-3Zm-.08-9.92S62.42,83.3,55.51,83.3c-10.33,0-9.81,9.27-9.68,10.33a18.88,18.88,0,0,0,3.36,7.65s5.6-4,17.65-4.46Zm0-16.62V65.62c-7.67.26-12,4-12,4C62.05,72.3,66.86,72,66.86,72Zm.08,6V73.84c-8.62-.25-13.65-3-13.65-3a23.23,23.23,0,0,0-3,3.13C57.93,78.12,66.94,78,66.94,78ZM56.17,81.35c5.44,0,10.67,4.36,10.67,4.36V79.78c-12.05-.47-17.65-4.45-17.65-4.45-3.92,5.12-4.08,12-4.08,12C47.15,81.71,53.9,81.35,56.17,81.35Z"/><rect class="cls-3" x="17.13" y="54.18" width="102.68" height="2.09"/><path class="cls-3" d="M18.57,56.27c3.37,28.7,14.37,70.25,49.35,83.28,35-13,46-54.58,49.36-83.28Z"/><path class="cls-3" d="M67.91,146.56a.64.64,0,0,1-.23-.05c-13.94-5.18-25.56-14.94-34.53-29C26,106.34,20.48,92.42,16.8,76.13A222.21,222.21,0,0,1,11.69,23a.72.72,0,0,1,.24-.51.75.75,0,0,1,.54-.15,70.46,70.46,0,0,0,9.08.59h0C52.89,22.89,67.19.55,67.33.33A.68.68,0,0,1,67.91,0h0a.68.68,0,0,1,.6.33C68.65.55,83,22.89,114.29,22.89a70.46,70.46,0,0,0,9.08-.59.71.71,0,0,1,.53.15.7.7,0,0,1,.25.51A221.61,221.61,0,0,1,119,76.13c-3.69,16.29-9.18,30.21-16.34,41.42-9,14-20.6,23.78-34.53,29A.8.8,0,0,1,67.91,146.56ZM13.05,23.78a222.1,222.1,0,0,0,5.11,52.08c5.72,25.21,19,57.67,49.75,69.26,30.78-11.59,44.05-44.05,49.77-69.26a222.93,222.93,0,0,0,5.12-52.08,72.85,72.85,0,0,1-8.51.51C85.72,24.29,71,6.12,67.91,1.91c-3,4.21-17.8,22.38-46.36,22.38h0A72.55,72.55,0,0,1,13.05,23.78Z"/><g class="cls-6"><rect class="cls-7" x="48.21" y="2.54" width="13.13" height="123.14" transform="translate(77.45 -17.1) rotate(56.11)"/><rect class="cls-7" x="65.03" y="24.6" width="13.13" height="123.14" transform="translate(103.2 -21.31) rotate(56.11)"/><rect class="cls-7" x="81.85" y="46.67" width="13.13" height="123.14" transform="matrix(0.56, 0.83, -0.83, 0.56, 128.97, -25.51)"/></g><path class="cls-3" d="M90.75,87.15A22.83,22.83,0,1,1,67.93,64.33,22.82,22.82,0,0,1,90.75,87.15Z"/><path class="cls-3" d="M83.26,117a17,17,0,0,1-6.68-1.72l-.09,0a5.44,5.44,0,0,0-2.91-.93,4.88,4.88,0,0,0-3.32,1.4l-.34.34-1.22,0v0l-2.75,0-.35-.35a4.86,4.86,0,0,0-3.33-1.41,5.44,5.44,0,0,0-2.9.93l-.09,0A17.08,17.08,0,0,1,52.59,117a6.41,6.41,0,0,1-4.24-1.37l-1.75-1.45a7.22,7.22,0,0,1-3.15-2l-.93-1.14,1.34-.62a7,7,0,0,1,2.18-.58,8.45,8.45,0,0,1-7.75-7.76l-.22-1.65,1.62.37a5.47,5.47,0,0,1,.64.19l-.12-.25c-2.23-.9-7.38-3.57-6.46-8.76L34,90.82l1.17.25a8.92,8.92,0,0,1,2.63,1.22c0-.18,0-.36,0-.54-1.84-1-5.32-3.68-4.12-9.32l.3-1.38,1.29.56a7.68,7.68,0,0,1,2.55,2.1c0-.18,0-.37.05-.56-1.2-1.41-2.92-4.53-.84-9.39l.57-1.33,1.17.85a2.33,2.33,0,0,1,.31.28c-.33-2.28.08-4.67,2-6.19l1.32-1.05.49,1.62a9.66,9.66,0,0,1,.27,1l.08-.11c.58-3.48,4.59-4.93,4.77-5l1.71-.6-.18,1.81a6.22,6.22,0,0,1-2.89,4.6l.93-.26-.42,1.88a7.59,7.59,0,0,1-3.66,4.89l.87.23-.08,1c0,.22-.45,5-3.77,6.54,0,.07,0,.14,0,.2a4.23,4.23,0,0,1,.81-.54l1.09-.53.47,1.12a6.5,6.5,0,0,1-2.25,7.55c.08.54.17,1.08.27,1.61A2.74,2.74,0,0,1,42,92l1-.49.52,1c.11.2,2.4,4.58-.26,7.73a24.68,24.68,0,0,0,1.58,2.54A4.1,4.1,0,0,1,46,100.46l.92-.91.8,1c.12.16,2.7,3.53,1.65,7l.56.35a4.61,4.61,0,0,1,.59-2.08l.53-.85.91.4a6.11,6.11,0,0,1,3.75,6.15l.77.48a17.56,17.56,0,0,0,1.76-.75c2.3-1.14,5.81-.85,9.68.78,3.84-1.64,7.33-1.93,9.68-.78a15.08,15.08,0,0,0,1.75.75l.77-.48a6.14,6.14,0,0,1,3.74-6.16l.93-.42.53.87a4.87,4.87,0,0,1,.57,2.09l.56-.36c-1-3.48,1.55-6.86,1.67-7l.81-1,.92.93A4.21,4.21,0,0,1,91,102.72a24.92,24.92,0,0,0,1.59-2.55c-2.12-2.53-1.17-6.09-.28-7.73l.53-1,1,.49A2.7,2.7,0,0,1,95,93.33c.11-.53.2-1.08.27-1.63a6.46,6.46,0,0,1-2.23-7.54l.48-1.11,1.08.53a3.88,3.88,0,0,1,.8.54c0-.06,0-.13,0-.2-3.34-1.51-3.78-6.32-3.8-6.54l-.08-.95.89-.25a7.63,7.63,0,0,1-3.66-4.88l-.41-1.89.88.25a6.2,6.2,0,0,1-2.86-4.59l-.18-1.78,1.7.58c.18.06,4.2,1.48,4.78,5l.08.1c.13-.58.25-1,.26-1l.49-1.62,1.33,1c2.15,1.7,2.31,4.25,2,6.21a2.42,2.42,0,0,1,.32-.29l1.17-.86.57,1.34c2.12,5,.24,8.12-.86,9.41,0,.18,0,.36,0,.56a7.89,7.89,0,0,1,2.54-2.12L102,81l.3,1.39c1.23,5.7-2.26,8.35-4.1,9.32l-.06.56a9,9,0,0,1,2.63-1.22l1.17-.25L102.1,92c.9,5.05-3.9,7.72-6.46,8.76l-.12.25a5.13,5.13,0,0,1,.66-.19l1.62-.37-.23,1.65a8.47,8.47,0,0,1-7.76,7.76,7.28,7.28,0,0,1,2.2.57l1.36.62-1,1.16a7.49,7.49,0,0,1-3.14,2l-1.78,1.47A6.48,6.48,0,0,1,83.26,117Zm1.19-4.62a10.54,10.54,0,0,0,1.24.07,8.62,8.62,0,0,0,2.74-.42h-.29a22.21,22.21,0,0,0-3.4.3Zm-37-.35a8.51,8.51,0,0,0,2.73.42,10.71,10.71,0,0,0,1.25-.07l-.29,0a22.34,22.34,0,0,0-3.4-.3Zm4.82-3.77a3.26,3.26,0,0,0,.51,1.56l.66,1.08A3.82,3.82,0,0,0,52.24,108.29Zm31.36,0a3.83,3.83,0,0,0-1.16,2.64l.66-1.08A3.31,3.31,0,0,0,83.6,108.29Zm-42.49-4.46a5.88,5.88,0,0,0,4.7,3.66l-.44-.48c-.27-.3-.53-.6-.78-.91l-1.93-1.33A14.29,14.29,0,0,0,41.11,103.83Zm50.16,2.27c-.26.3-.52.61-.8.91l-.43.48a5.89,5.89,0,0,0,4.71-3.66,13.44,13.44,0,0,0-1.56.94Zm-2.5-1.8a5.25,5.25,0,0,0-.25,1.6A8,8,0,0,0,88.77,104.3Zm-41.69,0a8.47,8.47,0,0,0,.25,1.6A5.25,5.25,0,0,0,47.08,104.29Zm49.4-7.41,0,.15-.11.15c-.24.33-.47.69-.71,1.06,1.65-.79,3.78-2.2,4.21-4.31a10.39,10.39,0,0,0-2.59,2.12ZM36,93.92c.41,2.14,2.53,3.54,4.19,4.32a9.08,9.08,0,0,0-.66-1l-.13-.17-.06-.19v0l-.72-.8A10.28,10.28,0,0,0,36,93.92Zm64.17-9.1a9,9,0,0,0-1.94,3.44l-.29.88A5.34,5.34,0,0,0,100.19,84.82Zm-64.54,0a5.38,5.38,0,0,0,2.19,4.3l-.27-.86A8.67,8.67,0,0,0,35.65,84.82Zm5.18,2.52a9.3,9.3,0,0,0-.61,1.33l-.06.15A4.11,4.11,0,0,0,40.83,87.34Zm54.2,0a4.17,4.17,0,0,0,.66,1.46l0-.13A12.81,12.81,0,0,0,95,87.36Zm2-7.91c0,.06,0,.12,0,.18l0,.25v.49a6,6,0,0,0,.36-3.43,7.69,7.69,0,0,0-.31,1.51ZM38.37,77a6.07,6.07,0,0,0,.35,3.35l0-.67,0-.22-.11-1A8.11,8.11,0,0,0,38.37,77Z"/><path class="cls-7" d="M32.53,47.57a8.16,8.16,0,0,0,2.09,1.09l-1,1.85A6.21,6.21,0,0,1,32.5,50c-.1-.06-.68-.44-1.73-1.15a7.08,7.08,0,0,1-2.83.56,6.13,6.13,0,0,1-4.76-1.84,6.94,6.94,0,0,1-1.62-4.87,7,7,0,0,1,1.61-4.85A6,6,0,0,1,27.87,36a5.93,5.93,0,0,1,4.67,1.86,7,7,0,0,1,1.59,4.84,8.44,8.44,0,0,1-.47,3A6,6,0,0,1,32.53,47.57Zm-2.1-1.49a5.1,5.1,0,0,0,1-3.36,5.45,5.45,0,0,0-.79-3.11,3.16,3.16,0,0,0-2.78-1.35,3.14,3.14,0,0,0-2.77,1.35,5.37,5.37,0,0,0-.81,3.11,5.6,5.6,0,0,0,.78,3.11,3,3,0,0,0,2.73,1.42,2.94,2.94,0,0,0,1.07-.19,7.5,7.5,0,0,0-1.63-.81l.74-1.5A9,9,0,0,1,30.43,46.08Z"/><path class="cls-7" d="M36.17,36.25H38.8v7a13.63,13.63,0,0,0,.1,2.18c.23,1.17,1.07,1.76,2.52,1.76s2.17-.52,2.35-1.57a15.92,15.92,0,0,0,.11-2.21V36.25h2.63v6.81a24,24,0,0,1-.09,2.57A4.36,4.36,0,0,1,45.51,48a5,5,0,0,1-4,1.45c-2.05,0-3.49-.52-4.33-1.55a3.67,3.67,0,0,1-.74-1.44,15.76,15.76,0,0,1-.25-3.29Z"/><path class="cls-7" d="M61,49.21H58.11L57,46.27H51.79l-1.06,2.94H48l5-13h2.78Zm-4.82-5.14-1.78-4.81L52.6,44.07Z"/><path class="cls-7" d="M62.38,49.21v-13h2.56l5.28,8.66V36.25h2.44v13H70l-5.21-8.45v8.45Z"/><path class="cls-7" d="M80.1,36.25h2.62v8.21a8.19,8.19,0,0,1-.28,2.47c-.56,1.68-1.9,2.51-4,2.51-2.65,0-4-1.41-4-4.24l2.47-.27a3.38,3.38,0,0,0,.32,1.58,1.39,1.39,0,0,0,1.29.7,1.36,1.36,0,0,0,1.4-.81,5.34,5.34,0,0,0,.2-1.77Z"/><path class="cls-7" d="M85.43,49.21v-13h2.62v13Z"/><path class="cls-7" d="M102.23,49.21H99.38l-1.13-2.94H93.06L92,49.21H89.22l5-13H97Zm-4.82-5.14-1.78-4.81-1.76,4.81Z"/><path class="cls-7" d="M103.65,49.21v-13h2.55l5.29,8.66V36.25h2.44v13H111.3l-5.21-8.45v8.45Z"/><path class="cls-7" d="M96.37,95.28a26.16,26.16,0,0,0,.69-4.3c1.4-.6,5.26-2.78,4.07-8.33,0,0-2.67,1.2-4,5.26,0-1.64-.11-3.27-.25-4.86a1.35,1.35,0,0,1,0-.29c.92-.89,3.08-3.69,1-8.56,0,0-1.49,1.09-1.83,4.12a25.56,25.56,0,0,0-.89-2.72c.16-.44,1.92-5-1-7.34a12.38,12.38,0,0,0-.52,4.11,18.64,18.64,0,0,0-2-3c-.28-3.08-4-4.37-4-4.37.28,2.88,2.85,4.13,3.77,4.48A24.15,24.15,0,0,1,93.48,73a13.37,13.37,0,0,0-3.58-2s.93,4.24,4.77,4.56A29.49,29.49,0,0,1,96,79.88v.26S94,76.93,92.77,77.28c0,0,.41,5,3.73,5.81a49.43,49.43,0,0,1,.21,5.17c-.38-1-1.31-3-2.58-3.64a5.37,5.37,0,0,0,2.4,6.54,27.13,27.13,0,0,1-1.13,5.33c-.32.42-.59.86-.9,1.35,0,0,.23-4.15-1.21-4.86,0,0-2.35,4.38.68,7a28.24,28.24,0,0,1-4.35,6.28c.24-.86.79-3.59-.58-5,0,0-2.81,3.57-1.15,6.76l-3.81,2.41a4,4,0,0,0,.26-4,5.2,5.2,0,0,0-3,5.72l-1.83,1.14a18.71,18.71,0,0,1-2.4-1c-2.26-1.11-5.67-.58-9.17,1-3.5-1.56-7-2.1-9.17-1a19.45,19.45,0,0,1-2.41,1l-1.83-1.14a5.17,5.17,0,0,0-3-5.71,3.9,3.9,0,0,0,.26,4L48,108.06c1.64-3.21-1.14-6.78-1.14-6.78-1.4,1.37-.81,4.1-.59,5A28.18,28.18,0,0,1,41.89,100c3-2.6.66-7,.66-7-1.43.71-1.24,4.86-1.24,4.86a10.22,10.22,0,0,0-.85-1.31,26.74,26.74,0,0,1-1.14-5.34,5.42,5.42,0,0,0,2.41-6.57c-1.27.62-2.22,2.67-2.59,3.64a46.74,46.74,0,0,1,.22-5.17c3.3-.86,3.7-5.81,3.7-5.81-1.27-.34-3.19,2.86-3.19,2.86v-.26a24.34,24.34,0,0,1,1.33-4.27C45,75.29,46,71.05,46,71.05a13.14,13.14,0,0,0-3.61,2,30.88,30.88,0,0,1,2.19-3.58A5.65,5.65,0,0,0,48.31,65s-3.77,1.32-4.05,4.37a20.63,20.63,0,0,0-2,3,12.59,12.59,0,0,0-.52-4.1c-2.93,2.32-1.14,6.93-1,7.33a20.17,20.17,0,0,0-.9,2.72c-.34-3-1.82-4.11-1.82-4.11-2.07,4.86.08,7.64,1,8.55a2.58,2.58,0,0,1,0,.29c-.15,1.61-.26,3.22-.28,4.87-1.26-4.07-4-5.25-4-5.25C33.54,88.2,37.39,90.38,38.8,91a25.19,25.19,0,0,0,.68,4.28,9.68,9.68,0,0,0-4.6-3.08c-.82,4.61,4.27,6.94,6.18,7.64a24.05,24.05,0,0,0,2.26,4,12.38,12.38,0,0,0-3.89-1.89c1,7.39,8.09,6.82,8.09,6.82l3.78,2.48c-1.79-.3-5.07-.64-7,.24,0,0,2.86,3.54,9.75,1.57.41.28.75.5,1,.65a30.43,30.43,0,0,1-6,1.09c3.28,2.73,9.67-.5,9.67-.5a6,6,0,0,1,7.66.64h3a6,6,0,0,1,7.66-.64s6.37,3.23,9.67.5a30.56,30.56,0,0,1-6-1.09c.23-.15.58-.37,1-.65,6.85,2,9.76-1.57,9.76-1.57-1.92-.88-5.19-.54-7-.24l3.78-2.48s7.08.57,8.11-6.82a12.47,12.47,0,0,0-3.9,1.89,27.4,27.4,0,0,0,2.27-4c1.89-.71,7-3,6.17-7.64A9.68,9.68,0,0,0,96.37,95.28Zm-16-25.87A19.22,19.22,0,0,0,69,65.59v6.09S73.58,71.94,80.38,69.41Zm4.36,4.09a21.85,21.85,0,0,0-2.87-3s-4.76,2.62-12.93,2.87v4S77.5,77.46,84.74,73.5Zm1,1.31S80.44,78.57,69,79v7.77s4.17,5.11,10.75,5.11c9.81,0,9.26-9,9.2-9.84A17.3,17.3,0,0,0,85.77,74.81ZM69,108.68c7.3-.27,11.35-3.83,11.35-3.83C73.54,102.32,69,102.59,69,102.59Zm15.75-7.91c-7.25-4-15.82-3.87-15.82-3.87v4c8.19.26,13,2.88,13,2.88A24.45,24.45,0,0,0,84.73,100.77ZM69,89.59v5.64c11.44.44,16.76,4.23,16.76,4.23C89.49,94.59,89.61,88,89.61,88c-1.91,5.36-8.33,5.72-10.48,5.72C74,93.74,69,89.59,69,89.59ZM66.9,108.68v-6.09s-4.58-.27-11.39,2.26A19.37,19.37,0,0,0,66.9,108.68ZM67,96.9s-8.58-.11-15.83,3.87a24.17,24.17,0,0,0,2.86,3s4.75-2.62,13-2.88Zm-.08-9.42s-4.2-5.1-10.76-5.1c-9.81,0-9.32,8.81-9.2,9.82a18.13,18.13,0,0,0,3.19,7.26s5.32-3.77,16.77-4.23Zm0-15.8V65.59a19.23,19.23,0,0,0-11.38,3.82C62.35,71.94,66.92,71.68,66.92,71.68ZM67,77.37v-4c-8.2-.25-13-2.87-13-2.87a22.86,22.86,0,0,0-2.86,3C58.44,77.46,67,77.37,67,77.37ZM56.76,80.52c5.17,0,10.14,4.15,10.14,4.15V79c-11.45-.45-16.77-4.23-16.77-4.23-3.72,4.87-3.87,11.44-3.87,11.44C48.2,80.87,54.61,80.52,56.76,80.52Z"/></g></g></svg>