<svg xmlns="http://www.w3.org/2000/svg" viewBox="0 0 182.93 192.19"><defs><style>.cls-1{font-size:27.72px;font-family:MHeiGB5-Bold, MHeiGB5 Bold;font-weight:700;}.cls-1,.cls-3,.cls-5{fill:#fff;}.cls-2,.cls-6{fill:#045ba7;}.cls-2,.cls-4,.cls-5{fill-rule:evenodd;}.cls-4{fill:#ea2127;}</style></defs><title>Asset 21</title><g id="Layer_2" data-name="Layer 2"><g id="Layer_1-2" data-name="Layer 1"><text class="cls-1" transform="translate(0 184.15) scale(1.1 1)">重慶當代力帆</text><path class="cls-2" d="M91.49,1.17l.48.27,1,.49a64.71,64.71,0,0,0,10.39,3.49c5.08,1.39,10.25,2.59,15.41,3.72,9.79,2.16,19.72,4.12,29.61,5.86l2.13.38-.07,2c-.21,5.58-.71,11.16-1.34,16.71C148,44,146.35,54,144.48,63.81c-.85,4.48-1.74,9-2.75,13.42-4.21,20-13,39.52-28.61,54.21A75.51,75.51,0,0,1,99,142a42.57,42.57,0,0,1-6.26,3l-.87.3-.35.11-.34-.11-.87-.3A41.62,41.62,0,0,1,84,142a75.25,75.25,0,0,1-14.17-10.6C54.29,116.75,45.44,97.2,41.23,77.25c-1-4.46-1.9-9-2.75-13.44C36.62,54,35,44,33.87,34.1c-.64-5.55-1.14-11.13-1.34-16.71l-.08-2L34.58,15c9.89-1.74,19.83-3.7,29.62-5.86C69.35,8,74.52,6.81,79.6,5.42A64.05,64.05,0,0,0,90,1.93l1-.49Z"/><path class="cls-3" d="M91.48,146.56l-.68-.21-.87-.31a41.76,41.76,0,0,1-6.43-3.12,75.57,75.57,0,0,1-14.36-10.74C55,118.79,45,99.87,40.24,77.46c-1.08-4.73-2-9.46-2.76-13.46-2.06-10.88-3.57-20.62-4.63-29.78-.72-6.26-1.15-11.76-1.34-16.8l-.11-2.89,3-.53C44.27,12.26,54.22,10.3,64,8.15c4.23-.93,9.8-2.2,15.35-3.72A61.93,61.93,0,0,0,89.55,1l1-.48,1-.53,1,.54,1,.47a61.82,61.82,0,0,0,10.21,3.42C109.18,6,114.75,7.22,119,8.15c9.75,2.14,19.7,4.11,29.57,5.85l3,.53-.11,2.89c-.18,5-.62,10.54-1.34,16.8-1.05,9.15-2.56,18.89-4.63,29.78-.75,4-1.67,8.71-2.75,13.46C138,99.86,128,118.79,113.82,132.18a75.57,75.57,0,0,1-14.36,10.74A42.17,42.17,0,0,1,93,146Zm0-2.14h.05l.84-.3a39.94,39.94,0,0,0,6.1-3,73,73,0,0,0,14-10.46C126.31,117.59,136.1,99,140.74,77c1.07-4.73,2-9.43,2.74-13.4,2.05-10.84,3.56-20.53,4.6-29.63.72-6.21,1.15-11.65,1.34-16.64l0-1.12L148.2,16c-9.89-1.74-19.87-3.72-29.65-5.87-4.26-.94-9.86-2.21-15.46-3.74A64.4,64.4,0,0,1,92.52,2.84l-1-.51,0,0-1,.49A64.4,64.4,0,0,1,79.87,6.4c-5.59,1.53-11.2,2.8-15.45,3.74C54.63,12.29,44.65,14.27,34.76,16l-1.25.22,0,1.12c.18,5,.62,10.43,1.33,16.64,1,9.11,2.55,18.8,4.6,29.63.76,4,1.68,8.69,2.75,13.4,4.64,22,14.43,40.57,28.31,53.67a73,73,0,0,0,14,10.46,40.39,40.39,0,0,0,6.1,3Z"/><path class="cls-4" d="M91.17,4l.31-.11.31.11c11,5.37,56.12,13.31,56.12,13.31-.94,25.54-8.66,59.46-8.66,59.46C128,130,91.79,142.89,91.79,142.89l-.31.94-.31-.94S54.93,130,43.71,76.77c0,0-7.71-33.92-8.66-59.46C35.05,17.31,80.18,9.37,91.17,4Z"/><path class="cls-2" d="M47,15.08,91.19,143c-.36-.13-8-3-17.27-11.09L35.15,19.55c0-.75-.07-1.5-.1-2.24C35.05,17.31,40,16.44,47,15.08Z"/><path class="cls-2" d="M135.93,14.87,91.77,143c.27,0,7.81-2.52,17-10.59l39-112.89c0-.75.1-1.63.13-2.37C148,17.1,143,16.23,135.93,14.87Z"/><path class="cls-5" d="M85.72,51.25h.86a2.51,2.51,0,0,1-1,1,2.91,2.91,0,0,1-1.43.35,2.6,2.6,0,0,1-.81-.11,2.12,2.12,0,0,1-.67-.34,1.89,1.89,0,0,1-.61-.71,1.91,1.91,0,0,1-.21-.89,2.67,2.67,0,0,1,.2-1,2.63,2.63,0,0,1,.6-.85,2.33,2.33,0,0,1,.86-.54,2.75,2.75,0,0,1,1-.19,2.6,2.6,0,0,1,1.46.41,2,2,0,0,1,.81,1.14h-.78a1.51,1.51,0,0,0-.59-.7,1.74,1.74,0,0,0-.93-.24,2,2,0,0,0-.72.13,2,2,0,0,0-.61.4,2,2,0,0,0-.43.63,1.92,1.92,0,0,0-.15.74,1.45,1.45,0,0,0,.43,1.09,1.52,1.52,0,0,0,1.1.43,2.12,2.12,0,0,0,.9-.2,1.77,1.77,0,0,0,.66-.55Zm1.09,1.27h.7l.41-2h2l-.4,2h.7l.93-4.46h-.7L90,50h-2l.39-1.89h-.7l-.93,4.46Zm4.2,0,.93-4.46h.7l-.93,4.46Zm1.61,0h.7l.78-3.69,1.39,3.69h.92l.94-4.46h-.7l-.76,3.58-1.36-3.58h-1l-.94,4.46Zm4.15,0,2.64-4.46h.81l1,4.46h-.73l-.27-1.28H98.28l-.75,1.28Zm3.3-1.9-.36-1.88-1.07,1.88ZM74.79,58.78h.86a2.45,2.45,0,0,1-1,1,2.81,2.81,0,0,1-1.43.36,3,3,0,0,1-.81-.11,2.23,2.23,0,0,1-.67-.34,2,2,0,0,1-.61-.71,2,2,0,0,1-.21-.9,2.46,2.46,0,0,1,.21-1,2.5,2.5,0,0,1,.59-.86,2.74,2.74,0,0,1,1.9-.73,2.53,2.53,0,0,1,1.46.42,1.91,1.91,0,0,1,.81,1.13h-.78a1.43,1.43,0,0,0-.59-.69,1.66,1.66,0,0,0-.93-.25,2,2,0,0,0-.72.14,1.84,1.84,0,0,0-.61.4A1.92,1.92,0,0,0,71.7,58a1.47,1.47,0,0,0,.43,1.09,1.51,1.51,0,0,0,1.1.42,2,2,0,0,0,.9-.2,1.68,1.68,0,0,0,.66-.55Zm1.09,1.28h.71l.4-2h2l-.4,2h.7l.94-4.47h-.71l-.4,1.9h-2l.39-1.9h-.7l-.93,4.47Zm5.16-2a1.43,1.43,0,0,0,.42,1.08,1.57,1.57,0,0,0,1.11.4A1.88,1.88,0,0,0,84,59a1.94,1.94,0,0,0,.55-1.44,1.46,1.46,0,0,0-.41-1.08,1.54,1.54,0,0,0-1.12-.4,1.88,1.88,0,0,0-1.4.56A1.94,1.94,0,0,0,81,58.09Zm-.72,0A2.75,2.75,0,0,1,80.53,57a2.1,2.1,0,0,1,.6-.84,2.42,2.42,0,0,1,.86-.51A3,3,0,0,1,83,55.5a2.26,2.26,0,0,1,1.6.56,1.94,1.94,0,0,1,.6,1.49,2.91,2.91,0,0,1-.12.85,2.64,2.64,0,0,1-.37.73,2.42,2.42,0,0,1-.94.76,2.9,2.9,0,0,1-1.26.26,2.29,2.29,0,0,1-1.62-.55,1.89,1.89,0,0,1-.61-1.48Zm5.13,1.94,1-4.47h1l1.36,3.58.75-3.58h.71l-.94,4.47h-.92l-1.4-3.69-.77,3.69Zm8.94-1.63H92.2l.12-.56h2.94a2.54,2.54,0,0,1-.86,1.66,2.68,2.68,0,0,1-1.82.62,2.28,2.28,0,0,1-1.64-.56,2,2,0,0,1-.61-1.52,2.54,2.54,0,0,1,.2-1,2.34,2.34,0,0,1,.56-.83A2.44,2.44,0,0,1,92,55.7,2.83,2.83,0,0,1,93,55.51a2.45,2.45,0,0,1,1.44.39,2.05,2.05,0,0,1,.77,1.16h-.75a1.35,1.35,0,0,0-.53-.72,1.61,1.61,0,0,0-.93-.25,1.91,1.91,0,0,0-2,2,1.48,1.48,0,0,0,.42,1.1,1.54,1.54,0,0,0,1.12.41,2.06,2.06,0,0,0,1.09-.31,1.76,1.76,0,0,0,.7-.83Zm6.1,1.6h-.23a1.76,1.76,0,0,1-.45-.07,2.35,2.35,0,0,1-.46-.21,2.87,2.87,0,0,1-.71.29,2.73,2.73,0,0,1-.76.1,2.29,2.29,0,0,1-1.62-.56,1.91,1.91,0,0,1-.61-1.49,2.92,2.92,0,0,1,.2-1.08,2.22,2.22,0,0,1,.61-.84,2.42,2.42,0,0,1,.86-.51,3,3,0,0,1,1.05-.18,2.26,2.26,0,0,1,1.6.56,2,2,0,0,1,.6,1.5,2.8,2.8,0,0,1-.17,1,2.3,2.3,0,0,1-.5.8,1.83,1.83,0,0,0,.26.11,1.15,1.15,0,0,0,.26,0h.1l.09,0-.12.57Zm-1.65-.67a2.3,2.3,0,0,0-.71-.47,2.06,2.06,0,0,0-.81-.14l-.35,0a2.43,2.43,0,0,0-.4.11,1.41,1.41,0,0,0,.53.5,1.55,1.55,0,0,0,.73.18,2.21,2.21,0,0,0,1-.21Zm.49-.38a1.91,1.91,0,0,0,.39-.62,2.22,2.22,0,0,0,.13-.79,1.46,1.46,0,0,0-.41-1.08,1.54,1.54,0,0,0-1.12-.4,1.87,1.87,0,0,0-1.4.55,1.94,1.94,0,0,0-.55,1.44,1.31,1.31,0,0,0,0,.17v.08a3.83,3.83,0,0,1,.51-.13,3.73,3.73,0,0,1,.46,0,2.77,2.77,0,0,1,1,.2,3,3,0,0,1,.92.62Zm1.38,1.08.94-4.47h.7l-.93,4.47Zm1.62,0h.7l.78-3.69,1.39,3.69h.92l.94-4.47h-.71l-.75,3.58-1.36-3.58h-1l-.94,4.47Zm8.94-1.63h-2.2l.12-.56h3a2.55,2.55,0,0,1-.87,1.66,2.65,2.65,0,0,1-1.81.62,2.29,2.29,0,0,1-1.65-.56,2,2,0,0,1-.6-1.52,2.53,2.53,0,0,1,.19-1,2.48,2.48,0,0,1,.56-.83,2.53,2.53,0,0,1,.86-.55,2.87,2.87,0,0,1,1.07-.19,2.45,2.45,0,0,1,1.44.39,2,2,0,0,1,.77,1.16h-.75a1.35,1.35,0,0,0-.53-.72,1.6,1.6,0,0,0-.92-.25,2,2,0,0,0-1.41.56,1.91,1.91,0,0,0-.56,1.41,1.48,1.48,0,0,0,.42,1.1,1.56,1.56,0,0,0,1.12.41,2.1,2.1,0,0,0,1.1-.31A1.82,1.82,0,0,0,111.27,58.43Z"/><path class="cls-3" d="M96.91,26.06a10.79,10.79,0,0,0-7.55.55,8.43,8.43,0,0,1,3.84,9.65,5.76,5.76,0,1,0,11.06,3.23c0-.11.06-.22.08-.33a10.82,10.82,0,0,0-7.43-13.1"/><path class="cls-3" d="M91.81,35.85a6.86,6.86,0,0,0-.23-4.58,7,7,0,0,0-3-3.41l-1-.56L78.27,43.55h16a7.24,7.24,0,0,1-2.47-7.7"/><path class="cls-3" d="M36.29,94H29.77l4.68-17.48H41c5.49,0,8.28,3.77,7,8.71A12.15,12.15,0,0,1,36.29,94m3.93-14.68H36.77L33.59,91.21H37a7.91,7.91,0,0,0,7.66-5.92c.92-3.44-.8-6-4.47-6"/><path class="cls-6" d="M36.29,94.91H28.6l5.16-19.28H41a8.24,8.24,0,0,1,6.77,2.89,7.84,7.84,0,0,1,1,7A13,13,0,0,1,36.29,94.91Zm-5.35-1.8h5.35A11.22,11.22,0,0,0,47.05,85a6.12,6.12,0,0,0-.73-5.4A6.51,6.51,0,0,0,41,77.43H35.14Zm6.09-1H32.42l3.66-13.68h4.14a5.55,5.55,0,0,1,4.62,2,5.82,5.82,0,0,1,.72,5.13A8.87,8.87,0,0,1,37,92.11Zm-2.27-1.8H37a7,7,0,0,0,6.79-5.25,4.05,4.05,0,0,0-.41-3.56,3.84,3.84,0,0,0-3.19-1.27H37.46Z"/><path class="cls-3" d="M36.08,94.78h-7.3l5.1-19h7.3c5.83,0,9,4,7.52,9.49A13.18,13.18,0,0,1,36.08,94.78Zm-5.32-1.55h5.73a11.08,11.08,0,0,0,10.65-8c1.24-4.59-1.45-7.93-6.38-7.93H35ZM36.83,92H32.6l3.6-13.44h4.23c4,0,6.1,2.77,5,6.74A9,9,0,0,1,36.83,92Zm-2.25-1.56h2.66a6.83,6.83,0,0,0,6.67-5.14c.83-3.1-.74-5.18-3.9-5.18H37.35Z"/><path class="cls-6" d="M36.08,95.68H27.61l5.58-20.83h8A8.86,8.86,0,0,1,48.45,78a8.5,8.5,0,0,1,1.12,7.52A14.1,14.1,0,0,1,36.08,95.68Zm-.33-6.15h1.49A6,6,0,0,0,43,85.06a3.39,3.39,0,0,0-.31-3A3.27,3.27,0,0,0,40,81H38ZM46.41,78.39a6.22,6.22,0,0,1,.64.71l.18.25a1.94,1.94,0,0,0-.21-.29A4.85,4.85,0,0,0,46.41,78.39Z"/><path class="cls-3" d="M64.83,94H61.59L61,89.79H52.68L49.75,94H46.61L59,76.4h2.85ZM59.4,80.07l-4.86,7h6Z"/><path class="cls-6" d="M65.9,94.91H60.82l-.65-4.22h-7l-2.92,4.22H44.88l13.67-19.4h4.07Zm-3.54-1.8h1.41L61.1,77.3H59.48L48.34,93.11h.94l2.93-4.22h9.51ZM61.61,88H52.82l7.11-10.23Zm-5.35-1.8h3.23l-.61-3.76Z"/><path class="cls-3" d="M65.82,94.78h-5l-.64-4.21H53l-2.93,4.21H45.21l13.5-19.15h3.87Zm-3.5-1.55h1.53l-2.71-16H59.31L48,93.23h1.44L52.38,89h9.29Zm-.79-5.39H53.15l6.78-9.74Zm-5.6-1.55h3.65l-.7-4.24Z"/><path class="cls-6" d="M66.88,95.68H60.09l-.64-4.21h-6l-2.93,4.21H43.48l14.77-21h5.09ZM57.65,85.39h.87l-.17-1Z"/><polygon class="cls-3" points="84.73 76.53 87.75 76.53 83.07 94.01 80.5 94.01 74.19 81.57 70.86 94.01 67.84 94.01 72.53 76.53 75.37 76.53 81.5 88.61 84.73 76.53"/><path class="cls-6" d="M83.76,94.91H80l-5.5-10.84-2.9,10.84H66.67l5.17-19.28h4.08l5.32,10.48,2.81-10.48h4.88Zm-2.71-1.8h1.33l4.2-15.68H85.42L81.76,91.12,74.82,77.43h-1.6L69,93.11h1.16l3.76-14Z"/><path class="cls-3" d="M83.64,94.79H79.91L74.36,83.85,71.43,94.79H66.85l5.1-19h4l5.37,10.59,2.84-10.59h4.57Zm-2.55-1.56H82.5l4.27-15.92H85.31L81.67,90.89,74.78,77.31H73.1L68.83,93.23h1.46L74,79.3Z"/><polygon class="cls-6" points="84.33 95.68 79.36 95.68 74.62 86.35 72.12 95.68 65.68 95.68 71.27 74.85 76.51 74.85 81.07 83.83 83.47 74.85 89.91 74.85 84.33 95.68"/><path class="cls-3" d="M95.79,94.31c-5.47,0-8-3.9-6.65-9,1.31-4.91,6.17-9.06,11.44-9.06,3,0,4.69.85,6.08,2.37l-2.57,2.32a5.26,5.26,0,0,0-4.39-1.87c-3.22,0-6.42,2.8-7.33,6.19-1,3.62.69,6.27,4.26,6.27a8.88,8.88,0,0,0,4.58-1.32l.87-3.27H97.61l.72-2.68h7.44l-2,7.34a14.2,14.2,0,0,1-8,2.73"/><path class="cls-6" d="M95.79,95.2a7.78,7.78,0,0,1-6.49-2.78c-1.44-1.87-1.8-4.48-1-7.36,1.46-5.46,6.87-9.73,12.31-9.73,3,0,5,.8,6.75,2.67l.6.66L104,82.19l-.61-.66A4.34,4.34,0,0,0,99.7,80c-2.75,0-5.64,2.48-6.46,5.53a4.48,4.48,0,0,0,.42,3.91,3.56,3.56,0,0,0,3,1.22,7.94,7.94,0,0,0,3.8-1l.48-1.78H96.44l1.2-4.47h9.3l-2.35,8.78-.27.19A15.14,15.14,0,0,1,95.79,95.2Zm4.79-18.07c-4.67,0-9.31,3.69-10.58,8.4a6.63,6.63,0,0,0,.72,5.8,6.1,6.1,0,0,0,5.07,2.08A13.26,13.26,0,0,0,103,91l1.58-5.89H99l-.23.88h4.47L102,90.76l-.3.19a9.73,9.73,0,0,1-5.05,1.46,5.29,5.29,0,0,1-4.4-1.92A6.21,6.21,0,0,1,91.5,85c1-3.85,4.63-6.86,8.2-6.86a6.14,6.14,0,0,1,4.42,1.53l1.23-1.11A6.77,6.77,0,0,0,100.58,77.13Z"/><path class="cls-3" d="M95.58,95.08c-5.71,0-8.74-4.11-7.22-9.79,1.48-5.52,6.94-9.84,12.43-9.84,3,0,4.88.74,6.53,2.56l.46.5L103.89,82l-.46-.5a4.69,4.69,0,0,0-3.94-1.69c-2.74,0-5.53,2.38-6.34,5.41-.88,3.29.6,5.49,3.69,5.49a8,8,0,0,0,3.7-1l.56-2.08H96.63l1.13-4.23h9l-2.27,8.47-.34.24A15.31,15.31,0,0,1,95.58,95.08ZM100.37,77a11.43,11.43,0,0,0-10.46,8.28c-1.3,4.85,1.21,8.24,6.08,8.24a13.14,13.14,0,0,0,7.13-2.31l1.66-6.2H98.9l-.3,1.12h4.47l-1.19,4.44-.38.23a9.69,9.69,0,0,1-5.07,1.48c-4,0-6-2.9-4.84-7.05,1-3.91,4.7-7,8.32-7a5.77,5.77,0,0,1,4.36,1.57l1.25-1.13C104.41,77.67,103,77,100.37,77Z"/><path class="cls-6" d="M95.58,96a8.48,8.48,0,0,1-7-3c-1.55-2-1.94-4.83-1.12-7.9,1.58-5.89,7.42-10.51,13.3-10.51,3.22,0,5.37.85,7.2,2.85l1.06,1.17-4.42,4h3.3l-2.66,9.92-.6.42A16.17,16.17,0,0,1,95.58,96Zm3.91-15.25c-2.32,0-4.77,2.13-5.47,4.75a3.82,3.82,0,0,0,.32,3.35,3.06,3.06,0,0,0,2.5,1,7.08,7.08,0,0,0,2.93-.67l.15-.57H95.46l1.61-6h6.1l-.41-.45A3.79,3.79,0,0,0,99.49,80.73Z"/><path class="cls-3" d="M113.68,94h-6.52l4.68-17.48h6.52c5.49,0,8.28,3.77,7,8.71A12.15,12.15,0,0,1,113.68,94m3.93-14.68h-3.44L111,91.21h3.45a7.91,7.91,0,0,0,7.65-5.92c.92-3.44-.8-6-4.47-6"/><path class="cls-6" d="M113.68,94.91H106l5.16-19.28h7.21a8.24,8.24,0,0,1,6.77,2.89,7.81,7.81,0,0,1,1.05,7A13,13,0,0,1,113.68,94.91Zm-5.35-1.8h5.35A11.24,11.24,0,0,0,124.45,85a6.13,6.13,0,0,0-.74-5.39,6.48,6.48,0,0,0-5.35-2.19h-5.83Zm6.1-1h-4.62l3.67-13.68h4.13a5.55,5.55,0,0,1,4.62,2,5.82,5.82,0,0,1,.72,5.13A8.87,8.87,0,0,1,114.43,92.11Zm-2.28-1.8h2.28a7,7,0,0,0,6.78-5.25,4.05,4.05,0,0,0-.41-3.56,3.84,3.84,0,0,0-3.19-1.27h-2.75Z"/><path class="cls-3" d="M113.47,94.78h-7.3l5.1-19h7.3c5.83,0,9,4,7.52,9.49A13.18,13.18,0,0,1,113.47,94.78Zm-5.32-1.55h5.74a11.09,11.09,0,0,0,10.65-8c1.23-4.59-1.46-7.93-6.39-7.93h-5.74ZM114.22,92H110l3.6-13.44h4.22c4,0,6.1,2.77,5,6.74A9,9,0,0,1,114.22,92ZM112,90.43h2.67a6.82,6.82,0,0,0,6.66-5.14c.83-3.1-.74-5.18-3.9-5.18h-2.66Z"/><path class="cls-6" d="M113.47,95.68H105l5.58-20.83h8A8.86,8.86,0,0,1,125.84,78,8.47,8.47,0,0,1,127,85.48,14.09,14.09,0,0,1,113.47,95.68Zm-.33-6.15h1.5a5.94,5.94,0,0,0,5.79-4.47,3.39,3.39,0,0,0-.31-3,3.27,3.27,0,0,0-2.72-1h-2ZM123.8,78.38a5.49,5.49,0,0,1,.64.72,2.48,2.48,0,0,1,.19.26l-.21-.3A6.67,6.67,0,0,0,123.8,78.38Z"/><path class="cls-3" d="M142.23,94H139l-.64-4.22h-8.27L127.14,94H124L136.41,76.4h2.84ZM136.8,80.07l-4.87,7h6Z"/><path class="cls-6" d="M143.29,94.91h-5.08l-.65-4.22h-7l-2.93,4.22h-5.35l13.68-19.4H140Zm-3.54-1.8h1.41L138.49,77.3h-1.62L125.73,93.11h.94l2.93-4.22h9.51ZM139,88h-8.79l7.11-10.23Zm-5.35-1.8h3.23l-.61-3.76Z"/><path class="cls-3" d="M143.21,94.78h-5l-.64-4.21h-7.23l-2.93,4.21H122.6l13.51-19.15H140Zm-3.51-1.55h1.54l-2.71-16h-1.82l-11.31,16h1.44L129.77,89h9.29Zm-.78-5.39h-8.38l6.78-9.74Zm-5.6-1.55H137l-.7-4.24Z"/><path class="cls-6" d="M144.27,95.68h-6.79l-.64-4.21h-6l-2.93,4.21h-7l14.77-21h5.09ZM135,85.39h.87l-.17-1Z"/><polygon class="cls-3" points="148.48 94.01 145.41 94.01 150.09 76.53 153.16 76.53 148.48 94.01"/><path class="cls-6" d="M149.17,94.91h-4.94l5.17-19.28h4.93Zm-2.59-1.8h1.21L152,77.43h-1.21Z"/><path class="cls-3" d="M149.05,94.79h-4.63l5.1-19h4.63Zm-2.66-1.56h1.52l4.26-15.92h-1.51Z"/><polygon class="cls-6" points="149.74 95.68 143.25 95.68 148.83 74.85 155.32 74.85 149.74 95.68"/><path class="cls-3" d="M36.3,93.94H29.79l4.68-17.47H41c5.49,0,8.27,3.77,6.95,8.71A12.16,12.16,0,0,1,36.3,93.94m3.94-14.67H36.79L33.61,91.15h3.44a7.9,7.9,0,0,0,7.65-5.92c.93-3.44-.79-6-4.46-6"/><path class="cls-3" d="M36.3,94.72H28.77l5.1-19H41a8.12,8.12,0,0,1,6.67,2.84,7.71,7.71,0,0,1,1,6.85A12.92,12.92,0,0,1,36.3,94.72Zm-5.5-1.55h5.5A11.37,11.37,0,0,0,47.19,85a6.27,6.27,0,0,0-.76-5.5A6.63,6.63,0,0,0,41,77.25H35.07Zm6.25-1.24H32.59l3.6-13.44h4.05a5.43,5.43,0,0,1,4.52,1.92,5.72,5.72,0,0,1,.7,5A8.74,8.74,0,0,1,37.05,91.93Zm-2.43-1.56h2.43A7.09,7.09,0,0,0,44,85a4.16,4.16,0,0,0-.43-3.67A3.94,3.94,0,0,0,40.24,80H37.39Z"/><path class="cls-3" d="M64.85,93.94H61.61L61,89.73H52.7l-2.93,4.21H46.63L59,76.34h2.85ZM59.42,80l-4.87,7h6Z"/><path class="cls-3" d="M65.77,94.72H60.94l-.65-4.21H53.11l-2.93,4.21H45.12L58.63,75.56h3.91Zm-3.5-1.55h1.66l-2.71-16H59.43l-11.3,16h1.23L52.29,89h9.34Zm-.79-5.39H53.06L59.88,78ZM56,86.23h3.61L59,82Z"/><polygon class="cls-3" points="84.75 76.47 87.77 76.47 83.09 93.94 80.52 93.94 74.21 81.51 70.88 93.94 67.86 93.94 72.54 76.47 75.39 76.47 81.51 88.55 84.75 76.47"/><path class="cls-3" d="M83.69,94.72H80l-5.6-11-3,11H66.84l5.1-19h3.93l5.42,10.69,2.86-10.69h4.64ZM81,93.17h1.49l4.27-15.92H85.35L81.74,90.72,74.91,77.25H73.14L68.87,93.17h1.41L74,79.35Z"/><path class="cls-3" d="M95.8,94.24c-5.47,0-8-3.89-6.65-9,1.32-4.92,6.18-9.06,11.45-9.06,3,0,4.69.85,6.08,2.37l-2.57,2.32A5.25,5.25,0,0,0,99.72,79c-3.23,0-6.42,2.8-7.33,6.19-1,3.62.69,6.27,4.26,6.27a8.91,8.91,0,0,0,4.57-1.32l.88-3.27H97.63l.72-2.68h7.44l-2,7.34a14.23,14.23,0,0,1-8,2.72"/><path class="cls-3" d="M95.8,95a7.66,7.66,0,0,1-6.39-2.73,8.22,8.22,0,0,1-1-7.26c1.45-5.41,6.81-9.64,12.2-9.64,3,0,5,.78,6.65,2.63l.53.57L104.05,82l-.52-.57a4.45,4.45,0,0,0-3.81-1.62c-2.8,0-5.75,2.52-6.58,5.61a4.58,4.58,0,0,0,.44,4,3.69,3.69,0,0,0,3.07,1.27,8.11,8.11,0,0,0,3.9-1l.54-2H96.62l1.13-4.23h9L104.5,92l-.23.16A15.06,15.06,0,0,1,95.8,95ZM100.6,77a11.69,11.69,0,0,0-10.7,8.48,6.72,6.72,0,0,0,.74,5.91,6.22,6.22,0,0,0,5.16,2.13A13.38,13.38,0,0,0,103.14,91L104.77,85H98.94l-.29,1.12h4.46l-1.21,4.55-.27.16a9.54,9.54,0,0,1-5,1.44,5.2,5.2,0,0,1-4.31-1.88,6.1,6.1,0,0,1-.7-5.37c1-3.8,4.56-6.77,8.08-6.77a6,6,0,0,1,4.42,1.57l1.41-1.27C104.48,77.55,103.11,77,100.6,77Z"/><path class="cls-3" d="M113.69,93.94h-6.51l4.68-17.47h6.52c5.49,0,8.28,3.77,7,8.71a12.15,12.15,0,0,1-11.64,8.76m3.94-14.67h-3.45L111,91.15h3.44a7.9,7.9,0,0,0,7.65-5.92c.93-3.44-.79-6-4.46-6"/><path class="cls-3" d="M113.69,94.72h-7.53l5.1-19h7.12a8.14,8.14,0,0,1,6.68,2.84,7.75,7.75,0,0,1,1,6.85A12.92,12.92,0,0,1,113.69,94.72Zm-5.5-1.55h5.5A11.36,11.36,0,0,0,124.58,85a6.2,6.2,0,0,0-.76-5.5,6.63,6.63,0,0,0-5.44-2.23h-5.92Zm6.25-1.24H110l3.61-13.44h4a5.43,5.43,0,0,1,4.52,1.92,5.69,5.69,0,0,1,.7,5A8.74,8.74,0,0,1,114.44,91.93ZM112,90.37h2.43a7.09,7.09,0,0,0,6.9-5.34,4.16,4.16,0,0,0-.43-3.67A3.94,3.94,0,0,0,117.63,80h-2.85Z"/><path class="cls-3" d="M142.24,93.94H139l-.65-4.21h-8.26l-2.93,4.21H124l12.41-17.6h2.85ZM136.81,80l-4.87,7h6Z"/><path class="cls-3" d="M143.16,94.72h-4.83l-.65-4.21H130.5l-2.93,4.21h-5.06L136,75.56h3.91Zm-3.5-1.55h1.66l-2.71-16h-1.78l-11.31,16h1.23L129.68,89H139Zm-.78-5.39h-8.43L137.27,78Zm-5.45-1.55H137l-.69-4.2Z"/><polygon class="cls-3" points="148.49 93.94 145.42 93.94 150.1 76.47 153.18 76.47 148.49 93.94"/><path class="cls-3" d="M149.09,94.72h-4.68l5.1-19h4.68Zm-2.65-1.55h1.46l4.26-15.92H150.7Z"/></g></g></svg>