<svg xmlns="http://www.w3.org/2000/svg" viewBox="0 0 182.93 192.19"><defs><style>.cls-1,.cls-5{fill:#fff;}.cls-2{fill:#14a74b;}.cls-3{fill:#f9e318;}.cls-4{fill:#221f1f;}.cls-5{font-size:27.72px;font-family:MHeiGB5-Bold, MHeiGB5 Bold;font-weight:700;}</style></defs><title>Asset 18</title><g id="Layer_2" data-name="Layer 2"><g id="Layer_1-2" data-name="Layer 1"><polygon class="cls-1" points="93.03 3.06 154.07 25.46 154.17 26.32 154.17 29.06 154.17 31.71 154.17 34.39 154.07 37.03 153.97 39.58 153.97 42.01 153.77 44.44 153.62 46.91 153.41 49.24 153.31 51.56 153 53.81 152.78 56.04 152.44 58.28 152.1 60.38 151.83 62.61 151.39 64.73 150.96 66.75 150.45 68.86 150.04 70.98 149.47 73 148.84 75.12 148.2 77.17 147.6 79.15 146.82 81.31 146.08 83.29 145.34 85.31 144.51 87.46 143.66 89.59 142.7 91.59 141.77 93.68 140.7 95.93 139.72 97.82 138.66 99.76 137.6 101.55 136.53 103.47 135.48 105.28 134.32 107.08 133.13 108.78 131.86 110.58 130.58 112.29 129.33 113.86 127.94 115.55 126.67 117.18 125.2 118.75 123.78 120.35 122.31 121.83 120.87 123.4 119.25 124.91 117.66 126.28 116.06 127.77 114.47 129.15 112.78 130.51 110.97 131.91 109.28 133.19 107.44 134.45 105.66 135.71 103.74 137.02 101.82 138.27 99.94 139.44 97.92 140.6 95.91 141.76 93.89 142.85 93.15 143.27 92.51 142.94 90.46 141.76 88.58 140.6 86.68 139.44 84.76 138.27 82.96 137.02 81.03 135.71 79.21 134.45 77.54 133.19 75.76 131.82 74.05 130.44 72.33 129.05 70.76 127.67 69.06 126.28 67.46 124.8 65.97 123.32 64.38 121.83 62.91 120.22 61.4 118.64 60.02 117.06 58.56 115.46 57.16 113.75 55.91 112.18 54.54 110.47 53.24 108.67 52 106.96 50.82 105.18 49.65 103.36 48.46 101.44 47.3 99.67 46.23 97.72 45.19 95.83 44.1 93.79 43.17 92 42.3 90.11 41.46 88.28 40.59 86.5 39.87 84.68 39.14 82.99 38.46 81.2 37.96 79.5 37.35 77.67 36.82 75.88 36.35 74.09 35.82 72.28 35.51 70.46 35.12 68.57 34.79 66.54 34.5 64.52 34.16 62.51 33.93 60.27 33.72 58.15 33.5 55.84 33.38 53.38 33.19 50.96 33.08 48.39 33.08 45.74 32.99 42.88 32.88 40 32.88 36.93 32.88 33.75 32.88 30.46 32.88 27.08 32.88 25.46 93.03 3.06"/><polygon class="cls-2" points="151.09 44.35 150.88 46.71 150.79 49.04 150.54 51.26 150.34 53.48 150.04 55.73 149.69 57.84 149.38 59.97 149.1 62.1 148.65 64.2 148.31 66.24 147.79 68.25 147.36 70.26 146.82 72.28 146.23 74.29 145.68 76.31 145.02 78.33 144.25 80.31 143.57 82.36 142.82 84.38 141.97 86.36 141.1 88.39 140.13 90.54 139.19 92.55 138.25 94.67 137.31 96.6 136.2 98.4 135.28 100.29 134.22 102 133.13 103.81 132 105.48 130.85 107.29 129.64 108.89 128.46 110.58 127.21 112.18 125.94 113.75 124.55 115.38 123.15 116.97 121.76 118.45 120.39 119.92 118.91 121.41 117.43 122.87 115.86 124.25 114.25 125.66 112.69 127.04 110.97 128.39 109.39 129.71 107.58 130.97 105.88 132.23 104.05 133.47 102.25 134.79 100.38 135.94 98.46 137.12 96.55 138.27 94.5 139.33 93.15 140.07 91.87 139.44 89.96 138.27 88.16 137.12 86.21 135.94 84.42 134.79 82.65 133.47 80.94 132.23 79.16 130.97 77.42 129.71 75.76 128.32 74.14 127.04 72.57 125.66 70.99 124.19 69.36 122.77 67.89 121.31 66.39 119.81 64.92 118.33 63.42 116.83 62.03 115.25 60.66 113.66 59.28 112.09 58.03 110.47 56.75 108.78 55.48 107.08 54.33 105.36 53.16 103.56 52 101.89 50.82 100.09 49.76 98.25 48.65 96.36 47.6 94.47 46.57 92.66 45.72 90.74 44.76 88.93 43.91 87.11 43.17 85.41 42.43 83.73 41.77 81.96 41.13 80.24 40.52 78.53 39.98 76.83 39.45 75.12 39.02 73.44 38.59 71.63 38.16 69.85 37.86 68.04 37.42 66.12 37.22 64.2 36.91 62.1 36.68 60.06 36.48 57.84 36.25 55.6 36.16 53.27 35.95 50.84 35.82 48.32 35.73 45.64 35.73 42.88 35.62 39.9 35.62 36.93 35.62 33.75 35.62 30.46 35.62 27.4 93.15 6.06 151.39 27.4 151.39 29.06 151.39 31.71 151.39 34.39 151.3 36.93 151.3 39.49 151.19 41.94 151.09 44.35"/><path class="cls-3" d="M135.28,43.31a50.06,50.06,0,0,1,0,53.48V91.9l.61-1.29,1-2.09.89-2.16.72-2.18.64-2.22.54-2.36.4-2.37.32-2.31.22-2.43V67.6l-.22-2.47L140,62.81l-.4-2.33-.54-2.33-.64-2.2-.72-2.22-.89-2.17-1-2.11-.61-1.26Zm0,43.41.5-1.18-.19-.14a4.12,4.12,0,0,1-.31.6Zm0-3.63.31.13c.39,0,.61.28.52.83h.22l.4-1.92h-.1c-.19.65-.52.86-1.15.65l-.2-.11Zm0-3.39.92.19a1.78,1.78,0,0,1,.64.35c.13.07.13.3,0,.72l.22.14.75-3.1h-.21a.75.75,0,0,1-.4.53h-.67l-1.25-.3Zm0-6.59,1.92.09a.93.93,0,0,1,.73.24c.1.1.1.31.1.76h.22l.2-3.22h-.2c-.11.54-.32.87-.75.75l-2.22-.1Zm0-7.49c1.78-.12,2.65.4,2.75,1.43s-.53,1.62-1.59,2.31v.24l2.11-.24V69.1c-.3,0-.52-.13-.52-.34a.93.93,0,0,0,.11-.42,3.51,3.51,0,0,0,.22-1.39c-.33-1.82-1.3-2.84-3.08-2.84Zm0-11.4a.38.38,0,0,0,.11.21h.2l-.31-.82Zm-2-13.81c.72,1,1.34,2,2,2.9v4.88l-.45-.74-1.16-2-.4-.65Zm2,56.38c-.67.93-1.29,1.92-2,2.88V95.28l.4-.61,1.16-2,.45-.76Zm0-43.18v.61c-.13-.09-.22-.3-.36-.3s-.4,0-.7.1l-.95.41V52.82l.63-.19c.42-.22.51-.52.32-1.07h.19Zm0,10.5v1.51h-.36a4.85,4.85,0,0,0-1.65.4v-1.5a5.61,5.61,0,0,1,1.56-.5,1.07,1.07,0,0,1,.45.09m0,7.52v1.48l-2-.18V71.44Zm0,6.6V79.7l-2-.42v-1.5h.3Zm0,4.44v.42l-2-.42v-.44Zm0,3.33v.72l-.67,1.36c-.39,1-.82,1.51-1.34,1.7V88.39a.81.81,0,0,0,1.14-.42c.11-.31.11-.51-.19-.65l-.95-.4V85.31l1.34.69a1.27,1.27,0,0,0,.67,0m-2-9.79v-.44a2.69,2.69,0,0,0,.72.31v.33Zm0-6.36v-.49a1.29,1.29,0,0,0,.4.36l-.18.3a.41.41,0,0,1-.22-.17m-1.17-31c.4.54.86,1,1.17,1.56v4.38l-.88-1.31-.29-.5Zm1.17,60.82c-.31.42-.77.92-1.17,1.46v-4l.29-.51.88-1.32Zm0-46.85v1.61l-1.17.42V53.27Zm0,11.7V66a1,1,0,0,0-.2.22,1.5,1.5,0,0,0-.77,1.48,2.83,2.83,0,0,0,1,1.64v.49a3.2,3.2,0,0,1-1.17-1.6v-2a2.88,2.88,0,0,1,1.17-1.72m0,6.92v1.49H133c-.46-.12-.66.18-.66.68a2.06,2.06,0,0,0,1,2.16v.44l-1.17-.33V73.31l.2-2.74h.2c0,.41,0,.62.14.62a.54.54,0,0,0,.52.25Zm0,6.34v1.5a2.3,2.3,0,0,0-1.17-.13V77.89a1.4,1.4,0,0,1,1.17-.11m0,4.45v.44l-.53-.1a1.65,1.65,0,0,0-.64-.21V82c.2.09.4.09.64.17Zm0,3.08v1.61l-1-.42a2.7,2.7,0,0,0-.2.73V84.79Zm0,3.08v1.39a1.1,1.1,0,0,1-1-.11c-.1,0-.1-.08-.2-.08V87.66a1.69,1.69,0,0,0,.86.62.37.37,0,0,0,.31.11M132.1,58.48v-.43h.54l.1.23Zm0-10.86v-.5l.54,1-.14.12a4.43,4.43,0,0,1-.4-.57m-2.86-12.06c.94,1.07,1.91,2.13,2.86,3.29V43l-.95-1.37-1.4-1.8-.51-.56Zm2.86,65.57c-.95,1.16-1.92,2.23-2.86,3.28v-3.57l.51-.55,1.4-1.81.95-1.37Zm0-54v.5H132a.8.8,0,0,0-.75.24l-2,1.18V47.32l1.44-.85c.34-.2.47-.5.17-1l.17-.12Zm0,6.15v1.58l-1.82.75c-.43.13-.43.44-.2.94a2,2,0,0,0,2,1.51v.43l-1.52.3-1.34-3.59v-1a.47.47,0,0,0,.51,0Zm0,13v2a1.5,1.5,0,0,1-.1-.65,5.18,5.18,0,0,1,.1-1.36m0,7.07v2.57h-.24Zm0,4.58v1.26a1.16,1.16,0,0,0-.85,1A1.44,1.44,0,0,0,132.1,82v.4c-.55-.23-.85-.4-.95-.75a2,2,0,0,1-.24-1.8,3.13,3.13,0,0,1,.84-1.68.6.6,0,0,1,.35-.24m0,6.9v1.57l-2.16-1c-.3-.21-.5-.09-.7.32v-.61l.94-2.12.2.1c-.1.31-.2.5-.1.64s.1.32.3.45Zm0,1.57v3.23a1.77,1.77,0,0,1-.45-1.72,1.81,1.81,0,0,1-2.21.84c-.11,0-.11-.09-.2-.19v-2c.09.31.4.52.84.73A1.26,1.26,0,0,0,132,86.6ZM129.24,74.7V65.37l.09,1,.11,1.81.09,1.88-.09,1.92-.11,1.81Zm0-22v-.64a1.66,1.66,0,0,0,1,0l.1.21Zm-2.12-19.32c.68.75,1.34,1.37,2.12,2.13v3.69l-1.11-1.15-1-1.17Zm2.12,71c-.78.77-1.44,1.38-2.12,2.13v-3.39l1-1.15,1.11-1.16Zm0-57.09V49l-1.72,1.06c-.31.09-.31.39,0,.94a2,2,0,0,0,1.72,1.07v.64l-.78.31-1.34-2.22V48.62Zm0,6.9v1l-.54-1.38h.23a1,1,0,0,0,.31.41m0,11.15V74.7l-.12.85-.35,1.82-.41,1.78-.56,1.72-.5,1.7-.18.42V79.06l.09-.21.31-1.68.28-1.82.26-1.74.2-1.76v-3.6l-.2-1.83-.26-1.78-.28-1.73-.31-1.66-.09-.23V57.11l.18.4.5,1.73.56,1.65.41,1.81.35,1.82Zm0,19.74v.73a.65.65,0,0,0,0,.66v2c-.78-.55-.88-1.5-.31-2.8Zm-2.12-40.87v-2.3l1.24-.44.1.21Zm-1.28-12a10.65,10.65,0,0,0,1.28,1.16v3.5l-.45-.55-.83-.71Zm1.28,74.27a11.67,11.67,0,0,0-1.28,1.17v-3.3l.83-.73.45-.53Zm0-64.6v2.3l-1.08,2a1.16,1.16,0,0,0-.2.53V43.72l.73-1.36-.73.31v-.44Zm0,6.68v2.22l-1.28-2.22v-.13l.1-.1c.2.3.31.44.4.44s.33,0,.54-.14Zm0,8.49V61l-.45-1.48L126.14,58l-.3-.85V54l.1.2.73,1.73Zm0,22V83l-.45,1.19-.73,1.66-.1.22V83l.3-.86.53-1.69Zm-1.28-5.62v0Zm0-5.72v0ZM125.4,32a4.67,4.67,0,0,0,.44.31v3.4l-.44-.44Zm.44,75.75c-.14.13-.35.2-.44.33v-3.18l.44-.45Zm0-65.48v.44l-.44.09v-.4Zm0,1.49V46.8a1.51,1.51,0,0,0-.35.65.55.55,0,0,0,.12.41l-.12.21L125.4,48V44.44Zm0,4.77v.13l-.14-.13Zm0,5.53v3.09l-.35-.78-.09-.18V53.27Zm0,12.93v.77h-.44V64.11c.21,1,.3,1.91.44,2.84m0,5.33v1.16c-.14.76-.23,1.68-.44,2.77V72.37a.7.7,0,0,1,.44-.09m0,10.71v3.07l-.44.75V84l.09-.22Zm-3.53-53.38A38,38,0,0,1,125.4,32v3.27l-.4-.43-1.72-1.47-1-.63ZM125.4,108a35.67,35.67,0,0,1-3.09,2.33v-2.93l1-.66,1.72-1.5.4-.42Zm0-65.68v.4l-1.18.33,1.18,1.46V48l-1.82-2.24.2-.1c.35.42.55.52.77.33a7.06,7.06,0,0,1,.65-1.07l-1.28-1.59a2.21,2.21,0,0,0-1.18.41c-.19.12-.09.33.11.72l-.11.24-.43-.44v-.93a2.28,2.28,0,0,0,.84-.22Zm0,10.91v2.88l-.64-1.41L124,53.27l-.87-1.47-.84-1.31v-2.1l1,1.28.94,1.48.87,1.6Zm0,10.84A30.74,30.74,0,0,0,122.31,55V66.64a6,6,0,0,0,3.09,1.08Zm0,8.26v3.84a12.36,12.36,0,0,1-.64,2.85,27.07,27.07,0,0,1-2.45,6.13V73.44a6.58,6.58,0,0,1,3.09-1.07m0,11.58-.64,1.36-.74,1.5-.87,1.47-.84,1.17V91.7l1-1.26.94-1.51.87-1.61.31-.51Zm-3.09-42.34V39.49c.67.86.67,1.49.1,2.12Zm0-2.22a1.5,1.5,0,0,0,1.91-.14c.63-.71.41-1.56-.75-2.73l-1.16-1.1v1.51l.34-.2c.09-.21.33-.21.63,0,.44.44.44,1-.13,1.5a1.39,1.39,0,0,1-.84.51Zm-.85-10.53a5.82,5.82,0,0,1,.85.75V32.7l-.85-.74Zm.85,81.51a9.48,9.48,0,0,0-.85.76v-3l.85-.67Zm0-74.95v1.51l-.85,1V35.77a.63.63,0,0,0,0-.85v-.3Zm0,3.32v.65c0-.14,0-.14-.11-.14.11.14.11.14.11.24v2.12a1.41,1.41,0,0,1-.85.51V40.35a1.36,1.36,0,0,0,0-1.5v-.41a1.32,1.32,0,0,0,.74.3Zm0,4.57v.93l-.73-1,.1-.13a1.33,1.33,0,0,0,.63.22m0,5.08v2.1l-.11-.08-.74-1.17v-2l.74,1.09Zm0,6.59V66.64a7.46,7.46,0,0,1-.85-.82V53.38a11.78,11.78,0,0,1,.85,1.6m0,18.46V85.19a16.19,16.19,0,0,1-.85,1.73V74.4a3.91,3.91,0,0,1,.85-1m0,16V91.7l-.11.1-.74,1v-2l.74-1.17Zm-1.92-61.21a6.2,6.2,0,0,1,1.07.62V32l-1.07-.74Zm1.07,82.89a6.2,6.2,0,0,1-1.07.62v-2.86l1.07-.78Zm0-76.51v.3c-.1,0-.1-.12-.2-.12l.1-.18Zm0,1.15v2.12l-.3.34c.1.07.2.07.3.21v.41l-.3-.31-.1-.1-.67.54V36.84l1-1,.1-.11m0,4.58v1.77a9.86,9.86,0,0,1-1.07-.18v-.87a1.34,1.34,0,0,0,.87-.52.86.86,0,0,1,.2-.2m0,6.88v2l-.2-.2L120.39,48V46.06l.77.85Zm0,6.15V65.82c-.5-.69-.8-1.3-1.07-1.71V51.8a7.11,7.11,0,0,1,1.07,1.58m0,21V86.92a14.62,14.62,0,0,1-1.07,1.47V76.08a6.63,6.63,0,0,1,1.07-1.68m0,16.44v2l-.3.31-.77.86V92.11l.87-1Zm-2.89-63.76a11.9,11.9,0,0,1,1.82,1.16v3l-.85-.65-1-.55Zm1.82,84.67a14.88,14.88,0,0,1-1.82,1.06V110l1-.52.85-.61Zm0-74.91V39l-.92,1c-.33.35-.33.66,0,.86s.62.44.92.21v.87l-1-.77-.79-.62V38.74Zm0,9.22V48l-.2-.36-1-1.25-.57-.4V44.15l.25.09L120,45.55Zm0,5.74V64.11a.66.66,0,0,0-.09-.45.72.72,0,0,0-1.39,0,2.78,2.78,0,0,1-.34.54V49.45a14.51,14.51,0,0,1,1.82,2.35m0,24.28V88.39a17.06,17.06,0,0,1-1.82,2.35V76c.11.07.11.2.25.3a.79.79,0,0,0,1.48.1.43.43,0,0,0,.09-.33m0,16V94l-.4.52-1.17,1.29-.25.1v-1.8l.57-.45,1-1.26Zm-1.82-59V32.7l1.52.95-1,1.58-.23-.22a1.32,1.32,0,0,0-.34-1.92m-2-7.1c.73.33,1.36.76,2,1.09V30l-.91-.62-1-.66Zm2,86.82a11.45,11.45,0,0,1-2,1.18v-2.67l1-.65.91-.65Zm0-80.11v.39a1.36,1.36,0,0,1-.26-.3l-1.7,2.63V32.7L117,32c-.1-.08-.2-.08-.42-.21v-.3Zm0,6v1.81l-1.32-1.4.09-.17c.32.17.43.27.63.27a.63.63,0,0,0,.41-.21Zm0,5.41V46l-.7-.87-1.17-1.17h-.09v-1.7l.91.86Zm0,5.3V64.2a16.74,16.74,0,0,0,0,11.81V90.74a11.82,11.82,0,0,1-2,2.23V47.12a19.66,19.66,0,0,1,2,2.33m0,44.68v1.8l-1,1.09-.91.8V96.14h.09L117.87,95Zm-5.38-69.82c1.14.55,2.34,1.05,3.42,1.68v2.75l-1-.5-2-1.06-.43-.24ZM116.61,114a36,36,0,0,1-3.42,1.67v-2.52l.43-.2,2-1.09,1-.53Zm0-82.46v.3a1.5,1.5,0,0,0-1.9.54l-.24-.1,1-1.49Zm0,1.17v2.72l-.86,1.51c-.22.34-.3.54-.22.64s.11.32.53.53l-.2.2-2.67-1.67v-.11l.12-.14c.31.25.51.35.63.25s.31-.25.53-.45Zm0,9.53v1.7l-1.16-1L114,41.83l-.85-.66V39.71l.22.1,1.36.95,1.39,1.18Zm0,4.89V93c-.09.09-.09.19-.23.32A28.74,28.74,0,0,1,113.19,96v-52a25.94,25.94,0,0,1,2.87,2.55l.55.52m0,49v1.68l-.45.35-1.39,1-1.36,1.07-.22.1V98.91l.85-.66,1.41-1.06Zm-3.42-64.43v0Zm-3.26-8.8a35.13,35.13,0,0,1,3.26,1.4v2.63l-1.68-.7-1.58-.66Zm3.26,92.75a28.56,28.56,0,0,1-3.26,1.4V114.5l1.58-.64,1.68-.72Zm0-84.88v.93a3.77,3.77,0,0,1-.3,1.08,2.92,2.92,0,0,1-3,1.92v-.66a3.64,3.64,0,0,0,1.45-1.87c.77-1.81.64-3-.21-3.44a2,2,0,0,0-1.24.12v-.62a7,7,0,0,1,1.36.2,3.67,3.67,0,0,1,1.9,2.34m0,5.74v.11h-.08Zm0,3.19v1.46l-.5-.41-1.4-.86-1.36-.75V37.78l.4.21,1.59.86Zm0,4.34V96a12.47,12.47,0,0,1-2.36,1.58c0-18.34-.19-36.93-.19-55.26a16.29,16.29,0,0,1,2.55,1.69m0,54.86v1.48l-1.27.86-1.59.84-.4.2v-1.4l1.36-.72,1.4-1Zm-10.47-78a61.17,61.17,0,0,1,7.21,2v2.67l-.54-.22-2.23-.74L104.91,24l-2.19-.52Zm7.21,96.14a63.69,63.69,0,0,1-6.31,1.79c-.29.11-.61.11-.9.25v-2.47l2.19-.55,2.25-.62,2.23-.75.54-.21Zm0-88.82v.62a5,5,0,0,0-1.51,1.92c-.76,1.79-.64,2.87.32,3.4a1.41,1.41,0,0,0,1.19-.13v.66l-1.28-.32A3,3,0,0,1,107,30.15a2.8,2.8,0,0,1,2.91-1.91m0,9.54v1.37L109.8,39l-1.58-.81-1.51-.66-1.58-.64-1.71-.55-.7-.31V34.8l1.15.43,1.67.54,1.62.61,1.58.79Zm0,63.11v1.4l-1.19.65-1.58.74-1.62.64-1.67.54-1.15.42v-1.4l.7-.2,1.71-.53,1.58-.65,1.51-.61,1.58-.87Zm-7.21.66c2.1-.71,3.48-1.38,4.86-2V46.37a12,12,0,0,0-4.16,2.55c-.2.32-.56.66-.7,1Zm0-56.45a5,5,0,0,1,1.23-1c2-1.27,3.91-.84,3.63-2.85-.15-1.3-1.92-1.72-3-2.15a8,8,0,0,0-1.89-.61Zm0-12.92v-.35c.7-.19,1.23-1,1.56-2.53.33-1.82.13-2.87-1-3.18h-.61v-.41c.14,0,.4.08.7.08a3.21,3.21,0,0,1,2.46,3.92c-.55,1.7-1.6,2.56-3.16,2.47M95.91,20a51.57,51.57,0,0,1,6.81.89v2.57h-.15L100.25,23l-2.46-.3-1.88-.1Zm6.81,99.07a35.46,35.46,0,0,1-6.81-.25v-1.38l1.88-.1,2.46-.31,2.32-.43h.15Zm0-93.39v.41a3.09,3.09,0,0,0-1.62,2.44c-.42,1.9-.12,3,1,3.27h.67v.35A1.56,1.56,0,0,1,102,32a3,3,0,0,1-2.42-3.8,3.1,3.1,0,0,1,3.18-2.53m0,9.09v1.27l-.9-.19-1.7-.46-1.76-.28-1.71-.22h-.74V33.65l.83.1,1.8.2,1.84.34,1.67.42Zm0,3.74V45.1a12.26,12.26,0,0,0-4.59,7.12,28.3,28.3,0,0,0-.34,6.26v44.28c-.39.09-1.05.09-1.88.18V37.17a26.92,26.92,0,0,1,6.81,1.37m0,11.34A9.31,9.31,0,0,0,101,56c0,2.42.12,5.2,0,8.07v38c.65-.11,1.18-.32,1.74-.45Zm0,54v1.4l-.67.08-1.67.43-1.84.34-1.8.2-.83.1v-1.25h.74l1.71-.32,1.76-.2,1.7-.44ZM95.91,31v-.24h.5l-.06.24Zm0-3v-.35c.63,0,1.06-.4,1.15-1.26h.34l-.24,3.08h-.32c0-1-.3-1.37-.93-1.47m0-2.88h.5a3.52,3.52,0,0,1,1.51.42,2.72,2.72,0,0,1,.44,1.26h.18l.11-1.92-2.74-.06ZM93,20c1,0,1.92.06,2.88.06v2.61l-.42-.14H93Zm2.88,98.88a27.72,27.72,0,0,0-2.88-.1v-1.16h2.46l.42-.12Zm0-94v.3c-.13.1-.13.2-.13.42l-.21,2a.39.39,0,0,0,.34.11V28h-.34l-.08,2a.59.59,0,0,0,.08.65.47.47,0,0,1,.34.11V31l-2.78-.24v-.21c.3,0,.55,0,.63-.11s.23-.2.23-.54l.31-4.34c0-.42-.21-.72-.87-.72l.15-.24Zm0,8.79v1.27l-1.06-.12H93V33.53h1.82Zm0,3.52v65.77c-.86,0-1.92.12-2.88.12V37c1,0,1.92.14,2.88.14m0,68v1.25H94.85l-1.82.11v-1.26h1.82ZM93,118.75c-3,0-5.9.64-8.8.44v-2.36l1.58.23,2.35.31,2.45.22H93Zm-8.8-97.93A47.12,47.12,0,0,1,93,20V22.5H90.61l-2.45.24-2.35.3-1.58.2ZM93,33.53V34.8H91.22l-1.77.12-1.85.22-1.68.28-1.69.46V34.62l1.49-.33L87.43,34l1.87-.2,1.83-.22ZM93,37v66a38.49,38.49,0,0,1-4.78-.3V58.48a28.34,28.34,0,0,0-.2-6.07,12.11,12.11,0,0,0-3.82-6.67V38.3A31.85,31.85,0,0,1,93,37m0,68.25v1.26l-1.9-.11-1.83-.1-1.87-.2-1.71-.34-1.49-.31v-1.26l1.69.44,1.68.2,1.85.32,1.77.1Zm-8.8-3.49c.32.1.63.1.93.21V62.1c.11-5.77.25-8.62-.93-11Zm0-72.93V26.94l2.45,2.12-.47-2.74a.8.8,0,0,0-1-.74v-.22l2-.29.06.19c-.51.1-.76.45-.62.86l1,5.29h-.25Zm0,90.33a6.27,6.27,0,0,1-2.12-.34,3,3,0,0,1-.85-.21v-2.42l2.24.41.73.2Zm-3-97.87c1.08-.22,2-.4,3-.5v2.42l-.73.25-2.24.41Zm3,5.62v1.92l-1.81-1.57.63,3.59c0,.65.35.83,1,.76v.19l-2,.44V32a1.25,1.25,0,0,0,.64-.33,1.12,1.12,0,0,0,0-.6l-.77-4.27a2.46,2.46,0,0,0-.62-.41v-.31l1.58-.33Zm0,7.68v1.26l-1.69.5-1.28.46V35.42l1-.19,1.71-.52Zm0,3.68v7.44a9.53,9.53,0,0,0-1.89-1.39,6.05,6.05,0,0,0-1.08-.63V39.25a29.55,29.55,0,0,0,3-1m0,12.85v50.64c-.83-.34-1.89-.66-3-1.09V47.75a2,2,0,0,1,.75.57,8.6,8.6,0,0,1,2.22,2.83m0,53.07v1.26l-.3-.12-1.71-.5-1-.2v-1.4l1.28.42Zm-3-71.65v-.3c.09.1.21,0,.32,0l.09.22Zm0,86.07c-1.3-.31-2.55-.64-3.84-1v-2.67l1.51.54,2.24.62.09.14ZM77.42,22.5c1.29-.4,2.54-.85,3.84-1.18V23.9l-.09.11-2.24.61-1.51.54Zm3.84,3.62v.31a.32.32,0,0,0-.23-.11l-.09-.2Zm0,6.15v.3l-2.45,1v-.2h.12c.44-.24.54-.41.44-.63s-.44-.52-.89-1l-1.06.47v-.35l.88-.3-.88-1v-2l2.78,2.85c.41.55.74.77.83.77a.48.48,0,0,0,.23.09m0,3.15v1.42l-.32.09-1.57.64-1.6.66-.35.21V37l1.39-.65,1.71-.61Zm0,3.83v4.47a8.6,8.6,0,0,0-1.6-.63,1.58,1.58,0,0,1-.29-2.94c.59-.34,1.24-.57,1.89-.9m0,8.5v53a24.33,24.33,0,0,1-2.55-1V46.47a7.7,7.7,0,0,1,2.55,1.28m0,55.51v1.4l-.74-.34-1.71-.64-1.39-.62v-1.38l.35.21,1.6.61,1.57.65ZM77.42,34.05v-.2l.12.2Zm0,83.54A49.24,49.24,0,0,1,71.19,115v-2.73l1.24.65,2.13.92,2.12.85.74.21ZM71.19,25.07a46.45,46.45,0,0,1,6.23-2.57v2.66l-.74.2-2.12.88-2.13.94-1.24.62Zm6.23,3.49-.91-.87h-.22l-.13,5.54c.13.72-.1,1.16-.4,1.28l.08.2,1.58-.66v-.2c-.39.1-.74.1-.74-.1a3.41,3.41,0,0,1-.09-1.26l.83-.31v-.35l-.83.35V29.71l.83.86Zm0,8.47v1.41l-1.13.6-1.53.86-1.46.86-1.38,1.07-.73.53v-1.6l1.46-.95,1.49-1L75.63,38l1.58-.82Zm0,64.65v1.38l-.21-.12-1.58-.85-1.49-.84-1.49-1-1.46-1.07v-1.5l.73.53,1.38,1,1.46,1,1.53.85Zm-6.23-6.9a39.07,39.07,0,0,0,4.23,3c0-8.47-.09-17.07-.09-25.54a6.38,6.38,0,0,0-4.14,1.47Zm0-28.45a5.92,5.92,0,0,0,4.14,1.39c.09-8.4,0-16.57,0-25.36a21.17,21.17,0,0,0-4.14,3Zm0-29.16a6.3,6.3,0,0,0,1.56-.54,3.1,3.1,0,0,0,1.3-4.36,3.42,3.42,0,0,0-2.86-1.7v.84A4.31,4.31,0,0,1,72.57,33c1,1.68,1,2.85.08,3.35a1.4,1.4,0,0,1-1.46-.05Zm0,77.85c-1.06-.52-2-1-3.1-1.58v-2.86l.33.09,1.89,1.18.88.44Zm-3.1-88.38c1.07-.52,2-1.18,3.1-1.57V27.8l-.88.44L68.42,29.4l-.33.11Zm3.1,3.93v.84a1.43,1.43,0,0,0-1.38-.12c-1,.54-1,1.74,0,3.42a5,5,0,0,0,1.38,1.62v.84a3.2,3.2,0,0,1-2.77-1.75c-.11-.19-.23-.41-.33-.62V32.7A3.41,3.41,0,0,1,69.6,31a5.12,5.12,0,0,1,1.59-.45m0,10.19v1.6l-.55.52-1.28,1L68.09,45.1V43.42l.44-.33,1.28-1.15Zm0,4.56v21a5.76,5.76,0,0,1-1.72-2.67.75.75,0,0,0-1.38-.09V48.39a42.73,42.73,0,0,1,3.1-3.07m0,28.43v21c-1.06-1-2.13-2-3.1-3.08V76.41c.64.82,1.38.52,1.51-.1a7.12,7.12,0,0,1,1.59-2.56m0,24v1.5l-1.38-1L68.53,97l-.44-.33V95l1.27,1.17,1.28,1Zm-3.1-58.14V38.23a2.66,2.66,0,0,1,.22.75c-.12.17-.12.41-.22.6m0,73.86c-1.27-.75-2.41-1.5-3.6-2.31v-3h.1l1.8,1.39,1.7,1.08ZM64.49,29c1.19-.83,2.33-1.57,3.6-2.33v2.87l-1.7,1.06L64.59,32h-.1Zm3.6,3.73v2.1a3.74,3.74,0,0,1,0-2.1m0,5.53a3.72,3.72,0,0,0-.5-.9L65.68,35c-.34-.3-.34-.62,0-1.06l-.11-.1-1.08.86V35c.43-.09.64,0,1,.41l1.8,2.15c.85,1,.85,1.82,0,2.58-.63.51-1.37.4-2.11-.57l-.64-.73v2.22a2,2,0,0,0,1.08.34,2.59,2.59,0,0,0,1.67-.86,3.61,3.61,0,0,0,.85-1Zm0,5.19V45.1L67,46.37l-1.21,1.25L64.81,49l-.32.29v-2l.43-.41,1-1.36,1.27-1.31Zm0,5a38,38,0,0,0-3.6,5.09V86.72a47.42,47.42,0,0,0,3.6,5V76.41c0-.1-.08-.2-.08-.33-1.93-3.9-1.27-9.13,0-12.42l.08-.09Zm0,46.58v1.72l-.85-.86L66,94.54l-1-1.38-.43-.4v-2l.32.35.93,1.33L67,93.68Zm-3.6,16.16-2.25-1.71v-3.19l.57.55,1.68,1.33ZM62.24,30.67C63,30,63.76,29.51,64.49,29v3l-1.68,1.37-.57.52Zm2.25,4V35a3.64,3.64,0,0,1-.34.34l-.1-.21Zm0,4.14v2.22c-.11-.09-.34-.31-.54-.52l-1.71-2.11V36.63l.87-.75.23.09c-.32.36-.53.55-.43.66-.1.21,0,.3.2.64Zm0,8.47v2l-.73,1.08-.85,1.39-.67,1V50.49l.57-.82.95-1.35Zm0,6.16V86.72a51.79,51.79,0,0,1-2.25-4.91V58.37a48.23,48.23,0,0,1,2.25-4.89m0,37.26v2l-.73-1-.95-1.36-.57-.85V87.23l.67,1,.85,1.39ZM62.24,45.87v-.43c.12,0,.12-.12.23-.24.44-.52.44-.85,0-1.05l-.23-.31V41.5l.23-.2.11.11c-.11.3-.22.42-.22.6s.11.22.45.42l.95.79a6.27,6.27,0,0,1-1.18,2.22,2,2,0,0,1-.34.43m0,63.55c-.71-.53-1.35-1.08-2-1.58v-3.43l.83.87,1.17,1Zm-2-77.15c.65-.56,1.29-1.05,2-1.6v3.18l-1.17.95-.83.87Zm2,4.36v1.81L62,38.23a1.44,1.44,0,0,0-.5-.45,1,1,0,0,0-.64.21l-.13-.1Zm0,4.87v2.34l-.49-.36a.65.65,0,0,0-.46-.17,1.72,1.72,0,0,0-.63.53l-.1-.12Zm0,3.94v.43a3.61,3.61,0,0,1-2,1V45.64a1.67,1.67,0,0,0,2-.2m0,5.05v2.33l-.21.45-.83,1.47-.64,1.59-.32.78V54l.65-1.27,1-1.6Zm0,7.88V81.81a31,31,0,0,1-2-9.11V67.6a31,31,0,0,1,2-9.23m0,28.86v2.36l-.4-.66-1-1.61-.65-1.26V83l.32.74.64,1.58.83,1.5Zm-2-46.16v-.41l.42.32-.1.19c-.09,0-.2-.1-.32-.1m0,66.77c-.83-.76-1.58-1.51-2.34-2.22v-3.53l1.51,1.59.83.73ZM57.9,34.51c.76-.76,1.51-1.48,2.34-2.24v3.4l-.83.71L57.9,38Zm2.34,6.15v.41a2.43,2.43,0,0,0-2.34.54v-.44c.23-.19.43-.31.66-.51s.31-.25.41-.25,0-.26-.1-.51l.1-.19Zm0,5v1.27A3.78,3.78,0,0,1,58,46.16c0-.1-.13-.1-.13-.1V43.72a4.79,4.79,0,0,0,1.17,1.07,7.85,7.85,0,0,0,1.17.85m0,8.38v3.09L60,58l-.67,1.58-.41,1.71-.4,1.66-.34,1.73-.23,1.78V60.17l.23-.93.64-1.73L59.41,56l.73-1.73Zm0,13.58v5.1a43.39,43.39,0,0,1,0-5.1m0,15.39v3.07l-.1-.22-.73-1.66-.64-1.61-.64-1.7-.23-1V73.61l.23,1.74.34,1.82.4,1.68.41,1.59L60,82.13Zm-2.34,5.4V88l.13.31Zm0,17.23c-.4-.44-.85-.87-1.27-1.3v-3.73L57.81,102l.09.09ZM56.63,35.77c.42-.42.87-.85,1.27-1.26V38l-.09.11-1.18,1.39Zm1.27,5.4v.44c-.09,0-.09.1-.09.1a1.45,1.45,0,0,0,.09,2V46a3,3,0,0,1-.4-4.36,1.21,1.21,0,0,1,.4-.44m0,19V67l-.09,1.3L57.72,70l.09,1.83.09,1.26v6.78l-.18-.74-.43-1.78L57,75.55l-.2-1.8-.12-1.26V67.6l.12-1.27.2-1.81.34-1.82.43-1.81Zm0,27.8v.42h-.09a.88.88,0,0,0-.47-.52,1.29,1.29,0,0,0-.51.1l-.2.11V86.36c.12-.06.12-.3,0-.52v-.65c0,.12.12.21.2.45ZM56.63,55.49V52.75l.42.22a6.07,6.07,0,0,1-.42,2.52m0,48.83c-.42-.44-.85-1-1.27-1.38V99l1,1.26.3.3ZM55.36,37.17c.42-.44.85-1,1.27-1.4v3.72l-.3.32-1,1.26Zm1.27,15.58v2.74a7.22,7.22,0,0,1-1.27,1.71v-1a1.28,1.28,0,0,0,1.06-1c.33-.65.21-1-.21-1.16l-.85-.32V51.49h.25c-.25.4-.25.62-.12.73s.21.19.51.3Zm0,14.85v4.89l-.12-.55v-3.8Zm0,17.59v.65a1.16,1.16,0,0,0-1.27-.65V84a4,4,0,0,1,1.27,1.24m0,1.17v1.72l-1.27.54V87l1-.42c.09-.1.18-.1.3-.24m-1.27-3.58v-1l.25,1Zm0,20.16c-.51-.54-1-1-1.39-1.56V97.19l1,1.29.41.55ZM54,38.74c.44-.51.88-1.05,1.39-1.57v3.9l-.41.54-1,1.27Zm1.39,12.75v2.32h-.08a.59.59,0,0,0-.53,0c-.12,0-.21.21-.42.62l-.14-.11Zm0,4.75v1a5,5,0,0,1-1.39.42V56.15a8.09,8.09,0,0,0,1.39.09m0,25.57v1a2.2,2.2,0,0,1-.32-.65,1,1,0,0,0-.5,0l-.57.1V80.75l.36-.09c.3,0,.42-.35.3-.85A2.12,2.12,0,0,0,54,78.53V77.47h.44Zm0,2.14v1.24c-.19.12-.32.12-.41.21a1.49,1.49,0,0,0-1,1V84.18c.12-.13.12-.13.22-.13a1.43,1.43,0,0,1,1.17-.1m0,3.07v1.6L54,89.23V86.81a3.92,3.92,0,0,1,.12.51l.1.27ZM54,76.72v-1.8l.22,1.8Zm0-3.52v-.83a.47.47,0,0,0,.22-.43.64.64,0,0,0-.22-.5V70.36a1.9,1.9,0,0,1,.57,1.49A1.58,1.58,0,0,1,54,73.2m0-9v-1h.22Zm0-3.61V59.54l1.2.33v.19Zm0,40.79a9.3,9.3,0,0,0-1.28-1.71V95.2l.88,1.4.4.59Zm-1.28-61A10.51,10.51,0,0,0,54,38.74v4.14l-.4.6-.88,1.31ZM54,56.15v1.47a6.42,6.42,0,0,1-1.28-.21V55.73c.11,0,.2.12.33.12.34.1.65.19.95.3m0,3.39v1.05l-1.28.66V59.67h0v-.43Zm0,3.71v1l-.19.93h-.21c0-.4,0-.61-.11-.73s-.22-.2-.44-.29h-.33v-.45h.2c.57.24.89.11,1.08-.41m0,7.11v1.08c-.08,0-.3-.12-.51,0h-.77V70a1.57,1.57,0,0,1,1.28.4m0,2v.83c-.08.11-.3.11-.51.24a.74.74,0,0,1-.77-.63c0-.44.33-.63.77-.63h.21a.3.3,0,0,0,.3.19m0,2.55v1.8a5.56,5.56,0,0,1-.19-.64,1.18,1.18,0,0,0-.54-.07l-.55.07V74.62H53c.44-.12.65-.42.55-1.08h.21Zm0,2.55v1.06a2.57,2.57,0,0,0-1.28-.75v-.21Zm0,3.28v1.48l-1.28.23V81Zm0,3.43v3.41c-.19-.48-.4-.78-.73-.87-.08-.12-.35-.12-.55,0V85.54c.2.18.47.46.77.76v-.13c-.22-1-.1-1.58.51-2m0,3.48v1.57l-1.17.55h-.11V88.19ZM52.69,79.6v-.32l.47-.13v.24a.87.87,0,0,0-.47.21m0-11.88V66.33h.2c.57,0,.78-.21.89-.83H54l-.3,3.17h-.21a3.5,3.5,0,0,0-.1-.63c-.12-.24-.34-.24-.56-.24Zm0-15.71v-.66l.88.32-.11.22a1.69,1.69,0,0,0-.77.12m0,47.66a49.94,49.94,0,0,1,0-59.26v4.38l-.39.65-1.07,2-1.06,2-1,2.11-.87,2.17L47.6,56,47,58.15l-.55,2.33L46,62.81l-.3,2.32-.23,2.47L45.39,70l.1,2.47.23,2.43.3,2.31.44,2.37L47,82l.59,2.22.75,2.18.87,2.16,1,2.09,1.06,2,1.07,2,.39.53Zm0-48.32-1.15-.51-.1.31a.46.46,0,0,1,.31.52l-.31.34a3.7,3.7,0,0,0-.84,1.15,3.26,3.26,0,0,0,1.9,4.25h.19V55.73C51.12,55,50.6,54.13,51,53.16A2,2,0,0,1,52.69,52Zm0,7.89-2.61-.76c-.56,0-.66-.33-.66-.86h-.2l-.44,1.92H49c.23-.57.53-.76,1.09-.63l2.61.76Zm0,.43-4.43,2.11-.53,1.88h.18s.35-.3.87-.66l3.91,1.11v-.45l-3.27-.85,3.27-1.56Zm0,6.66-4.13-.41c-.4,0-.65-.3-.65-.86L48,65h-.21l-.32,3.17h.23c0-.54.3-.84.73-.73l4.23.31Zm0,3.63H48.56a1.54,1.54,0,0,1-.74-.11,5.84,5.84,0,0,1-.09-.66H47.5v3.18h.23a4.15,4.15,0,0,1,.09-.74.79.79,0,0,1,.53-.19h4.34Zm0,4.66-4,.5a.67.67,0,0,1-.74-.72l-.09-.11H47.6L48,77.47h.23a.72.72,0,0,1,.61-1l3.82-.43Zm0,2.95H52.5v.21h.19Zm0,1.71-2.52.53V80a1.66,1.66,0,0,1,1.14.24c.23.07.33.42.44,1l-2,.41c-.33.1-.53-.13-.53-.51-.23-.79-.23-1.29,0-1.6a1.13,1.13,0,0,1,1-.76v-.3l-1.82.41,1.17,5.2.12-.1a.71.71,0,0,1,.53-1l2.52-.53V81l-.64.14a1.93,1.93,0,0,1,.14-1.1,1.16,1.16,0,0,1,.5-.4Zm0,6.26a1.43,1.43,0,0,0-1.15-.14c-.85.44-.94,1.41-.31,2.88l1.16,2.56.21-.1c-.21-.43-.21-.79.09-1V88.19l-.64.33c-.21.1-.41,0-.51-.33-.31-.53-.1-1.08.65-1.38a4.31,4.31,0,0,0,.5-.09Z"/><path class="cls-4" d="M93.43.11,157,23.36v9.73c-.2,25.39-3.52,43.22-13.71,64.1-10.5,21.26-27.05,37.39-49.9,49.16v-3.3l.46-.2,2-1.09,2-1.16,2-1.16,1.88-1.17,1.92-1.25,1.92-1.31,1.77-1.26,1.85-1.26,1.69-1.28,1.81-1.4,1.69-1.36,1.59-1.38,1.6-1.49,1.59-1.37,1.62-1.51,1.44-1.56,1.47-1.49,1.42-1.6,1.47-1.57,1.27-1.63,1.39-1.69,1.25-1.57,1.28-1.71,1.27-1.8,1.19-1.7,1.16-1.8,1.05-1.81,1.07-1.92,1.06-1.79,1.06-1.94,1-1.89,1.07-2.25.93-2.09,1-2,.85-2.13.83-2.15.74-2,.74-2,.78-2.16.6-2,.64-2,.63-2.12.57-2,.41-2.12.51-2.11.43-2,.44-2.12.27-2.23.34-2.1.34-2.24.23-2.23.3-2.25.1-2.32.2-2.33.16-2.47L154,42V39.58l.1-2.55.1-2.64V26.32l-.1-.86L93.43,3.17ZM93,0l.4.11V3.17L93,3.06,32.88,25.46V40L33,42.88l.09,2.86v2.65L33.19,51l.19,2.42.12,2.47.22,2.3.21,2.12.23,2.24.34,2,.29,2,.33,2,.39,1.89.31,1.82.53,1.81.47,1.79.53,1.79L38,79.5l.5,1.7L39.14,83l.73,1.69.72,1.82.87,1.78.84,1.83L43.17,92l.93,1.79,1.09,2,1.05,1.89,1.06,2,1.16,1.78,1.18,1.91,1.18,1.82L52,107l1.24,1.71,1.3,1.8,1.37,1.71,1.25,1.58,1.4,1.7,1.46,1.6,1.38,1.58,1.51,1.58,1.47,1.62L66,123.32l1.49,1.48,1.6,1.48,1.7,1.39,1.57,1.38,1.72,1.39,1.71,1.38,1.78,1.37,1.67,1.26L81,135.71,83,137l1.8,1.25,1.92,1.17,1.9,1.16,1.88,1.16L92.51,143l.64.32.28-.22v3.3a.44.44,0,0,1-.4.21C71.19,134.68,54,118.45,42.65,97.19,31.16,75.88,29.59,62.61,30,23.36Z"/><path class="cls-2" d="M60.14,100.89a136.23,136.23,0,0,1,65.7,0c8.28,2.26,11.47,2.92,16.65,4.59,3.49,1.06,5.41-.51,1.91-1.6-2.54-.82-3.83-2.2-.83-2l15,4.24-10.21,13-4.89-1.3,3.31-11-6.81,17.06c-.73,2-2.11,2.32-3.81,1.92-31.5-10.94-54.76-10.94-86.36,0A2.79,2.79,0,0,1,46,123.84l-6.78-17.06,3.29,11-5,1.3-10.06-13,15-4.24c3-.21,1.67,1.17-.84,2-3.52,1.09-1.61,2.66,1.88,1.6,5.18-1.67,8.37-2.33,16.67-4.59"/><path class="cls-4" d="M92.93,95.28a143.49,143.49,0,0,1,46.89,8.19l-.1-.11c-.33-1.36,0-2,1.25-2.66.8-.53,2.6-.53,4.05-.11l16.15,4.59-12.43,15.68L143,119.5l-2.32,6.66c-.78,2.23-3.39,1.83-5.31,1.1-15.6-5.3-29-8.07-42.46-8.07v-1.72c13.68,0,27.46,2.75,43.18,8.29,1.7.4,3.08.09,3.81-1.92l6.81-17.06-3.31,11,4.89,1.3,10.21-13-15-4.24c-3-.21-1.71,1.17.83,2,3.5,1.09,1.58,2.66-1.91,1.6-5.18-1.67-8.37-2.33-16.65-4.59a143.25,143.25,0,0,0-32.91-4Zm-42.45,32c-1.83.73-4.46,1.13-5.18-1.1L43,119.5l-5.73,1.36L24.71,105.18,41,100.59a5.57,5.57,0,0,1,4,.11c1.23.68,1.64,1.3,1.31,2.66l-.08.11a143.21,143.21,0,0,1,46.77-8.19v1.61a142.77,142.77,0,0,0-32.79,4c-8.3,2.26-11.49,2.92-16.67,4.59-3.49,1.06-5.4-.51-1.88-1.6,2.51-.82,3.8-2.2.84-2l-15,4.24,10.06,13,5-1.3-3.29-11L46,123.84a2.79,2.79,0,0,0,3.73,1.92c15.82-5.54,29.46-8.29,43.18-8.29v1.72c-13.37,0-26.85,2.77-42.45,8.07"/><path class="cls-3" d="M93,88.83A12.84,12.84,0,1,1,80.2,101.68,12.87,12.87,0,0,1,93,88.83"/><path class="cls-1" d="M96.41,128.52v-.75a1.25,1.25,0,0,0,1.18-.73A6.25,6.25,0,0,0,98,124.8c-.1.11-.1.2-.23.31a1.77,1.77,0,0,1-1.38.65V125a2.87,2.87,0,0,0,1.08-.42,4.35,4.35,0,0,0,.43-1,1.72,1.72,0,0,0-.43-1.07,1.41,1.41,0,0,0-1.08-.43v-.85h.13a2,2,0,0,1,1.82,1,4.61,4.61,0,0,1,.6,2.66,6.08,6.08,0,0,1-.72,2.87,2.41,2.41,0,0,1-1.83.85m9.47-4.57a5.29,5.29,0,0,1-1.27,2.21,20.38,20.38,0,0,1-2.65,2l3.7.21-.12.85-4.86-.41v-.44l.1-.4a13,13,0,0,0,3-2.33c.78-.75,1.17-1.28,1.17-1.82a.85.85,0,0,0-.18-.85,2,2,0,0,0-1-.41,1.52,1.52,0,0,0-1,.29,1,1,0,0,0-.4.87l-1-.11a1.72,1.72,0,0,1,.74-1.36,2.74,2.74,0,0,1,1.71-.43,2.61,2.61,0,0,1,1.46.62,1.91,1.91,0,0,1,.55,1.49m-9.47-2.77V122a1.36,1.36,0,0,0-1.06.35,1.31,1.31,0,0,0-.4,1,2,2,0,0,0,.3,1.18,1.91,1.91,0,0,0,1.1.42h.06v.76h-.06a2.29,2.29,0,0,1-1.74-.65A2.22,2.22,0,0,1,94,123.4a1.82,1.82,0,0,1,.75-1.56,2.14,2.14,0,0,1,1.67-.66m0,6.59v.75h-.29a2.28,2.28,0,0,1-1.51-.43,2.16,2.16,0,0,1-.72-1.49l1,.11c.1.33.2.65.4.76a1.31,1.31,0,0,0,.87.3Zm-7.4,1v-.84a1.28,1.28,0,0,0,1.35-.85,5.55,5.55,0,0,0,.31-2.24c-.06.11-.06.2-.21.31a2,2,0,0,1-1.45.74v-.74c.44-.11.85-.2,1-.53a1.24,1.24,0,0,0,.4-1,1.66,1.66,0,0,0-.5-1.07,1.35,1.35,0,0,0-.95-.32v-.83a2.2,2.2,0,0,1,1.8.72,4.25,4.25,0,0,1,.83,2.65,7.81,7.81,0,0,1-.51,3,2.73,2.73,0,0,1-2,1.06Zm-6.9-5.41c-.23.08-.35.31-.44.42a3.89,3.89,0,0,1-1.06.64l-.09-.85.83-.54c.23-.22.41-.41.76-.72l.73-.13,1,7h-.54l-.42.09Zm6.9-2v.83H88.9a1.28,1.28,0,0,0-1.07.44,1.76,1.76,0,0,0-.3,1.16.94.94,0,0,0,.42.94,1.22,1.22,0,0,0,1.06.43v.74a2,2,0,0,1-1.73-.51,2.1,2.1,0,0,1-.71-1.6,2.45,2.45,0,0,1,.62-1.71,2.32,2.32,0,0,1,1.71-.72Zm0,6.58v.84a2,2,0,0,1-1.48-.41,2.16,2.16,0,0,1-.76-1.4h.83c.13.34.23.66.56.75s.42.22.85.22"/><path class="cls-3" d="M134,122.14l-3.61-1.28-3.81-8.77L125.2,119l-4.52-1L124,103.68l3.39,1.29,4.14,9.43,1.72-7.52,3.93,1.36Zm-20.88-11v-3.22l2.22.43.53-2.65-2.75-.51v-4.05l5.2.87,2.25,2.75L118.08,117l-4.14-.89.83-4.76Zm0-10v4.05l-2.28-.32-.5,2.64,2.78.41v3.22l-3.31-.55-.85,4.67-4.22-.63,2.52-12,3-1.9Zm-32.59,11-1.92,2.83-7.84,1.59-3.3-2-2.33-11,4-1.07,2.13,10.41,4.87-1-1.82-10.4,4.14-.75ZM62,107.71l-8.79,2.56,2.25,7.2,4.75-1.25-.66-2-2.29.55-.78-3.07,6.4-1.82,1.58,5.85-1.91,2.77-7.83,2.22-3-.62L49,111l2.24-3.69,9.84-2.88Z"/><path class="cls-1" d="M93,91.09a10.55,10.55,0,1,1-10.61,10.59A10.51,10.51,0,0,1,93,91.09"/><path class="cls-4" d="M98.36,108.11l.6-.2.75-3.25-1.35-1.4v-.76l1.69,1.72,3.28-2.13-.61-4.37c-.15-.1-.15-.2-.25-.31L99.71,95.6l-1.35.76v-.53l1.35-.73-.31-1.62a4,4,0,0,0-1-.72v-.54a7.71,7.71,0,0,1,2.74,2.25,11,11,0,0,1,2.77,6.91v.51a10.82,10.82,0,0,1-3.62,7.83c-.65.55-1.29,1-1.89,1.41v-.55a15.08,15.08,0,0,0,1.58-1.16,1.57,1.57,0,0,0,.44-.45l-1.19-.63-.83.33ZM93,102.76l-.76,2.93v-2.13l.24-1.16-.24-.31V95.4l.14-.2L92.27,95V93.79l.55,1.31,4.24,1.5,1.3-.77v.53L97.27,97l-.3,4.11,1.39,1.37v.76l-1.71-1.71Zm-.76,4.32,2.58,2.34,3.51-1.31v.56l-3.51,1.26L93,112.09a10.54,10.54,0,0,0,5.33-1.51v.55a11.59,11.59,0,0,1-6.09,1.35Zm6.09-14.86v.54a9.77,9.77,0,0,0-6-1.49l-.14.1v-.53a10.14,10.14,0,0,1,6.09,1.38m-6.09,13.47-.3,1.19.3.2v5.4c-.17,0-.3,0-.4-.11V105l.4-1.41Zm0-14.85v.53l-.4.33v-.86Zm0,3V95l-.4-.74V93.06Zm0,1.61v6.69l-.4-.54V95.93Zm-.4-4.56v.86l-.43.41.43,1v1.17l-1-1.88L89.09,92a11,11,0,0,0-3,1.79v-.63a11.37,11.37,0,0,1,5.74-2.32m0,5.09v5.62l-1.72-2.33-4,.54v-.43l3.93-.62Zm0,9v7.4A9.82,9.82,0,0,1,86.13,110v-.52A12.45,12.45,0,0,0,88,110.67l-.35-3.17-1.47-1.37v-.77l1.7,1.83,3.74-.65ZM86.13,93.16v.63a12.58,12.58,0,0,0-1.71,1.94l-.08,1.06,1.47,2.54h.32v.43l-.32.11-1.39,3.81,1.71,1.68v.77l-1.9-2-1.18.55a12.48,12.48,0,0,0,2.11,3.91c.35.32.65.65,1,.93V110a10.75,10.75,0,0,1-1.27-1.13A11.59,11.59,0,0,1,82.11,102v-.75a11,11,0,0,1,3.7-7.77,1.94,1.94,0,0,0,.32-.32"/><text class="cls-5" transform="translate(0 184.15) scale(1.1 1)">北京中赫国安</text></g></g></svg>