<svg xmlns="http://www.w3.org/2000/svg" viewBox="0 0 121.95 192.19"><defs><style>.cls-1{font-size:27.72px;font-family:MHeiGB5-Bold, MHeiGB5 Bold;font-weight:700;}.cls-1,.cls-19,.cls-5,.cls-7{fill:#fff;}.cls-17,.cls-2,.cls-3{fill:#e8262b;}.cls-10,.cls-11,.cls-12,.cls-13,.cls-14,.cls-15,.cls-16,.cls-17,.cls-18,.cls-19,.cls-2,.cls-21,.cls-22,.cls-23,.cls-24,.cls-25,.cls-26,.cls-27,.cls-28,.cls-29,.cls-30,.cls-31,.cls-32,.cls-33,.cls-34,.cls-35,.cls-36,.cls-37,.cls-38,.cls-39,.cls-4,.cls-40,.cls-41,.cls-42,.cls-43,.cls-44,.cls-45,.cls-46,.cls-47,.cls-48,.cls-49,.cls-50,.cls-51,.cls-52,.cls-53,.cls-54,.cls-55,.cls-56,.cls-57,.cls-58,.cls-59,.cls-6,.cls-60,.cls-7,.cls-8,.cls-9{fill-rule:evenodd;}.cls-18,.cls-4{fill:#f7eb1e;}.cls-6{fill:#7e7f7e;}.cls-8{fill:#444546;}.cls-9{fill:#aeaeae;}.cls-10{fill:#545453;}.cls-11{fill:#3a3a3a;}.cls-12{fill:#a2a1a1;}.cls-13{fill:#babbba;}.cls-14{fill:#818181;}.cls-15{fill:#5b5e5e;}.cls-16{fill:#08a44c;}.cls-17,.cls-18,.cls-19,.cls-60,.cls-61{stroke:#211f1f;}.cls-17,.cls-18,.cls-19,.cls-59,.cls-60,.cls-61{stroke-width:0.05px;}.cls-20,.cls-58,.cls-59{fill:#211f1f;}.cls-22{fill:#cda66f;}.cls-23{fill:#ffe2c2;}.cls-24{fill:#121417;}.cls-25{fill:#14151e;}.cls-26{fill:#da222c;}.cls-27{fill:#181114;}.cls-28{fill:#0f0c0d;}.cls-29{fill:#fbd900;}.cls-30{fill:#191313;}.cls-31{fill:#201213;}.cls-32{fill:#0c0c0c;}.cls-33{fill:#c79542;}.cls-34{fill:#121614;}.cls-35{fill:#0f1111;}.cls-36{fill:#151414;}.cls-37{fill:#b89753;}.cls-38{fill:#151419;}.cls-39{fill:#1f1510;}.cls-40{fill:#171317;}.cls-41{fill:#131316;}.cls-42{fill:#f2dbc2;}.cls-43{fill:#1a1613;}.cls-44{fill:#24ade3;}.cls-45{fill:#0f1b25;}.cls-46{fill:#5abae9;}.cls-47{fill:#dcebf2;}.cls-48{fill:#8cc9ed;}.cls-49{fill:#6cc6ef;}.cls-50{fill:#c6e3f6;}.cls-51{fill:#9fd0f0;}.cls-52{fill:#2f3133;}.cls-53{fill:#77c4ed;}.cls-54{fill:#ec9a25;}.cls-55{fill:#141525;}.cls-56{fill:#423a33;}.cls-57{fill:#8a7142;}.cls-59{stroke:#fff;}.cls-60,.cls-61{fill:none;}</style></defs><title>Asset 20</title><g id="Layer_2" data-name="Layer 2"><g id="Layer_1-2" data-name="Layer 1"><text class="cls-1" transform="translate(0 184.15) scale(1.1 1)">长春亚泰</text><path class="cls-2" d="M10.34,22.87H111.61V96.39s.59,39.23-50.77,50.17c0,0-45.74-5.9-50.5-47.54Z"/><rect class="cls-3" x="10.4" width="100.67" height="21.13"/><path class="cls-4" d="M61.12,25.22h46.36V94.7s.53,37-46.36,47.37v-.91c45.6-10.31,45.48-46.81,45.48-46.81V26.11H61.12Zm-46.63,0H61.12v.89H15.67V96.82C19.2,135,60.58,141.3,60.58,141.3c.19-.06.37-.09.54-.14v.91a1.26,1.26,0,0,0-.28.07s-42-5.6-46.35-44.94Z"/><rect class="cls-5" x="16.95" y="27.53" width="88.29" height="69.01"/><path class="cls-6" d="M29.23,118.62h3.51v0Z"/><path class="cls-7" d="M26.7,106.56h3.48c0,1.49,0,3,0,4.5H41.44v2c-3.77,0-7.48,0-11.22,0h0c0,.27-.05,3.39,0,3.39h2.49c0,.71,0,1.41,0,2.14H29.23a3.45,3.45,0,0,1-2-.74c-.14-.27-.29-.52-.43-.81,0-1.32-.06-2.67-.08-4-.6,0-1.22,0-1.82,0,0-.67,0-1.32,0-2h1.78C26.65,109.55,26.68,108.05,26.7,106.56Z"/><path class="cls-8" d="M43.81,118.5v0c5,0,9.94,0,14.92,0Z"/><path class="cls-9" d="M43.8,114.87c0,1.2,0,2.4,0,3.6v0C43.8,117.29,43.8,116.08,43.8,114.87Z"/><path class="cls-6" d="M79.62,118.44Z"/><path class="cls-7" d="M87.74,118.44H84.87V117c.41,0,.88,0,1.34,0v-4.6h2.71c0,1.72,0,3.45,0,5.15A1.25,1.25,0,0,1,87.74,118.44Z"/><path class="cls-7" d="M89.33,115.18h3A16.53,16.53,0,0,1,94.05,117h1.44c0,.49,0,1,0,1.47H92.13c-.22-.28-.39-.54-.55-.77s-.49-.6-.73-.92C90.32,116.23,89.81,115.7,89.33,115.18Z"/><path class="cls-7" d="M79.62,118.44V117h1a6.24,6.24,0,0,1,2-1.79h3.09l.1,0a29.91,29.91,0,0,0-2.53,2.37,10.33,10.33,0,0,0-.6.87Z"/><path class="cls-9" d="M41.08,118.34v-2h.06C41.14,116.53,41.14,118.34,41.08,118.34Z"/><path class="cls-8" d="M61.68,118.23c5.2,0,10.45,0,15.67,0v0Z"/><path class="cls-10" d="M77.35,118.23v0Z"/><path class="cls-8" d="M84.87,117a5.64,5.64,0,0,1,1.34,0C85.75,117,85.28,117,84.87,117Z"/><path class="cls-11" d="M79.62,117Z"/><path class="cls-6" d="M61.63,116.89c1.47,0,2.92,0,4.41,0v0C64.55,116.87,63.1,116.87,61.63,116.89Z"/><path class="cls-6" d="M68.91,116.87v0H70v0Z"/><path class="cls-6" d="M73,116.87v0c1.45,0,2.89,0,4.34,0v0C75.9,116.87,74.46,116.87,73,116.87Z"/><path class="cls-10" d="M68.91,108.28v8.59h0v-8.59Z"/><path class="cls-9" d="M73,108.31h0v0Z"/><path class="cls-12" d="M30.22,113.08v3.39c-.09,0,0-3.12,0-3.39Z"/><path class="cls-6" d="M73.46,115.58c.79,0,1.6,0,2.4.06A18.05,18.05,0,0,1,73.46,115.58Z"/><path class="cls-7" d="M61.9,109.93c.81,0,1.62,0,2.45,0,.15.4.3.81.43,1.25.17,1,.35,1.93.5,2.93,0,.47.11,1,.18,1.55H62.94a27.58,27.58,0,0,0-.81-4.82C62.07,110.66,61.81,110.12,61.9,109.93Z"/><path class="cls-7" d="M75.86,115.64c-.8,0-1.61-.06-2.4-.06.14-1.42.4-2.84.67-4.26a3.38,3.38,0,0,1,.51-1.41H77c-.19.6-.35,1.21-.53,1.81s-.25,1.15-.34,1.76S75.92,114.92,75.86,115.64Z"/><path class="cls-12" d="M43.17,113v1.83h-.05A11.77,11.77,0,0,1,43.17,113Z"/><path class="cls-13" d="M83.46,114.56c.78,0,1.56,0,2.37.06A19.66,19.66,0,0,1,83.46,114.56Z"/><path class="cls-14" d="M79.55,114.35v0c.62,0,1.24,0,1.92,0Z"/><path class="cls-9" d="M79.55,112.85v0Z"/><path class="cls-8" d="M35.33,114.09c-1.54,0-3,0-4.53,0a.08.08,0,0,0-.06,0Z"/><path class="cls-6" d="M43.17,113.08v0h1A8.7,8.7,0,0,0,43.17,113.08Z"/><path class="cls-8" d="M80.73,112h.59s0,0-.09.07A1.19,1.19,0,0,0,80.73,112Z"/><path class="cls-12" d="M30.18,106.56h0c0,1.48,0,3,0,4.51C30.19,109.55,30.18,108.05,30.18,106.56Z"/><path class="cls-10" d="M43.26,109.21v1.39h0A6.74,6.74,0,0,1,43.26,109.21Z"/><path class="cls-13" d="M79.85,110.28h0c2.11,0,4.23,0,6.36,0C84.08,110.28,82,110.28,79.85,110.28Z"/><path class="cls-15" d="M95.27,110.28h0v0Z"/><path class="cls-7" d="M30.8,114.13c1.5,0,3,0,4.53,0A21.22,21.22,0,0,1,39,116.35h2.06v2c-1.21,0-2.44,0-3.65,0A34.56,34.56,0,0,0,30.8,114.13Z"/><path class="cls-7" d="M69.45,107h7.9v1.31c-1.45,0-2.89,0-4.34,0v8.56c1.45,0,2.89,0,4.34,0v1.29h-7.9v-1.33H70v-8.54h-.57Zm-7.82,9.92c1.47,0,2.92,0,4.41,0v-8.56c-1.49,0-3,0-4.49,0V107h7.9v1.34h-.54v8.54h.54v1.33c-2.58,0-5.18,0-7.77,0C61.66,117.78,61.63,117.36,61.63,116.89Z"/><path class="cls-7" d="M85.83,114.62c-.81,0-1.59-.06-2.37-.06-.25-.43-.48-.87-.72-1.31a4.85,4.85,0,0,0-1.27,1.1c-.68,0-1.3,0-1.92,0v-1.46h.56c.38-.25.73-.51,1.12-.75,0-.07.06-.07.06-.07H79.62V110.9c2.19-.08,4.38-.08,6.59-.08v-.51c-2.13,0-4.25,0-6.36,0v-1.17c2.11,0,4.23,0,6.36,0v-.55c-2.16,0-4.32,0-6.48,0v-1.17h6.48v-.56h2.71v.56h6.47v1.15l-6.47.08v.52c2.1,0,4.2,0,6.35,0v1.17c-2.15,0-4.25,0-6.35,0,0,.17,0,.35,0,.51,2.19,0,4.37,0,6.56.08V112H93.58l0,.07a2.55,2.55,0,0,0,.9.73c.38,0,.74,0,1.12,0v1.48H93.64a5.35,5.35,0,0,1-1.23-1c-.45.22-.63.89-.8,1.3H89.16c-.2-.38,1-2.22,1.2-2.52V112c-1.88,0-3.78,0-5.66,0l0,.07A7.91,7.91,0,0,1,86,114.62Z"/><path class="cls-7" d="M58.73,118.5h-7.4v-1h4.61v-.81H51.33v-1h4.61v-.77H51.33v-1.06h4.12l.08,0a14.63,14.63,0,0,0-2.65-1.27H51.33v-5.86h1.34c0,.2,0,.4,0,.61h6.73c0,.47,0,1,0,1.4-2.22,0-4.47,0-6.7,0v.52h6.61v1.39H52.72v.5h6.79a11.89,11.89,0,0,0,.06,1.42H57.3l.83.52c.4,0,.81,0,1.23,0,0,.56,0,1.16,0,1.77-.25,0-.47,0-.71,0A23.18,23.18,0,0,1,58.73,118.5Zm-7.4,0c-2.51,0-5,0-7.52,0,0-1.2,0-2.4,0-3.6h-.63v-1.79a8.7,8.7,0,0,1,1,0l.64-.35a1.07,1.07,0,0,1,.43-.17H43c0-.49,0-.94,0-1.4h6.38a.17.17,0,0,1,.1-.08,2.08,2.08,0,0,1,0-.44h-6.2v-1.39c2,0,4.12,0,6.17,0v-.51H43.1v-1.35c2.12,0,4.23,0,6.33,0a4.07,4.07,0,0,1,.06-.61h1.84v5.86H49.22a13.72,13.72,0,0,0-2.09,1.27l0,0h4.16v1.06h-4.7v.77h4.7v1h-4.7v.81h4.7Z"/><path class="cls-7" d="M36,110.16c-1.67,0-3.33,0-5,0a26.05,26.05,0,0,0,4.58-2.64,9.51,9.51,0,0,1,.75-.62c1.32,0,2.65,0,4,0-.37.35-.72.71-1.09,1.07-.79.59-1.61,1.15-2.39,1.74A3.88,3.88,0,0,0,36,110.16Z"/><path class="cls-9" d="M43.12,107.27v0Z"/><path class="cls-9" d="M79.73,107.32h0v0Z"/><path class="cls-6" d="M73,108.31h0c1.45,0,2.89,0,4.34,0v0Z"/><path class="cls-10" d="M61.55,106.94v0Z"/><path class="cls-10" d="M77.35,108.31v0Z"/><path class="cls-13" d="M43.12,107.32v0h6.31C47.33,107.27,45.22,107.27,43.12,107.32Z"/><path class="cls-13" d="M52.72,107.27Z"/><path class="cls-12" d="M52.67,106.66h0c0,.2,0,.4,0,.61h0C52.72,107.06,52.67,106.86,52.67,106.66Z"/><path class="cls-8" d="M61.55,107v0h15.8v0Z"/><path class="cls-14" d="M26.7,106.56h0Z"/><path class="cls-5" d="M73.83,132.73v-1.67h.07a1.11,1.11,0,0,0,.88-.39,1.76,1.76,0,0,0,.35-1.19,1.89,1.89,0,0,0-.35-1.22,1.16,1.16,0,0,0-.93-.43h0v-1.57a4.36,4.36,0,0,1,.78-.08,2.93,2.93,0,0,1,2.19.91,3.19,3.19,0,0,1,.89,2.33,3.41,3.41,0,0,1-.46,1.74A3,3,0,0,1,76,132.33a4.29,4.29,0,0,1-2,.4Zm0-8.28v-1.64h0a5,5,0,0,1,1.84.28,3.12,3.12,0,0,1,1.11.77,3.26,3.26,0,0,1,.66,1.3l-2.66.31a1.16,1.16,0,0,0-.35-.77.89.89,0,0,0-.61-.25Zm0-1.64v1.64a1.09,1.09,0,0,0-1,.67,5.45,5.45,0,0,0-.41,2,3,3,0,0,1,1-.72c.14-.08.28-.1.4-.16v1.57a1.19,1.19,0,0,0-.92.4,1.77,1.77,0,0,0-.37,1.19,1.84,1.84,0,0,0,.38,1.21,1.17,1.17,0,0,0,.91.43v1.67a4.93,4.93,0,0,1-2.19-.48,3.45,3.45,0,0,1-1.39-1.58,6.18,6.18,0,0,1-.53-2.84,5.42,5.42,0,0,1,1.1-3.78,4,4,0,0,1,3-1.24Zm-9.33,9.92v-1.62a1.16,1.16,0,0,0,1-.65,6.12,6.12,0,0,0,.38-2,3.84,3.84,0,0,1-1,.72,1.16,1.16,0,0,1-.41.14v-1.57a1.27,1.27,0,0,0,.94-.4,1.72,1.72,0,0,0,.37-1.18,1.79,1.79,0,0,0-.38-1.21,1.23,1.23,0,0,0-.93-.44v-1.69a4.93,4.93,0,0,1,2.2.5,3.51,3.51,0,0,1,1.4,1.56,6.82,6.82,0,0,1,.53,2.86,5.42,5.42,0,0,1-1.1,3.78A3.91,3.91,0,0,1,64.5,132.73Zm0-9.92v1.69h0a1.15,1.15,0,0,0-.88.37,1.77,1.77,0,0,0-.36,1.2,1.63,1.63,0,0,0,.38,1.22,1.05,1.05,0,0,0,.91.44h0v1.57a3.48,3.48,0,0,1-.76.08,2.92,2.92,0,0,1-2.18-.92,3.07,3.07,0,0,1-.91-2.3,3.61,3.61,0,0,1,.45-1.77,3,3,0,0,1,1.27-1.15,4.25,4.25,0,0,1,2-.43Zm0,8.3v1.62h0a5,5,0,0,1-1.82-.27,2.73,2.73,0,0,1-1.1-.75,3.45,3.45,0,0,1-.68-1.29l2.67-.35a1.12,1.12,0,0,0,.36.78.76.76,0,0,0,.6.26Zm-8.92,1.62v-1.62a1.13,1.13,0,0,0,1-.65,5.73,5.73,0,0,0,.4-2,3.88,3.88,0,0,1-1,.72,1.59,1.59,0,0,1-.4.14v-1.57a1.21,1.21,0,0,0,.92-.4,1.77,1.77,0,0,0,.37-1.18,1.65,1.65,0,0,0-.4-1.21,1.12,1.12,0,0,0-.89-.44v-1.69a4.91,4.91,0,0,1,2.18.5,3.9,3.9,0,0,1,1.4,1.56,6.83,6.83,0,0,1,.52,2.86,5.63,5.63,0,0,1-1.1,3.78A3.86,3.86,0,0,1,55.58,132.73Zm-6.66-9.92v9.73h-2.7v-6.36A7.9,7.9,0,0,1,45,127a11.12,11.12,0,0,1-1.55.59V125.4a7.1,7.1,0,0,0,2.14-1.05,4.41,4.41,0,0,0,1.17-1.54Zm6.66,0v1.69h-.07a1.15,1.15,0,0,0-.87.37,1.83,1.83,0,0,0-.37,1.2,1.76,1.76,0,0,0,.37,1.22,1.14,1.14,0,0,0,.92.44h0v1.57a3.89,3.89,0,0,1-.78.08,3,3,0,0,1-2.2-.92,3.17,3.17,0,0,1-.88-2.3,3.52,3.52,0,0,1,.46-1.77,2.71,2.71,0,0,1,1.26-1.15,4.25,4.25,0,0,1,2-.43Zm0,8.3v1.62h0a5.18,5.18,0,0,1-1.84-.27,2.91,2.91,0,0,1-1.09-.75,3.78,3.78,0,0,1-.69-1.29l2.69-.35a1.26,1.26,0,0,0,.35.78.83.83,0,0,0,.61.26Z"/><path class="cls-7" d="M97.26,8.69V7.13h.49c-.19-.49-.34-1-.49-1.5V4.41h1l1.07,2.85c.32.92.65,1.82,1,2.71H98.81l-.45-1.28Zm5.08-4.3V10c-.49,0-1,0-1.46.05V4.39Zm-5.08,0V5.63l0-.06-.48,1.59.5,0V8.69H96.13c-.12.44-.27.85-.38,1.27H94.4V9.35c.58-1.66,1.17-3.28,1.79-4.94ZM94.4,5.67h.18a.23.23,0,0,1,0-.17V4.41H94.4Zm0-1.26V5.67H92.61c0,1.45,0,2.84,0,4.3h-1.5C91,8.51,91,7.12,91,5.67H89.22V4.41Zm0,4.94-.22.62h.22V9.35ZM89.22,10h.23c0-.07,0-.09,0-.12-.1-.24-.17-.47-.26-.71Zm0-5.56V5.67H89V4.41Zm0,4.73C88.66,7.57,88.06,6,87.44,4.41h-1V5.63l0-.06c.14.51.32,1,.49,1.56h-.51V8.69h1.07c.13.39.29.81.44,1.28h1.29Zm-2.8-4.73V5.63l-.51,1.53.51,0V8.69h-1a11,11,0,0,0-.5,1.28H84V8.26c.47-1.29,1-2.59,1.42-3.85ZM84,5.36a10.5,10.5,0,0,1,.58-1l-.58,0Zm-36.1,4.89h-.49c-2.4,0-3.4-3.12-2-5.18A5.85,5.85,0,0,1,46,4.53a4,4,0,0,1,3.13-.09c.24.19.5.43.78.65.17.45.34.91.54,1.37H49c-.15-.23-.32-.46-.45-.65-.8-.35-1.61-.42-2.14.45-.24.9-.3,1.56.39,2.2a1.25,1.25,0,0,1,.4.23,1.88,1.88,0,0,0,1.53-.43h-.58V7c.77,0,1.51,0,2.32,0a4.09,4.09,0,0,1-.57,2.3,2.65,2.65,0,0,0-.41.41,6.15,6.15,0,0,0-.78.35c-.29.05-.56.08-.83.15ZM84,4.39v1c-.55.94-1.09,1.86-1.63,2.82V10H80.73c0-.6,0-1.22,0-1.81C80,6.9,79.22,5.63,78.51,4.39c.51,0,1,0,1.56,0,.47.76.93,1.59,1.42,2.4.48-.81,1-1.64,1.44-2.42Zm0,3.87c-.2.52-.4,1-.57,1.54V10H84V8.26Zm-49.07.43V7.16h.52c-.15-.56-.32-1.08-.48-1.59h0V4.41h1a2.58,2.58,0,0,0,.21.48c.59,1.69,1.23,3.37,1.83,5.06-.5,0-1,0-1.5,0-.2-.47-.36-.89-.52-1.28ZM42.6,5.23c0,.72-.06,1.42-.06,2.13-.91-1-1.83-2-2.72-2.95H38.43c0,1.85,0,3.68,0,5.56h1.38V7c.87,1,1.94,2,2.84,2.93H44c0-1.88,0-3.71,0-5.56h-1.4c-.13,0,0,.72,0,.82ZM57.88,10c0-1.88,0-3.71,0-5.56h1.46c0,.66,0,1.29,0,1.93h2.44c0-.64,0-1.27,0-1.93h1.46c0,1.85,0,3.68.06,5.56H61.87c0-.68,0-1.31,0-2h-2.4v2Zm12.88,0V4.41h1.41c.92,1,1.83,2,2.76,3,0-1,0-2,0-3h1.31V10H75C74,9,73.09,8,72.17,7c0,1-.06,1.94-.06,2.93H70.76ZM66,4.39c0,1,0,2.07.05,3.13,0,.56.36.74.73,1A1.5,1.5,0,0,0,68,8c0-.13.08-.31.13-.47,0-1.06,0-2.13.06-3.17.48,0,1,0,1.48,0,0,1.35,0,2.74-.08,4.12a2.65,2.65,0,0,1-2.37,1.54h-.39c-.5-.17-1-.3-1.49-.44-.28-.24-.53-.53-.77-.74a2.46,2.46,0,0,1-.19-.58V4.39ZM53.83,10.18a2.93,2.93,0,0,1-2.61-2.56,3.11,3.11,0,0,1,1.54-3.11,5.32,5.32,0,0,1,.77-.26,6.67,6.67,0,0,1,.92-.06,2.75,2.75,0,0,1,2.79,2.32c-.54,0-1.09,0-1.61,0-.37-.89-.94-.86-1.66-.86-1.1.35-1.18,1-1.09,2.18.31.73.81.8,1.43.91a1.52,1.52,0,0,0,1.32-.91h1.61C56.94,9.78,55.26,10.18,53.83,10.18ZM34.88,4.41V5.57h0c-.17.51-.35,1-.5,1.59h.53V8.69h-1.1A11.23,11.23,0,0,0,33.34,10c-.5,0-1,0-1.53,0,.67-1.86,1.35-3.69,2-5.54Zm-16,3V6.93h0c0-3.55,5.94-3.61,5.94-.42H23.3c-.3-1.08-1.36-.94-2.12-.77a1.91,1.91,0,0,0-.62,2,1.57,1.57,0,0,0,1.2,1c.54-.07,1.38-.18,1.54-.91h1.62c-.07.21-.11.48-.19.73A3.16,3.16,0,0,1,22.8,10.1c-.45,0-.89.05-1.31.08-1.22-.33-2.57-1-2.57-2.8ZM25.81,10V4.41h1.5c0,.66,0,1.29,0,1.93h2.43c0-.64,0-1.27,0-1.93h1.49V10c-.52,0-1,0-1.49,0,0-.66,0-1.26,0-1.87a.19.19,0,0,1,0-.09c-.8,0-1.62,0-2.4,0v.1c0,.61,0,1.24,0,1.84C26.77,10,26.29,10,25.81,10Z"/><path class="cls-5" d="M95.07,17.15V16h.14a.87.87,0,0,0,.58-.16.42.42,0,0,0,.18-.38.44.44,0,0,0-.18-.37,1,1,0,0,0-.58-.12h-.14V14h0a.79.79,0,0,0,.54-.15.4.4,0,0,0,.15-.35.49.49,0,0,0-.15-.35A.83.83,0,0,0,95.1,13h0V12h.71a1.52,1.52,0,0,1,1.15.36,1.28,1.28,0,0,1,.1,1.73,1.23,1.23,0,0,1-.54.32,1.54,1.54,0,0,1,.82.48,1.51,1.51,0,0,1,.07,1.55,1.59,1.59,0,0,1-.5.5,1.47,1.47,0,0,1-.62.15,2.81,2.81,0,0,1-.72.09Zm0-5.18v1H94.4v1h.67v1H94.4v1h.67v1.12H92.79V12ZM57.35,16.29V15.18h.57l-.57-1.88V12h.9l1.94,5.18H58.52l-.24-.86ZM61.19,12H62.8v3.89h2.5v1.29H61.19V12Zm5.33,0h1.6v3.89h2.51v1.29H66.52V12ZM78.42,15l1.43.42a2.23,2.23,0,0,1-.46,1,1.87,1.87,0,0,1-.75.62,2.88,2.88,0,0,1-1.16.2A3.14,3.14,0,0,1,76.1,17a2.17,2.17,0,0,1-.92-.83,3.12,3.12,0,0,1-.4-1.61,2.62,2.62,0,0,1,.71-2,2.58,2.58,0,0,1,1.93-.7,2.66,2.66,0,0,1,1.54.4,2.48,2.48,0,0,1,.85,1.22l-1.42.3a1.2,1.2,0,0,0-.17-.34,1,1,0,0,0-.33-.27.82.82,0,0,0-.43-.12,1,1,0,0,0-.84.44,2,2,0,0,0-.22,1,2.13,2.13,0,0,0,.26,1.19,1.07,1.07,0,0,0,1.44,0,1.34,1.34,0,0,0,.32-.74ZM81.11,12h1.61v3.89h2.49v1.29h-4.1V12Zm8.52,0h1.61v3.09a2.43,2.43,0,0,1-.15.86,1.79,1.79,0,0,1-.48.73,1.46,1.46,0,0,1-.63.41,3,3,0,0,1-1.11.19,4.26,4.26,0,0,1-.84-.07,2.73,2.73,0,0,1-.74-.2,1.53,1.53,0,0,1-.55-.44,1.67,1.67,0,0,1-.35-.59,3.08,3.08,0,0,1-.14-.89V12h1.59v3.15a1.11,1.11,0,0,0,.22.69,1.1,1.1,0,0,0,.67.22.91.91,0,0,0,.65-.22.93.93,0,0,0,.25-.69ZM57.35,12V13.3h0l-.56,1.88h.56v1.11h-.89l-.26.86H54.57L56.5,12Zm-6,5.18V16h.13a.84.84,0,0,0,.57-.16.43.43,0,0,0,.17-.38.46.46,0,0,0-.17-.37.92.92,0,0,0-.59-.12H51.4V14h0a.66.66,0,0,0,.51-.15.37.37,0,0,0,.17-.35.44.44,0,0,0-.17-.35.69.69,0,0,0-.49-.12h0V12h.68a1.53,1.53,0,0,1,1.16.36,1.23,1.23,0,0,1,.4.92,1.18,1.18,0,0,1-.3.81,1.11,1.11,0,0,1-.55.32,1.46,1.46,0,0,1,.83.48,1.38,1.38,0,0,1,.28.81,1.33,1.33,0,0,1-.21.74,1.36,1.36,0,0,1-.51.5,1.46,1.46,0,0,1-.61.15,2.76,2.76,0,0,1-.72.09Zm0-5.18v1h-.7v1h.7v1h-.7v1h.7v1.12H49.09V12ZM39.52,17.24V16h0a.94.94,0,0,0,.78-.34,1.81,1.81,0,0,0,.29-1.17,1.58,1.58,0,0,0-.29-1.09,1,1,0,0,0-.78-.33V11.87a2.67,2.67,0,0,1,2,.7,2.6,2.6,0,0,1,.71,1.95A3.23,3.23,0,0,1,41.89,16a2.28,2.28,0,0,1-.87.9,2.84,2.84,0,0,1-1.48.33ZM43,12h4.87v1.28H46.23v3.9h-1.6v-3.9H43Zm-3.48-.1V13.1h0a.93.93,0,0,0-.77.33,1.65,1.65,0,0,0-.31,1.14,1.63,1.63,0,0,0,.31,1.12,1,1,0,0,0,.8.34v1.21a3.06,3.06,0,0,1-1.4-.28,2.22,2.22,0,0,1-.95-.9,3,3,0,0,1-.36-1.5,2.46,2.46,0,0,1,2.68-2.69ZM33,17.24V16h0a1,1,0,0,0,.79-.34,1.94,1.94,0,0,0,.3-1.17,1.69,1.69,0,0,0-.3-1.09A1,1,0,0,0,33,13.1V11.87a2.76,2.76,0,0,1,2,.7,2.71,2.71,0,0,1,.69,1.95A3.23,3.23,0,0,1,35.36,16a2.24,2.24,0,0,1-.88.9,2.65,2.65,0,0,1-1.44.33ZM25.18,12h4v1.09H26.77V14h2v1h-2v2.12H25.18V12Zm7.81-.1V13.1h0a1,1,0,0,0-.77.33,1.61,1.61,0,0,0-.3,1.14,1.58,1.58,0,0,0,.3,1.12A1,1,0,0,0,33,16v1.21a3,3,0,0,1-1.4-.28,2.09,2.09,0,0,1-.94-.9,2.87,2.87,0,0,1-.35-1.5,2.66,2.66,0,0,1,.7-2,2.67,2.67,0,0,1,2-.71Z"/><path class="cls-16" d="M92.39,76.79V76l.24-.12.28-.24a7.58,7.58,0,0,1-.52,1.14Zm0-3.39V70.32a12.7,12.7,0,0,0,1.16-1.16l1-1.1.88-.9.55-.84a13.19,13.19,0,0,1-3.58,7.08Zm0-6.09,1-1c4.05-3.39,4-9.61,4-9.61l-.34.42-1.31,2.26a17.18,17.18,0,0,1-3.33,5v3Zm0-5.24V56.33l.35.72s2.47-3,3.08-9.27l.12-1s2.16,9.78-3.55,15.33Zm0-8.84.29.56c4.07-5.36-.17-14.38-.17-14.38l.1.53a18.4,18.4,0,0,1-.22,7.93Zm0-5.36v5.36l-4.2-7.9V43.72L92.35,48a.41.41,0,0,1,0-.11Zm0,8.46-3.48-6.78c.18,2.48,3,12.93,3,12.93l.44-.41V56.33Zm0,8v3l-3.18,3.35S89.65,66.07,89,65c0,0-.52-8.06,0-9.27,0,0,2.29,7.25,2.18,9.34a3.26,3.26,0,0,0,1.15-.81Zm0,6a27.4,27.4,0,0,1-4.2,3.08v3.26a17.34,17.34,0,0,0,4.2-3.26V70.32Zm0,5.69v.78a11.16,11.16,0,0,1-4.2,4.2V78.53a11.81,11.81,0,0,0,1.09-.61l1.57-1,1.3-.81.24-.14Zm-4.2-34.07a38.32,38.32,0,0,0,3.31,3.32c1.53-5.12-1.79-10-3.31-11.91v.79a28.15,28.15,0,0,1,1.46,6.56,6.82,6.82,0,0,1-1.46-1.16Zm0-8.59v.79a16.61,16.61,0,0,0-.7-1.62s.29.3.7.83Zm0,6.19v2.4a29.15,29.15,0,0,1-2-2.63V37.55c.65.68,1.42,1.39,2,2Zm0,4.18-1.94-2c.16.32,1,1.81,1.94,3.62V43.72Zm0,29.68v3.26a16.27,16.27,0,0,1-2,1V70.12l2-6.2s.25,6.89-.31,9.7l.4-.22Zm0,5.13V81a12.54,12.54,0,0,1-2,.93V79.39c.72-.28,1.43-.57,2-.86Zm-2-42.78A11.83,11.83,0,0,0,88,37.07a17.05,17.05,0,0,0-1.81-4ZM41,28a14.45,14.45,0,0,0-5.19,5v2.7a6.6,6.6,0,0,0,.91-.92A30.91,30.91,0,0,0,41,28Zm45.17,5v2.7a7.2,7.2,0,0,1-.91-.92A31.63,31.63,0,0,1,81,28a14.47,14.47,0,0,1,5.18,5Zm0,4.5c-1-1-1.81-1.8-1.81-1.8a13.31,13.31,0,0,0,1.81,3.56V37.55Zm0,32.57v7.53a22.26,22.26,0,0,1-2.69.93l2.69-8.46Zm0,9.27c-2.16.79-4.4,1.35-4.4,1.35l2.5-8.81c-1.16,1-5.9,10.58-5.9,10.58a17.06,17.06,0,0,0,7.8-.59V79.39ZM35.78,81.92V79.39c2.15.79,4.4,1.35,4.4,1.35l-2.53-8.81c1.2,1,5.93,10.58,5.93,10.58a17,17,0,0,1-7.8-.59Zm0-4.27a22.53,22.53,0,0,0,2.67.93l-2.67-8.46v7.53Zm0-38.34V37.55c1-1,1.8-1.8,1.8-1.8a13.27,13.27,0,0,1-1.8,3.56ZM85.6,84.85s-8.32-.1-10.83,1.52a7.83,7.83,0,0,1-2.62,0A24.7,24.7,0,0,0,61,88.28a24.6,24.6,0,0,0-11.17-1.91,7.87,7.87,0,0,1-2.63,0c-2.54-1.62-10.83-1.52-10.83-1.52s2.61,3.71,2,2.44c.56,1.27,6.85,3.51,6.85,3.51C47,92,55.46,90.39,55.46,90.39c-4.62,2.35-6.35,4.9-6.35,4.9a.7.7,0,0,0,.06,1c.61.36,1.2-.35,1.2-.35A21.43,21.43,0,0,1,54,93.13c2-1.48,5.54-2.22,6.92-2.45,1.4.23,5,1,6.94,2.45A20.33,20.33,0,0,1,71.54,96s.59.71,1.19.35a.69.69,0,0,0,.07-1s-1.73-2.55-6.34-4.9c0,0,8.49,1.65,10.25.41,0,0,6.3-2.24,6.84-3.51C83,88.56,85.6,84.85,85.6,84.85ZM35.78,33.05a16.28,16.28,0,0,0-1.81,4,10.83,10.83,0,0,0,1.81-1.32v-2.7Zm0,4.5v1.76a29.15,29.15,0,0,1-2.05,2.63v-2.4c.64-.6,1.38-1.31,2.05-2Zm0,32.57v7.53a17,17,0,0,1-2.05-1V73.4c.23.14.39.22.39.22-.55-2.81-.31-9.7-.31-9.7l2,6.2Zm0,9.27v2.53A11.48,11.48,0,0,1,33.73,81V78.53c.59.29,1.33.58,2.05.86ZM33.73,45.33c1-1.81,1.76-3.3,2-3.62l-2,2v1.61Zm0-11.19v-.79c.43-.53.69-.83.69-.83A16.77,16.77,0,0,0,33.73,34.14Zm0-.79v.79a28.08,28.08,0,0,0-1.47,6.56,6.52,6.52,0,0,0,1.47-1.16v2.4a39.2,39.2,0,0,1-3.32,3.32c-1.53-5.12,1.81-10,3.32-11.91Zm0,10.37L29.58,48s0,0,0-.11v5.36c.73-1.39,2.69-5,4.2-7.9V43.72Zm0,29.68v3.26a17.74,17.74,0,0,1-4.2-3.26V70.32a27.4,27.4,0,0,0,4.2,3.08Zm0,5.13a9.86,9.86,0,0,1-1.1-.61l-1.56-1-1.33-.81L29.53,76v.78a11.08,11.08,0,0,0,4.2,4.2V78.53Zm-4.2-11.22,3.18,3.35s-.45-4.59.2-5.63c0,0,.52-8.06-.07-9.27,0,0-2.3,7.25-2.16,9.34a3.16,3.16,0,0,1-1.15-.81v3Zm0-5.24V56.33L33,49.55C32.82,52,30,62.48,30,62.48,29.8,62.34,29.67,62.2,29.53,62.07Zm0-14.2v5.36l-.3.56c-4.07-5.36.16-14.38.16-14.38l-.08.53a19,19,0,0,0,.22,7.93Zm0,8.46-.38.72s-2.45-3-3-9.27l-.15-1s-2.15,9.78,3.57,15.33V56.33Zm0,8v3l-1-1c-4-3.39-4-9.61-4-9.61l.32.42,1.32,2.26a16.54,16.54,0,0,0,3.34,5Zm0,6a16,16,0,0,1-1.18-1.16l-1-1.1-.89-.9-.55-.84a13.16,13.16,0,0,0,3.59,7.08V70.32Zm0,5.69v.78A8,8,0,0,1,29,75.65l.32.24Z"/><path class="cls-17" d="M41.63,34.35H80.44S90,81.27,61.1,81.43H61C32.08,81.27,41.63,34.35,41.63,34.35Z"/><path class="cls-18" d="M26.2,86s7.42-3.61,9.59-4.28l.12-3.38s24.64-9.37,50.3,0l.12,3.52s8.84,3.49,9.18,4.14l-3.83,1.62,3.61,6.56-15-6.32V85.24s-20.74-5.9-39.18.12l.67,2.94L26.62,94.53l3.51-6.45Z"/><path class="cls-18" d="M35.91,78.48v8.61s19.75-9.9,50.42-.32V78.25A79.27,79.27,0,0,0,35.91,78.48Z"/><path class="cls-19" d="M36,87.09l5.84,1.31-.67-3.13C41.14,85,35.91,86.79,36,87.09Z"/><path class="cls-19" d="M86.21,87,80.54,88.3l-.22-3.17S87.34,86.72,86.21,87Z"/><path class="cls-20" d="M75,80.76v-.3l.39.05-.28-1.22-.11.22v-.58l.36-.78.22,0,.79,3.49a.47.47,0,0,0,.38.43l0,.22-1.56-.25v-.2h.18c.18,0,.25,0,.28-.15v-.16c0,.06,0,0,0,0l-.16-.7L75,80.76Zm4.49,2.13L77,82.37l0-.2c.29.06.44,0,.44-.27l.34-2.65c0-.26-.07-.42-.39-.46l0-.21,1.58.31,0,.22c-.3-.07-.46,0-.48.28L78.22,82c-.06.26,0,.38.25.4.42,0,.76-.3,1-1l.19,0-.22,1.48Zm3,.8L80,83.05l0-.19c.31.07.44,0,.47-.26L80.88,80c0-.26-.07-.42-.37-.47l0-.22,1.57.41,0,.19c-.31-.08-.45,0-.48.27l-.39,2.61c0,.26,0,.38.24.4.42.08.78-.26,1.08-1l.18,0ZM75,78.93v.58l-.4.89.4.06v.3l-.49-.08-.18.42a.79.79,0,0,0-.12.33c0,.19.08.29.26.3l.2,0V82l-1.19-.18V81.6c.25,0,.44-.24.59-.64l.93-2Zm-3.15,2.63v-.3c.28,0,.42-.29.48-.66,0-.56-.14-.86-.48-.95v-.31c.28,0,.39-.25.42-.61s-.12-.7-.42-.75V77.7l.16,0c.7.08,1,.43,1,1.06a.73.73,0,0,1-.76.75,1,1,0,0,1-.38,2Zm0-3.86V78l0,0c-.2,0-.3.1-.33.33l-.06,1.06.13,0a.5.5,0,0,0,.28,0v.31a.19.19,0,0,1-.13,0h-.29l-.08,1.22c0,.28,0,.44.26.45h.24v.3l-1.66-.2v-.2c.27,0,.42-.08.42-.34l.2-2.67c0-.23-.1-.38-.39-.4v-.23l1.42.18ZM65,81v-.23c.45,0,.7-.55.72-1.69s-.2-1.75-.67-1.76h0V77H65c.91.17,1.41.86,1.48,2-.13,1.19-.63,1.79-1.54,1.89Zm2.2-3.77,2.85.25-.06,1.35h-.2c-.1-.73-.38-1.13-.81-1.17l-.15,3c0,.26.1.4.46.4l0,.23-1.72-.15,0-.22c.37,0,.53-.06.51-.34l.18-3c-.46,0-.75.31-.94,1l-.2,0ZM65,77v.26c-.45,0-.68.59-.7,1.69s.17,1.73.66,1.76h0V81h0c-.94-.16-1.45-.82-1.49-2,.13-1.16.64-1.81,1.53-1.91Zm-3.73,3.84v-.2h0c.46,0,.71-.57.71-1.73s-.25-1.74-.71-1.73h0v-.26h0c.94.12,1.43.78,1.54,2-.1,1.18-.59,1.83-1.54,1.93Zm0-3.92v.26c-.47,0-.71.57-.71,1.73s.24,1.73.71,1.73v.2c-.93-.1-1.44-.75-1.54-1.93.1-1.21.62-1.89,1.54-2ZM51,80.22v-.31l.38,0L51,79v-1.4h.19l1.36,3.18a.43.43,0,0,0,.44.33l0,.21-1.58.19v-.23h.15c.19,0,.28-.09.24-.23v-.17s0,0-.05-.06l-.25-.62-.52.08Zm4,.91-1.61.1V81c.32,0,.43-.11.41-.39L53.64,78c0-.28-.14-.4-.45-.37v-.22l1.6-.1v.22c-.32,0-.47.14-.43.41l.13,2.65c0,.25.14.39.43.35l0,.21ZM58,80.92,56.4,81v-.23c.3,0,.45-.12.43-.4l0-2.64c0-.26-.14-.39-.44-.35v-.23L59.06,77l0,1.39h-.17c-.18-.73-.52-1.08-1.06-1.08-.25,0-.37.09-.34.37v1.07c.37,0,.61-.2.69-.67l.17,0,0,1.58h-.18c-.08-.49-.33-.69-.7-.64l0,1.3c0,.27.15.39.49.36Zm-7-3.37V79l-.08-.22L50.61,80l.38,0v.31l-.43.06-.12.42a1.39,1.39,0,0,0,0,.38c0,.18.1.24.28.24l.19,0,0,.22-1.2.11v-.22c.23,0,.41-.33.49-.79l.78-3,0,0Zm-4.76,4.74v-.22h0l0,.21Zm0-3.41.09.82.2,0c.08-.75.31-1.15.76-1.2l.27,3c.07.27-.07.4-.45.44v.23l1.72-.27,0-.21c-.32.08-.49,0-.49-.3l-.29-3c.42,0,.74.26,1,1l.2,0L49,77.93l-2.79.42Zm0-.53v.53l0-.53Zm0,3.72c-.17,0-.32-.08-.42-.3l-1.52-3.06h-.07v1.55l.39.74-.39.08v.33l.5-.09.31.55c0,.1,0,.1,0,0a1.3,1.3,0,0,0,0,.18c0,.13,0,.22-.22.22l-.16.05v.23l1.52-.31Zm-6.79-1.93,0-.2,1.44-.4,0,.23c-.22,0-.32.16-.31.26l.1.23,0,0,.64,1,.22-1.13a1.35,1.35,0,0,0,0-.32c0-.14-.16-.21-.42-.12l0-.23,1.11-.29,0,.21a.57.57,0,0,0-.41.52l-.35,1.76.16,1c0,.26.19.34.53.24l0,.22-1.66.43,0-.21c.36-.06.5-.24.43-.49l-.16-1L40,80.62c-.21-.4-.41-.53-.59-.48Zm4.78-1.43v1.55l-.15-.33-.24,1.23.39-.08v.33l-.42.08-.09.44a1,1,0,0,0,0,.39.23.23,0,0,0,.29.2l.23-.07,0,.22L43,82.93v-.2a1.06,1.06,0,0,0,.45-.83l.6-3.17Z"/><path class="cls-21" d="M70.57,50.15c0,.13.19-.16.06,0a0,0,0,0,0,0,0l.36-.49-.42.87a4.1,4.1,0,0,1-.8.76l-.1-.06.3-.24c.25-.24.16-.16,0-.08s-1,.54-1,.61c-.29.07-.69.13-.88-.13a2.64,2.64,0,0,1,.09-1.79l0-.18v-.15c.06,0,0-.4,0-.47h0c0-.1,0,0,0,0s0-.11,0,0c-.19-.36-.27-.54-.69-.6-.15,0-.3,0-.45,0h-.11l0,0a1,1,0,0,0-.43.22l-.06,0s-.08,0-.08.12-.46.4-.27.58c0,0-.07.11,0,.08s.07,0,.07,0a1.66,1.66,0,0,0,.34-.36c.15,0,.09,0,.09,0a.73.73,0,0,1,.08-.16c.1,0,.15,0,.12,0a2.33,2.33,0,0,0,.23-.15c.07.06.12.05.15,0l0,0a1.49,1.49,0,0,0,.3,0,.42.42,0,0,1,.26.12l.12.17a.49.49,0,0,1,.08.13s0,.07,0,.09.1.42,0,.58c0,0,0,.1-.09.1,0-.6,0-1.19-.74-1.07,0,0-.21.08-.21.17a1,1,0,0,1,.58.54,2.11,2.11,0,0,1-.21,1.33c-.33.78-1.39.88-2,1.26s-.95,1.33-1.82,1.51c-.41,0-.48,0-.22.34l.54,0a13.63,13.63,0,0,1,1.45.22,7.36,7.36,0,0,1,2.48,1.55c.32.37.38.31.16.7h0c.41.58.88,1.2,1.32,1.75.38.34.79.78,1.33.78.12-.1.22-.33.39-.38.5-.53,1.62-.13,2.08.24l0,.14c.72.1,2,.31,1.74,1.35-.08.25-.24.56-.48.6a1.39,1.39,0,0,1-.4,1.07c-.25.14-.36.05-.25.36,0,.82-.89.82-1.47.8a.94.94,0,0,1-.6-.2,2.38,2.38,0,0,1-.17-.31c-1,0-1.39-.3-1.49-1.31-.07-.21-.58-.21-.73-.23a2.21,2.21,0,0,1-.53-.14A5.72,5.72,0,0,1,66,59.45c0,.09-.19.4-.26.38-.85-.73-.93-.75-1-.85a5,5,0,0,0-.3,1,6.77,6.77,0,0,1-2.08,3c-.47.27-.42.91-.39,1.41s-.06.79-.1,1.18c.13,0,.24-.18.37-.18a1.22,1.22,0,0,1,1.42.54.61.61,0,0,1,.23-.06,1.26,1.26,0,0,1,1.35,1.26c.92.23,1.37,1.08.67,1.84a1.38,1.38,0,0,1-1.6.15l-.11.53A3.51,3.51,0,0,1,63.34,71a7.59,7.59,0,0,1-2,.92c-1.28.71-2.07,2.19-3.7,1.43-.22-.14-.41-.24-.61-.38a4.15,4.15,0,0,1-1.06-1.72,6.55,6.55,0,0,0-.34-1.42l-.06-.21c-1-.07-1.23-.62-1.92-1.22-.25-.13-.95-.41-1-.62a4.84,4.84,0,0,1-1-.64c-.32-.35-.52-.59-.17-1.06a1.36,1.36,0,0,1,1-.29,1.31,1.31,0,0,0,.6-.39,4.83,4.83,0,0,1,.82-4.1,2.36,2.36,0,0,1,.63-.47c.1-.1.29-.35.4-.49,0-.6,0-1.21,0-1.82a11,11,0,0,0-.53-1.72A6.81,6.81,0,0,0,53,57c-.12,0-.17-.29-.24-.34a5.39,5.39,0,0,0-2.68.21c-.15.13-.15.13-.18.18a1,1,0,0,0,.71.68c.69.49-.58,2.1-1.25,2-.06,0-.19,0-.25,0a2.06,2.06,0,0,1-.52.5c-.43,0-2.34-.22-2.29-.89.05-.13.07-.3.11-.45,0-.6-1-.58-.92-1.14.09-.22.27-.4.29-.64-.17-.36-.32-.57-.13-.94.2-.21,1.54-1,1.81-.77.19,0,.28.13.45.06a5.54,5.54,0,0,1,1.71-1.38,7.39,7.39,0,0,1,.84-.34,6.62,6.62,0,0,1,1.39-.4c.39-.14.42,0,.45-.41a19.67,19.67,0,0,1,4.91-.3c.08.12.73.22.9.24,0-.45.5-.8.89-.93.13,0,.19-.32.19-.41s-.34-.5-.41-.5c-.67.53-1.34.13-1.81-.44a8,8,0,0,1-1-2.87,5.93,5.93,0,0,1-.05-.94c.1,0,.29,1,.4,1.14a4.94,4.94,0,0,0,1.44,2.73c.13.07.66.21.66-.06a10.34,10.34,0,0,1-1.13-1.52,6,6,0,0,1-.41-.76c0-.1-.4-.94-.44-1a12.19,12.19,0,0,1-.27-1.53s0-.84.07-.84a1.32,1.32,0,0,0,.34.57c0,.14.56.6.66.62l.12.07a2.64,2.64,0,0,1-.29-.51,3.41,3.41,0,0,1-.3-1.67c0-.15.07-1.08.22-.49a2.69,2.69,0,0,0,.32.51,1.29,1.29,0,0,0,.64.52c.21-.36.18-.36,0-.69-.06,0-.17-.43-.17-.43a6.68,6.68,0,0,1-.27-2.7s.1,0,.11,0c.25,0,1.57.21,1.73.54.15,0,.48.34.64.34a1.88,1.88,0,0,0-.29-.88c-.13-.09-.3-.16-.45-.26-.32,0-.93-.85-1.08-1.14,0,0-.37-.81-.16-.81,0-.16.29-.3.44-.3a3.76,3.76,0,0,1,.89.68,2.92,2.92,0,0,0,.45.33,9.39,9.39,0,0,1-.13-2.6c0-.07.19-1,.3-1,.18-.36.66-.44.75,0a1.35,1.35,0,0,1,.08.5A5.18,5.18,0,0,0,61,37.64a22.27,22.27,0,0,0,.64,2.26.27.27,0,0,0,0,.16c.13,0,.52-.37.65-.44a3.19,3.19,0,0,1,1.07-.73c0-.18,1-.26,1.11-.2s.13,0,.15,0c0-.44-.15-1.07.38-1.27.32,0,.64.58.7.81.08,0,.09.42.19.33a5.41,5.41,0,0,1,.24-1.21,2,2,0,0,1,1.06-1.54c.57-.18.44,1,.32,1.31,0,.52-.16,1.05-.22,1.57s-.1,1.11-.07,1.61,0,.91,0,1.29c.13,0,.39-.24.53-.28a4.27,4.27,0,0,1-.18.68c-.06.21-.12.41-.18.58-.34,0-.1.1-.17.22s0,.12.13.13a6.36,6.36,0,0,0,1-.09s1.38-.06,1.25.09c-.06.37-.38.69-.5,1.06,0,0-.27.52-.36.55a2.41,2.41,0,0,1-.74.86,9.52,9.52,0,0,1-.38,1.38,2.92,2.92,0,0,1-.34.77c0,.16-.15.32-.16.44.88,0,1.16.42,1.1,1.33A8.76,8.76,0,0,0,68,50.9c0,.39.21.51.57.56a4.76,4.76,0,0,0,1.82-1.13S70.54,50.15,70.57,50.15Z"/><path class="cls-22" d="M59.09,69.3l.07,0c.25-.26.42-.58.67-.88,0-.09.39-.42.46-.51s.44-.49.66-.49.6-.37.73-.31a1.08,1.08,0,0,0,1.22.32c.13,0,.16.48.37.48a2.4,2.4,0,0,1,.5.23,1.67,1.67,0,0,0,.21.74,2.09,2.09,0,0,1-.26,1.3c0,.22-.66.64-.85.74a3.24,3.24,0,0,1-.91.46s-.41.15-.45.23A8,8,0,0,0,60,72.64l-.53.34a1.82,1.82,0,0,1-1.63.16h-.06a1.69,1.69,0,0,1-.63-.92A2.15,2.15,0,0,1,58,70.59a10.13,10.13,0,0,1,.73-.75C58.68,69.73,59,69.43,59.09,69.3Z"/><path class="cls-23" d="M56.05,65.5c0-.2.25.3.33.37.32.48.41,0,.75,0a3.38,3.38,0,0,1,.76-.48,1.24,1.24,0,0,1,.56-.38c.29,0,1-.15,1.23.14s.54,1.28.1,1.43c0,.06-.67.47-.75.6s.42-.27.54-.27a6.73,6.73,0,0,1,.74-.42c.42-.09.76-.47,1.2-.47a1.87,1.87,0,0,0,0,.78c-.08.07-1.11.48-1.11.65A5.84,5.84,0,0,0,59.07,69a5.47,5.47,0,0,1-.82,1c-.09.11-.22.28-.33.31A7.51,7.51,0,0,0,57,71.51a2,2,0,0,0-.15.6c-.09,0-.35-.67-.37-.84s-.19-.45-.19-.64-.11-.53-.22-.65a11,11,0,0,0-.84-2.09,8.17,8.17,0,0,0-.68-1.14.46.46,0,0,0-.13-.19A11.11,11.11,0,0,0,56,66.27,2,2,0,0,0,56.05,65.5Z"/><path class="cls-24" d="M59.16,69.26l0,0S59.07,69.25,59.16,69.26Z"/><path class="cls-23" d="M55.45,69.3c-.21-.14-.81-.2-.94-.42-.31-.1-.5-.64-.82-.74,0-.07-.76-.39-.81-.47-.46-.14-2.15-1.11-1.07-1.62a2.76,2.76,0,0,1,.78-.15l.39-.33a4.73,4.73,0,0,0,.42.9c0,.11.59.09.66.11a5.22,5.22,0,0,1,1,1.56l.14.29C55.21,68.53,55.54,69.3,55.45,69.3Z"/><path class="cls-22" d="M66,68a.12.12,0,0,0,0,.06.81.81,0,0,1-.4.85c0,.12-.85.2-.91.15-.27,0-.65-.35-.65-.65-.08-.07-.05-.3-.05-.38a1.47,1.47,0,0,0,1.16-.73,1,1,0,0,1,.65.4A2.56,2.56,0,0,1,66,68Z"/><path class="cls-25" d="M66,68.1A.12.12,0,0,1,66,68C66.05,67.94,66,68.1,66,68.1Z"/><path class="cls-22" d="M63.9,67.86c-.06,0-.22,0-.25-.06-.19,0-.83-.51-.4-.59v0a1.3,1.3,0,0,0,.46-1c.35-.18.84.09,1.09.34a.91.91,0,0,1,.1.77C64.66,67.74,64.38,67.8,63.9,67.86Z"/><path class="cls-22" d="M62.58,67.21c-.75,0-1.4-.65-.73-1.36s2-.06,1.53,1c-.15.08-.18.25-.35.3Z"/><path class="cls-7" d="M59.64,64.26a2.52,2.52,0,0,0-.21-.4c-.1,0,.07.3.08.4a2.13,2.13,0,0,0-1.09,0,5.87,5.87,0,0,0-2.13,1.21h0l-.08-.1a5.55,5.55,0,0,1-.48-3.33,4.06,4.06,0,0,1,.43-1c.46.17,1,.28,1.42.47.27,0,.59.31.85.31,0,0,0,0,1.27.63a7.34,7.34,0,0,0,2.07.76s0,.08,0,.14a6.31,6.31,0,0,1-.28,2.43,5.46,5.46,0,0,1-1.23.5c-.22-.8-.63-1.32.26-1.78,0-.16-.49.24-.56.28C59.78,65,59.69,64.34,59.64,64.26Z"/><path class="cls-7" d="M53.4,65.87a6,6,0,0,0,2.49-.14c0,.32-.18.27-.48.34S53.58,66.37,53.4,65.87Z"/><path class="cls-26" d="M53.4,65.87c-.06,0-.16-.22-.16-.22.57,0,1.12,0,1.69,0a8.2,8.2,0,0,1,1-.2h0l0,.23A6,6,0,0,1,53.4,65.87Z"/><path class="cls-7" d="M56.44,65.65a.94.94,0,0,1,.35-.25,8,8,0,0,1,1.73-.94,1.35,1.35,0,0,1,1.06,0,1.7,1.7,0,0,1,.16.34c-.49-.54-1.45-.18-2,.14l-1.21.73S56.47,65.7,56.44,65.65Z"/><path class="cls-7" d="M53.24,65.57A6.4,6.4,0,0,1,53,64.32c0-1,.21-2.45,1.17-3.12.3-.14.49-.17.6-.51A5.13,5.13,0,0,1,56,61a6.45,6.45,0,0,1-.5,1.08A5,5,0,0,0,56,65.27a.62.62,0,0,1,0,.23,8.2,8.2,0,0,0-1,.2A9.62,9.62,0,0,1,53.24,65.57Z"/><path class="cls-26" d="M56.27,65.5h0a5.87,5.87,0,0,1,2.13-1.21,2.13,2.13,0,0,1,1.09,0s0,0,.07.07v.09a1.75,1.75,0,0,0-1.06,0,8,8,0,0,0-1.73.94.94.94,0,0,0-.35.25A.17.17,0,0,1,56.27,65.5Z"/><path class="cls-21" d="M59.58,64.33l0-.07c0-.1-.21-.4-.11-.4a2.52,2.52,0,0,1,.21.4S59.58,64.32,59.58,64.33Z"/><path class="cls-7" d="M61.85,63.08a6.56,6.56,0,0,1-2.16-.84,3.08,3.08,0,0,1-.36-.17c-.57-.25-1-.46-1.54-.66-.27,0-.55-.3-.84-.3a3.11,3.11,0,0,0-.61-.2l-.4-.11c-.16,0-1.37-.17-1-.45a12.54,12.54,0,0,1,1.78.45c.15.14.58.07.74.23.08,0,.23.11.32.11a11.38,11.38,0,0,1,1.08.47,14.88,14.88,0,0,0,1.7.83c.15.08.72.16.81.28.26,0,.52.12.81.16C62.16,63,61.93,63.06,61.85,63.08Z"/><path class="cls-26" d="M54.57,57.11a.84.84,0,0,0-.06-.14,1.15,1.15,0,0,0-.09-.28,5,5,0,0,1,.73-.36c.18,0,.09-.06,0,0a1.51,1.51,0,0,0-.87.31c-.25.08-1.14.31-1.23.08l-.17-.52a10.55,10.55,0,0,1-.32-3A8.88,8.88,0,0,1,54,52.94h.27c.18,0,.49-.08.65-.06s.21,0,.24,0c.5,0,.95,0,1.45,0a9.62,9.62,0,0,1,1.58.32,1.81,1.81,0,0,1,.12.28A12.84,12.84,0,0,0,59.43,56c.08.14.33.71.5.79a7.3,7.3,0,0,1,1-1.24c.06-.09.17-.17.24-.28s0,.77,0,.92,0,.18.1.13a3.19,3.19,0,0,1,.53-.84V57c0,.18,0,.27.11.13a3.64,3.64,0,0,0,.86-1,3.82,3.82,0,0,0,.56-1.46s0-.69-.11-.76a1.29,1.29,0,0,1,.47,0,5,5,0,0,1,2.31.63c0,.06.63.36.68.49a6.21,6.21,0,0,1,1,.83,3.8,3.8,0,0,1-.16.36A7.82,7.82,0,0,0,66.2,55,8,8,0,0,0,64,54.24a2.3,2.3,0,0,0-.51-.1.58.58,0,0,0,0,.22,9.18,9.18,0,0,1,1.57.36c.1.12.5.12.63.24a4.54,4.54,0,0,1,1.74,1.37h0c0,.17-.27.36-.27.51,0,0-1.06,1.89-1.13,2.12-.08,0-.24.52-.33.52s-.82-.68-1-.68a6,6,0,0,1,0-1c-.24.17-.19.84-.19,1,0,0,0,.12,0,.12A6.23,6.23,0,0,1,63.74,61a3.11,3.11,0,0,1-.3.51s-.64,1-.87,1c0,.06-.19.14-.22.18a4.34,4.34,0,0,1-1.13-.21,1.48,1.48,0,0,1-.36-.1c-.87-.39-1.7-.8-2.55-1.21a17.12,17.12,0,0,0-1.84-.59c-.44-.08-.87-.3-1.32-.38-.26,0-.2-.22-.22-.44a6.19,6.19,0,0,0,0-1.37c0-.06-.25-1-.25-1.05S54.57,57.16,54.57,57.11Z"/><path class="cls-23" d="M72.41,62.72c-.28,0-.9,0-.9-.45-.13-.07-.21-.66,0-.66,0-.17.39-.2.45-.09l.14.09.19.11c.22.2,1.09.1,1.13.3.05,0,0,.28,0,.32C73.23,62.72,72.73,62.72,72.41,62.72Z"/><path class="cls-23" d="M71,62.17a2.32,2.32,0,0,1-.6-.25c-.35,0-.35-1.17-.55-1.21a4.78,4.78,0,0,0-.73-.13A19.7,19.7,0,0,1,67.24,60c-.16-.12-.56-.25-.64-.39a2.26,2.26,0,0,1-.46-.37c0-.35.51-.68.51-1a3.83,3.83,0,0,0,.5-.91c.18-.3.34-.66.52-.92,0,0,1,1.27,1.12,1.41s1.55,1.48,1.78,1c.19,0,.33-.49.58-.49a1.21,1.21,0,0,1,1.67.55A12,12,0,0,0,73,60.2c.08.24.22.63-.11.71a.64.64,0,0,1-.69,0,2,2,0,0,1-.28-1.47c0-.08,0-.11,0-.13a1.66,1.66,0,0,0-.16,1.18c0,.13-.11.16-.16.24-.51.2-.68-.11-1.09-.26,0,.32.67.5.91.5l.48-.18a.71.71,0,0,0-.09.59.88.88,0,0,0-.29,0,.66.66,0,0,0-.23.75Z"/><path class="cls-23" d="M73.15,61.72c-.35,0-1,0-1.16-.41,0-.08-.09-.37.07-.28l.28.11a.77.77,0,0,0,.93-.51c-.15-.32.71,0,.75.06A.83.83,0,0,1,73.15,61.72Z"/><path class="cls-23" d="M74,60.47c-.75-.1-.9-.26-1-1a5.64,5.64,0,0,1,0-.62,2.84,2.84,0,0,1,.77.22c.29.16.75.16.82.62S74.49,60.43,74,60.47Z"/><path class="cls-23" d="M48.33,60c-.35-.12-.79-.18-1.16-.34-.16,0-.56-.19-.56-.4.12-.57.3-.65-.19-.9-.14-.18-.74-.32-.63-.67.07-.13.61-.57.24-.75a1.74,1.74,0,0,0-.19-.26c-.28-.52,1-1.06,1.29-1.16a4.69,4.69,0,0,1,.72.17s-.52.8-.1.47a4.38,4.38,0,0,1,.61-.91c.21-.13.37-.36.59-.5A4.37,4.37,0,0,1,50.33,54c.64-.22,1.32-.32,2-.53.07,0,0,0,.07.07a21.55,21.55,0,0,0,.37,2.8,13.52,13.52,0,0,0-2,.08c-.17.09-.61.09-.69.26-.19,0-.64.68-.64.86.12,0,.27-.42.4-.32a1.3,1.3,0,0,0,.65.69l.11.07a1.15,1.15,0,0,1-.08.64c-.16.13-.93,1.31-1.17.85-.1,0-.57-.34-.3-.49a3.12,3.12,0,0,1,.4-.5c0-.3-.64.45-.75.55-.19.36.17.37.4.5C49,59.88,48.55,60,48.33,60Z"/><path class="cls-27" d="M61.85,57l.11.13C61.81,57.22,61.85,57.13,61.85,57Z"/><path class="cls-27" d="M54.51,57a.84.84,0,0,1,.06.14A.18.18,0,0,1,54.51,57Z"/><path class="cls-7" d="M62.13,56.07a2.43,2.43,0,0,0,.83-1h0c0,.24-.26.57-.35.8s-.45.7-.45.7A1.83,1.83,0,0,1,62.13,56.07Z"/><path class="cls-28" d="M55.15,56.33l0,0C55.24,56.27,55.33,56.3,55.15,56.33Z"/><path class="cls-29" d="M67.53,56.22s-.06.08-.08.11h0A4.54,4.54,0,0,0,65.69,55c-.13-.12-.53-.12-.63-.24a9.18,9.18,0,0,0-1.57-.36.58.58,0,0,1,0-.22,2.3,2.3,0,0,1,.51.1A8,8,0,0,1,66.2,55,7.82,7.82,0,0,1,67.53,56.22Z"/><path class="cls-27" d="M61.22,56.17c0,.09,0,.1.1.13C61.25,56.35,61.19,56.3,61.22,56.17Z"/><path class="cls-7" d="M58.48,53h0a13.47,13.47,0,0,0,.57,1.36,6.07,6.07,0,0,0,1.1,1.28s0,.08.1.09-.28.45-.31.45a14.17,14.17,0,0,1-1.4-2.63C58.57,53.48,58.44,53.07,58.48,53Z"/><path class="cls-26" d="M62.13,56.07s0,0,0-.31c.34-.1.65-.7.81-1a1.52,1.52,0,0,1,.09-.25h0a1,1,0,0,1-.13.51h0A2.43,2.43,0,0,1,62.13,56.07Z"/><path class="cls-26" d="M60.29,55.77c-.06,0-.08-.07-.1-.09a6.07,6.07,0,0,1-1.1-1.28A13.47,13.47,0,0,1,58.52,53h0c0-.11-.06-.27.12-.32a2.08,2.08,0,0,0,.11.41,3.78,3.78,0,0,0,1.91,2.31C60.58,55.5,60.37,55.77,60.29,55.77Z"/><path class="cls-7" d="M62.16,55.76c0-.46-.14-.49.13-.82a2.91,2.91,0,0,0,.53-1.09c.22.08.24.55.24.7a1.07,1.07,0,0,0-.09.19C62.81,55.06,62.5,55.66,62.16,55.76Z"/><path class="cls-7" d="M58.6,52.72s.21-.27.33-.25c0,.68.85,1.38,1.32,1.81.18.1.82.57.8.66-.18.22-.18.22-.43.5a3.78,3.78,0,0,1-1.91-2.31A2.08,2.08,0,0,1,58.6,52.72Z"/><path class="cls-23" d="M61.52,55.36c0-.09.06-.52-.06-.52s-1-.61-1.11-.86a6.29,6.29,0,0,1-.85-.78,5.22,5.22,0,0,0-.34-.48,1.72,1.72,0,0,1,.32-.95,3.36,3.36,0,0,0,2.57,1.43,2.25,2.25,0,0,0,.68.11,3.08,3.08,0,0,1-.92,1.75C61.72,55.16,61.61,55.36,61.52,55.36Z"/><path class="cls-29" d="M56.48,53.13h.62c.2,0,.39,0,.46.21a11.08,11.08,0,0,0-2.15,0s-1.37.14-1.5.2a5.11,5.11,0,0,1-.95.06v-.06A32.29,32.29,0,0,1,56.48,53.13Z"/><path class="cls-23" d="M66.28,51.1l-.16.06a8.53,8.53,0,0,0-1,.33c-.31.07-.79,1.13-1.14,1.24a4,4,0,0,1-.7.31,4.88,4.88,0,0,1-2.46-.46,2.56,2.56,0,0,1-1.06-.86,4,4,0,0,1-.75-1,4.18,4.18,0,0,0,.47-1.52,3.24,3.24,0,0,1,.19.46,3.39,3.39,0,0,0,.63,1.06,6.71,6.71,0,0,0,1.49.75c.15,0,.29.05.44.05a1.56,1.56,0,0,0,1.21-.19c.11,0,.51-.37.51-.51l.06-.08c.19,0,.27,0,.19.12a2.62,2.62,0,0,1-.54,1A2.1,2.1,0,0,1,62,52a4.93,4.93,0,0,1-1.73-.77c-.36,0,.25.31.26.36s.4.3.59.3a1,1,0,0,1,.13.11,5.93,5.93,0,0,0,1.66.48,1.54,1.54,0,0,0,1-.38,2.51,2.51,0,0,0,.46-.61s.28-.52.34-.6a12.63,12.63,0,0,0,1.49-.06,1.54,1.54,0,0,0,.85-.43c0,.33-.55.57-.79.69A.1.1,0,0,1,66.28,51.1Z"/><path class="cls-30" d="M54,52.94h.12c-.15,0,.15-.06.15-.06A.44.44,0,0,1,54,52.94Z"/><path class="cls-31" d="M54.89,52.87a1,1,0,0,1,.24,0S55.1,52.87,54.89,52.87Z"/><path class="cls-32" d="M67.84,49.57s0-.1,0-.1a.88.88,0,0,1,0,.48h0c0-.08-.11.18,0,.16a1.55,1.55,0,0,0-.09.55c-.08,0-.08.45,0,.45,0,.22.16.31.24.41-.1,0,.06.15.13.08a.92.92,0,0,0,.73.06.11.11,0,0,1,0,.05v0l.07,0h-.07a2.82,2.82,0,0,0,.76-.45h.1a2.25,2.25,0,0,1-1.11.62C67.3,51.94,67.65,50.34,67.84,49.57Z"/><path class="cls-33" d="M68.1,51.59,68,51.51c-.08-.1-.24-.19-.24-.41v-.45a1.55,1.55,0,0,1,.09-.55c0-.05,0-.11,0-.15a2.7,2.7,0,0,0,.09-.48c.12-.16,0-.43,0-.58l0-.09a.53.53,0,0,1-.06-.13.52.52,0,0,0-.16-.17.42.42,0,0,0-.26-.12s-.24,0-.24,0l-.07,0H67l-.25.15s-.07,0-.07,0a.78.78,0,0,0-.13.13l-.06.06a1.6,1.6,0,0,1-.37.34c-.08,0-.08,0-.11-.06-.19-.18.15-.47.27-.58l.14-.1a1,1,0,0,1,.43-.22c.09,0,.13,0,.15,0s.3,0,.45,0c.42.06.5.24.69.6,0,0,0,0,0,0v0a3.62,3.62,0,0,1,0,.47v.15a.63.63,0,0,0,0,.12,2.83,2.83,0,0,0-.09,1.85c.19.26.59.2.88.13,0-.07.87-.41,1-.61s.28-.16,0,.08l-.3.24a2.55,2.55,0,0,1-.76.44h0A.88.88,0,0,1,68.1,51.59Z"/><path class="cls-34" d="M68.83,51.65H69a0,0,0,0,0,0,0l0,0Z"/><path class="cls-35" d="M68,51.51l.13.08C68,51.66,67.87,51.51,68,51.51Z"/><path class="cls-26" d="M61,50.22s0,0,.08,0,.63.13.69.26a3.93,3.93,0,0,1,.41.33.53.53,0,0,0-.26-.4c0-.09,0-.06.07,0,.22,0,.44.22.62.28,0,.12.77.64.19.64a3.7,3.7,0,0,1-.84-.07c-.1,0-.37-.09-.44-.19a5.22,5.22,0,0,1-1.34-.87C60.32,50.1,60.86,50.19,61,50.22Z"/><path class="cls-36" d="M66.12,51.16a.33.33,0,0,0,.11-.06S66.12,51.18,66.12,51.16Z"/><path class="cls-33" d="M57.28,50.68s0,0,0-.08a3,3,0,0,1-.41-.63s-.32-.78-.36-.86,0-.14-.07-.22l0-.09a.57.57,0,0,1,0-.22,1.26,1.26,0,0,1-.14-.5,1.73,1.73,0,0,1-.05-.22c0-.09,0-.18,0-.18s0,0,0,0a4.89,4.89,0,0,1,.21.68l0,0a6,6,0,0,0,.45,1.18s0,0,0,0a.15.15,0,0,0,0,.09l.06.11c.07.15.37.7.51.75a.78.78,0,0,0,.3.21c1.07.45,1.28-1,1.37-1.73V49a1.13,1.13,0,0,0,.06-.3c0-.09,0-.2.05-.29,0-.28,0-.28.06-.32a.21.21,0,0,0,0-.14.91.91,0,0,1,.12-.31.77.77,0,0,1,.06-.15s0-.05,0-.08a1.26,1.26,0,0,1,.33-.32c.64-.28.91,0,1.31.46a2.87,2.87,0,0,0,.3.58c0,.17,0,.37-.23.31h0s0,0-.05,0a1.2,1.2,0,0,1-.15-.3,1.49,1.49,0,0,0-.25-.57l-.11-.11-.17-.06,0,0-.13,0h-.09c-.06,0-.18,0-.18.08a.29.29,0,0,0-.1,0,.27.27,0,0,0-.07.08l-.26.5-.18.54,0,.14v0l0,.07a2.89,2.89,0,0,0-.08.47.21.21,0,0,1,0,.06,1.76,1.76,0,0,0-.08.37v.06l0,.14s0,.1,0,.1-.06.51-.19.56A1,1,0,0,1,57.28,50.68Z"/><path class="cls-30" d="M67.73,50.65v.45C67.65,51.1,67.65,50.65,67.73,50.65Z"/><path class="cls-21" d="M70,51V50.9C70.13,50.89,70.08,50.94,70,51Z"/><path class="cls-37" d="M67.73,50.9v0Z"/><path class="cls-38" d="M57.24,50.6s0,0,0,.08S57.15,50.73,57.24,50.6Z"/><path class="cls-39" d="M65.26,50.68h0Z"/><path class="cls-33" d="M65.26,50.68A7.54,7.54,0,0,1,64,50.59c-.19,0-.44-.09-.64-.09h0a.23.23,0,0,1-.13,0,2.58,2.58,0,0,1-.77-.17,2.81,2.81,0,0,0-.49-.16l-.08,0c-.09-.11-.48-.15-.55-.3a1.64,1.64,0,0,1-.67-.56.32.32,0,0,1-.06-.17l0-.17v-.1l0,0s0-.08,0-.16l0-.09s.07-.09.11-.12a1.08,1.08,0,0,1,.11-.11,2.12,2.12,0,0,0,.21.27c.32.2.52-.14.56-.46a2.06,2.06,0,0,1,.35,0h0c.11,0,.23,0,.35,0h.18a.51.51,0,0,1,.25,0,.59.59,0,0,1,.17,0,.69.69,0,0,0-.1.19,2.08,2.08,0,0,0-.12.57c-.41-.25-.69-.28-1,.15a.53.53,0,0,0,.44.68c0-.16-.31-.18-.2-.43s.52-.17.71.11c0,.23,0,.2.23.16s0-.4-.06-.58a1.33,1.33,0,0,1,.09-.66s.06-.06.07-.09a.12.12,0,0,1,0,0,1.82,1.82,0,0,1,.21-.21l0,0,.13-.08a1.26,1.26,0,0,1,.75,0l.12,0s.1.07.1.07l.16,0,0,0a.5.5,0,0,1,.12.1l.12.08s0,0,0,.06l0,.05a.27.27,0,0,1,0,.13.24.24,0,0,1,.08.13,1.18,1.18,0,0,1-.2.84c-.22.18-.37.13-.33.42.22.42.22.07.45-.06.41-.16.79.23.39.52,0,0-.22,0-.17.09a.74.74,0,0,0,.57-.33c0-.22,0-.64-.31-.64-.09-.07-.32,0-.42,0l.07-.19a3.2,3.2,0,0,0,.07-.41.26.26,0,0,1,.16,0l.21.07a.72.72,0,0,1,.21,0c0,.3-.07.31.22.47a.24.24,0,0,0,.18-.05l.07,0s0,0,.11-.09.34,0,.49.07l.07,0c.18.19.26.23.26.48a.5.5,0,0,1,0,.15.65.65,0,0,1-.3.49h0l-.1.09a2.12,2.12,0,0,1-1.1.31Z"/><path class="cls-24" d="M63.21,50.45a.58.58,0,0,0,.18,0h0C63.32,50.5,63.25,50.54,63.21,50.45Z"/><path class="cls-40" d="M66.83,50.39s0,0,.1-.06S66.83,50.39,66.83,50.39Z"/><path class="cls-23" d="M56.92,47.7a.64.64,0,0,1,0-.09c0-.07-.14-.29-.16-.39s0-.06,0-.16c-.19-.14-.23-1.11-.24-1.31a.76.76,0,0,1,.18.18s.06.12.1.13a2.24,2.24,0,0,0,.88.52.57.57,0,0,1,.27.64.2.2,0,0,1-.13.15c-.41.05-.44-.52-.07-.39,0-.1-.1-.13-.17-.17-.24,0-.28.25-.22.46a.24.24,0,0,0,.05.14c.17.24.71.21.71-.09a.8.8,0,0,0-.2-.91c-.1-.24-.37-.42-.47-.66-.11,0-.26-.72-.34-.83a5.41,5.41,0,0,1,0-.9c.15,0,.44.7.69.7,0,.14.8.31.93.35s.12,0,.12,0c.3.08.59.18.69.45.1,0,.06.73,0,.73-.07.37-.55.29-.7,0s0-.55.28-.55l.2,0a.47.47,0,0,0-.73.42.51.51,0,0,0,.19.47c.06.16.27.13.36.23a6,6,0,0,1,.06,1.69,4.16,4.16,0,0,1-.08.74c0,.17-.08.46-.08.46a.55.55,0,0,0,0,.09c0,.1-.16.55-.24.55A8.59,8.59,0,0,1,56.92,47.7Z"/><path class="cls-32" d="M65.16,48.54l.12.13a3.2,3.2,0,0,1-.07.41l-.07.19c.1,0,.33,0,.42,0,.31,0,.36.42.31.64a.74.74,0,0,1-.57.33c0-.09.14-.09.14-.09.43-.29,0-.68-.36-.52-.23.13-.23.48-.45.06,0-.29.11-.24.33-.42A1.08,1.08,0,0,0,65.16,48.54Z"/><path class="cls-27" d="M61,50.22s.06,0,.12,0l0,.05S61,50.19,61,50.22Z"/><path class="cls-21" d="M70.57,50.15v0s.06,0,.06,0C70.76,50,70.57,50.28,70.57,50.15Z"/><path class="cls-24" d="M61.92,50.1l.08,0C62,50.19,61.85,50.15,61.92,50.1Z"/><path class="cls-24" d="M59.22,50s0-.13,0-.15,0,.21,0,.21S59.22,50.05,59.22,50Z"/><path class="cls-24" d="M67.84,50s0,.1,0,.15,0-.24,0-.16Z"/><path class="cls-24" d="M57,49.84l-.06-.11S57,49.79,57,49.84Z"/><path class="cls-25" d="M67.24,49.79a.23.23,0,0,0,0-.09s0,.14,0,.09Z"/><path class="cls-24" d="M58.92,49.79a.55.55,0,0,1,0-.09S59,49.8,58.92,49.79Z"/><path class="cls-24" d="M59.27,49.7v-.06S59.36,49.75,59.27,49.7Z"/><path class="cls-32" d="M62.94,48.27c0,.13.05,0,.12,0h0a1.33,1.33,0,0,0-.09.66c.09.18.3.42.06.58s-.22.07-.23-.16c-.19-.28-.49-.42-.71-.11s.2.27.2.43a.53.53,0,0,1-.44-.68c.28-.43.56-.4,1-.15A2.08,2.08,0,0,1,62.94,48.27Z"/><path class="cls-41" d="M56.9,49.64s0,0,0,0C56.87,49.44,57,49.64,56.9,49.64Z"/><path class="cls-24" d="M68.14,49.57a.92.92,0,0,1,0-.18Z"/><path class="cls-24" d="M59.36,49.27v0C59.48,49.21,59.42,49.27,59.36,49.27Z"/><path class="cls-41" d="M60.64,49.07a.32.32,0,0,0,.06.17c-.08,0-.08-.05-.1-.16Z"/><path class="cls-24" d="M66.08,49.24a.21.21,0,0,1,.18-.05A.24.24,0,0,1,66.08,49.24Z"/><path class="cls-24" d="M68.17,49.24a3.62,3.62,0,0,0,0-.47C68.18,48.84,68.23,49.24,68.17,49.24Z"/><path class="cls-24" d="M66,49.08s0,0,.11.06-.07,0-.07,0S66,49.11,66,49.08Z"/><path class="cls-24" d="M66.93,49.14v-.06c.12.08.07,0,.07.08Z"/><path class="cls-41" d="M66.33,49.16s0-.12.11-.09S66.38,49.14,66.33,49.16Z"/><path class="cls-23" d="M59.9,48.5s-.07-.07-.07-.1a.73.73,0,0,1-.09-.24,1.32,1.32,0,0,1,.25-.59.54.54,0,0,0,.12-.09c.21-.18.43,0,.62.06s.15.36.24.54-.26.18-.27.23c-.16.07-.22.39-.23.53s.11.4,0,.23A6.27,6.27,0,0,1,59.9,48.5Z"/><path class="cls-24" d="M56.4,48.89c0,.08.06.15.07.22S56.38,48.94,56.4,48.89Z"/><path class="cls-24" d="M59.16,49V49C59.08,49,59.07,48.9,59.16,49Z"/><path class="cls-42" d="M67,49s-.58-.29-.21-.17C66.77,48.87,67.05,49,67,49Z"/><path class="cls-43" d="M60.62,48.8v.1C60.55,48.9,60.54,48.84,60.62,48.8Z"/><path class="cls-41" d="M67.91,48.8s0,0,0,.09S67.87,48.84,67.91,48.8Z"/><path class="cls-24" d="M66.49,48.8l.06-.06S66.61,48.8,66.49,48.8Z"/><path class="cls-41" d="M56.34,48.58a.57.57,0,0,0,0,.22C56.3,48.8,56.29,48.59,56.34,48.58Z"/><path class="cls-30" d="M59.45,48.77a.3.3,0,0,1,0-.1c0,.07,0,0,0,0v.07S59.48,48.8,59.45,48.77Z"/><path class="cls-27" d="M68.15,48.77a.24.24,0,0,1,0-.07c.07-.06.09.07,0,.07S68.15,48.67,68.15,48.77Z"/><path class="cls-41" d="M60.69,48.59l0,.16S60.64,48.58,60.69,48.59Z"/><path class="cls-24" d="M65.5,48.67s.09-.09.06,0,.11,0,.13.07S65.52,48.7,65.5,48.67Z"/><path class="cls-41" d="M67.71,48.5a.52.52,0,0,1,.16.17Z"/><path class="cls-41" d="M59.27,48.38c0,.09,0,.2-.05.29S59.16,48.41,59.27,48.38Z"/><path class="cls-23" d="M66.85,45.26a.73.73,0,0,0-.07-.19c-.1-.37-.77-.85-1.19-.61,0,0-.16.07-.1,0s.43-.37.43-.49.2-.56.31-.64a.8.8,0,0,1,.55-.63c.24,0,1,1.21,1,1.41a.44.44,0,0,1,0,.18,5.24,5.24,0,0,1-.19,2.19,4.67,4.67,0,0,1-.2.5,2.22,2.22,0,0,1-.14.32.45.45,0,0,0,0,.11,5.93,5.93,0,0,0-.35.68,1,1,0,0,0-.54.3c-.19,0-.38.39-.53.25s0-.11.07-.23A3.44,3.44,0,0,0,66.85,45.26Z"/><path class="cls-41" d="M59.48,48.64l0-.14C59.51,48.58,59.54,48.64,59.48,48.64Z"/><path class="cls-24" d="M66.68,48.61s0,0,.07,0S66.73,48.61,66.68,48.61Z"/><path class="cls-7" d="M65.25,48.31a.84.84,0,0,0,.1-.15l.09-.14a.38.38,0,0,0,.08-.12l0-.08c.11-.1.13-.28.19-.41a2.42,2.42,0,0,0,0-1.66c-.58-.58-1,.27-1.21.72,0,.08-.09.2-.06.3l0,.18c-.06.06-.06.27-.06.27s0,.16,0,.16v.22H64.2c0-.29-.13-1.11.1-1.33,0-.11.08-.17.1-.26s.15-.47.23-.47a1.47,1.47,0,0,1,.93-.81s.34,0,.43,0c.78.22.78,1.19.71,1.87-.1.24-.1.66-.26.85a2.76,2.76,0,0,1-.5.74C65.81,48.4,65.25,48.8,65.25,48.31Z"/><path class="cls-41" d="M61,48.27l.17.27A.69.69,0,0,1,61,48.27Z"/><path class="cls-41" d="M59.83,48.4s.06.07.07.1A.12.12,0,0,1,59.83,48.4Z"/><path class="cls-24" d="M66.28,48.5c0-.07,0-.07.08-.12l.06,0Z"/><path class="cls-24" d="M60.73,48.5c0-.12,0-.12.11-.12S60.77,48.47,60.73,48.5Z"/><path class="cls-41" d="M67,48.41h.13C67.1,48.46,67.05,48.47,67,48.41Z"/><path class="cls-38" d="M67.15,48.38s.3,0,.3,0S67.15,48.46,67.15,48.38Z"/><path class="cls-41" d="M61.22,48.36s0,0,.05,0S61.16,48.43,61.22,48.36Z"/><path class="cls-24" d="M56.4,48.38a.08.08,0,0,0,0-.07c.06,0,0,.07,0,.1Z"/><path class="cls-30" d="M65.16,48.27h0l.16-.11a.84.84,0,0,1-.1.15s0,.07-.06,0S65.13,48.36,65.16,48.27Z"/><path class="cls-38" d="M65,48.21c.11,0,.1,0,0,.13A.27.27,0,0,0,65,48.21Z"/><path class="cls-44" d="M65.19,48.27s0-.07,0-.11.07-.1.09-.18l.19,0s0,0,0,0l-.09.16S65.19,48.31,65.19,48.27Z"/><path class="cls-41" d="M63.06,48.27h0c0-.13,0-.09,0-.09A.06.06,0,0,1,63.06,48.27Z"/><path class="cls-45" d="M65.19,48.16s0,.05,0,.05l0,.06Z"/><path class="cls-41" d="M66.85,48.18l0,0H67S66.94,48.16,66.85,48.18Z"/><path class="cls-24" d="M65,48.16s0,0,0-.06S65.08,48.13,65,48.16Z"/><path class="cls-24" d="M63.17,48.14c0-.06.15-.28.13-.21l.08-.07A.83.83,0,0,1,63.17,48.14Z"/><path class="cls-32" d="M61.52,48.1a2.87,2.87,0,0,1-.3-.58c-.4-.47-.67-.74-1.31-.46a1.26,1.26,0,0,0-.33.32s-.16,0-.1,0h0a1,1,0,0,1,.81-.58,1.15,1.15,0,0,1,.83.44c.21.3.34.55.36.56s0,.14,0,.18S61.55,48,61.52,48.1Z"/><path class="cls-41" d="M56.15,47.86c0,.2.05.2.05.2S56.14,47.9,56.15,47.86Z"/><path class="cls-24" d="M61.72,48.08s.33-.08.35,0A2.06,2.06,0,0,0,61.72,48.08Z"/><path class="cls-32" d="M61,48.08c-.09-.18-.13-.36-.24-.54a.08.08,0,0,0,.09,0,1.49,1.49,0,0,1,.25.57C61,48.06,61,48,61,48.08Z"/><path class="cls-24" d="M63,48.08a.28.28,0,0,0-.11,0l-.06,0s.07,0,.09,0S63.06,48,63,48.08Z"/><path class="cls-30" d="M59.33,48.06c0-.06,0-.14,0-.14A.21.21,0,0,1,59.33,48.06Z"/><path class="cls-27" d="M62.1,48.06l.34,0C62.32,48,62.2,48.06,62.1,48.06Z"/><path class="cls-39" d="M62.62,48h.25v0A.51.51,0,0,0,62.62,48Z"/><path class="cls-45" d="M65.44,48a.08.08,0,0,1,0-.06.09.09,0,0,1,0-.06C65.5,48,65.49,48,65.44,48Z"/><path class="cls-41" d="M64.71,47.92c.14,0,.12,0,.15.1Z"/><path class="cls-46" d="M65.28,48a.9.9,0,0,1,.11-.22c.07.06.13-.1.2-.06a.35.35,0,0,0,0,.12l0,.08s0,0,0,.06Z"/><path class="cls-7" d="M62.94,47.48c.23-.61.5-1.87-.08-2.37-.86-.45-1.27,1.39-1.3,2a1.68,1.68,0,0,0,.12.8c0,.16-.18-.4-.2-.41a3.55,3.55,0,0,0-.11-.68,3.92,3.92,0,0,1,.31-1.59,3.28,3.28,0,0,1,.19-.36s.37-.52.45-.52c0-.17,1.14-.32,1.14-.06.83.56.57,2.26.33,3,0,0,0,.12-.08.21s-.57.6-.87.46c-.2,0-.08-.1,0-.15S62.93,47.52,62.94,47.48Z"/><path class="cls-7" d="M61.92,47.93a1.36,1.36,0,0,1,.21-1.36C62.49,46.57,62.17,47.93,61.92,47.93Z"/><path class="cls-47" d="M62.71,47.42c.1,0,.09,0,.16.06,0,.2-.16.42-.35.42C62.54,47.78,62.71,47.54,62.71,47.42Z"/><path class="cls-41" d="M64.59,47.86c.06,0,.11-.07.09,0Z"/><path class="cls-7" d="M64.9,47.9a.52.52,0,0,1-.16-.12c-.19,0,.06-.66.19-.72S64.9,47.9,64.9,47.9Z"/><path class="cls-41" d="M63.42,47.9s.07-.12.13-.08Z"/><path class="cls-32" d="M65.54,47.82s0-.06,0-.06a3.76,3.76,0,0,0,.22-1.46l0-.15c-.06-.55-.58-.72-.91-.24a.43.43,0,0,0-.13.24c-.06,0-.08.09-.09.15a4.32,4.32,0,0,1-.21.47c0-.1.06-.22.06-.3.24-.45.63-1.3,1.21-.72a2.42,2.42,0,0,1,0,1.66C65.67,47.54,65.65,47.72,65.54,47.82Z"/><path class="cls-24" d="M64.3,47.77c.11-.11.12,0,.12,0Z"/><path class="cls-48" d="M65.39,47.76a1,1,0,0,1,.08-.22s0,0,0-.06a.65.65,0,0,0,.1-.93l0,0v-.09s-.1-.33-.16-.33h0c.06-.09.1,0,.07-.06s0,.06.12.06.14.13.22.15a3.32,3.32,0,0,1-.22,1.4C65.52,47.66,65.46,47.82,65.39,47.76Z"/><path class="cls-23" d="M59.48,47.36s-.12-.55-.12-.62a1.39,1.39,0,0,0,.28-.38,1,1,0,0,0-.14-1.18s0,0-.08-.08c-.36-.24-.84-.18-1.23-.36a.82.82,0,0,1,.15-.35c.11-.41-.06-.48-.22-.81l0-.08a4.92,4.92,0,0,1-.32-1.56v-.41c0-.11,0-.28,0-.34a.2.2,0,0,1,0-.12,4.3,4.3,0,0,1,.85.18s0,0,.09.06a3.13,3.13,0,0,1,1,.66c.06,0,.12.16.18.1s.11-.06.11.17c.11.59.65.67,1.21.7.21,0,.74.07.86-.22s.11-.59,0-.87.11-.08.11-.12c.18,0,.82-.12.82.21l.19.43a7.55,7.55,0,0,0,.07,1.26,2.86,2.86,0,0,1,.15.33c-.24-.05-.37-.24-.72-.2l-.11,0c-.22.1-.58.24-.68.48a2,2,0,0,0-.44.81l0,.11a4.85,4.85,0,0,0-.27,1.43v.07a5.63,5.63,0,0,0,.21,1.1s-.15-.26-.36-.56a1.15,1.15,0,0,0-.83-.44,1,1,0,0,0-.81.58Z"/><path class="cls-41" d="M56.9,47.61a.64.64,0,0,0,0,.09C56.85,47.7,56.87,47.7,56.9,47.61Z"/><path class="cls-25" d="M56.19,47.7a.17.17,0,0,1,0-.09C56.14,47.49,56.2,47.61,56.19,47.7Z"/><path class="cls-40" d="M64.33,47.6v-.18s0,0,0,0l.07.11S64.41,47.7,64.33,47.6Z"/><path class="cls-24" d="M63.94,47.61h.17S64,47.65,63.94,47.61Z"/><path class="cls-23" d="M63.74,47.52c.1-.15.1-.15.12-.24a4.61,4.61,0,0,0,.2-.63,4.49,4.49,0,0,0,.1-1.2c-.09-.5-.09-.5-.13-.68a1,1,0,0,1-.13-.34s.28.17.21.07L64,44.39c0-.09-.22-.21-.22-.21a3.81,3.81,0,0,1-.16-.79V43.3a2.63,2.63,0,0,1,0-.49s0-.07,0-.09c0-.25,0-.51,0-.75a2.26,2.26,0,0,1,.79.43,2.43,2.43,0,0,1,.44.41,1.72,1.72,0,0,1,.17.22h0l.08.14s.11.16.18.16a1.65,1.65,0,0,1,0-.31v-.09a9.21,9.21,0,0,0-.2-.91,1.22,1.22,0,0,1-.25-.44,3.76,3.76,0,0,1,.83.32c.16.08.82.36.48.52,0,.1-.29.29-.29.49s0,.42-.13.52l-.1.34c-.1.18-.37.65-.61.75,0,.07-.21.09-.08.13s.33,0,.13.08c0,.16-.42.31-.42.52a1.72,1.72,0,0,0-.36.73,2.7,2.7,0,0,0-.24,1.26s0,.35,0,.36h-.17C63.79,47.61,63.66,47.7,63.74,47.52Z"/><path class="cls-24" d="M59.48,47.61c-.06-.07,0-.13.06-.15A.77.77,0,0,0,59.48,47.61Z"/><path class="cls-49" d="M64.35,47.46h.05v.11A.38.38,0,0,1,64.35,47.46Z"/><path class="cls-41" d="M60,47.57s0,0,0,0,0-.07.13,0A.54.54,0,0,1,60,47.57Z"/><path class="cls-36" d="M65.47,47.54s-.07-.12,0-.12,0,0,0,0a.06.06,0,0,1,0,0A.13.13,0,0,0,65.47,47.54Z"/><path class="cls-32" d="M63.74,47.52l0-.06c0-.09.06-.16.08-.21s0,0,.07,0S63.84,47.37,63.74,47.52Z"/><path class="cls-41" d="M59.94,47.46a.27.27,0,0,1,.07-.08l.06,0C60,47.42,60,47.48,59.94,47.46Z"/><path class="cls-47" d="M61.59,47.11h0c0-.06,0-.14,0,0h0a1.81,1.81,0,0,1,0,.4A.92.92,0,0,1,61.59,47.11Z"/><path class="cls-32" d="M62.89,47.46a.91.91,0,0,0,.12-.35,3.77,3.77,0,0,0,.12-.53c0-.08,0-.17,0-.28v-.19c0-.61-.3-1.37-1-.75a1.24,1.24,0,0,0-.21.33l-.09.18c0,.06-.06.21-.1.28a2.28,2.28,0,0,0-.13.5c0,.2,0,.2,0,.35s0,.16,0,.06c0-.56.44-2.4,1.3-2,.58.5.31,1.76.08,2.37Z"/><path class="cls-50" d="M62.87,47.48c-.07,0-.06-.06-.16-.06a3.55,3.55,0,0,1,.11-.36s.17,0,.19,0a.91.91,0,0,1-.12.35Z"/><path class="cls-48" d="M64.35,47.46a1.64,1.64,0,0,1,0-.18s0-.27,0-.31a1.27,1.27,0,0,0,0,.18c0,.11,0,.2,0,.31Z"/><path class="cls-51" d="M65.49,47.48a.22.22,0,0,0,0-.06.74.74,0,0,1,0-.17l0-.19a1.71,1.71,0,0,1,0-.38.15.15,0,0,0,0-.07l0-.06A.65.65,0,0,1,65.49,47.48Z"/><path class="cls-52" d="M64.33,47.42l0-.15v.19S64.38,47.42,64.33,47.42Z"/><path class="cls-41" d="M60.54,47.32l.15.06s0,0,0,0S60.51,47.38,60.54,47.32Z"/><path class="cls-41" d="M57.35,47.41a.24.24,0,0,1-.05-.14C57.35,47.27,57.35,47.36,57.35,47.41Z"/><path class="cls-24" d="M60.38,47.28l.13,0s0,.15-.06.05.06-.05-.07-.05Z"/><path class="cls-36" d="M67.24,47.38a.45.45,0,0,1,0-.11C67.37,47.27,67.24,47.37,67.24,47.38Z"/><path class="cls-30" d="M60.11,47.35c0-.07.12-.08.18-.08S60.22,47.36,60.11,47.35Z"/><path class="cls-24" d="M65.56,47.06l0,.19C65.49,47.25,65.54,47,65.56,47.06Z"/><path class="cls-43" d="M56.7,47.06c0,.1,0,.12,0,.16S56.67,47.12,56.7,47.06Z"/><path class="cls-51" d="M64.41,47s0,0,0-.2a4.32,4.32,0,0,0,.21-.47,2.1,2.1,0,0,0,.33-.15c-.11.1-.54.66-.46.83l-.07.17A1.27,1.27,0,0,1,64.41,47Z"/><path class="cls-50" d="M61.59,47.11V47c0-.15,0-.15,0-.35,0,0,0,0,0,0a1.36,1.36,0,0,0,0,.4h0c0-.11,0,0,0,0Z"/><path class="cls-51" d="M62.82,47.06a.68.68,0,0,1,0-.28v0c0-.13,0-.19,0-.27a.78.78,0,0,1,.24.11,3.77,3.77,0,0,1-.12.53S62.86,47.06,62.82,47.06Z"/><path class="cls-27" d="M62.87,46.71v.07c-.09,0,0-.17,0-.07S62.84,46.68,62.87,46.71Z"/><path class="cls-24" d="M65.56,46.48v.09a.53.53,0,0,1,0,.11C65.59,46.85,65.49,46.5,65.56,46.48Z"/><path class="cls-24" d="M61.29,46.68v0c.06,0,.06.16,0,0Z"/><path class="cls-51" d="M61.68,46.68v0a1.14,1.14,0,0,1,.09-.5h.06A2.31,2.31,0,0,1,61.68,46.68Z"/><path class="cls-7" d="M65,46.61c-.35-.11.23-.44.12,0Z"/><path class="cls-53" d="M62.89,46.47v-.23c.1,0,.17.06.25.06s0,.2,0,.28A.78.78,0,0,0,62.89,46.47Z"/><path class="cls-46" d="M62.89,46.24l0-.07a.57.57,0,0,0,0-.12c0-.12.27.06.27.06a1.21,1.21,0,0,1,0,.19C63.06,46.3,63,46.24,62.89,46.24Z"/><path class="cls-46" d="M65.4,46.15c-.05-.14-.26-.13-.34-.07s-.24,0-.3.07h0a.43.43,0,0,1,.13-.24,1.07,1.07,0,0,1,.86.24h0l0,.13c-.08,0-.16-.11-.22-.13s-.12.06-.12-.06S65.46,46.06,65.4,46.15Z"/><path class="cls-53" d="M64.65,46.3c0-.06,0-.13.09-.15h0a1.11,1.11,0,0,1,.3-.13,1.05,1.05,0,0,1-.08.13A2.1,2.1,0,0,1,64.65,46.3Z"/><path class="cls-24" d="M62.82,45.91v0l0,0a.24.24,0,0,0,0,.1.57.57,0,0,1,0,.12A1,1,0,0,1,62.82,45.91Z"/><path class="cls-53" d="M61.83,46.15h-.06c0-.07.06-.22.1-.28s.05,0,.06.06-.06.08-.08.13Z"/><path class="cls-7" d="M62.35,46.15c-.43-.16.09-.4.14-.06C62.46,46.15,62.41,46.15,62.35,46.15Z"/><path class="cls-44" d="M64.87,45.91c.33-.48.85-.31.91.24h0A1.07,1.07,0,0,0,64.87,45.91Z"/><path class="cls-44" d="M62.86,46.05a.12.12,0,0,1,0-.06S63,46,63,46a.24.24,0,0,0-.14,0v0c0-.16-.21-.52-.44-.42-.06,0-.13,0-.13.06a.35.35,0,0,0-.18.18l-.11,0a1.24,1.24,0,0,1,.21-.33c.67-.62.93.14,1,.75C63.14,46.11,62.86,45.93,62.86,46.05Z"/><path class="cls-43" d="M56.64,45.93c.06,0,.09.08.1.13S56.64,46,56.64,45.93Z"/><path class="cls-46" d="M62.84,46l0,0A.24.24,0,0,1,63,46S62.87,46,62.84,46Z"/><path class="cls-46" d="M61.93,45.93s0-.07-.06-.06l.09-.18h.11A.64.64,0,0,0,61.93,45.93Z"/><path class="cls-45" d="M62.25,45.55c0-.06.07-.06.13-.06Z"/><path class="cls-43" d="M66.78,45.07a.73.73,0,0,1,.07.19A1.31,1.31,0,0,1,66.78,45.07Z"/><path class="cls-41" d="M61.55,45.23l0-.16S61.59,45.23,61.55,45.23Z"/><path class="cls-41" d="M59.42,45.1s.08.06.08.08A.08.08,0,0,1,59.42,45.1Z"/><path class="cls-24" d="M58.67,45.07a.11.11,0,0,1,.17,0S58.7,45.1,58.67,45.07Z"/><path class="cls-23" d="M68.44,44.5a3.74,3.74,0,0,0,.55-.92s.1-.14.1-.24a2.73,2.73,0,0,0-1.16.32c-.2.22-.2-.42-.32-.42s.87-.12.93-.15h.73s.09,0,.08.08l-.22.41a3.12,3.12,0,0,1-.59,1,2.48,2.48,0,0,1-.48.54C68,44.92,68.44,44.62,68.44,44.5Z"/><path class="cls-33" d="M68,44.42v-.16c-.11-.4-.22-.44.19-.62l.16,0,0,0a.59.59,0,0,0,.19,0l.27,0h0c0,.3-.34.68-.5.93a.43.43,0,0,1-.09.13l-.11.14-.08.12A1.35,1.35,0,0,1,68,44.42Z"/><path class="cls-41" d="M68.18,44.7a.62.62,0,0,0,.06-.14h.06c0,.06,0,0,0,.06S68.27,44.66,68.18,44.7Z"/><path class="cls-41" d="M68.3,44.56h0a.43.43,0,0,0,.09-.13h0A.14.14,0,0,1,68.3,44.56Z"/><path class="cls-32" d="M63.9,44.43s.13,0,.13,0l.08.11C64.18,44.6,63.9,44.42,63.9,44.43Z"/><path class="cls-32" d="M68.44,44.5c0-.07,0,0,0-.07h0c.16-.25.5-.63.5-.93a.38.38,0,0,0,.11.08A3.74,3.74,0,0,1,68.44,44.5Z"/><path class="cls-41" d="M68,44.26v.16C68,44.42,68,44.3,68,44.26Z"/><path class="cls-43" d="M67.82,44.26a1,1,0,0,0-.07-.18S67.83,44.26,67.82,44.26Z"/><path class="cls-32" d="M58.93,44.06c-.07-.07-.25-.1-.33-.15-.77-.57-.74-1.7-.74-2.59,0-.25.52,0,.66.07.81.52,1.35.94,1.17,2C59.57,43.78,59.37,44,58.93,44.06Z"/><path class="cls-33" d="M59,43.91c-.43,0-.59-.34-.78-.69A5.43,5.43,0,0,1,58,41.63c0-.24,0-.24,0-.25a1.62,1.62,0,0,1,1.25,2.44A.4.4,0,0,1,59,43.91Z"/><path class="cls-41" d="M62.71,43.78l.11,0S62.71,43.88,62.71,43.78Z"/><path class="cls-24" d="M68.21,43.64s.12-.11.19-.06v0Z"/><path class="cls-24" d="M68.59,43.53a.82.82,0,0,1,.27,0Z"/><path class="cls-24" d="M63.64,43.3v.09C63.57,43.39,63.57,43.3,63.64,43.3Z"/><path class="cls-24" d="M65.13,43s.11.08.08.14Z"/><path class="cls-41" d="M69.35,43.17a.06.06,0,0,0-.06-.08C69.39,43,69.42,43.17,69.35,43.17Z"/><path class="cls-24" d="M65.35,42.94V43C65.26,43,65.32,42.94,65.35,42.94Z"/><path class="cls-43" d="M64.91,42.81c.15.11.15.1.17.22C65.06,43,64.91,42.86,64.91,42.81Z"/><path class="cls-41" d="M65.13,42.86a.41.41,0,0,0,.11.12C65.24,43,65.08,42.94,65.13,42.86Z"/><path class="cls-54" d="M65.13,42.86a3.93,3.93,0,0,0-.58-.57.6.6,0,0,0-.13-.12l-.12-.07a.43.43,0,0,0-.14-.07l0,0a.3.3,0,0,0-.11-.07.8.8,0,0,1-.29-.11s0,0-.09-.06l-.06-.14-.05-.1s0,0,0-.05a.75.75,0,0,1-.05-.16l0,0a1.24,1.24,0,0,0-.15-.21s0-.06,0-.06a1.29,1.29,0,0,1-.13-.17,0,0,0,0,1,0,0L63,40.75c-.11-.15-.33-.24-.4-.37l-.12-.12c-.2-.06-.11.34-.11.34,0,.22-.16.87,0,.89a.85.85,0,0,1,.23,0,.3.3,0,0,1,.22.08l0,0-.3,0h-.37a2,2,0,0,0-.1-.4,2.18,2.18,0,0,0-.07-.27.24.24,0,0,1,0-.1l-.06-.22c-.07-.34-.14-.3.12-.49l.11-.1a1.72,1.72,0,0,1,.18-.13c.16-.14.34-.28.51-.44,0,0,.19-.13.19-.13s.05-.05.09-.06a.07.07,0,0,0,0,0l.3-.17c0-.06.11-.06.15-.08s.15,0,.15-.07a.32.32,0,0,0,.16,0,1.91,1.91,0,0,1,.35,0c.17,0,.17,0,.22,0h.12s0,0,.06,0l.06,0a.64.64,0,0,0,.22,0s.63.35.63.59l-.73-.17c-.2,0-1.12.11-1.06.36H64c.55.12,1.38.3,1.68.81a3.42,3.42,0,0,1,.22.4c0,.09.22.62.17.68s-.05,0-.07-.06a1.9,1.9,0,0,1-.19-.21,2.17,2.17,0,0,0-.29-.24h0l-.06,0,0,0a.35.35,0,0,1-.15-.07l-.09,0-.1,0a.72.72,0,0,0-.28-.07h-.6s-.12,0-.12.07h0c-.13.09,0,.13.15.19l.15.13a.85.85,0,0,1,.22.2h0a.4.4,0,0,0,.11.12s.1.14.12.16a.91.91,0,0,0,.07.14l0,.05s0,.06.08.11l0,0c0,.14,0,.14,0,.17l0,0,0,.09c0,.07,0,.1.06.18s0,0,0,0v.12c0,.05,0,.09,0,.16a.59.59,0,0,0,0,.17A.41.41,0,0,1,65.13,42.86Z"/><path class="cls-24" d="M63.71,42.72a.09.09,0,0,0,0,.07s0,0,0,0C63.66,43,63.59,42.83,63.71,42.72Z"/><path class="cls-55" d="M65.2,42.81c0-.07,0-.11,0-.16S65.24,42.77,65.2,42.81Z"/><path class="cls-41" d="M61.29,42.67a.34.34,0,0,1,.11,0c-.08.14,0,0,0,0Z"/><path class="cls-27" d="M61.61,42.69a.6.6,0,0,0,.16,0C61.68,42.77,61.81,42.72,61.61,42.69Z"/><path class="cls-33" d="M61.4,42.69l-.08,0a2.42,2.42,0,0,0-.37,0,.25.25,0,0,0-.15,0,.92.92,0,0,1-.49-.27s0-.12,0-.12a4.53,4.53,0,0,0-.06-.68.88.88,0,0,0,0-.14,2.53,2.53,0,0,0-.06-.41.21.21,0,0,1,0-.06.46.46,0,0,0-.08-.2.17.17,0,0,1,0-.07s-.12-.06-.14-.1l-.13,0a.19.19,0,0,0-.11,0s-.07,0-.08-.05c-.16,0-.24-.18-.39-.2s0-.06-.07-.09a.28.28,0,0,1-.08,0l-.1-.12c-.29-.14-.48-.7-.65-.9s-.06-.11-.06-.11v0a.74.74,0,0,0,.06-.18c.1-.3.34-.11.48,0s0,0,.08,0,.41.35.64.5c0,.05.1.07.16.15l.12.09a1,1,0,0,0,.27.14c.1,0,.07-.14.08-.23s0-.2,0-.28l0-.22c0-.12,0-.26-.06-.38v-.07A5.31,5.31,0,0,1,60.11,36l0-.07c0-.16.08-.22.22-.28a.52.52,0,0,1,.14.06l0,0v.08a.57.57,0,0,1,.1.25l0,.17c0,.13,0,.27,0,.43s0,.21,0,.31V37l0,0a1.21,1.21,0,0,0,.07.43l0,.12,0,.2a.2.2,0,0,1,0,.08.69.69,0,0,0,.07.24c0,.09,0,.16,0,.19l0,.2c0,.2,0,.2.07.26s0,.1,0,.12V39c0,.08,0,.23.07.26a.22.22,0,0,0,.05.12,1.3,1.3,0,0,0,.13.54.58.58,0,0,0,.06.21c.09.39.22.78.33,1.14a11.12,11.12,0,0,1,.26,1.15.32.32,0,0,1-.32.27.34.34,0,0,1-.11,0Z"/><path class="cls-24" d="M60.8,42.6a.25.25,0,0,1,.15,0h-.16Z"/><path class="cls-24" d="M65.14,42.51s.07.06,0,.11S65.14,42.53,65.14,42.51Z"/><path class="cls-41" d="M60.29,42.2s0,.09,0,.13,0,0-.06-.12Z"/><path class="cls-25" d="M65.06,42.24c.08,0,.09,0,0,.09Z"/><path class="cls-25" d="M64.4,42.17a.58.58,0,0,1,.15.12C64.5,42.34,64.4,42.21,64.4,42.17Z"/><path class="cls-24" d="M65,42c.08,0,.08.08,0,.17S65,42.17,65,42Z"/><path class="cls-24" d="M64.16,42c.1,0,.1,0,.11.07S64.16,42.13,64.16,42Z"/><path class="cls-41" d="M59.81,42c.12,0,.06,0,.12.06l.06,0C59.93,42.13,59.87,42,59.81,42Z"/><path class="cls-33" d="M66.23,41.63a3.6,3.6,0,0,0-.58-1.33c-.16-.16-.59-.46-.5-.79.18,0,.37.18.57.18-.07-.44-.39-.65-.72-.88-.09,0-.07-.12-.09-.18s-.15-1,.25-.91a.33.33,0,0,1,.12.08l.15.17c0,.09,0,.09.07.13v0c0,.09,0,.09.06.11a3.51,3.51,0,0,0,.38.86c0,.1.1.1.1,0a.72.72,0,0,1,0-.24,1.28,1.28,0,0,0,0-.28c0-.12,0-.18.08-.33a.4.4,0,0,1,0-.15c.06-.15,0-.5.15-.63s0,0,0,0l0-.18a1.8,1.8,0,0,1,0-.19,2,2,0,0,1,.49-.8.15.15,0,0,1,0,0s0,0,0,0,.13-.09.13-.09c.19-.14.27,0,.31.14v.33a11.21,11.21,0,0,1-.23,1.24.31.31,0,0,1,0,.1c0,.28-.07.54-.09.79v.15a1,1,0,0,0,0,.18v.27c0,.18,0,.38,0,.58,0,0,0,.12,0,.21h0a2.35,2.35,0,0,1,0,.27v.53a1.09,1.09,0,0,1,0,.2v.61h0c-.16.08-.44.38-.56.3S66.26,41.91,66.23,41.63Z"/><path class="cls-41" d="M64,41.94s.13,0,.13.07S64,42,64,41.94Z"/><path class="cls-25" d="M64.87,41.88c.08-.07.08.06.08.06Z"/><path class="cls-56" d="M57.76,41.53v.41h0Z"/><path class="cls-25" d="M63.65,41.77c.06,0,.06,0,.09.06S63.57,41.88,63.65,41.77Z"/><path class="cls-25" d="M64.78,41.69s.09.06.07.14A.91.91,0,0,1,64.78,41.69Z"/><path class="cls-33" d="M65.92,41.73l-.1,0-.09-.06-.08,0-.13-.06,0-.05c0-.29.18-.1.31,0a.2.2,0,0,1,.08.08h0a.7.7,0,0,0,.07.1C66,41.71,66,41.79,65.92,41.73Z"/><path class="cls-24" d="M65.82,41.69l.1,0C65.84,41.73,65.84,41.73,65.82,41.69Z"/><path class="cls-43" d="M67.05,41.73h0v-.61a.82.82,0,0,0,0-.16s0,0,0,0c0,.26,0,.52,0,.82Z"/><path class="cls-57" d="M67.05,41.72v0Z"/><path class="cls-41" d="M65.89,41.59h0a.18.18,0,0,1,0,.1S65.89,41.63,65.89,41.59Z"/><path class="cls-25" d="M62.54,41.61v0l.3,0,0,0v0c.16,0,0,0,.07.09h-.28c0-.07.07,0-.09,0C62.57,41.59,62.47,41.63,62.54,41.61Z"/><path class="cls-32" d="M65.94,41.59l0-.06s0,0,.07.06-.14-.59-.17-.68a4.1,4.1,0,0,0-.18-.4A2.56,2.56,0,0,0,64,39.74l-.2-.05c-.06-.25.86-.36,1.06-.36l.73.17c0-.24-.63-.54-.63-.54s.07-.1,0-.13l0,0c.33.23.65.44.72.88-.2,0-.39-.18-.57-.18-.09.33.34.63.5.79a3.6,3.6,0,0,1,.58,1.33l-.09-.08c0,.06-.13.13-.11.12S66,41.59,65.94,41.59Z"/><path class="cls-27" d="M62.17,41.59h.37v0c-.08,0,0,.06-.08,0S62.13,41.69,62.17,41.59Z"/><path class="cls-25" d="M63.54,41.53l.05.1C63.49,41.72,63.52,41.55,63.54,41.53Z"/><path class="cls-24" d="M65.62,41.59a.19.19,0,0,1,.09,0c-.06.06-.15,0-.09,0Z"/><path class="cls-55" d="M62.86,41.61a.3.3,0,0,0-.22-.08s.26-.05.22,0v.06Z"/><path class="cls-25" d="M65.47,41.48s0,0,0,.05l0,0S65.46,41.48,65.47,41.48Z"/><path class="cls-25" d="M65.78,41.51s.08-.08.08.08A.2.2,0,0,0,65.78,41.51Z"/><path class="cls-25" d="M60.22,41.39a.51.51,0,0,1,0,.1S60.15,41.43,60.22,41.39Z"/><path class="cls-25" d="M64.55,41.41c.15,0,.11.07.11.12A.4.4,0,0,1,64.55,41.41Z"/><path class="cls-25" d="M62.41,40.65a3.69,3.69,0,0,1,0,.58s0-.06,0,0-.09.2,0,.23v.07C62.25,41.47,62.38,40.82,62.41,40.65Z"/><path class="cls-24" d="M63.44,41.32a.75.75,0,0,0,.05.16C63.42,41.48,63.42,41.32,63.44,41.32Z"/><path class="cls-7" d="M65.25,41.43c-.12,0-1-.31-1-.48a1.78,1.78,0,0,1,1.08.2A.62.62,0,0,1,65.25,41.43Z"/><path class="cls-25" d="M64.35,41.21c.05-.09.05,0,.12,0s.13.08.08.18A1.26,1.26,0,0,0,64.35,41.21Z"/><path class="cls-25" d="M65.49,41.08a2.17,2.17,0,0,1,.29.24A.35.35,0,0,1,65.49,41.08Z"/><path class="cls-41" d="M58.68,41.25c.08,0,.13,0,.09.06S58.7,41.25,58.68,41.25Z"/><path class="cls-41" d="M63.27,41.08a1.49,1.49,0,0,1,.15.17c-.16,0,0,0-.1,0S63.27,41.13,63.27,41.08Z"/><path class="cls-41" d="M57.79,41.19a.3.3,0,0,1,0-.16l.07,0A.22.22,0,0,0,57.79,41.19Z"/><path class="cls-24" d="M62,40.92a1.83,1.83,0,0,1,.07.23S62,41,62,40.92Z"/><path class="cls-24" d="M65.43,41.05l.06,0C65.49,41.13,65.43,41.13,65.43,41.05Z"/><path class="cls-55" d="M64,40.91c0,.09.08,0,.15.17C64.06,41,63.9,41,64,40.91Z"/><path class="cls-25" d="M65.25,41a.67.67,0,0,0,.11.07S65.21,41.05,65.25,41Z"/><path class="cls-24" d="M63.12,40.85l.13.17C63.17,41,63,40.85,63.12,40.85Z"/><path class="cls-41" d="M60.15,40.89a.39.39,0,0,0,0,.09c0,.05-.09-.09,0-.07Z"/><path class="cls-55" d="M65.06,40.89l.1,0S65,41,65.06,40.89Z"/><path class="cls-41" d="M64.06,40.89c0-.07.08-.07.08-.07S64.11,40.92,64.06,40.89Z"/><path class="cls-24" d="M64.18,40.82h.32C64.5,40.89,64.2,40.85,64.18,40.82Z"/><path class="cls-24" d="M67.08,40.85v-.1S67.13,40.85,67.08,40.85Z"/><path class="cls-55" d="M64.59,40.81h.15s-.24,0-.08,0Z"/><path class="cls-43" d="M63,40.75l.07.07C63,40.82,63,40.75,63,40.75Z"/><path class="cls-25" d="M61.9,40.6l.06.18C61.85,40.78,61.9,40.68,61.9,40.6Z"/><path class="cls-24" d="M60,40.65a.17.17,0,0,0,0,.07C60,40.78,60,40.72,60,40.65Z"/><path class="cls-30" d="M67.07,40.68v-.23C67.08,40.51,67.14,40.68,67.07,40.68Z"/><path class="cls-24" d="M59.76,40.5l.13,0C59.78,40.59,59.78,40.55,59.76,40.5Z"/><path class="cls-27" d="M59.57,40.4s.08,0,.08.05S59.58,40.52,59.57,40.4Z"/><path class="cls-24" d="M62.52,40.26l.12.12c-.12,0-.08,0-.07-.06S62.52,40.3,62.52,40.26Z"/><path class="cls-24" d="M67.07,40.38a2.35,2.35,0,0,0,0-.27S67.1,40.38,67.07,40.38Z"/><path class="cls-24" d="M59.11,40.11s.07,0,.07.09S59.11,40.18,59.11,40.11Z"/><path class="cls-24" d="M61.5,40.11a.58.58,0,0,1-.06-.21C61.55,39.92,61.5,40,61.5,40.11Z"/><path class="cls-24" d="M67.08,40.1c0-.09,0-.16,0-.21S67.13,40.06,67.08,40.1Z"/><path class="cls-41" d="M58.92,39.94s0,0,.11.12C59,40,58.89,40,58.92,39.94Z"/><path class="cls-24" d="M62.13,40c-.06,0,.12-.19.18-.13A1.72,1.72,0,0,0,62.13,40Z"/><path class="cls-7" d="M65,39.82a2.76,2.76,0,0,0-.8-.2c-.07-.08.29-.13.34-.16h.35C64.91,39.54,65,39.74,65,39.82Z"/><path class="cls-43" d="M60,39.64s.07-.23.07-.23S60.13,39.64,60,39.64Z"/><path class="cls-30" d="M59.64,39.41c.1,0,.17,0,.12.09Z"/><path class="cls-30" d="M61.26,39.24s.09.09.05.12A.22.22,0,0,1,61.26,39.24Z"/><path class="cls-25" d="M63,39.31c-.12-.05,0-.07.09-.06S63.06,39.26,63,39.31Z"/><path class="cls-24" d="M67.14,39.31v-.17c0-.1,0,.15,0,.07S67.14,39.31,67.14,39.31Z"/><path class="cls-25" d="M63.14,39.21a.4.4,0,0,1,.3-.17Z"/><path class="cls-41" d="M65.94,39.11s0-.07.1,0S66,39.21,65.94,39.11Z"/><path class="cls-41" d="M60,38.91l0,.22S60,38.93,60,38.91Z"/><path class="cls-24" d="M58.22,38.91a.25.25,0,0,0,.06.13C58.15,39,58.19,39,58.22,38.91Z"/><path class="cls-25" d="M61.19,39h0C61.26,38.93,61.22,39,61.19,39Z"/><path class="cls-55" d="M63.59,39c0-.07.13-.1.15-.07S63.64,39,63.59,39Z"/><path class="cls-24" d="M58.28,38.71a.26.26,0,0,1-.06.12C58.13,38.86,58.22,38.6,58.28,38.71Z"/><path class="cls-24" d="M63.9,38.86s.28-.1.35,0A1.91,1.91,0,0,0,63.9,38.86Z"/><path class="cls-24" d="M64.65,38.84s.11-.08.06,0Z"/><path class="cls-24" d="M64.91,38.63c0,.06,0,.16.09.18l0,0c0,.1-.18-.14-.08-.14Z"/><path class="cls-24" d="M67.15,38.86v-.15C67.24,38.69,67.15,38.84,67.15,38.86Z"/><path class="cls-25" d="M64.47,38.83s.08-.1.12,0Z"/><path class="cls-24" d="M61.07,38.56c.07,0,0,0,0,0s.07,0,0,0,0,.1,0,.16A.62.62,0,0,1,61.07,38.56Z"/><path class="cls-24" d="M66.09,38.79a.16.16,0,0,1,0-.21A.59.59,0,0,1,66.09,38.79Z"/><path class="cls-41" d="M58.76,38.71s.25,0,.08,0v0C58.76,38.73,58.76,38.73,58.76,38.71Z"/><path class="cls-43" d="M60,38.41v.12C59.87,38.53,60,38.41,60,38.41Z"/><path class="cls-24" d="M61,38.33a.61.61,0,0,0,0-.13S61.1,38.3,61,38.33Z"/><path class="cls-36" d="M65.56,38.25s0,0-.06-.11S65.56,38.23,65.56,38.25Z"/><path class="cls-30" d="M66.2,38.25s-.08-.11,0-.15A.4.4,0,0,0,66.2,38.25Z"/><path class="cls-41" d="M65.5,38.1s0,0-.07-.13S65.52,38.08,65.5,38.1Z"/><path class="cls-30" d="M67.24,38a1.09,1.09,0,0,0,0-.15C67.33,37.82,67.26,37.93,67.24,38Z"/><path class="cls-24" d="M60.92,37.9a.2.2,0,0,0,0-.08c.11,0,.07.15.07.15Z"/><path class="cls-36" d="M65.16,37.72s.17,0,.12.08A.17.17,0,0,0,65.16,37.72Z"/><path class="cls-24" d="M60.86,37.62s0,0,0-.12.1.22,0,0Z"/><path class="cls-24" d="M66.4,37.4a.2.2,0,0,0,0,.07h0C66.26,37.55,66.33,37.4,66.4,37.4Z"/><path class="cls-41" d="M66.44,37.26a.59.59,0,0,1,0-.19A.31.31,0,0,1,66.44,37.26Z"/><path class="cls-24" d="M60.75,37.07l0,0c.06,0,0-.11.07,0Z"/><path class="cls-43" d="M60.73,37c0-.1,0-.2,0-.31S60.75,36.93,60.73,37Z"/><path class="cls-38" d="M67.49,36.58v-.33c.12,0,0,0,0,.09Z"/><path class="cls-35" d="M67,36.27s0-.14,0,0S67,36.26,67,36.27Z"/><path class="cls-30" d="M60.69,36.23l0-.17C60.7,36.06,60.71,36.23,60.69,36.23Z"/><path class="cls-41" d="M67.05,36.2a.13.13,0,0,1,.13-.14v0S67.07,36.15,67.05,36.2Z"/><path class="cls-41" d="M60.11,36s0-.19,0-.07Z"/><path class="cls-41" d="M60.54,35.73c.06-.06.06.08.06.08S60.55,35.81,60.54,35.73Z"/><path class="cls-24" d="M60.37,35.65s.14,0,.14.06A.24.24,0,0,0,60.37,35.65Z"/><path class="cls-19" d="M63.62,72.17a4.41,4.41,0,1,0-4.4-4.42A4.43,4.43,0,0,0,63.62,72.17Z"/><path class="cls-58" d="M60,65.47l.83-.34s-.28,1.12,0,1.43c0,0-.91.73-.91,1.18l-.64-.48S59.43,65.7,60,65.47Z"/><path class="cls-58" d="M63,63.53c0-.07.33-.31,1.42,0,0,0,.67.49.67.76,0,0-1.11.29-1.34.64a5.79,5.79,0,0,0-1.43-.64l.33-.44Z"/><path class="cls-58" d="M66.61,65.32s.37,1.22,0,1.46A5,5,0,0,1,67.49,68l.56-.56a4,4,0,0,0-.44-1.75l-.44-.23-.42-.15Z"/><path class="cls-59" d="M63.68,66l1.4,1.16s-.17,1.62-.42,1.79a3.84,3.84,0,0,1-1.8,0,3.71,3.71,0,0,1-.54-1.89Z"/><path class="cls-58" d="M60.51,69.7s1.15.48,1.42.38a5.06,5.06,0,0,0,.8,1.38l-.51.47a4.14,4.14,0,0,1-1.58-1l-.13-.59Z"/><path class="cls-58" d="M65.35,70.08a6.65,6.65,0,0,1-.7,1.29l.54.42a3.67,3.67,0,0,0,1.75-1.27v-.78s-.78.48-1,.38h-.28Z"/><path class="cls-60" d="M60.79,66.56l1.53.6,1.36-1.11.09-1.18-1.4-.65-1.53,1A1.32,1.32,0,0,0,60.79,66.56Z"/><path class="cls-60" d="M59.9,67.69l.64,2s1,.53,1.39.42L62.86,69l.1-.94-.58-.9"/><polyline class="cls-60" points="65.06 64.22 66.75 65.4 67.1 66.72 66.75 66.78 64.93 67.18"/><polyline class="cls-60" points="64.59 68.84 65.39 70.15 64.95 71.44 64.74 71.39 62.5 71.44"/><line class="cls-61" x1="67.53" y1="67.87" x2="66.93" y2="69.88"/></g></g></svg>