<svg xmlns="http://www.w3.org/2000/svg" viewBox="0 0 121.95 189.69"><defs><style>.cls-1{font-size:27.72px;font-family:MHeiGB5-Bold, MHeiGB5 Bold;font-weight:700;}.cls-1,.cls-4{fill:#fff;}.cls-2{fill:#2f388d;}.cls-3,.cls-8{fill:#747d81;}.cls-5,.cls-9{fill:#045ca6;}.cls-6,.cls-7{fill:#221f1f;}.cls-7{stroke:#fff;stroke-width:6.62px;}.cls-8,.cls-9{fill-rule:evenodd;}</style></defs><title>Asset 29</title><g id="Layer_2" data-name="Layer 2"><g id="Layer_1-2" data-name="Layer 1"><text class="cls-1" transform="translate(0 181.66) scale(1.1 1)">天津泰达</text><polygon class="cls-2" points="11.87 20.17 12.08 112.35 19.13 124.07 61.35 142.88 100.48 126.36 111.02 112.78 110.59 79.75 110.81 22.25 93 18.29 84.87 11.39 77.84 5.95 66.19 4.89 51.45 4.89 39.57 11.6 32.31 17.87 11.87 20.17"/><rect class="cls-3" x="19.13" y="27.28" width="9.12" height="92.81"/><rect class="cls-3" x="44.68" y="14.53" width="9.11" height="115.82"/><rect class="cls-3" x="69.12" y="14.53" width="9.11" height="115.82"/><rect class="cls-3" x="93.78" y="22.68" width="9.12" height="102.01"/><path class="cls-4" d="M107.63,105.3V25C87,26.16,83.62,16.26,82.5,14.66c-4.57-7.51-37-9-43,.7-6.87,11.72-25.63,9.2-25.63,9.2s-.7,68.55-.7,81.43,14,19.54,14,19.54c5.69,2.09,33,15,33,15,2.13-1.83,17.79-7.82,33-14.72S107.63,105.3,107.63,105.3ZM89.8,119.55c-13.4,6.11-27.25,11.39-29.13,13,0,0-24.14-11.41-29.18-13.22,0,0-12.36-5.92-12.36-17.3s.62-72,.62-72,16.58,2.24,22.65-8.13c5.26-8.55,33.95-7.25,38-.6,1,1.4,4,10.16,22.21,9.14v71S103.24,113.44,89.8,119.55Z"/><path class="cls-5" d="M114.44,107.45V18.29C91.07,19.56,87.25,8.55,86,6.78c-5.17-8.36-41.92-10-48.64.77-7.78,13-29,10.21-29,10.21s-.8,76.16-.8,90.47,15.85,21.71,15.85,21.71c6.45,2.3,37.35,16.62,37.35,16.62,2.42-2,20.16-8.68,37.35-16.37S114.44,107.45,114.44,107.45Zm-21,18c-15.13,6.87-30.75,12.85-32.89,14.67,0,0-27.23-12.83-32.91-14.91,0,0-14-6.65-14-19.49s.71-81.17.71-81.17S33.06,27,39.91,15.34c5.92-9.64,38.3-8.19,42.88-.68C83.9,16.23,87.27,26.11,107.86,25v80S108.58,118.52,93.41,125.41Z"/><path class="cls-4" d="M33.38,35.61a4,4,0,0,0,.44,1,6.6,6.6,0,0,0,.83,1.16,5.8,5.8,0,0,0,3.29,1.86A5,5,0,0,0,37.23,41a8.28,8.28,0,0,1-4.6-3.84A4.81,4.81,0,0,1,31.39,39,12.87,12.87,0,0,1,28,41a7.28,7.28,0,0,0-.85-1.38A7.69,7.69,0,0,0,28.87,39a10.25,10.25,0,0,0,1.31-.87,4.33,4.33,0,0,0,1.35-2.56c-2,0-3.34,0-4.18.07V34.34l4.28,0c.07-1,.1-1.6.1-1.85l-3.88,0V31.18c3.17.08,6.23.08,9.23,0v1.36l-3.87,0-.11,1.85,4.56,0v1.34l-1.45-.07Z"/><path class="cls-4" d="M49.41,33.27l3.17,0v-.68l-2.39,0v-1.2l2.39,0,0-.89h1.37l0,.89,2.85,0,0,1.88h.94V34.5h-.94l0,1.86L53.9,36.3v.57l3.08,0v1.21L53.9,38v.7l3.75-.07v1.27c-.67,0-1.92,0-3.75,0l0,1.2H52.55l0-1.2c-1.46,0-2.51,0-3.14,0V38.66l3.14.07V38l-2.7,0V36.85l2.7,0V36.3l-2.37,0V35.12h2.37v-.64l-3.17,0Zm6,1.22H53.9v.64h1.55Zm0-1.85H53.9v.68h1.55ZM48.4,35.78a10.88,10.88,0,0,0-1.65-1.38,5,5,0,0,0,.85-1c.08.05.15.12.22.16a7.29,7.29,0,0,1,1.4,1.1.1.1,0,0,1,0,.07,10.18,10.18,0,0,0-.72,1A.09.09,0,0,0,48.4,35.78ZM47.92,41a4.88,4.88,0,0,0-1.17-1.09A10.88,10.88,0,0,0,48.53,36a9,9,0,0,0,1.2.81C49,38.66,48.4,40.05,47.92,41Zm-.36-9.38a9.81,9.81,0,0,0,.82-1c.57.38,1.14.78,1.66,1.19A10.17,10.17,0,0,0,49.29,33,9.78,9.78,0,0,0,47.56,31.64Z"/><path class="cls-4" d="M66.72,35.76v-1.2l3.32,0a2,2,0,0,0,.3-.49l-2.39,0V33h2.82a1.72,1.72,0,0,0,.18-.54l-4,0V31.35l4.2,0a2.22,2.22,0,0,0,.11-.79l1.52.18c0,.21-.11.41-.17.61l4.09,0v1.17l-4.38,0c-.06.19-.12.37-.19.54h3.66v1.11l-4,0a4.89,4.89,0,0,0-.27.49l5.52,0v1.2c-.62,0-1.35,0-2.22,0a4.3,4.3,0,0,0,2.66,1.74,15.22,15.22,0,0,0-.82,1.32.82.82,0,0,0-.3-.16,7.51,7.51,0,0,1-3-2.9H70.9a12.48,12.48,0,0,1-3.68,2.76,10.7,10.7,0,0,0-.89-1.21,6.06,6.06,0,0,0,2.77-1.55C68.08,35.71,67.29,35.72,66.72,35.76Zm4.17,2.58c0,.23,0,.62,0,1.14-1.55.69-2.54,1.13-3,1.36a5.09,5.09,0,0,0-.55-1.25A17.42,17.42,0,0,0,70.89,38.34ZM70,36.76a11.92,11.92,0,0,1,1.15.88l-.75.87a10,10,0,0,0-1.19-.93A5.56,5.56,0,0,0,70,36.76ZM72.62,36l0,1.7a6.09,6.09,0,0,0,1.15-1c.31.32.6.57.86.81-.5.46-.93.81-1.25,1a5.55,5.55,0,0,0-.76-.8v2.3a1.18,1.18,0,0,1-.14.63c-.21.26-.82.42-1.81.44a8.45,8.45,0,0,0-.27-1.32c.48,0,.76,0,.84,0a.15.15,0,0,1,0,0c0-.05,0-1.29,0-3.73Zm3.57,3.71.16.07L76,40.5a4.36,4.36,0,0,0-.25.52,21.6,21.6,0,0,0-3-1.32,7.29,7.29,0,0,0,.55-1.05C75,39.26,75.93,39.62,76.19,39.75Z"/><path class="cls-4" d="M89.54,33.06h2.72c0-.56,0-1.34,0-2.3a14.53,14.53,0,0,0,1.55.09c-.06.74-.12,1.48-.15,2.21h3v1.29c-.6,0-1.62-.05-3.06-.05a11.89,11.89,0,0,1-.17,1.24,2.66,2.66,0,0,0,.84-.49L96.1,37.4l.62.8-1.13,1A26.19,26.19,0,0,0,93.31,36a6.18,6.18,0,0,1-.9,1.56,9.88,9.88,0,0,1-1.92,1.58,5.14,5.14,0,0,0-1-1.1,3.83,3.83,0,0,0,2.72-3.76c-1.29,0-2.19,0-2.67.05Zm-1.76,2.65H86.29V34.45h2.86l0,4.2c.05.06.12.08.16.12h0s0,0,.06,0a.83.83,0,0,0,.16.12,4.16,4.16,0,0,0,1.8.68,23.42,23.42,0,0,0,5.82-.12A5.66,5.66,0,0,0,96.76,41c-1.68,0-3.18,0-4.46-.08a5.51,5.51,0,0,1-3.07-.79,2,2,0,0,0-.83-.5c-.39,0-.92.42-1.55,1.25a16.09,16.09,0,0,0-.67-1.53,14.66,14.66,0,0,0,1.6-.75Zm1.87-3.16c-.15.15-.28.26-.4.39a4.27,4.27,0,0,1-.37.38c-.11.11-.2.23-.29.33a20.86,20.86,0,0,0-1.74-1.89A9.59,9.59,0,0,0,88,30.88c.31.29.53.54.73.73s.29.31.42.44Z"/><path class="cls-6" d="M99.17,78.49c0,20-17,36.16-38.05,36.16s-38-16.19-38-36.16,17-36.16,38-36.16S99.17,58.52,99.17,78.49Z"/><path class="cls-4" d="M33.8,57.71s5-7.9,16.33-11.64l-1,3.74S40.74,53.56,37.36,58Z"/><path class="cls-4" d="M70.62,45.72A33.94,33.94,0,0,1,89.85,57.91L85.51,58s-7.36-7-13.62-8.53Z"/><path class="cls-4" d="M38.26,58.23c.17-.31,6.89-6.07,11.45-7.39,0,0,7.7,3,10.62,6.32A16.75,16.75,0,0,1,61,66.94s-8,3.39-8.12,5.6l-9.1.13s-5.21-3-5.79-6.07C38,66.6,37.43,59.78,38.26,58.23Z"/><path class="cls-4" d="M61.27,56.76s4.56-5.33,10-6.6c0,0,9.35,4.06,13.42,8.49,0,0,1.29,8.46-1.29,11.23,0,0-5.08,3.23-6.6,3.44L71.28,73s-1.37-3.54-9-6.16C62.27,66.88,63.07,59.66,61.27,56.76Z"/><path class="cls-4" d="M38.47,70.13S34.2,72.32,33.86,74s10.23,2.1,10.23,2.1,2.42-.11,2.08-.94S39.57,70.76,38.47,70.13Z"/><path class="cls-4" d="M83.65,70.76s-5.59,3.44-6.59,3.86c0,0,6.52,7.17,7.52,6s3.7-7.48,3.7-7.48S87.27,72.53,83.65,70.76Z"/><path class="cls-4" d="M77.32,97c-1.27,6.36-4.85,8.27-4.85,8.27-10.11,3.62-21.66-.29-21.66-.29-3.2-1.91-4.64-8.23-4.64-8.23Z"/><path class="cls-4" d="M51.15,106.14s8.28,3.44,20.74.33l4.64,2.62s-15.75,7.56-31.06-.67Z"/><path class="cls-4" d="M89.7,93.88s.44,4.05.59,4.88A10.35,10.35,0,0,0,94,94Z"/><path class="cls-4" d="M41.31,110.61l-4.41,6-1.75-1.16L38,111.5a5.58,5.58,0,0,1-1.17,0,6.67,6.67,0,0,1-1.24-.3l1-1.33a5,5,0,0,0,1.84.25,3.65,3.65,0,0,0,1.45-.4Z"/><path class="cls-4" d="M44.59,116.24a1,1,0,0,1-.79,0,.84.84,0,0,1-.46-.6,1.61,1.61,0,0,1,.84-1.61.89.89,0,0,1,.75,0,.88.88,0,0,1,.51.61,1.24,1.24,0,0,1-.16.94A1.34,1.34,0,0,1,44.59,116.24Zm-4.26,1.6a2.08,2.08,0,0,0,.48.9,3.48,3.48,0,0,0,1.18.78,3.18,3.18,0,0,0,2.53.26,4.32,4.32,0,0,0,2.13-2.16,4.75,4.75,0,0,0,.68-2.07,2.49,2.49,0,0,0-.41-1.52,4,4,0,0,0-3-1.53,2.34,2.34,0,0,0-1.28.36,2.42,2.42,0,0,0-.95,1,2.38,2.38,0,0,0-.21,1.85A2.12,2.12,0,0,0,42.69,117a2.49,2.49,0,0,0,.88.25,3,3,0,0,0,1-.15,4.63,4.63,0,0,1-1,1.22.88.88,0,0,1-.93.09.7.7,0,0,1-.34-.36,1.28,1.28,0,0,1,0-.63l-2-.7A2.07,2.07,0,0,0,40.33,117.84Z"/><path class="cls-4" d="M51.22,118.81a1,1,0,0,1-.79.07.81.81,0,0,1-.57-.51,1.27,1.27,0,0,1,0-1,1.33,1.33,0,0,1,.54-.77,1,1,0,0,1,.76-.07.91.91,0,0,1,.59.54,1.27,1.27,0,0,1,0,1A1.31,1.31,0,0,1,51.22,118.81ZM47.28,121a1.8,1.8,0,0,0,.61.79,3.25,3.25,0,0,0,1.28.62,3.17,3.17,0,0,0,2.56-.15,4.11,4.11,0,0,0,1.75-2.43,4.53,4.53,0,0,0,.31-2.16,2.43,2.43,0,0,0-.64-1.42,3.63,3.63,0,0,0-1.59-.92,4,4,0,0,0-1.6-.17,2.47,2.47,0,0,0-1.21.55,2.41,2.41,0,0,0-.75,1.14,2.25,2.25,0,0,0,.06,1.85,2.39,2.39,0,0,0,1.41,1.15,2.11,2.11,0,0,0,.91.11,3.15,3.15,0,0,0,.91-.28,4.61,4.61,0,0,1-.79,1.35.92.92,0,0,1-.9.23.72.72,0,0,1-.39-.31,1,1,0,0,1-.06-.65L47.09,120A2.37,2.37,0,0,0,47.28,121Z"/><path class="cls-4" d="M57.27,118.22a.86.86,0,0,1,.65-.14.87.87,0,0,1,.56.29.79.79,0,0,1,.16.65.78.78,0,0,1-.31.55.8.8,0,0,1-.61.14.89.89,0,0,1-.61-.3.92.92,0,0,1,.16-1.19Zm-2.48,2.38a1.83,1.83,0,0,0-.47,1,2.36,2.36,0,0,0,.16,1.22,2,2,0,0,0,.85.9,4.77,4.77,0,0,0,1.78.5,4.34,4.34,0,0,0,1.19,0,3.06,3.06,0,0,0,1-.24,1.93,1.93,0,0,0,.71-.63,2.18,2.18,0,0,0,.42-1,1.87,1.87,0,0,0-.16-1.05,1.94,1.94,0,0,0-.79-.85,2.36,2.36,0,0,0,.75-.53,1.81,1.81,0,0,0,.43-.85,1.75,1.75,0,0,0-.54-1.47,3.78,3.78,0,0,0-2.14-.82,3.27,3.27,0,0,0-1.87.2A1.76,1.76,0,0,0,55,118.41a1.77,1.77,0,0,0,.17,1,2.34,2.34,0,0,0,.65.65A1.88,1.88,0,0,0,54.79,120.6Zm2,.47a.92.92,0,0,1,.71-.19,1,1,0,0,1,.67.38,1.13,1.13,0,0,1,.17.82,1.1,1.1,0,0,1-1.1.94,1.12,1.12,0,0,1-.66-.38,1,1,0,0,1-.18-.82A1.06,1.06,0,0,1,56.8,121.07Z"/><path class="cls-4" d="M61.91,122.47l2.23-.06.06,2-2.25.06Z"/><path class="cls-4" d="M72.19,123.24,66,124.4a3.56,3.56,0,0,1,.31-1.76A7.86,7.86,0,0,1,68,120.45a6.13,6.13,0,0,0,1-1.18,1.11,1.11,0,0,0,.12-.68.72.72,0,0,0-.36-.51A1,1,0,0,0,68,118a1,1,0,0,0-.62.35,1.5,1.5,0,0,0-.17.9l-2.09.22a3.23,3.23,0,0,1,.18-1.37,2,2,0,0,1,.77-.9,4.52,4.52,0,0,1,1.57-.54,4.74,4.74,0,0,1,1.76-.08,2.05,2.05,0,0,1,1.09.54,1.84,1.84,0,0,1,.58,1,2.24,2.24,0,0,1-.14,1.3A5.61,5.61,0,0,1,69.75,121c-.34.37-.59.6-.71.72s-.24.31-.4.52l3.23-.6Z"/><path class="cls-4" d="M73.2,120.72l2.11-.75.72,1.88-2.09.74Z"/><path class="cls-4" d="M78.16,112.68l3.72,6.4-1.86,1-2.44-4.18a4.64,4.64,0,0,1-.56,1,6.36,6.36,0,0,1-.82.94l-.84-1.44a4.77,4.77,0,0,0,1-1.45,3.32,3.32,0,0,0,.24-1.43Z"/><path class="cls-4" d="M84.37,113.5a.89.89,0,0,1,.36-.68.94.94,0,0,1,.76-.17,1.42,1.42,0,0,1,.84.55,1.25,1.25,0,0,1,.36.86.83.83,0,0,1-.34.64,1,1,0,0,1-.81.18,1.36,1.36,0,0,1-.84-.52A1.16,1.16,0,0,1,84.37,113.5Zm.22-4.38a2.05,2.05,0,0,0-1,.07,3.76,3.76,0,0,0-1.25.67A3.09,3.09,0,0,0,81,112a4.15,4.15,0,0,0,1.2,2.76,5.16,5.16,0,0,0,1.72,1.43,2.8,2.8,0,0,0,1.62.27,3.79,3.79,0,0,0,1.65-.8,3,3,0,0,0,1-1.15,2,2,0,0,0,.18-1.28,2.51,2.51,0,0,0-.56-1.23,2.73,2.73,0,0,0-1.67-1,2.37,2.37,0,0,0-1.79.49,1.86,1.86,0,0,0-.61.68,2.76,2.76,0,0,0-.26.88,3.59,3.59,0,0,1-.72-1.39.74.74,0,0,1,.29-.83.54.54,0,0,1,.49-.12.91.91,0,0,1,.58.27l1.48-1.42A2.81,2.81,0,0,0,84.59,109.12Z"/><path class="cls-7" d="M71.78,80.45c3.34.71,5,3.12,5.06,5.59a5.93,5.93,0,0,1-5.06,5.64,9,9,0,0,1-1.94.16H66.75V80.27h3.09a9,9,0,0,1,1.94.18m21.83-3.66h3.92l9.33,18.53H98.37l-1.64-3.48H86.43l-1.67,3.48H80.67l7.26-15a5.81,5.81,0,0,1,5.68-3.48m1.8,12.07-3.56-7.75a.34.34,0,0,0-.22.09,1.64,1.64,0,0,0-.31.49l-3.47,7.17Zm-13.2,1.93a8.36,8.36,0,0,0,0-9.51,10.8,10.8,0,0,0-6.19-4,17.69,17.69,0,0,0-4.53-.51H60.24V95.32H71.55a19.65,19.65,0,0,0,2.54-.13,11.3,11.3,0,0,0,8.12-4.4m-70.57-14H35.55v3.44H27.4V95.32H23.61a4.23,4.23,0,0,1-4.18-4l-.05-11.09H11.64Zm46.71,0v3.44H45.13v4H57.25v3.12H45.13v2.73A1.77,1.77,0,0,0,47,91.84H58.39v3.48H42.77a5.59,5.59,0,0,1-5.6-5.58V76.79Z"/><rect class="cls-4" x="64.46" y="80.77" width="13.19" height="9.57"/><path class="cls-8" d="M71.78,80.45c3.34.71,5,3.12,5.06,5.59a5.93,5.93,0,0,1-5.06,5.64,9,9,0,0,1-1.94.16H66.75V80.27h3.09a9,9,0,0,1,1.94.18M82.21,90.79a8.36,8.36,0,0,0,0-9.51,10.8,10.8,0,0,0-6.19-4,17.69,17.69,0,0,0-4.53-.51H60.24V95.32H71.55a19.65,19.65,0,0,0,2.54-.13,11.3,11.3,0,0,0,8.12-4.4m-70.57-14H35.55v3.44H27.4V95.32H23.61a4.23,4.23,0,0,1-4.18-4l-.05-11.09H11.64Zm46.71,0v3.44H45.13v4H57.25v3.12H45.13v2.73A1.77,1.77,0,0,0,47,91.84H58.39v3.48H42.77a5.59,5.59,0,0,1-5.6-5.58V76.79Z"/><path class="cls-9" d="M97.53,76.79H93.61a5.81,5.81,0,0,0-5.68,3.48l-7.26,15h4.09l1.67-3.48h10.3l1.64,3.48h8.49ZM87.85,88.86l3.47-7.17a1.64,1.64,0,0,1,.31-.49.34.34,0,0,1,.22-.09l3.56,7.75Z"/></g></g></svg>