<svg xmlns="http://www.w3.org/2000/svg" viewBox="0 0 182.93 191.13"><defs><style>.cls-1{font-size:27.72px;font-family:MHeiGB5-Bold, MHeiGB5 Bold;font-weight:700;}.cls-1,.cls-4{fill:#fff;}.cls-2{fill:#ffca4e;}.cls-3{fill:#f69b1f;}.cls-5{fill:#d62027;}.cls-6{fill:#921a1d;}</style></defs><title>Asset 23</title><g id="Layer_2" data-name="Layer 2"><g id="Layer_1-2" data-name="Layer 1"><text class="cls-1" transform="translate(0 183.09) scale(1.1 1)">河北华夏幸福</text><path class="cls-2" d="M33.32,0V83c0,8.66,2.62,17.4,7.78,26,9.82,16.32,27.07,29.44,48.58,36.92l1.79.62,1.78-.62c21.51-7.48,38.77-20.6,48.59-36.92,5.16-8.58,7.77-17.32,7.77-26V0Z"/><path class="cls-3" d="M91.47,0V146.56l1.78-.62c21.51-7.48,38.77-20.6,48.59-36.92,5.16-8.58,7.77-17.32,7.77-26V0Z"/><path class="cls-4" d="M143.89,83c0,4.12-.61,12.72-7,23.46-8.7,14.66-24.41,25.41-45.43,32.82-21-7.41-36.73-18.16-45.44-32.82-6.37-10.74-7-19.34-7-23.46V5.08H143.89Z"/><path class="cls-5" d="M41.56,7.59V86.21c0,1.42.68,34,49.91,49.57,49.23-15.62,49.9-48.15,49.9-49.57V7.59Z"/><path class="cls-3" d="M141.28,7.71V82.92c0,3.86-.58,12-6.64,22-8.27,13.77-23.19,23.87-43.17,30.82-20-6.95-34.91-17-43.18-30.82-6.06-10.09-6.64-18.18-6.64-22V7.71h99.63m1.55-1.55H40.1V82.92c0,7.57,2.31,15.26,6.86,22.84,8.15,13.57,22.95,24.16,44,31.49l.51.18.51-.18c21-7.33,35.84-17.92,44-31.49,4.55-7.58,6.85-15.27,6.85-22.84V6.16Z"/><path class="cls-2" d="M35.23,1.9V83c0,8.31,2.52,16.72,7.5,25,8.85,14.73,24.86,28.21,47.58,36.11l1.16.4,1.16-.4c22.71-7.9,38.72-21.38,47.58-36.11,5-8.27,7.5-16.68,7.5-25V1.9ZM143.89,83c0,4.12-.61,12.72-7,23.46-8.7,14.66-24.41,25.41-45.43,32.82-21-7.41-36.73-18.16-45.44-32.82-6.37-10.74-7-19.34-7-23.46V5.08H143.89Z"/><path class="cls-6" d="M141.28,7.71V82.92c0,3.86-.58,12-6.63,22-8.28,13.77-23.2,23.87-43.18,30.82-20-6.95-34.91-17-43.18-30.82-6.06-10.09-6.64-18.18-6.64-22V7.71h99.63M139.85,9H43.08V82.91c0,7.13,2.18,14.37,6.46,21.51C57.22,117.2,71.17,127.18,91,134.09l.48.16.48-.16c19.82-6.91,33.76-16.89,41.44-29.67,4.29-7.14,6.46-14.38,6.46-21.51V9Z"/><path class="cls-2" d="M118.68,105.29a8.45,8.45,0,0,1-1.63,4.88,31.34,31.34,0,0,1-24.56,11.69c-17,.08-30.78-12.73-30.85-28.61,0-.5,0-1,0-1.49,0,0,9.45,17.57,29.28,9,6.9-3,18-8.49,24.42-2.33a9.5,9.5,0,0,1,3.32,6.87M102.82,69.94c.29,3.57,6.92,7.77,13,7.79a6.66,6.66,0,0,1-6,3.48c-1.39-3.18-6.22-3.56-9.43-1.48-4.28,2.78-7.81-.15-7.41-2.2,3.21,2.65,6.34-2.15,4.16-4.52-3.62-3.94-9.94-.68-10.1,4.37-.15,4.7,3.44,8.88,12.9,7-6.54,5.49-17.28,4.53-18.93-1.18a7.16,7.16,0,0,1,1.07-6.39,7.22,7.22,0,0,0-2.86,7C80.38,90.3,89.8,92.15,97.2,89c18.65-8,28,6.89,23.6,16,.37-8.92-9.53-14.43-18-11.45-7.52,2.66-15.71,6.25-25.32,1.32a13.3,13.3,0,0,1-7.21-12.07c.44-6.55,5.17-10.56,10.16-12.93-13.66,3.55-12.67,14.72-12,17.68C71.75,101.29,89.26,99.3,89.26,99.3c-9.74,5.28-25.14-1.16-25.35-12l-3.68,2.26C59.1,82,61.73,74.89,66.13,71.7l-4-.36c2.78-4.88,10.13-10,16.67-10.49C64.86,55.55,62.7,44.73,66.83,43.27,68.63,48.9,78,54,85.73,57.44c1.77.78,4.85,1.67,5.62.91C77.73,49.4,79,43.13,81.17,42c3.06,5.24,11.61,10.2,19.83,12.57,9,2.61,11.6,2.77,10.46,7.52-.73,3,7.83,6.27,13.34,7.69,0,0-1.28,5.25-6.42,5.74-6.26-5.59-10.44-6.61-15.56-5.55m4.69-6.81a10.62,10.62,0,0,0,.74-1.49c-2.67-1.46-8-1.37-8-1.37,1.41,1.2,3.34,2.58,4.58,3.43a1.88,1.88,0,0,0,2.7-.57"/><path class="cls-3" d="M91.47,5.08h52.41V83c0,4.12-.6,12.72-7,23.46-8.7,14.66-24.41,25.41-45.43,32.82v5.3l1.16-.4c22.71-7.9,38.72-21.38,47.58-36.11,5-8.27,7.5-16.68,7.5-25V1.9H91.47Z"/><path class="cls-4" d="M55.15,18.57H65.93l2.8-3.72H55.83a5.58,5.58,0,0,0-5.59,5.58V27.3a5.59,5.59,0,0,0,5.59,5.59h10.1l2.8-3.73H55.15Z"/><path class="cls-4" d="M119.11,18.57h10.78l2.8-3.72H119.78a5.58,5.58,0,0,0-5.58,5.58V27.3a5.58,5.58,0,0,0,5.58,5.59h10.11l2.8-3.73H119.11Z"/><path class="cls-4" d="M87.22,18.57,90,14.85H77.12a5.58,5.58,0,0,0-5.59,5.58V32.89h4.91V18.57Z"/><polygon class="cls-4" points="71.53 23.34 68.73 27.07 85.79 27.07 88.59 23.34 71.53 23.34"/><path class="cls-4" d="M98.87,14.85a5.58,5.58,0,0,0-5.59,5.58V22h4.91V18.57H109l2.8-3.72Z"/><path class="cls-4" d="M99,23.88l.59-.79H96.83a1.19,1.19,0,0,0-1.19,1.19v.34l-.59.79h.59v.33a1.19,1.19,0,0,0,1.19,1.19H99l.59-.79H96.69v-.73h2l.6-.79H96.69v-.74Z"/><path class="cls-4" d="M109,23.88l.6-.79h-2.75a1.19,1.19,0,0,0-1.19,1.19v.34l-.6.79h.6v.33a1.19,1.19,0,0,0,1.19,1.19H109l.6-.79h-2.9v-.73h2l.6-.79h-2.59v-.74Z"/><polygon class="cls-4" points="93.56 24.61 91.8 24.61 91.8 23.09 90.75 23.09 90.75 26.93 91.8 26.93 91.8 25.41 93.56 25.41 93.56 26.93 94.61 26.93 94.61 23.09 93.56 23.09 93.56 24.61"/><rect class="cls-4" x="110.2" y="23.09" width="1.05" height="3.84"/><path class="cls-4" d="M103.69,23.09h-3.26v1.53l-.6.79h.6v1.52h3.26a.91.91,0,0,0,.91-.91v-.19a.82.82,0,0,0-.82-.82.82.82,0,0,0,.82-.82V24a.9.9,0,0,0-.91-.9m-.14,3.05h-2.07v-.73h2.07Zm0-1.52h-2.07v-.74h2.07Z"/><rect class="cls-4" x="93.28" y="27.98" width="4.91" height="4.91"/></g></g></svg>