<svg xmlns="http://www.w3.org/2000/svg" xmlns:xlink="http://www.w3.org/1999/xlink" viewBox="0 0 160.87 190.65"><defs><style>.cls-1{font-size:27.72px;font-family:MHeiGB5-Bold, MHeiGB5 Bold;font-weight:700;}.cls-1,.cls-2,.cls-4{fill:#fff;}.cls-11,.cls-3{fill:#007341;}.cls-3,.cls-4,.cls-5,.cls-7,.cls-8{fill-rule:evenodd;}.cls-5{fill:#b41c30;}.cls-6,.cls-8{fill:#000815;}.cls-7,.cls-9{fill:#f18a00;}.cls-10{fill:#221714;}.cls-12{fill:url(#linear-gradient);}</style><linearGradient id="linear-gradient" x1="18.77" y1="150.05" x2="139.7" y2="29.12" gradientUnits="userSpaceOnUse"><stop offset="0" stop-color="#fff"/><stop offset="0.52" stop-color="#b1b7be"/><stop offset="1" stop-color="#fff"/></linearGradient></defs><title>Asset 25</title><g id="Layer_2" data-name="Layer 2"><g id="Layer_1-2" data-name="Layer 1"><text class="cls-1" transform="translate(20.61 182.61) scale(1.1 1)">河南建业</text><path class="cls-2" d="M157.18,80a6.68,6.68,0,0,0-2.3-2.57l-.12-.09a6.37,6.37,0,0,0-2.8-.93c0-.4,0-.81,0-1.21a72.5,72.5,0,0,0-145,0A71.85,71.85,0,0,0,8.42,89.64H7.25a4.53,4.53,0,0,0-4.53,4.53v34.11a4.53,4.53,0,0,0,4.53,4.53H35.48a71.81,71.81,0,0,0,44,14.86,72.81,72.81,0,0,0,44-14.86h27.32a4.53,4.53,0,0,0,4.53-4.53V94a13,13,0,0,0,1.7-3.1l0-.14a22.07,22.07,0,0,0,1.12-6.39A9.5,9.5,0,0,0,157.18,80Z"/><g id="_Group_" data-name="&lt;Group&gt;"><g id="_Group_2" data-name="&lt;Group&gt;"><path class="cls-3" d="M135.3,75.87A55.71,55.71,0,1,1,79.62,20.15,55.73,55.73,0,0,1,135.3,75.87Z"/></g><g id="_Group_3" data-name="&lt;Group&gt;"><path class="cls-4" d="M99.31,90.57l-3.77,4.3,12,.45A9,9,0,0,0,99.31,90.57Z"/></g><g id="_Group_4" data-name="&lt;Group&gt;"><g id="_Group_5" data-name="&lt;Group&gt;"><path class="cls-4" d="M70.65,35v7.49H68.6V37.55a3.41,3.41,0,0,1-1,.61,4.57,4.57,0,0,1-1.19.45V37a4.9,4.9,0,0,0,1.64-.82A3.23,3.23,0,0,0,69,35Z"/></g><g id="_Group_6" data-name="&lt;Group&gt;"><path class="cls-4" d="M75.77,40a3.23,3.23,0,0,1-.62,0,2.11,2.11,0,0,1-1.64-.69,2.45,2.45,0,0,1-.69-1.76,2.55,2.55,0,0,1,.37-1.36,2.05,2.05,0,0,1,.94-.9A3.38,3.38,0,0,1,75.64,35h.13v1.31h-.09a.82.82,0,0,0-.65.28,1.36,1.36,0,0,0-.25.9,1.63,1.63,0,0,0,.25,1,1,1,0,0,0,.69.33h0V40ZM73,40.82l2-.24a.89.89,0,0,0,.25.57.64.64,0,0,0,.44.2h0v1.23h0a3.41,3.41,0,0,1-1.39-.2,2.11,2.11,0,0,1-.82-.58,2.82,2.82,0,0,1-.53-1Zm2.79.53v1.23a3.17,3.17,0,0,0,2.29-.9,4.52,4.52,0,0,0,.82-3,4.88,4.88,0,0,0-.41-2.17,2.53,2.53,0,0,0-1.07-1.18A3.62,3.62,0,0,0,75.77,35v1.31a.85.85,0,0,1,.65.32,1.32,1.32,0,0,1,.33.95,1.44,1.44,0,0,1-.29.9,1.31,1.31,0,0,1-.69.33V40l.28-.12a2.84,2.84,0,0,0,.74-.53,3.92,3.92,0,0,1-.29,1.51A.86.86,0,0,1,75.77,41.35Z"/></g><g id="_Group_7" data-name="&lt;Group&gt;"><path class="cls-4" d="M82.6,40A2.73,2.73,0,0,1,82,40a2.18,2.18,0,0,1-1.68-.69,2.45,2.45,0,0,1-.7-1.76A2.64,2.64,0,0,1,80,36.19a2.07,2.07,0,0,1,1-.9A3.38,3.38,0,0,1,82.48,35h.12v1.31h0a.9.9,0,0,0-.69.28,1.36,1.36,0,0,0-.25.9,1.4,1.4,0,0,0,.29,1,.88.88,0,0,0,.69.33h0V40Zm-2.78.86,2.05-.24a1,1,0,0,0,.24.57.79.79,0,0,0,.49.2h0v1.23h0a3.52,3.52,0,0,1-1.39-.2,2,2,0,0,1-.82-.58,2.82,2.82,0,0,1-.53-1Zm2.78.53v1.23a3.08,3.08,0,0,0,2.26-.9,4.52,4.52,0,0,0,.81-3,5.58,5.58,0,0,0-.36-2.17,3,3,0,0,0-1.07-1.18A3.63,3.63,0,0,0,82.6,35v1.31a1,1,0,0,1,.7.32,1.93,1.93,0,0,1,.25.95,1.5,1.5,0,0,1-.25.9,1.21,1.21,0,0,1-.7.33V40a1.7,1.7,0,0,0,.29-.12,2.31,2.31,0,0,0,.74-.53,5.25,5.25,0,0,1-.29,1.51A.82.82,0,0,1,82.6,41.35Z"/></g><g id="_Group_8" data-name="&lt;Group&gt;"><path class="cls-4" d="M89.07,41.07H86.33V39.39l2.74-3.24v2.18l-1,1.18h1v1.56Zm1,0v1.39h1.76V41.07h.94V39.51h-.94V35H90.06l-1,1.18v2.18l1-1.15v2.33h-1v1.56Z"/></g></g><g id="_Group_9" data-name="&lt;Group&gt;"><path class="cls-5" d="M79.49,7.9a67.3,67.3,0,1,0,67.27,67.32A67.28,67.28,0,0,0,79.49,7.9Zm0,117.55a50.28,50.28,0,1,1,50.28-50.23A50.27,50.27,0,0,1,79.49,125.45Z"/></g><g id="_Group_10" data-name="&lt;Group&gt;"><g id="_Group_11" data-name="&lt;Group&gt;"><path class="cls-6" d="M79.49,7.25a67.95,67.95,0,1,0,68,68A68,68,0,0,0,79.49,7.25Zm47.09,115a66.62,66.62,0,1,1,19.49-47A66.34,66.34,0,0,1,126.58,122.26Z"/></g></g><g id="_Group_12" data-name="&lt;Group&gt;"><g id="_Group_13" data-name="&lt;Group&gt;"><path class="cls-2" d="M22.16,48.55l.67-1.21L25.9,49,28,45.31l-3.07-1.7.66-1.2,7.36,4.06-.67,1.2L29,45.88l-2.06,3.73,3.25,1.79-.66,1.21Z"/></g><g id="_Group_14" data-name="&lt;Group&gt;"><path class="cls-2" d="M28,38.78l3.8-4.73.91.74-2.93,3.65,1.82,1.46,2.75-3.43.92.74-2.75,3.43,2,1.59,3.05-3.81.92.74L34.59,44Z"/></g><g id="_Group_15" data-name="&lt;Group&gt;"><path class="cls-2" d="M34.74,31l1-.91,7.12,1.79,0,0-4-4.54,1-.92,5.56,6.29-1,.89-7.21-1.82,0,0,4.07,4.6-1,.92Z"/></g><g id="_Group_16" data-name="&lt;Group&gt;"><path class="cls-2" d="M45.59,22.49l1.33-.81L54,27.18l-1.25.76L51,26.54l-3,1.84.45,2.19-1.26.77ZM47.8,27.2l2.3-1.41-3.05-2.45,0,0Z"/></g><g id="_Group_17" data-name="&lt;Group&gt;"><path class="cls-2" d="M52.91,18.45,54.2,18l6.07,4.13h0l-2.2-5.65,1.29-.5,3.06,7.82-1.25.49L55.06,20l0,0,2.23,5.72-1.29.5Z"/></g><g id="_Group_18" data-name="&lt;Group&gt;"><path class="cls-2" d="M73,13.18,74.33,13,75,18.68a3.28,3.28,0,0,1-.37,2.2,2.73,2.73,0,0,1-2,1,2.54,2.54,0,0,1-2-.49,2.74,2.74,0,0,1-.88-1.86l0-.27L71,19.08l0,.26c.11,1,.57,1.39,1.4,1.3a1.21,1.21,0,0,0,1-.52,2.12,2.12,0,0,0,.17-1.33Z"/></g><g id="_Group_19" data-name="&lt;Group&gt;"><path class="cls-2" d="M78.27,12.91h1.38l0,8.4H78.32Z"/></g><g id="_Group_20" data-name="&lt;Group&gt;"><path class="cls-2" d="M86.17,13.3l1.55.2,2.14,8.74-1.46-.19-.5-2.18-3.49-.44-1,2-1.46-.18ZM85,18.36l2.67.34-.84-3.82h-.05Z"/></g><g id="_Group_21" data-name="&lt;Group&gt;"><path class="cls-2" d="M94.43,14.71l1.31.41,2.17,7h0l1.8-5.78,1.33.41-2.5,8-1.28-.4-2.19-7.11h0l-1.83,5.86-1.31-.41Z"/></g><g id="_Group_22" data-name="&lt;Group&gt;"><path class="cls-2" d="M104.5,18.14l1.47.77.35,4.44,3.82-2.27,1.47.77-5.28,2.95-1.55,3-1.22-.63,1.55-3Z"/></g><g id="_Group_23" data-name="&lt;Group&gt;"><path class="cls-2" d="M114.61,23.85l4.83,3.66-.71.94L115,25.62l-1.41,1.86,3.51,2.66-.71.93-3.51-2.65-1.53,2,3.89,2.95-.71.94-5-3.78Z"/></g><g id="_Group_24" data-name="&lt;Group&gt;"><path class="cls-2" d="M126.78,34.78l3.56,4.49-.93.73-2.7-3.41L124.88,38l2.55,3.22-.92.73L124,38.77l-2.91,2.3L120.19,40Z"/></g><g id="_Group_25" data-name="&lt;Group&gt;"><path class="cls-2" d="M134.89,48.08A3.12,3.12,0,0,1,133.65,50L133,48.85a2,2,0,0,0,.68-1.28,2.55,2.55,0,0,0-.37-1.45,2.3,2.3,0,0,0-1.75-1.3,3.67,3.67,0,0,0-2.28.56,3.72,3.72,0,0,0-1.7,1.62,2.79,2.79,0,0,0,1.32,3.28,2.58,2.58,0,0,0,1.66,0l.65,1.17a3.71,3.71,0,0,1-2.65,0,3.59,3.59,0,0,1-1.81-1.66,3.78,3.78,0,0,1-.36-3.38,4.78,4.78,0,0,1,2.23-2.25,4.72,4.72,0,0,1,3.12-.66,3.69,3.69,0,0,1,2.64,2.05A3.74,3.74,0,0,1,134.89,48.08Z"/></g></g><g id="_Group_26" data-name="&lt;Group&gt;"><path class="cls-6" d="M79.49,24.24a51,51,0,1,0,50.94,51A51,51,0,0,0,79.49,24.24Zm35.05,86a49.55,49.55,0,1,1,14.54-35A49.45,49.45,0,0,1,114.54,110.26Z"/></g><g id="_Group_27" data-name="&lt;Group&gt;"><g id="_Group_28" data-name="&lt;Group&gt;"><g id="_Group_29" data-name="&lt;Group&gt;"><path class="cls-4" d="M101.18,70.3S117.6,65.67,126,78.69c0,0,3.73,4.87,3.93,8.52s2.75,5,3.77,1.47.2-4.79-2.17-6.84c0,0-2.5-.9-2.13-2.83s3-1.35,4.63-.44,5.19,5.44,5.32,7.24,1.92.25,1.72-2.94a7.19,7.19,0,0,0-2.87-5.66c-1.35-1.14-1.1-4.42,1.93-4s6.59,2.05,6.26,7.7-.25,6.92,1.68,6.47.33-4.42,3.07-4.42,1.68,5.2.9,7.61-4.75,6.19-7,6.76-37.38,3.6-37.38,3.6,2.82-7.37-8.36-9.13C99.25,91.83,105.56,81.06,101.18,70.3Z"/></g><g id="_Group_30" data-name="&lt;Group&gt;"><path class="cls-7" d="M101.18,70.49l.16.65h0a26.91,26.91,0,0,1,6.55-.77,24,24,0,0,1,9,1.68c4.63,2,8.11,6.06,10.52,10.35a13.8,13.8,0,0,1,1.81,5,6.4,6.4,0,0,0,.81,2.87,2.59,2.59,0,0,0,.78.94,2.16,2.16,0,0,0,1.11.37,2,2,0,0,0,1.47-.74,5.44,5.44,0,0,0,.9-1.84,10.78,10.78,0,0,0,.45-2.79,4.59,4.59,0,0,0-.77-2.58c-1.44-2.13-1.93-1.8-3.24-2.78a3.21,3.21,0,0,1-.53-.61,1.09,1.09,0,0,1-.25-.7c0-.08,0-.17,0-.24a.66.66,0,0,1,.33-.54,1.43,1.43,0,0,1,.82-.2,5.77,5.77,0,0,1,2.5.78A6.68,6.68,0,0,1,135,80.52a20.12,20.12,0,0,1,2.45,3,9.73,9.73,0,0,1,.86,1.51,3.18,3.18,0,0,1,.37,1,2.16,2.16,0,0,0,.21.9,1,1,0,0,0,.37.37,1.14,1.14,0,0,0,.53.16.89.89,0,0,0,.49-.16,1.52,1.52,0,0,0,.61-.53,4.91,4.91,0,0,0,.62-1.32,8.1,8.1,0,0,0,.25-1.84,2.51,2.51,0,0,0,0-.61,9,9,0,0,0-1.06-3.89,9.07,9.07,0,0,0-2-2.25,1.72,1.72,0,0,1-.53-1.35,1.69,1.69,0,0,1,.33-1,1.42,1.42,0,0,1,1.14-.41,1.48,1.48,0,0,1,.45,0,7.68,7.68,0,0,1,3.89,1.55,5.05,5.05,0,0,1,1.27,1.8,7.33,7.33,0,0,1,.54,2.91c0,.24,0,.45,0,.69-.08,1.52-.16,2.75-.16,3.73a8.09,8.09,0,0,0,.33,2.5,1.52,1.52,0,0,0,.65.78,1.64,1.64,0,0,0,.94.28,2.8,2.8,0,0,0,.78-.12,1.62,1.62,0,0,0,.9-.49,2.66,2.66,0,0,0,.66-1.44c.16-.69.24-1.43.41-1.88a.82.82,0,0,1,.33-.41.91.91,0,0,1,.61-.16.89.89,0,0,1,.49.12c.16.08.29.29.41.66a4.06,4.06,0,0,1,.21,1.35,15.46,15.46,0,0,1-.86,4.54,5.53,5.53,0,0,1-1,1.76,16.77,16.77,0,0,1-2.78,3,13.4,13.4,0,0,1-1.48,1.06,4.81,4.81,0,0,1-1.27.54,3,3,0,0,1-.69.12c-1.44.2-4.42.53-8.11.9L117.64,99.6c-2.87.25-5.41.49-7.21.62s-2.87.28-2.87.28l0,.66.65.24a7,7,0,0,0,.37-2.25,6.51,6.51,0,0,0-1.76-4.46c-1.35-1.48-3.69-2.7-7.53-3.32l-.09.66.21.24a27.4,27.4,0,0,0,3.93-13.63,21.76,21.76,0,0,0-1.6-8.4l-.61.25.16.65-.16-.65-.66.29A20.34,20.34,0,0,1,102,78.64a28.27,28.27,0,0,1-1.68,9.25,29.31,29.31,0,0,1-1.19,2.78c-.16.33-.28.58-.37.78a1.44,1.44,0,0,0-.12.17l0,0v0l-.49.82,1,.12c3.64.62,5.65,1.76,6.76,3a5.29,5.29,0,0,1,1.39,3.52,5.56,5.56,0,0,1-.16,1.31,1.58,1.58,0,0,0-.09.37l0,.08.29.12-.29-.12.29.12-.29-.12-.41,1,1.11-.08s8.76-.77,17.85-1.59c4.5-.45,9.13-.86,12.73-1.23,1.8-.21,3.36-.37,4.55-.49.61-.08,1.1-.13,1.47-.21a7,7,0,0,0,.86-.12,7.93,7.93,0,0,0,2.17-1.07,17.61,17.61,0,0,0,3.24-2.9A10.55,10.55,0,0,0,152.68,91a17.15,17.15,0,0,0,.91-5,5.12,5.12,0,0,0-.49-2.34,2.42,2.42,0,0,0-.78-.86,2.28,2.28,0,0,0-1.19-.28,2.68,2.68,0,0,0-1.15.2,2.08,2.08,0,0,0-.69.62,3,3,0,0,0-.58,1.27c-.12.65-.2,1.26-.32,1.71a1,1,0,0,1-.21.46.47.47,0,0,1-.28.16,2.78,2.78,0,0,1-.46.08.49.49,0,0,1-.2,0,.31.31,0,0,1-.08-.12,2.26,2.26,0,0,1-.21-.66,13.84,13.84,0,0,1,0-1.39c0-.94,0-2.13.13-3.64a5.16,5.16,0,0,0,0-.78,9.13,9.13,0,0,0-.62-3.4,6.23,6.23,0,0,0-2.7-3.07,9.89,9.89,0,0,0-3.52-1.15,3.88,3.88,0,0,0-.66,0,2.8,2.8,0,0,0-2.17.86,2.94,2.94,0,0,0-.69,1.93,3.38,3.38,0,0,0,1.06,2.41,6.66,6.66,0,0,1,1.68,1.89,7.61,7.61,0,0,1,.9,3.31v.49a4.34,4.34,0,0,1-.37,2,2.08,2.08,0,0,0-.2-.66,16,16,0,0,0-2.46-3.89c-.53-.65-1.06-1.26-1.55-1.75a7.66,7.66,0,0,0-1.44-1.15,6.34,6.34,0,0,0-3.15-.94,3,3,0,0,0-1.56.4,2.13,2.13,0,0,0-.94,1.44c0,.16,0,.32,0,.49a2.9,2.9,0,0,0,.45,1.47,3.72,3.72,0,0,0,1.39,1.23,5.6,5.6,0,0,1,2.42,2.13,3.45,3.45,0,0,1,.53,1.84,8.58,8.58,0,0,1-.41,2.42,5.52,5.52,0,0,1-.61,1.35c-.25.2-.37.25-.45.25a.59.59,0,0,1-.29-.13,2,2,0,0,1-.65-.94,5.41,5.41,0,0,1-.41-1.88,10.5,10.5,0,0,0-.78-3C127.75,79,122.63,73,117.43,70.82a24.58,24.58,0,0,0-9.5-1.8,29.09,29.09,0,0,0-7,.82l-.73.2.28.74Z"/></g></g><g id="_Group_31" data-name="&lt;Group&gt;"><path class="cls-7" d="M103.2,76h0a14.81,14.81,0,0,1,3.28-.32,16.28,16.28,0,0,1,10,3.27c3.43,2.7,6.55,7.49,7.65,16.17l1.35-.2c-1.14-8.88-4.42-14.13-8.19-17a17.3,17.3,0,0,0-10.8-3.57,16.74,16.74,0,0,0-3.61.37Z"/></g><g id="_Group_32" data-name="&lt;Group&gt;"><path class="cls-7" d="M102.67,81.11h0c.08,0,.53,0,1.18,0a16.2,16.2,0,0,1,8.27,2.21,13,13,0,0,1,4.3,4.22,19.34,19.34,0,0,1,2.71,7.74l1.35-.21a20.44,20.44,0,0,0-2.91-8.27,15.14,15.14,0,0,0-7.33-5.93,18.89,18.89,0,0,0-6.39-1.15,10,10,0,0,0-1.35.08Z"/></g><g id="_Group_33" data-name="&lt;Group&gt;"><path class="cls-7" d="M101,86.31h0a21.27,21.27,0,0,1,6.06,1.39,11.62,11.62,0,0,1,4,2.71,8.65,8.65,0,0,1,2.29,4.91l1.36-.17A10.11,10.11,0,0,0,112,89.38a15.14,15.14,0,0,0-7-3.81A19.26,19.26,0,0,0,101,85Z"/></g></g><g id="_Group_34" data-name="&lt;Group&gt;"><g id="_Group_35" data-name="&lt;Group&gt;"><path class="cls-4" d="M103,79.05a22.91,22.91,0,1,1-22.89-23A22.9,22.9,0,0,1,103,79.05Z"/></g><g id="_Group_36" data-name="&lt;Group&gt;"><g id="_Group_37" data-name="&lt;Group&gt;"><path class="cls-8" d="M80.13,55.42a23.61,23.61,0,1,0,23.59,23.63A23.61,23.61,0,0,0,80.13,55.42ZM95.81,94.73A22.23,22.23,0,0,1,57.86,79.05a22.26,22.26,0,0,1,44.51,0A21.86,21.86,0,0,1,95.81,94.73Z"/></g><g id="_Group_38" data-name="&lt;Group&gt;"><path class="cls-8" d="M62.77,72.33H61.13s-.32,7.86-2.41,9.26l2.86,7.82A8.93,8.93,0,0,1,70,87.93l.33-3.6a13.61,13.61,0,0,1-7.58-12Zm.2-2c3.69-9.09,10.74-9.22,10.74-9.22l.36-2-3.81-.7c-5.07,2.34-9.7,8.56-9.7,8.56l.25,4L63,70.37Zm24.9-4L91,65.78s-1.64-4.87-.57-7.41a23.06,23.06,0,0,0-8.31-1.84s-1.93,2.21-6.31,2.21l-.12,2.09a14.26,14.26,0,0,1,12.2,5.52ZM101.71,77l-1.15,4.63a3.92,3.92,0,0,1,1.6,3.23l.94-7.29L101.71,77Zm-10-9.21-2.91.45s2,8.51-2.86,12.81l1.39,2a15.73,15.73,0,0,1,11.75-2.17l1.14-4.18s-7-4.71-8.51-9ZM84.51,82.49a16,16,0,0,1-12.2,2.78l-.2,3.24A13.75,13.75,0,0,1,80.75,97l2.62-1.15s-1.93-6.63,2.17-11Z"/></g></g></g><g id="_Group_39" data-name="&lt;Group&gt;"><g id="_Group_40" data-name="&lt;Group&gt;"><path class="cls-4" d="M31,86.39a58.89,58.89,0,0,1-1.23-12.12s14.62-12.78,29.81,1c9.74,9.87,5.77,20.8,5.77,20.8H34.56A32.22,32.22,0,0,1,31,86.39Z"/></g><g id="_Group_41" data-name="&lt;Group&gt;"><path class="cls-7" d="M33.58,96.67l31.81.13h.49l.17-.45a19.47,19.47,0,0,0,.82-5.78,22.12,22.12,0,0,0-6.76-15.72v0h0c-5.45-5-11-6.63-15.81-6.63a24.59,24.59,0,0,0-11,2.78,27.54,27.54,0,0,0-3.36,1.93l-.08,1.59A36.51,36.51,0,0,1,34.11,72a23.3,23.3,0,0,1,10.15-2.46c4.55,0,9.67,1.47,14.91,6.22l.45-.49-.49.49a20.56,20.56,0,0,1,6.38,14.78,22.8,22.8,0,0,1-.36,3.89c-.13.46-.21.82-.29,1.07s0,.2-.08.29v.08l.61.2v-.65l-31.81-.13Z"/></g><g id="_Group_42" data-name="&lt;Group&gt;"><g id="_Group_43" data-name="&lt;Group&gt;"><path class="cls-9" d="M44.63,87.28a12.09,12.09,0,0,0-6.83-2h-.09a18,18,0,0,0-6.63,1.37c.09.46.2.94.32,1.36a16.59,16.59,0,0,1,6.31-1.38h.09a11.28,11.28,0,0,1,6.06,1.81,14.83,14.83,0,0,1,5.32,7.32h0l1.23-.45A15.83,15.83,0,0,0,44.63,87.28Z"/></g><g id="_Group_44" data-name="&lt;Group&gt;"><path class="cls-9" d="M38.86,90.6a4.45,4.45,0,0,0-1.06-.37,16.27,16.27,0,0,0-4.3-.58c-.82,0-1.36.09-1.61.09.15.46.28.88.43,1.31a9.36,9.36,0,0,1,1.18,0,14.73,14.73,0,0,1,4.3.61,3,3,0,0,0,.57.2,7.25,7.25,0,0,1,4.05,3.89h.41l.94-.36A8.53,8.53,0,0,0,38.86,90.6Z"/></g><g id="_Group_45" data-name="&lt;Group&gt;"><path class="cls-9" d="M46.76,81.18A19.36,19.36,0,0,0,40.05,80a20,20,0,0,0-2.25.12,16.53,16.53,0,0,0-5.45,1.76A11.51,11.51,0,0,0,30.43,83c.07.53.17,1.06.25,1.55A10.21,10.21,0,0,1,33.05,83a14.91,14.91,0,0,1,4.75-1.51,12.46,12.46,0,0,1,2.25-.17,18,18,0,0,1,6.26,1.19A12.72,12.72,0,0,1,53.8,89,14.16,14.16,0,0,1,55.16,95v.57l1.35.12V95A15.33,15.33,0,0,0,55,88.47,14.13,14.13,0,0,0,46.76,81.18Z"/></g><g id="_Group_46" data-name="&lt;Group&gt;"><path class="cls-9" d="M59.78,87.65a21.8,21.8,0,0,0-6.22-8.72h0a18.72,18.72,0,0,0-11.75-4.3,19.91,19.91,0,0,0-4,.41A22.31,22.31,0,0,0,32.47,77,24.12,24.12,0,0,0,30,78.41,10.25,10.25,0,0,0,30.08,80a16.66,16.66,0,0,1,3.21-2,19.62,19.62,0,0,1,4.51-1.6,17.26,17.26,0,0,1,4-.49,17.08,17.08,0,0,1,10.89,4,20.2,20.2,0,0,1,5.85,8.15A16.56,16.56,0,0,1,59.62,94a4.08,4.08,0,0,1,0,.78V95l1.35.16s0-.45,0-1.19A17.58,17.58,0,0,0,59.78,87.65Z"/></g></g></g><g id="_Group_47" data-name="&lt;Group&gt;"><rect class="cls-6" x="7.27" y="94.17" width="143.51" height="34.11"/><path class="cls-10" d="M150.8,128.3H7.25V94.15H150.8Zm-143.51,0H150.76V94.19H7.29Z"/></g><g id="_Group_48" data-name="&lt;Group&gt;"><rect class="cls-11" x="9.07" y="95.97" width="139.95" height="30.42"/></g><g id="_Group_49" data-name="&lt;Group&gt;"><g id="_Group_50" data-name="&lt;Group&gt;"><path class="cls-2" d="M27.74,105.92v14.74H34c1.56,0,2.34-.73,2.34-2.17V105.92h-8.6Zm5.32,11.43c0,.53-.24.73-.69.69H30.85v-9.49h2.21Z"/></g><g id="_Group_51" data-name="&lt;Group&gt;"><path class="cls-2" d="M27.08,102v2.79H37.69v13.34c0,.66-.25.95-.78.86h-.45v2.54h2.09c1.55,0,2.33-.81,2.33-2.54v-14.2h.86V102H27.08Z"/></g><g id="_Group_52" data-name="&lt;Group&gt;"><path class="cls-2" d="M24.54,110.35l-.57-2H20.16L21,112c.25,1.23.9,1.77,1.89,1.64H26.8v-2.54H25.49C25,111.21,24.71,111,24.54,110.35Z"/></g><g id="_Group_53" data-name="&lt;Group&gt;"><path class="cls-2" d="M24.63,104l-.5-2.29H20.29l.81,4.21c.13,1.11.82,1.6,2,1.48H26.8v-2.7H25.49A.7.7,0,0,1,24.63,104Z"/></g><g id="_Group_54" data-name="&lt;Group&gt;"><path class="cls-2" d="M22,118.58a.78.78,0,0,1-.87.53H20v2.33h2.83c1.39,0,2.17-.45,2.37-1.55l1.51-5.25h-3.6Z"/></g><g id="_Group_55" data-name="&lt;Group&gt;"><path class="cls-2" d="M65.9,102v-.9H62.38v.9H53.33v2.5h9.05v1.43H53.86V121.2H57.3v-4.14h5.08v4.14H65.9v-4.14H71v1.15c0,.49-.17.65-.7.53H67.7v2.46h3.85c2,.12,3-.66,2.86-2.3v-13H65.9v-1.43h9V102h-9Zm-3.52,12.45H57.3v-1.56h5.08Zm8.64,0H65.9v-1.56H71Zm-2.58-6H71v2.13h-2.3L69.79,109H66l-1.15,1.51H63.44L62.3,109H58.61l1,1.6H57.3v-2.13H68.44Z"/></g><g id="_Group_56" data-name="&lt;Group&gt;"><path class="cls-2" d="M106.48,101.87h-6.27v-.78H96.52v.9h-5.4v2.34h5.49v1H91v2.42h5.65v.9H91.12V111h5.49v1H91.12v2.17h5.49v1.07H91.12v2.17h5.49v.78h3.8v-.78h6.52v-2.17H100.5v-1.07h6.43V112H100.5v-1h3.23c1.88.08,2.83-.69,2.83-2.25v-1.15h.86v-2.33h-.94Zm-6.07,2.38h1.89v1.06h-1.89Zm2,4c0,.29-.2.41-.45.37h-1.64v-.9h2.09Z"/></g><g id="_Group_57" data-name="&lt;Group&gt;"><path class="cls-2" d="M99.06,118.66H92.92c-1.76-.17-2.78-.66-3.11-1.48v-4.83a2.64,2.64,0,0,0-.66-1.31.74.74,0,0,1-.2-.41l.2-.28a2.1,2.1,0,0,0,.66-1.56V101H86v2.46h.86v5.4c0,.25-.12.37-.37.45H86v2.62h.41c.25,0,.41.25.45.62v5.32c0,.49-.24.78-.57.78h-.45v2.25h1.88a2.46,2.46,0,0,0,1.31-.53,1.9,1.9,0,0,1,.49-.17,1.58,1.58,0,0,1,.66.29,2.62,2.62,0,0,0,1.31.41h15.72v-2.25H99.06Z"/></g><g id="_Group_58" data-name="&lt;Group&gt;"><path class="cls-2" d="M137.88,115.87c1-.08,1.64-.86,1.8-2.37l.86-11.18h-3l-.78,10.24c-.12.49-.32.73-.65.69h-.86v2.62h2.66Z"/></g><g id="_Group_59" data-name="&lt;Group&gt;"><polygon class="cls-2" points="134.11 118.49 134.11 101.38 130.79 101.38 130.79 118.49 128.91 118.49 128.91 101.38 125.6 101.38 125.6 118.49 121.95 118.49 119.54 118.49 119.54 121.19 121.95 121.19 137.88 121.19 140.54 121.19 140.54 118.49 137.88 118.49 134.11 118.49"/></g><g id="_Group_60" data-name="&lt;Group&gt;"><path class="cls-2" d="M122,116h2.42v-2.62h-.66c-.45.12-.65-.17-.57-.91l-.57-10h-3l.65,11C120.19,115.18,120.76,116,122,116Z"/></g></g></g><path class="cls-12" d="M79.47,150.39a74.52,74.52,0,0,1-44.9-14.86H7.25A7.26,7.26,0,0,1,0,128.28V94.17a7.27,7.27,0,0,1,5.22-7A75.21,75.21,0,1,1,154.68,74.29a8.63,8.63,0,0,1,1.52.76l.17.11a9.5,9.5,0,0,1,3.23,3.62,12,12,0,0,1,1.27,5.61,24.78,24.78,0,0,1-1.25,7.22l-.07.19A14.64,14.64,0,0,1,158,94.86v33.42a7.26,7.26,0,0,1-7.25,7.25H124.35A75.59,75.59,0,0,1,79.47,150.39Zm-72.22-58a1.81,1.81,0,0,0-1.81,1.81v34.11a1.81,1.81,0,0,0,1.81,1.81H35.49a2.76,2.76,0,0,1,1.65.56A69.06,69.06,0,0,0,79.47,145a70.19,70.19,0,0,0,42.33-14.3,2.72,2.72,0,0,1,1.65-.56h27.31a1.81,1.81,0,0,0,1.81-1.81V94.17a2.91,2.91,0,0,1,.52-1.76A9.82,9.82,0,0,0,154.43,90l0-.11a18.89,18.89,0,0,0,1-5.5,6.78,6.78,0,0,0-.67-3.11,4.14,4.14,0,0,0-1.4-1.59l-.1-.06a3.6,3.6,0,0,0-1.58-.51,2.72,2.72,0,0,1-2.45-2.75c0-.38,0-.77,0-1.16A69.78,69.78,0,1,0,11.08,89.1a2.72,2.72,0,0,1-2.66,3.26Z"/></g></g></svg>