<svg xmlns="http://www.w3.org/2000/svg" viewBox="0 0 182.93 189.69"><defs><style>.cls-1{font-size:27.72px;font-family:MHeiGB5-Bold, MHeiGB5 Bold;font-weight:700;}.cls-1,.cls-2,.cls-7{fill:#fff;}.cls-3,.cls-6{fill:#045ba7;}.cls-4{fill:#d62027;}.cls-5{fill:#cfd0d1;}.cls-6,.cls-7{fill-rule:evenodd;}.cls-8{fill:none;stroke:#045ba7;stroke-miterlimit:10;stroke-width:0.12px;}</style></defs><title>Asset 28</title><g id="Layer_2" data-name="Layer 2"><g id="Layer_1-2" data-name="Layer 1"><text class="cls-1" transform="translate(0 181.66) scale(1.1 1)">上海綠地申花</text><path class="cls-2" d="M136.09,9A110.76,110.76,0,0,0,48.67,9H37.56V71.82c0,.93,0,1.74.09,2.45,1.56,31.44,24.63,61.3,54.79,67,28.9-5.46,51.21-33.15,54.37-63.13a44.64,44.64,0,0,0,.4-6.32V9Z"/><path class="cls-2" d="M92.33,139.55c-13.94-2.67-27-10.94-36.87-23.3A73.84,73.84,0,0,1,39.35,74.19c-.06-.73-.09-1.52-.09-2.42V10.42H50.32a106.11,106.11,0,0,1,84.11,0H145.5V71.77a43.9,43.9,0,0,1-.39,6.2,74.76,74.76,0,0,1-16.93,39.73c-9.66,11.55-22.32,19.3-35.67,21.85h-.18Z"/><path class="cls-3" d="M92.38,2.23a105,105,0,0,1,42,8.69H145V71.77a40.68,40.68,0,0,1-.39,6.13c-3,29-24.44,55.86-52.17,61.15-28.95-5.52-51.1-34.45-52.58-64.89-.07-.7-.09-1.48-.09-2.39V10.92H50.43A105.07,105.07,0,0,1,92.38,2.23m0-1A105.89,105.89,0,0,0,50.22,9.91H38.76V71.77c0,.91,0,1.7.09,2.45a74.57,74.57,0,0,0,16.22,42.35C65,129,78.18,137.34,92.23,140l.21,0,.18,0a57.72,57.72,0,0,0,19.77-7.84A67.83,67.83,0,0,0,128.56,118a75.1,75.1,0,0,0,17-40,42,42,0,0,0,.39-6.26V9.91H134.54A105.86,105.86,0,0,0,92.38,1.23"/><polygon class="cls-3" points="81.59 7.01 80.05 7.01 80.05 10.18 77.6 10.18 77.6 7.01 75.9 7.01 75.9 14.09 77.6 14.09 77.6 11.33 80.05 11.33 80.05 14.09 81.77 14.09 81.77 7.01 81.59 7.01"/><polygon class="cls-3" points="101.39 7.01 99.86 7.01 99.86 10.18 97.39 10.18 97.39 7.01 95.7 7.01 95.7 14.09 97.39 14.09 97.39 11.33 99.86 11.33 99.86 14.09 101.57 14.09 101.57 7.01 101.39 7.01"/><polygon class="cls-3" points="87.7 7.01 82.63 7.01 82.63 14.09 88 14.09 88 12.61 84.34 12.61 84.34 11.12 87.64 11.12 87.64 9.97 84.34 9.97 84.34 8.46 87.88 8.46 87.88 7.01 87.7 7.01"/><path class="cls-3" d="M94.58,7H93.16v4.36L90.55,7H88.9v7.08h1.63V10C91,10.81,93,14.09,93,14.09h1.72V7Z"/><path class="cls-3" d="M108.23,7H106.7v4.12a2.08,2.08,0,0,1-.23,1.15,1.14,1.14,0,0,1-1,.41,1.1,1.1,0,0,1-1-.41,1.9,1.9,0,0,1-.28-1.15V7h-1.7v4a3.58,3.58,0,0,0,.7,2.45,3.24,3.24,0,0,0,2.37.75,2.67,2.67,0,0,0,2.2-.84,3.74,3.74,0,0,0,.62-2.39V7Z"/><polygon class="cls-4" points="113.57 7.01 112.01 7.01 107.97 14.09 109.82 14.09 113.88 7.01 113.57 7.01"/><path class="cls-3" d="M115.52,7H114v3.68h-2.21V11.9H114v2.19h1.74V7Z"/><path class="cls-3" d="M74.72,7.51V8.85a7.61,7.61,0,0,0-2.25-.67c-.8,0-1.38.23-1.38.75,0,1.12,4.06.38,4.06,3.06,0,2-2.26,2.24-3.34,2.24a6.1,6.1,0,0,1-2.67-.68V12a8.27,8.27,0,0,0,2.74,1c1,0,1.39-.08,1.39-.59,0-1.5-4.2-.46-4.2-3.22,0-1.72,1.81-2.32,3.11-2.32a5.64,5.64,0,0,1,2.54.6"/><path class="cls-5" d="M43.08,71.26c0,30,21.27,59.32,49.34,64.75,28.08-5.43,49.25-34.72,49.25-64.75V16.65H43.08Z"/><polygon class="cls-4" points="105.5 19.05 93.52 41.58 93.52 63.17 116.97 19.05 105.5 19.05"/><polygon class="cls-2" points="116.97 19.05 93.52 63.17 93.52 84.75 128.43 19.05 116.97 19.05"/><polygon class="cls-4" points="139.39 19.05 128.43 19.05 93.52 84.75 93.52 106.33 139.39 20.01 139.39 19.05"/><path class="cls-2" d="M139.39,20,93.52,106.33v21.49l.06,0,45.81-86.22Z"/><path class="cls-3" d="M139.39,70.67V41.58L93.52,127.82l.06,4.89c26.2-5.79,45.81-34.07,45.81-62"/><polygon class="cls-2" points="93.52 19.05 93.52 41.58 105.5 19.05 93.52 19.05"/><path class="cls-3" d="M75.89,67.44v59.12a55.58,55.58,0,0,0,15.35,6.15V67.44Z"/><path class="cls-2" d="M60.76,67.44v46.2a59.85,59.85,0,0,0,15.35,12.92V67.44Z"/><path class="cls-4" d="M45.43,67.44v3.71a65.49,65.49,0,0,0,15.33,42.49V67.44Z"/><path class="cls-4" d="M75.63,46.06a23.14,23.14,0,0,1,.66-2.89c0,.12-.39.77-3,1.59a10.37,10.37,0,0,0-3.35,1c-1.82,1.13-2.2,2.76-3.69,3.66a11.71,11.71,0,0,1-4.68,1.16l0,14.37H75.46V49.33a32.67,32.67,0,0,1,.17-3.27"/><path class="cls-3" d="M54.16,40.33a12.83,12.83,0,0,1-8.79-6.08V64.91H60.28V47.66a7.32,7.32,0,0,0-6.12-7.33"/><path class="cls-3" d="M54.42,39.08a8.29,8.29,0,0,1,6.83,7.11v3.15c1,0,3.54-.06,4.78-1s1.77-2.85,3.7-3.72a17.38,17.38,0,0,1,3.55-.84,7.63,7.63,0,0,0,4.29-3.12s-.3,1.26-.59,2.53a8,8,0,0,1,5-4.44c7.12-2.24,9-6.2,9.29-6.77V19.05H45.37V32a13.66,13.66,0,0,0,9.05,7.07"/><path class="cls-3" d="M82,40.16c-5.31,1.66-5.1,7.26-5.1,7.26V64.91H91.24V34.18c-.2.37-2.06,3.72-9.29,6"/><polygon class="cls-2" points="63.09 51.56 74.04 51.55 74.04 53.25 66.89 53.26 66.89 56.22 73.09 56.2 73.09 57.91 66.89 57.92 66.91 62.39 63.1 62.4 63.09 51.56"/><path class="cls-2" d="M90.05,54.21v-2s-1.79-1.11-5.68-.8S78.88,53,77.79,55.27s-.21,5,3.54,6.55,7.89.3,9-.61V58.89A5.56,5.56,0,0,1,86.1,60.6c-2.87,0-5.39-1.65-5.24-3.59s1-3.58,4.89-4a8.88,8.88,0,0,1,4.3,1.22"/><path class="cls-2" d="M58.77,52.38V54.7a19.66,19.66,0,0,0-4-1.15H52.67s-1.35.16-1.61.9c0,.3.13.8,1.42,1s5.61.66,6.29,2c.68,1.13.87,2.5-1.09,3.94a8.27,8.27,0,0,1-3.69,1c-2,0-2.77,0-2.77,0a14.29,14.29,0,0,1-3.61-.8V59.18a25,25,0,0,0,4.24,1.16c1.23.08,2.06.08,2.06.08s1.23-.06,1.58-.84c0-.27.11-.2,0-.55-.3-.2-.1-.4-2.3-.73s-4.95-.66-5.76-2.59a3.52,3.52,0,0,1,0-1.79c.42-.61,1.15-2.06,4.74-2.31H54.8a13.34,13.34,0,0,1,4,.77"/><path class="cls-2" d="M52.54,30.26s-1.14.57-.65-.88c0,0,1.9-2.92,2.31-2.95a3.9,3.9,0,0,1,1.56,0c.43.18.48.27.33,0s-.57-.63-.12-.57a2.5,2.5,0,0,1,.78.12c.3.12.45,0-.07-.39s-.26-.5,0-.74.47-.5.74-.5a4.8,4.8,0,0,0,1-.06c.17-.06,0-1,1-1.55a24.32,24.32,0,0,1,4.14-1.54,29.13,29.13,0,0,1,4.89-1,16.79,16.79,0,0,1,4.51.8c2,.63,2.68,0,4.19.3s2,.72,2.77.51.89-.47.89-.47a1.77,1.77,0,0,1-.27,2c-.8,1-1.32,1.69-3.62,1.54,0,0,1.79-.39,2-1.78a1.81,1.81,0,0,1-.88.06,4.37,4.37,0,0,0-3.57.36,3.14,3.14,0,0,0,3.6,1.93,3.39,3.39,0,0,0,2.49-1.17,15.86,15.86,0,0,1,8.81,6.31s-8.6-4-11.71.16c0,0,2.59,3.62,1.25,6.29s-3.43,5.89-9.18,5.89c0,0,11.16-5.26,4.41-12.46a3.25,3.25,0,0,1,2.58-2.76,23.84,23.84,0,0,1,5.46-.57s-8.07-2.59-13.09-1.16-2.33,5-1.79,5.33a16.12,16.12,0,0,0,2.09,1.36,3.74,3.74,0,0,1,2.41,3.9c-.31,2.51-1.3,5.12-2.62,6.42A3.16,3.16,0,0,0,67,44.6c-.66,1.42-1.17,2.79-3.48,2.65,0,0-1.5.26-1.31-1.91s0-2.08-.19-2.41-.15-.85.42-.78a13.36,13.36,0,0,0,2.08.37c.69,0,2,0,2.51-.62s1.5-2.15-.32-4.77-3.55-4.25-5.41-4.25-2.55.89-3.94,3.07c0,0-2.21-2-3.17-3.07s-1.35-1.36-.71-2.19.5-1.53.83-1.56.84.1.87-.05-.36-.44-1.26-.19-.82.6-1.11,1Z"/><path class="cls-2" d="M77.48,26.46s-7.17-.72-8.85,1.21,1.53,3.76,2.25,4.47,2,1.55,1.68,3.78A17,17,0,0,1,70.41,42s4.7-3.25,4.79-7.28c0,0,.27-1.42-1.91-3.84,0,0-1.75-1.27.45-2.91a6.33,6.33,0,0,1,3.74-1.54"/><path class="cls-2" d="M61.22,33.75s-2.34.41-2.58,2.34a3.89,3.89,0,0,0,2,2.44s-2.1-3,.54-4.78"/><path class="cls-2" d="M61.43,39.21s.48,2.15,1,2.18a18.21,18.21,0,0,0,3.87.15c.66-.24.7-1.26.7-1.4s-.64.2-.64.2L65.72,40l-.45.52a4.05,4.05,0,0,0-.55-.69c-.15-.08-.37.84-.83.84,0,0-1.11.32-2.46-1.41"/><path class="cls-3" d="M61.46,23.88a6.06,6.06,0,0,1,3.1-1,11.79,11.79,0,0,0-2,2.07Z"/><path class="cls-2" d="M82,38.71a8.05,8.05,0,0,0-5,4.48c.29-1.28.59-2.54.59-2.54a7.61,7.61,0,0,1-4.3,3.14,17.31,17.31,0,0,0-3.54.85c-1.93.88-2.34,2.69-3.7,3.76s-3.78,1-4.78,1V46.23a8.35,8.35,0,0,0-6.83-7.17,13.69,13.69,0,0,1-9.05-7.13v2.25a12.82,12.82,0,0,0,8.79,6.14,7.38,7.38,0,0,1,6.12,7.4v17.4h1.3l0-14.48a11.6,11.6,0,0,0,4.68-1.19c1.49-.91,1.87-2.55,3.69-3.69a10.13,10.13,0,0,1,3.34-1c2.64-.83,3-1.5,3-1.61a20.51,20.51,0,0,0-.67,2.92c-.15.87-.17,3.29-.17,3.29V65.12h1.39V47.46s-.21-5.62,5.1-7.32c7.23-2.29,9.09-5.65,9.29-6V31.88c-.25.58-2.17,4.59-9.29,6.83"/><path class="cls-2" d="M113.3,113.73l.35-.87a1.12,1.12,0,0,0,.78,0,1,1,0,0,0,.51-.51,1,1,0,0,0,.15-.72.54.54,0,0,0-.29-.42.38.38,0,0,0-.29,0,.92.92,0,0,0-.35.2c-.08.08-.27.28-.54.59a2.53,2.53,0,0,1-.92.73,1.21,1.21,0,0,1-1-.06,1.24,1.24,0,0,1-.5-.49,1.14,1.14,0,0,1-.14-.75,2.13,2.13,0,0,1,.27-.91,2,2,0,0,1,1-1,1.39,1.39,0,0,1,1.16.06l-.42.88a.86.86,0,0,0-.59,0,1,1,0,0,0-.42.47,1.12,1.12,0,0,0-.16.64.38.38,0,0,0,.52.29,2.9,2.9,0,0,0,.69-.63,4.31,4.31,0,0,1,.78-.75,1.57,1.57,0,0,1,.67-.25,1.35,1.35,0,0,1,.75.2,1.26,1.26,0,0,1,.58.56,1.31,1.31,0,0,1,.17.81,2.69,2.69,0,0,1-.34,1,2,2,0,0,1-1,1,1.85,1.85,0,0,1-1.34-.06"/><polygon class="cls-2" points="116.83 110.36 112.63 108.14 113.08 107.29 117.28 109.51 116.83 110.36"/><polygon class="cls-2" points="117.72 108.69 113.52 106.47 113.96 105.65 117.67 105.41 114.87 103.93 115.29 103.14 119.48 105.36 119.03 106.22 115.39 106.46 118.14 107.91 117.72 108.69"/><path class="cls-2" d="M119.84,101l.69-.68a2,2,0,0,1,.68,1.16,1.94,1.94,0,0,1-.26,1.29,2,2,0,0,1-1.29,1.08,2.5,2.5,0,0,1-1.84-.29,2.61,2.61,0,0,1-1.35-1.4,2.13,2.13,0,0,1,.18-1.73,2,2,0,0,1,1.11-1,1.87,1.87,0,0,1,1,0l-.24.94a1,1,0,0,0-.68,0,1,1,0,0,0-.5.47,1.09,1.09,0,0,0-.06.93,1.85,1.85,0,0,0,.93.87,2,2,0,0,0,1.28.31,1,1,0,0,0,.74-.56,1,1,0,0,0,.1-.69,1.6,1.6,0,0,0-.49-.71"/><polygon class="cls-2" points="122.19 100.24 118 98.02 119.65 94.9 120.36 95.29 119.17 97.55 120.09 98.04 121.21 95.93 121.9 96.31 120.79 98.41 121.94 99.02 123.17 96.68 123.89 97.04 122.19 100.24"/><path class="cls-2" d="M126.12,92.82l-.42.8-3-1.59a3.06,3.06,0,0,1,.06,1.35L122,93a2.48,2.48,0,0,0,0-.89,2.05,2.05,0,0,0-.4-.87l.33-.64Z"/><path class="cls-2" d="M125.79,91.1l.34-.83a.57.57,0,0,0,.42,0,.42.42,0,0,0,.28-.26.57.57,0,0,0,0-.54,2.28,2.28,0,0,0-.84-.72,1,1,0,0,1,0,.94,1.31,1.31,0,0,1-.84.66,1.76,1.76,0,0,1-2-1.1,1.56,1.56,0,0,1,1.17-2,3.8,3.8,0,0,1,3.27,1.76,1.53,1.53,0,0,1-.08,1.38,1.3,1.3,0,0,1-.69.66,1.53,1.53,0,0,1-1,0M125,88.34a1.09,1.09,0,0,0-.71-.14.59.59,0,0,0-.44.31.51.51,0,0,0,0,.45,1,1,0,0,0,.5.46,1.06,1.06,0,0,0,.69.15.61.61,0,0,0,.4-.3.59.59,0,0,0,0-.49.93.93,0,0,0-.44-.44"/><path class="cls-2" d="M127.52,87.82l.33-.81a.64.64,0,0,0,.44,0,.46.46,0,0,0,.27-.26.59.59,0,0,0,0-.55,2.22,2.22,0,0,0-.83-.72,1.06,1.06,0,0,1-.06,1,1.31,1.31,0,0,1-.83.65,1.58,1.58,0,0,1-1.18-.18,1.6,1.6,0,0,1-.83-.91,1.53,1.53,0,0,1,.12-1.18,1.48,1.48,0,0,1,1-.78,2.91,2.91,0,0,1,1.85.44,3.07,3.07,0,0,1,1.44,1.31,1.56,1.56,0,0,1-.08,1.38,1.37,1.37,0,0,1-.69.66,1.42,1.42,0,0,1-1,0m-.78-2.74a1.06,1.06,0,0,0-.7-.14.62.62,0,0,0-.44.3.49.49,0,0,0,0,.47,1,1,0,0,0,.49.44,1.07,1.07,0,0,0,.7.17.6.6,0,0,0,.42-.8,1,1,0,0,0-.45-.44"/><path class="cls-2" d="M129.08,84.55l.31-.84a.77.77,0,0,0,.57,0,.66.66,0,0,0,.38-.3.63.63,0,0,0,0-.52.72.72,0,0,0-.42-.44.78.78,0,0,0-.56-.1.65.65,0,0,0-.4.31,1.87,1.87,0,0,0-.13.4l-.61-.43a.79.79,0,0,0,.12-.59.56.56,0,0,0-.3-.38.54.54,0,0,0-.41,0,.44.44,0,0,0-.3.27.55.55,0,0,0,0,.42.66.66,0,0,0,.32.39l-.51.68a1.68,1.68,0,0,1-.49-.56,1.16,1.16,0,0,1-.13-.62,1.81,1.81,0,0,1,.2-.69,1.48,1.48,0,0,1,.89-.75,1,1,0,0,1,.85.07A1.13,1.13,0,0,1,129,82a1,1,0,0,1,.66-.39,1.12,1.12,0,0,1,.77.13,1.31,1.31,0,0,1,.71.89A1.59,1.59,0,0,1,131,83.8a1.75,1.75,0,0,1-.83.77,1.5,1.5,0,0,1-1.1,0"/><path class="cls-6" d="M39.15,105.39c-6.75-4-10.49-3.35-11.08-1.29-1.62,5-3.1,11.46-5.64,15.53a21.14,21.14,0,0,1,4.7,1A19.13,19.13,0,0,1,35.77,129c3.66-5,8.33-12.23,10-14.35s-1.39-6.2-6.6-9.25"/><path class="cls-7" d="M45.61,114.82a5.78,5.78,0,0,0-.28-1.94c-.77-2.39-2.56-4.16-6.64-6.55-4.48-2.62-7.2-3.32-9.42-2.45a4.65,4.65,0,0,0-1.4.88c-.27.83-.64,1.71-.89,2.6A3.73,3.73,0,0,1,29.3,105c1.83-.83,4.68,0,8.82,2.44,3.79,2.22,5.71,4,6.38,6.41a3.53,3.53,0,0,1-.12,2.68c.5-.7.91-1.28,1.23-1.71m-22,2.58q-.28.61-.6,1.2c5.3.34,11,5,13.4,9.48L37.2,127c-2.58-4.48-8.21-9-13.57-9.6"/><path class="cls-7" d="M33.44,131.65a9.21,9.21,0,0,1-1.27-.11,3,3,0,0,1-2.26-1.17,2.15,2.15,0,0,1-.26-1.53c3.19-3.74,5.18-9.67,5.94-17.63v-.12a2.2,2.2,0,0,1,2.29-2,2.38,2.38,0,0,1,1.67.67,2.82,2.82,0,0,1,.7,2.07,5,5,0,0,0,1.07,3.74,2.48,2.48,0,0,0,1.8.74,2.23,2.23,0,0,0,.37,0,3.88,3.88,0,0,0,.71-.16,82.35,82.35,0,0,0-4.5,7.59c-.6,1.12-1.11,2.1-1.55,3-1.89,3.7-2.53,5-4.72,5"/><path class="cls-3" d="M37.89,109.46h0a1.93,1.93,0,0,1,1.4.56,2.41,2.41,0,0,1,.61,1.79,5.43,5.43,0,0,0,1.16,4,2.84,2.84,0,0,0,2.07.85h.27c-.95,1.47-2.3,3.68-4,6.88-.61,1.13-1.1,2.11-1.55,3-2,3.84-2.5,4.75-4.39,4.75a8.69,8.69,0,0,1-1.22-.11,2.71,2.71,0,0,1-2-1A1.74,1.74,0,0,1,30,129c3.19-3.8,5.18-9.77,5.94-17.75l0-.12a1.85,1.85,0,0,1,1.93-1.67m0-.73a2.57,2.57,0,0,0-2.66,2.33c-.2,2.28-1.06,12-5.91,17.61,0,0-.8,2.7,2.79,3.22a9.9,9.9,0,0,0,1.33.12c3,0,3.39-2.16,6.58-8.11,3.45-6.41,5.35-8.81,5.68-9.2a3.74,3.74,0,0,1-2.23,1.23l-.34,0c-1.43,0-2.57-1.19-2.51-4.11a2.76,2.76,0,0,0-2.73-3.11m7.86,5.91a.16.16,0,0,0,0,.06.16.16,0,0,1,0-.06"/><path class="cls-7" d="M23.48,126.26a4.72,4.72,0,0,1-3.06-1.34,3.44,3.44,0,0,1-.68-2.78c2.59-3,5.19-8.12,7.92-15.79a5,5,0,0,0,3.23,3.55c-4.2,5.66-5.61,10.39-7.11,15.38-.09.33-.19.65-.3,1"/><path class="cls-3" d="M27.63,107.49a5.38,5.38,0,0,0,2.72,2.56c-4.05,5.56-5.44,10.22-6.93,15.13-.06.23-.12.46-.19.69a4.17,4.17,0,0,1-2.53-1.19,3,3,0,0,1-.62-2.39c2.49-2.86,5-7.72,7.55-14.8m.52-3.67C26,110.23,22.92,118,19.39,122c-.66,4.66,4.36,4.66,4.36,4.66,1.68-5.53,3-10.64,7.74-16.9-2.56-.89-4.2-2.8-3.34-5.92"/><path class="cls-6" d="M145,105.6c6.77-3.92,10.5-3.32,11.09-1.25,1.61,5,3.06,11.47,5.57,15.56a19.61,19.61,0,0,0-4.69,1,19.11,19.11,0,0,0-8.68,8.33c-3.64-5.06-8.28-12.26-9.92-14.38s1.43-6.19,6.63-9.22"/><path class="cls-7" d="M139.74,116.7a3.49,3.49,0,0,1-.09-2.67c.67-2.4,2.6-4.19,6.4-6.39,4.15-2.4,7-3.25,8.81-2.4a3.72,3.72,0,0,1,2.33,2.37c-.25-.9-.61-1.78-.89-2.62a4.91,4.91,0,0,0-1.39-.87c-2.21-.9-4.94-.2-9.43,2.41-4.08,2.37-5.88,4.14-6.66,6.53a6,6,0,0,0-.29,1.93c.31.44.73,1,1.21,1.71m7.15,10.5c.26.38.53.73.77,1.09,2.38-4.46,8.14-9.11,13.43-9.41-.2-.4-.4-.8-.6-1.22-5.35.58-11,5.08-13.6,9.54"/><path class="cls-7" d="M150.64,131.87c-2.19,0-2.83-1.26-4.71-5-.43-.88-.93-1.86-1.53-3a83.61,83.61,0,0,0-4.46-7.62,3.76,3.76,0,0,0,.68.17H141a2.46,2.46,0,0,0,1.81-.74A5.07,5.07,0,0,0,143.9,112a2.72,2.72,0,0,1,.7-2,2.28,2.28,0,0,1,1.67-.68,2.21,2.21,0,0,1,2.29,2v.13c.71,8,2.7,13.89,5.86,17.64a2.17,2.17,0,0,1-.27,1.53,3.07,3.07,0,0,1-2.25,1.16,8.82,8.82,0,0,1-1.27.1Z"/><path class="cls-3" d="M146.27,109.67a1.84,1.84,0,0,1,1.92,1.67l0,.13c.72,8,2.7,14,5.87,17.76a1.74,1.74,0,0,1-.22,1.2,2.78,2.78,0,0,1-2,1,8.33,8.33,0,0,1-1.22.11c-1.9,0-2.43-.93-4.37-4.77-.44-.88-1-1.86-1.55-3-1.71-3.2-3-5.42-4-6.9H141a2.81,2.81,0,0,0,2.07-.85,5.42,5.42,0,0,0,1.18-4,2.42,2.42,0,0,1,.59-1.8,2,2,0,0,1,1.42-.56m0-.74a2.76,2.76,0,0,0-2.74,3.1c.05,2.93-1.09,4.1-2.52,4.1a1.83,1.83,0,0,1-.33,0,3.77,3.77,0,0,1-2.24-1.23c.32.38,2.23,2.79,5.64,9.22,3.19,6,3.58,8.13,6.56,8.13a11.15,11.15,0,0,0,1.32-.1c3.58-.52,2.8-3.22,2.8-3.22-4.82-5.66-5.62-15.36-5.84-17.63a2.57,2.57,0,0,0-2.65-2.35m-7.88,5.89.05.06-.05-.06"/><path class="cls-7" d="M160.31,125.54c-1.47-5-2.86-9.72-7-15.4a4.91,4.91,0,0,0,3.23-3.53c2.72,7.66,5.3,12.85,7.88,15.8a3.46,3.46,0,0,1-.69,2.77,4.79,4.79,0,0,1-3.09,1.35c-.09-.33-.18-.66-.29-1"/><path class="cls-3" d="M156.53,107.73c2.57,7.09,5,12,7.5,14.83a3.11,3.11,0,0,1-.62,2.39,4.12,4.12,0,0,1-2.54,1.18c-.06-.24-.13-.45-.2-.69-1.45-4.92-2.83-9.58-6.86-15.14a5.48,5.48,0,0,0,2.72-2.57m-.51-3.67c.86,3.12-.79,5-3.34,5.92,4.73,6.26,6,11.39,7.65,16.93,0,0,5,0,4.39-4.65-3.52-4-6.55-11.77-8.7-18.2"/><path class="cls-6" d="M94.45,146.31H90.11c-19.69,0-40.48-4.23-57-11.59a6.94,6.94,0,0,1-4.2-3.52,5.06,5.06,0,0,1,0-3.93,22.82,22.82,0,0,0,2.81-4.9l.54-1.12A30.35,30.35,0,0,0,35.1,113a6.42,6.42,0,0,0,.92,1.81,13.31,13.31,0,0,0,5.74,4.21,146.18,146.18,0,0,0,47.1,8.15h6.81a144.31,144.31,0,0,0,46.68-8,13.28,13.28,0,0,0,5.76-4.17,7,7,0,0,0,.93-1.83,30.16,30.16,0,0,0,2.8,8.23l.53,1.13a23.81,23.81,0,0,0,2.78,4.91,5,5,0,0,1,0,3.93,6.91,6.91,0,0,1-4.17,3.48c-16.42,7.24-37,11.38-56.54,11.38"/><path class="cls-3" d="M35.17,113.88a11.1,11.1,0,0,0,.65,1.11h0a13,13,0,0,0,5.85,4.29,146.7,146.7,0,0,0,47.17,8.16h6.81a144.57,144.57,0,0,0,46.78-8,13,13,0,0,0,5.85-4.26h0c.27-.41.48-.77.66-1.1a29.8,29.8,0,0,0,2.64,7.48c.21.42.38.79.52,1.13a24.14,24.14,0,0,0,2.8,4.93,4.75,4.75,0,0,1,0,3.7,6.64,6.64,0,0,1-4.05,3.37h0c-16.36,7.21-36.93,11.35-56.42,11.35-.8,0-1.63,0-2.45,0l-1.89,0c-19.67,0-40.41-4.23-56.92-11.57l0,0h0a6.65,6.65,0,0,1-4-3.37,4.71,4.71,0,0,1,0-3.72A24.25,24.25,0,0,0,32,122.48c.16-.34.34-.7.53-1.13a30,30,0,0,0,2.68-7.47m.11-3.27a31.5,31.5,0,0,1-3.22,10.53,28.74,28.74,0,0,1-3.33,6c-1.14,2.68-.24,6.1,4.26,7.77,16.93,7.54,37.76,11.62,57.12,11.62H92l2.44,0c19.19,0,39.82-4,56.61-11.4,4.53-1.66,5.43-5.07,4.3-7.77-1.59-2.23-1.64-2.48-3.29-6a31,31,0,0,1-3.2-10.56,4.9,4.9,0,0,1-1,4.12,12.8,12.8,0,0,1-5.64,4.08,144.9,144.9,0,0,1-46.6,8H88.86a145,145,0,0,1-47-8.14,12.93,12.93,0,0,1-5.62-4.11,4.93,4.93,0,0,1-.94-4.11"/><path class="cls-2" d="M148.41,117.84c-2.36,2.47-6.38,3.71-6.85,3.86a147.67,147.67,0,0,1-46.4,7.59H88.93a148.53,148.53,0,0,1-46.38-7.77c-.47-.17-4.49-1.4-6.82-3.9a4.18,4.18,0,0,1-1.44-2.19c.17-.55.3-1.12.44-1.73a4.21,4.21,0,0,0,.69,1.62l0,.06c2.42,3.53,7.2,4.84,7.76,5A147.16,147.16,0,0,0,88.93,128h6.23a147.35,147.35,0,0,0,45.75-7.43c.56-.18,5.36-1.48,7.78-5l0,0a4.43,4.43,0,0,0,.7-1.63c.13.61.27,1.18.41,1.74a4,4,0,0,1-1.42,2.19"/><path class="cls-2" d="M154.38,131.55a7.1,7.1,0,0,1-2.8,2.25c-.18.1-.87.4-1.61.71l-.4.17c-16.89,7.22-37.87,11.16-57.56,10.8-19.71.29-40.65-3.74-57.52-11l-.39-.16c-.74-.32-1.43-.62-1.63-.72a6.93,6.93,0,0,1-2.76-2.25,5.61,5.61,0,0,1-.41-5c.12-.13.56-.85.56-.85a8.84,8.84,0,0,0-.15,3.61c.3,1.19,1.33,2.37,3.26,3.32l1.57.67.38.18c16.63,7.18,37.26,11.17,56.71,10.94h.77c19.44.29,40.1-3.6,56.74-10.72l.39-.17c.53-.23,1.4-.59,1.58-.68,1.91-.93,3-2.11,3.28-3.3a9.06,9.06,0,0,0-.14-3.61s.44.71.54.85a5.62,5.62,0,0,1-.41,5"/><path class="cls-2" d="M58.28,133.57a1.16,1.16,0,0,0,.26-.56,1.21,1.21,0,0,0-.94-1.43h-.14a1.2,1.2,0,0,0-2.31-.45c-.08,0-.19-.07-.27-.1a1.24,1.24,0,0,0-1.44.94,1.34,1.34,0,0,0,0,.6,1.26,1.26,0,0,0-1.08.95,1.23,1.23,0,0,0,1.67,1.39c-.09.38-.17.77-.24,1.13-.85-.17-1.67-.35-2.51-.54.27-1.22.55-2.45.84-3.65,1.2-.76,2.38-1.54,3.55-2.32-.47-.76-.93-1.51-1.41-2.26-1.47,1-3,1.94-4.5,2.87h0c-.43,1.76-.85,3.5-1.27,5.25l2.55.61.12,0c.84.2,1.67.39,2.5.56h0c.9.2,1.78.38,2.65.54.12-.59.23-1.17.35-1.77a1.13,1.13,0,0,0,.74.47,1.21,1.21,0,0,0,1.43-1,1.23,1.23,0,0,0-.62-1.29"/><path class="cls-2" d="M67.4,135.92c0-.39.1-.77.16-1.15l2.81.36c-.09.91-.21,1.83-.33,2.74a3.67,3.67,0,0,1-1.3.59,4.46,4.46,0,0,1-1.66.1,3.45,3.45,0,0,1-1.73-.7,2.89,2.89,0,0,1-1-1.46,4.43,4.43,0,0,1-.1-1.89,4.53,4.53,0,0,1,.71-1.83,3,3,0,0,1,1.42-1.08,3.15,3.15,0,0,1,1.56-.13,2.92,2.92,0,0,1,1.78.78,2.42,2.42,0,0,1,.68,1.59l-1.32.1a1.47,1.47,0,0,0-.4-.87,1.55,1.55,0,0,0-.9-.42,1.73,1.73,0,0,0-1.42.38,2.52,2.52,0,0,0-.75,1.63,2.79,2.79,0,0,0,.24,1.91,1.68,1.68,0,0,0,1.27.8,2.51,2.51,0,0,0,.86-.05,3.07,3.07,0,0,0,.78-.34c0-.28.07-.57.11-.87-.51-.05-1-.12-1.51-.19"/><path class="cls-2" d="M71.16,139q.41-3.44.79-6.87c.91.1,1.79.2,2.71.28a4.72,4.72,0,0,1,1.48.33,1.54,1.54,0,0,1,.68.72,2.33,2.33,0,0,1,.19,1.12,1.89,1.89,0,0,1-.54,1.24,2.08,2.08,0,0,1-1.35.53,3,3,0,0,1,.65.63,7.56,7.56,0,0,1,.66,1.19c.23.47.46.94.7,1.4-.53,0-1.07-.09-1.6-.13-.28-.52-.55-1.06-.83-1.59a11.8,11.8,0,0,0-.59-1.06,1,1,0,0,0-.37-.34,2.31,2.31,0,0,0-.67-.15l-.26,0c-.1.95-.21,1.91-.3,2.86L71.16,139m1.77-3.82,1,.1a3.85,3.85,0,0,0,1.19,0,.64.64,0,0,0,.39-.25,1,1,0,0,0,.06-1.07.73.73,0,0,0-.47-.33c-.1,0-.4-.06-.93-.11l-1-.11c-.07.58-.13,1.17-.19,1.75"/><path class="cls-2" d="M77.86,139.59c.17-2.29.33-4.6.52-6.89,1.58.12,3.16.22,4.73.3,0,.39,0,.78,0,1.17-1.17-.06-2.31-.13-3.48-.21,0,.51-.08,1-.11,1.53,1.08.08,2.18.13,3.26.19,0,.39,0,.78,0,1.17-1.09-.06-2.2-.12-3.28-.2,0,.62-.09,1.25-.14,1.88,1.23.09,2.46.16,3.69.22,0,.38,0,.77-.06,1.16-1.68-.08-3.37-.18-5-.32"/><path class="cls-2" d="M84.05,140c.1-2.31.18-4.62.29-6.91,1.58.06,3.16.11,4.74.13,0,.39,0,.78,0,1.17q-1.74,0-3.48-.09c0,.51,0,1,0,1.54,1.08,0,2.18.07,3.26.08,0,.38,0,.78,0,1.16-1.1,0-2.19-.05-3.29-.08,0,.63,0,1.26-.07,1.87,1.23,0,2.47.08,3.69.11,0,.39,0,.76,0,1.15-1.69,0-3.36-.07-5-.13"/><path class="cls-2" d="M90.26,140.12c0-2.31,0-4.62,0-6.91h1.25q1.32,2.31,2.69,4.6c0-1.54,0-3.07-.06-4.62l1.19,0c.06,2.3.11,4.61.15,6.91l-1.34,0q-1.38-2.22-2.68-4.49v4.51H90.26"/><path class="cls-2" d="M97,140.05c0-2.3-.13-4.58-.19-6.86l1.29,0,.21,5.68c1.1,0,2.21-.09,3.32-.14,0,.38,0,.77.06,1.16-1.56.07-3.13.15-4.69.2"/><path class="cls-2" d="M108.61,139.32l-1.46.14c-.23-.51-.47-1-.71-1.52l-2.62.21c-.15.53-.3,1.06-.44,1.59l-1.42.09c.72-2.35,1.43-4.7,2.09-7.06l1.37-.11c1,2.23,2.1,4.45,3.19,6.66m-2.68-2.5c-.37-.83-.74-1.66-1.09-2.5-.23.88-.47,1.76-.7,2.64l1.79-.14"/><path class="cls-2" d="M109.33,139.26c-.22-2.29-.45-4.58-.67-6.89.42,0,.83-.08,1.25-.12q1.55,2.15,3.16,4.28c-.18-1.52-.37-3.05-.56-4.58l1.2-.14c.3,2.28.59,4.57.87,6.85l-1.33.17c-1.07-1.38-2.12-2.79-3.14-4.18.15,1.49.32,3,.47,4.48l-1.25.13"/><path class="cls-2" d="M115.06,131.63l2.34-.35a4.43,4.43,0,0,1,1.23,0,2.09,2.09,0,0,1,1.06.48,2.82,2.82,0,0,1,.79,1,5.29,5.29,0,0,1,.47,1.58,4.24,4.24,0,0,1,0,1.49,2.92,2.92,0,0,1-.5,1.31,2.26,2.26,0,0,1-.85.71,4.06,4.06,0,0,1-1.15.31l-2.51.37c-.3-2.29-.63-4.57-.93-6.85m1.44,1c.23,1.53.44,3,.66,4.55l1-.16a3,3,0,0,0,.79-.17,1.41,1.41,0,0,0,.49-.37,1.52,1.52,0,0,0,.24-.71,4.56,4.56,0,0,0-.07-1.28,4.69,4.69,0,0,0-.32-1.19,1.89,1.89,0,0,0-.47-.61,1.26,1.26,0,0,0-.65-.22,5.06,5.06,0,0,0-1.07.09,5.6,5.6,0,0,1-.59.07"/><path class="cls-2" d="M47.37,130.2a4.77,4.77,0,1,1-9.16-2.64,4.77,4.77,0,1,1,9.16,2.64"/><path class="cls-3" d="M47.11,126.94A4.6,4.6,0,0,0,41,124.48a5,5,0,0,0-2.65,6.36,4.76,4.76,0,0,0,6.37,2.55,4.94,4.94,0,0,0,2.41-6.45m-.1.51a4.55,4.55,0,0,1,.24,1.42,1.42,1.42,0,0,0-2.08,0,1.5,1.5,0,0,0-.32-.44,1.33,1.33,0,0,0-2.14.36,1.46,1.46,0,0,1-1.11-1.7c.18-1,1.38-1.16,2.61-1a4.4,4.4,0,0,1,2.8,1.41m-5.9-2.73a4.33,4.33,0,0,1,5.64,2.08,5,5,0,0,0-2.52-1,3.21,3.21,0,0,0-2.54.56,1,1,0,0,1-.58-1.61m-.38.19a1.24,1.24,0,0,0,.78,1.65,1.52,1.52,0,0,0-.17.48,1.73,1.73,0,0,0,1.32,2,1.32,1.32,0,0,1-.76,1.42c-1,.3-1.86-.43-2.33-1.53a10.52,10.52,0,0,1-.52-2.54,4.71,4.71,0,0,1,1.68-1.51m-1.2,7.29a4.58,4.58,0,0,1-.71-5.41c0,.35.08.64.13.95.17,1.1.79,2.6,1.9,3a1.7,1.7,0,0,1-1.08,1.39l-.24.07m.24.21.1,0a1.94,1.94,0,0,0,1.24-1.56,1.84,1.84,0,0,0,.86-.06,1.56,1.56,0,0,0,1-1.79,1.08,1.08,0,0,1,1.74-.34c.73.73.26,1.71-.48,2.75a6.82,6.82,0,0,1-2.69,2,4.29,4.29,0,0,1-1.72-1m4.81.74a4.47,4.47,0,0,1-2.66.31,6.94,6.94,0,0,0,2.49-1.93,3.34,3.34,0,0,0,.85-2.38,1.18,1.18,0,0,1,2,.16,4.57,4.57,0,0,1-2.66,3.84"/><path class="cls-8" d="M47.11,126.94A4.6,4.6,0,0,0,41,124.48a5,5,0,0,0-2.65,6.36,4.76,4.76,0,0,0,6.37,2.55A4.94,4.94,0,0,0,47.11,126.94Zm-.1.51a4.55,4.55,0,0,1,.24,1.42,1.42,1.42,0,0,0-2.08,0,1.5,1.5,0,0,0-.32-.44,1.33,1.33,0,0,0-2.14.36,1.46,1.46,0,0,1-1.11-1.7c.18-1,1.38-1.16,2.61-1A4.4,4.4,0,0,1,47,127.45Zm-5.9-2.73a4.33,4.33,0,0,1,5.64,2.08,5,5,0,0,0-2.52-1,3.21,3.21,0,0,0-2.54.56A1,1,0,0,1,41.11,124.72Zm-.38.19a1.24,1.24,0,0,0,.78,1.65,1.52,1.52,0,0,0-.17.48,1.73,1.73,0,0,0,1.32,2,1.32,1.32,0,0,1-.76,1.42c-1,.3-1.86-.43-2.33-1.53a10.52,10.52,0,0,1-.52-2.54A4.71,4.71,0,0,1,40.73,124.91Zm-1.2,7.29a4.58,4.58,0,0,1-.71-5.41c0,.35.08.64.13.95.17,1.1.79,2.6,1.9,3a1.7,1.7,0,0,1-1.08,1.39Zm.24.21.1,0a1.94,1.94,0,0,0,1.24-1.56,1.84,1.84,0,0,0,.86-.06,1.56,1.56,0,0,0,1-1.79,1.08,1.08,0,0,1,1.74-.34c.73.73.26,1.71-.48,2.75a6.82,6.82,0,0,1-2.69,2A4.29,4.29,0,0,1,39.77,132.41Zm4.81.74a4.47,4.47,0,0,1-2.66.31,6.94,6.94,0,0,0,2.49-1.93,3.34,3.34,0,0,0,.85-2.38,1.18,1.18,0,0,1,2,.16A4.57,4.57,0,0,1,44.58,133.15Z"/><path class="cls-2" d="M138.11,130.49a4.79,4.79,0,1,0,9.16-2.77,4.78,4.78,0,1,0-9.16,2.77"/><path class="cls-3" d="M140.82,133.65a4.81,4.81,0,0,0,6.37-2.64,5,5,0,0,0-2.73-6.33,4.65,4.65,0,0,0-6.14,2.54,4.93,4.93,0,0,0,2.5,6.43m.42-7.37c1.23-.12,2.45,0,2.62,1a1.47,1.47,0,0,1-1.08,1.72,1.35,1.35,0,0,0-2.17-.33,1.38,1.38,0,0,0-.31.43,1.44,1.44,0,0,0-2.1,0,5.07,5.07,0,0,1,.22-1.43,4.61,4.61,0,0,1,2.82-1.44m2.52.25a3.27,3.27,0,0,0-2.55-.52,5.18,5.18,0,0,0-2.53,1.07,4.38,4.38,0,0,1,5.66-2.16,1,1,0,0,1-.58,1.61m2.66.07a9.86,9.86,0,0,1-.5,2.54c-.46,1.11-1.29,1.85-2.33,1.57a1.33,1.33,0,0,1-.78-1.42,1.72,1.72,0,0,0,1.31-2,1.43,1.43,0,0,0-.16-.48,1.25,1.25,0,0,0,.76-1.67,4.75,4.75,0,0,1,1.7,1.5m-.67,5.71a1.68,1.68,0,0,1-1.1-1.38c1.12-.41,1.72-1.91,1.89-3,0-.32.07-.62.11-1a4.52,4.52,0,0,1-.66,5.41l-.24-.07M144,133.57a7.06,7.06,0,0,1-2.74-2c-.74-1-1.23-2-.5-2.73a1.08,1.08,0,0,1,1.76.31,1.59,1.59,0,0,0,1,1.78,2,2,0,0,0,.86,0,1.94,1.94,0,0,0,1.27,1.55l.1.05a4.79,4.79,0,0,1-1.72,1m-5.82-4a1.17,1.17,0,0,1,2-.17,3.42,3.42,0,0,0,.9,2.37,7.06,7.06,0,0,0,2.52,1.9,4.37,4.37,0,0,1-2.68-.29,4.56,4.56,0,0,1-2.71-3.81"/><path class="cls-8" d="M140.82,133.65a4.81,4.81,0,0,0,6.37-2.64,5,5,0,0,0-2.73-6.33,4.65,4.65,0,0,0-6.14,2.54A4.93,4.93,0,0,0,140.82,133.65Zm.42-7.37c1.23-.12,2.45,0,2.62,1a1.47,1.47,0,0,1-1.08,1.72,1.35,1.35,0,0,0-2.17-.33,1.38,1.38,0,0,0-.31.43,1.44,1.44,0,0,0-2.1,0,5.07,5.07,0,0,1,.22-1.43A4.61,4.61,0,0,1,141.24,126.28Zm2.52.25a3.27,3.27,0,0,0-2.55-.52,5.18,5.18,0,0,0-2.53,1.07,4.38,4.38,0,0,1,5.66-2.16A1,1,0,0,1,143.76,126.53Zm2.66.07a9.86,9.86,0,0,1-.5,2.54c-.46,1.11-1.29,1.85-2.33,1.57a1.33,1.33,0,0,1-.78-1.42,1.72,1.72,0,0,0,1.31-2,1.43,1.43,0,0,0-.16-.48,1.25,1.25,0,0,0,.76-1.67A4.75,4.75,0,0,1,146.42,126.6Zm-.67,5.71a1.68,1.68,0,0,1-1.1-1.38c1.12-.41,1.72-1.91,1.89-3,0-.32.07-.62.11-1a4.52,4.52,0,0,1-.66,5.41ZM144,133.57a7.06,7.06,0,0,1-2.74-2c-.74-1-1.23-2-.5-2.73a1.08,1.08,0,0,1,1.76.31,1.59,1.59,0,0,0,1,1.78,2,2,0,0,0,.86,0,1.94,1.94,0,0,0,1.27,1.55l.1.05A4.79,4.79,0,0,1,144,133.57Zm-5.82-4a1.17,1.17,0,0,1,2-.17,3.42,3.42,0,0,0,.9,2.37,7.06,7.06,0,0,0,2.52,1.9,4.37,4.37,0,0,1-2.68-.29A4.56,4.56,0,0,1,138.22,129.58Z"/><path class="cls-2" d="M135.26,131.72a1.15,1.15,0,0,0,0-.61,1.22,1.22,0,0,0-1.47-.89l-.15,0a1.2,1.2,0,0,0-2.28.58l-.29,0a1.22,1.22,0,0,0-.9,1.45,1.27,1.27,0,0,0,.28.54,1.22,1.22,0,0,0,.88,2.25,1.32,1.32,0,0,0,.64-.37c.09.37.17.75.25,1.13l-2.5.56c-.26-1.23-.52-2.44-.8-3.66.77-1.2,1.53-2.4,2.26-3.62-.75-.47-1.5-1-2.23-1.44-.93,1.52-1.89,3-2.87,4.51h0c.35,1.77.7,3.53,1.06,5.3l2.58-.54.1,0c.86-.18,1.69-.36,2.53-.56a.13.13,0,0,1,.06,0c.87-.19,1.74-.42,2.63-.62-.15-.59-.3-1.17-.44-1.75a1.13,1.13,0,0,0,.87.1,1.21,1.21,0,0,0-.22-2.39"/></g></g></svg>