<svg xmlns="http://www.w3.org/2000/svg" viewBox="0 0 182.93 189.69"><defs><style>.cls-1{font-size:27.72px;font-family:MHeiGB5-Bold, MHeiGB5 Bold;font-weight:700;}.cls-1,.cls-4,.cls-5{fill:#fff;}.cls-2{fill:#fbd114;}.cls-3{fill:#11151b;}.cls-5{stroke:#11151b;stroke-width:6.61px;}.cls-6{fill:#f05228;}</style></defs><title>Asset 26</title><g id="Layer_2" data-name="Layer 2"><g id="Layer_1-2" data-name="Layer 1"><text class="cls-1" transform="translate(0 181.66) scale(1.1 1)">山东鲁能泰山</text><polygon class="cls-2" points="36.32 0 36.32 113.19 91.47 146.56 146.61 113.19 146.61 0 36.32 0"/><polygon class="cls-3" points="141.08 2.66 39.02 2.66 39.02 111.65 91.47 143.43 143.97 111.65 143.97 2.66 141.08 2.66"/><polygon class="cls-4" points="91.47 140.1 141.08 110.05 141.08 5.52 41.9 5.52 41.9 110.05 91.47 140.1"/><path class="cls-5" d="M125.34,83.2A33.87,33.87,0,1,1,91.5,49.32,33.84,33.84,0,0,1,125.34,83.2Z"/><path class="cls-3" d="M48.89,87.58a1.19,1.19,0,0,0-.61.32,1.44,1.44,0,0,0-.2,1.12,2,2,0,0,0,.18.75.68.68,0,0,0,.78.44.52.52,0,0,0,.45-.31,4.11,4.11,0,0,0,.17-.9l.05-.69A3.47,3.47,0,0,1,50,86.9a1.42,1.42,0,0,1,1.26-.79,1.88,1.88,0,0,1,1.44.37,3.07,3.07,0,0,1,.79,1.76A2.67,2.67,0,0,1,53.21,90a2,2,0,0,1-1.38.94l-.16-1.25a.83.83,0,0,0,.69-.59,1.5,1.5,0,0,0,0-.77,1.52,1.52,0,0,0-.3-.8.68.68,0,0,0-.63-.23.58.58,0,0,0-.44.37c0,.14-.07.42-.13.83l-.1,1.13a2.3,2.3,0,0,1-.34,1.1,1.49,1.49,0,0,1-1.18.73A1.73,1.73,0,0,1,47.81,91a2.5,2.5,0,0,1-.75-1.77,2.75,2.75,0,0,1,.26-2,1.86,1.86,0,0,1,1.41-.91Z"/><path class="cls-3" d="M47.71,92.57l6-1.62L54,92.22l-2.29.64.61,2.32,2.3-.68L55,95.78l-6,1.61-.37-1.24,2.69-.73-.65-2.33L48,93.84Z"/><path class="cls-3" d="M55.77,97.61,56.33,99l-4.85,4.46-.53-1.3,1-.89L51,99.14l-1.29.1L49.23,98ZM52.18,99l.61,1.49,2-1.72Z"/><path class="cls-3" d="M57.14,100.65l.67,1.22-2.47,4.32L59.06,104l.63,1-5.35,3.21-.65-1.14,2.48-4.46-3.81,2.26-.6-1Z"/><path class="cls-3" d="M62.17,108.38a1.94,1.94,0,0,1,.06,1.34,2.5,2.5,0,0,1-.48,1,8.49,8.49,0,0,1-.72.74,4.6,4.6,0,0,1-2,1,2.23,2.23,0,0,1-2.17-.93l-1.71-2.06L60,105.48l1.66,2.09A2.47,2.47,0,0,1,62.17,108.38ZM60,107.15,56.8,109.7l.78,1a1.3,1.3,0,0,0,1.48.39,2.65,2.65,0,0,0,1.07-.58,3.15,3.15,0,0,0,.94-1.14,1.25,1.25,0,0,0-.37-1.23Z"/><path class="cls-3" d="M63.21,117.14a2.48,2.48,0,0,1-2-.82,2.8,2.8,0,0,1-1-1.92,3.91,3.91,0,0,1,3.51-3.75,2.57,2.57,0,0,1,2,.81,3,3,0,0,1,1,1.94,3.54,3.54,0,0,1-1.06,2.49A3.37,3.37,0,0,1,63.21,117.14Zm0-1.22a2.79,2.79,0,0,0,1.42-.87,2.6,2.6,0,0,0,.79-1.53,1.66,1.66,0,0,0-.54-1.25,1.41,1.41,0,0,0-1.29-.4,2.64,2.64,0,0,0-1.45.88,2.75,2.75,0,0,0-.76,1.5,1.65,1.65,0,0,0,1.83,1.67Z"/><path class="cls-3" d="M67.79,113.68l1.18.74-.43,5L71,115.8l1,.69-3.54,5.14-1-.75.4-5.06-2.47,3.65-1-.69Z"/><path class="cls-3" d="M75.14,120.24a1.23,1.23,0,0,0-.27-1.11,1.53,1.53,0,0,0-2-.49,3,3,0,0,0-1.16,1.3,2.38,2.38,0,0,0-.23,1.7,1.74,1.74,0,0,0,2,1.08,1.66,1.66,0,0,0,.88-.62l-1.28-.66.44-.89,2.33,1.09-1.47,3-.76-.39.24-.75a4,4,0,0,1-.88.24,2.24,2.24,0,0,1-1.31-.24,2.77,2.77,0,0,1-1.42-1.67,3.14,3.14,0,0,1,.32-2.47,3.32,3.32,0,0,1,1.77-1.8,2.94,2.94,0,0,1,2.4.13,2.83,2.83,0,0,1,1.42,1.39,2.16,2.16,0,0,1,.09,1.69Z"/><path class="cls-3" d="M81.45,120.42l1.26.28-1.07,5,3.06.64-.25,1.1-4.3-.92Z"/><path class="cls-3" d="M85.55,121.32l1.31.11-.33,3.78a1.65,1.65,0,0,0,0,1,1.29,1.29,0,0,0,2.06.22,2.19,2.19,0,0,0,.23-.94l.32-3.77,1.34.08-.36,3.8a2.61,2.61,0,0,1-.43,1.51,2.87,2.87,0,0,1-4.37-.37,3.11,3.11,0,0,1-.15-1.57Z"/><path class="cls-3" d="M91,121.75l1.33,0L95,125.89l-.21-4.29,1.2-.09.32,6.19-1.31.09-2.74-4.27.26,4.39L91.3,128Z"/><path class="cls-3" d="M101.16,121.67,98,122.3l.22,1.25,2.9-.54.19,1-2.9.56.32,1.58,3.29-.64.21,1.11-4.58.87-1.12-6.1,4.39-.84Z"/><path class="cls-3" d="M101.46,120.47l1.27-.42,3.73,3.32-1.4-4.1,1.15-.37,2,5.86-1.21.42-3.85-3.39,1.44,4.17-1.13.42Z"/><path class="cls-3" d="M111.11,118.6a1.26,1.26,0,0,0-1.07-.46,2.18,2.18,0,0,0-.69.2,1.55,1.55,0,0,0-.85,1.07,2.43,2.43,0,0,0,.36,1.75,2.2,2.2,0,0,0,1.18,1.19,1.83,1.83,0,0,0,2.09-1,1.74,1.74,0,0,0,0-1.06l-1.29.64-.44-.93,2.25-1.18,1.53,3-.73.37-.52-.61a3.11,3.11,0,0,1-.29.83,2,2,0,0,1-1,.85,2.38,2.38,0,0,1-2.14.15,3.23,3.23,0,0,1-1.81-1.69,3.39,3.39,0,0,1-.37-2.53,2.67,2.67,0,0,1,1.56-1.8,3,3,0,0,1,2-.35,2.21,2.21,0,0,1,1.41,1Z"/><path class="cls-3" d="M118.55,110.7l.68.84-1.38,1.21,3.32,3.88-1,.86-3.35-3.88-1.42,1.22-.69-.85Z"/><path class="cls-3" d="M119.29,109.85l1-1.11,6.07,2.6-1,1.06-1.16-.57-1.54,1.69.63,1.15-.91,1Zm2.78,2.66,1.08-1.17-2.32-1.1Z"/><path class="cls-3" d="M127.49,109.72l-.78,1L121.77,107l.8-1Z"/><path class="cls-3" d="M127.24,106.76a1,1,0,0,0,.64.15,1.4,1.4,0,0,0,.91-.73,1.71,1.71,0,0,0,.31-.75.68.68,0,0,0-.31-.82.57.57,0,0,0-.54,0,3,3,0,0,0-.73.58l-.48.5a3.55,3.55,0,0,1-1.13.88,1.41,1.41,0,0,1-1.45-.16,1.76,1.76,0,0,1-.86-1.25,2.55,2.55,0,0,1,.47-1.83,2.89,2.89,0,0,1,1.37-1.16,1.71,1.71,0,0,1,1.65.18l-.69,1a.78.78,0,0,0-.93,0,1.15,1.15,0,0,0-.51.55,1.4,1.4,0,0,0-.28.79.65.65,0,0,0,.32.56.53.53,0,0,0,.59,0,1.76,1.76,0,0,0,.62-.56L127,104a3.33,3.33,0,0,1,.94-.67,1.62,1.62,0,0,1,1.4.18,1.92,1.92,0,0,1,.86,1.3,3,3,0,0,1-.5,1.89,3.45,3.45,0,0,1-1.49,1.35,1.76,1.76,0,0,1-1.68-.23Z"/><path class="cls-3" d="M131.36,103.56,125.68,101l.53-1.2,2.15,1,1-2.17-2.15-1,.54-1.18L133.36,99l-.5,1.17L130.3,99l-1,2.22,2.54,1.1Z"/><path class="cls-3" d="M128.25,94.68l.38-1.4,6.62-.35-.42,1.3-1.3,0-.67,2.19,1.1.75-.38,1.31Zm3.7,1.14.42-1.51-2.55.07Z"/><path class="cls-3" d="M129.2,91.23l.2-1.33L134,88.07l-4.25-.65.18-1.16,6.13.86-.18,1.31-4.75,1.85,4.38.64-.15,1.2Z"/><path class="cls-3" d="M118.93,103.07H107.79l-4.09-5.62,6.07-18.58,6.56-2.15,9,6.56V83.2a33.61,33.61,0,0,0-6.49-20l-3.43,10.6L108.9,76,93,64.39V57.54L102,51a34,34,0,0,0-21.1,0l9,6.54v6.85L74.09,76l-6.52-2.12-3.46-10.6a33.89,33.89,0,0,0-6.5,20v.08l9-6.56,6.58,2.15,6.06,18.58-4.07,5.62H64A34,34,0,0,0,81.1,115.45l-3.48-10.61,4.13-5.64h19.46l4.12,5.64-3.43,10.61A33.91,33.91,0,0,0,118.93,103.07Z"/><path class="cls-6" d="M88.75,28l21.52,37.29,7-12.06L102.68,28Zm19.11,0,12,20.74,12-20.74ZM51.13,28,91.5,97.86l6.59-11.44L64.39,28Zm19.25,0L101.11,81.2l6.59-11.39L83.57,28Z"/><path class="cls-3" d="M68.44,19.18l-.43,5-16.89,0a.47.47,0,0,1-.47-.46.46.46,0,0,1,.47-.44H53.4a.48.48,0,0,0,.43-.48V12.49a.45.45,0,0,0-.34-.44H51.12a.46.46,0,1,1,0-.92H60a.46.46,0,1,1,0,.92H57.51a.44.44,0,0,0-.34.44V22.75c0,.48.53.5.9.5a22.08,22.08,0,0,0,4,0,5.78,5.78,0,0,0,3.85-1.49,4.92,4.92,0,0,0,1.34-2.58Zm44.4-8H95.54L95,16.28H96.2a5,5,0,0,1,1.3-2.87,4.31,4.31,0,0,1,3.66-1.35c.74,0,1.14.1,1.29.52l.08.27v9.9h0v0a.45.45,0,0,1-.47.44H99.5a.46.46,0,0,0-.45.48.45.45,0,0,0,.45.46h9.38a.47.47,0,1,0,0-.94h-2.59a.46.46,0,0,1-.47-.44v0h0v-9.9l.08-.27c.13-.42.57-.52,1.28-.52a4.28,4.28,0,0,1,3.66,1.35,5.23,5.23,0,0,1,1.33,2.87h1.21Zm-20.18,0H85.29a.46.46,0,1,0,0,.92h1a1.93,1.93,0,0,1,2,1.88v6.94L76.62,11.13H70.86a.46.46,0,1,0,0,.92h2.4a.67.67,0,0,1,.69.67v8.58a2,2,0,0,1-2,1.92H70.86a.47.47,0,1,0,0,.94h7.77a.47.47,0,0,0,.44-.48.47.47,0,0,0-.44-.46h-1.2a1.94,1.94,0,0,1-1.91-1.92V13.52l13,11h1.26V14a2,2,0,0,1,2-1.92h1a.46.46,0,1,0,0-.92Zm38.28,4.8-.35-4.88h-1l-1,.92a.38.38,0,0,1-.51.09A10.26,10.26,0,0,0,123.15,11c-3.34-.05-6.49,1.33-6.51,3.72s2.71,3.22,5.82,3.71,5.6.82,6.62,1.91c.81.88.33,2.44-1.35,2.92-1.08.32-4.46.82-6.78-.15a6.68,6.68,0,0,1-3.52-3.86l-1.24.05.14,5.21,1.13-.09,1.15-1s.15-.18.3-.07a11.52,11.52,0,0,0,5.55,1.34c3.35,0,5.63-.66,6.87-2.14a3.3,3.3,0,0,0-1.92-5c-2.62-.92-5.27-1-7.2-1.39S119,15.13,119,14s1.66-2.19,4.23-2.14A6.8,6.8,0,0,1,129.74,16Z"/></g></g></svg>