<svg xmlns="http://www.w3.org/2000/svg" viewBox="0 0 75.3 154.37"><defs><style>.cls-1{fill:#f8ee4c;}</style></defs><title>Asset 1</title><g id="Layer_2" data-name="Layer 2"><g id="图层_1" data-name="图层 1"><path id="_Compound_Path_" data-name="&lt;Compound Path&gt;" class="cls-1" d="M69.13,0H0V148.29a6.23,6.23,0,0,0,6.18,6.08H75.3V6.28A6.13,6.13,0,0,0,69.13,0M66.41,145.29h-54a3.45,3.45,0,0,1-3.46-3.46V9H63a3.46,3.46,0,0,1,3.46,3.46ZM63,9.74H9.64V141.83a2.7,2.7,0,0,0,2.72,2.72H65.67V12.46a2.74,2.74,0,0,0-.8-1.93A2.71,2.71,0,0,0,63,9.74m-6.18,8.9V135.73H18.53V18.64H56.77Z"/></g></g></svg>