<svg xmlns="http://www.w3.org/2000/svg" viewBox="0 0 75.53 154.46"><defs><style>.cls-1{fill:#f8ee4c;}</style></defs><title>Asset 3</title><g id="Layer_2" data-name="Layer 2"><g id="图层_1" data-name="图层 1"><g id="_Group_" data-name="&lt;Group&gt;"><path id="_Path_" data-name="&lt;Path&gt;" class="cls-1" d="M56.77,18.75h0V58.09H6.18A6.18,6.18,0,0,0,0,64.27v90.19H69.35a6.18,6.18,0,0,0,6.18-6.18V108.17h-9v33.77A3.45,3.45,0,0,1,63,145.4H9.09V70.53a3.45,3.45,0,0,1,3.46-3.46H65.81V12.55a2.71,2.71,0,0,0-.8-1.92,2.67,2.67,0,0,0-1.92-.8H10V33.42h9V18.75H56.77Z"/><path id="_Path_2" data-name="&lt;Path&gt;" class="cls-1" d="M75.53,76.85V6.18A6.18,6.18,0,0,0,69.35,0H.11V18.75h0v8.49a6.18,6.18,0,0,0,6.18,6.18H9.2V9.09H63.09a3.46,3.46,0,0,1,3.46,3.46V67.81h-54a2.7,2.7,0,0,0-2.72,2.72v74.13H63A2.71,2.71,0,0,0,65.75,142V108.17H63a6.18,6.18,0,0,0-6.18,6.18v21.36h-38V76.85Z"/></g></g></g></svg>