<svg xmlns="http://www.w3.org/2000/svg" viewBox="0 0 75.53 154.23"><defs><style>.cls-1{fill:#000000;}</style></defs><title>Asset 9</title><g id="Layer_2" data-name="Layer 2"><g id="图层_1" data-name="图层 1"><path id="_Compound_Path_" data-name="&lt;Compound Path&gt;" class="cls-1" d="M75.53,6.18A6.18,6.18,0,0,0,69.35,0H0V61.6c0,2.84,3.06,6.05,6.05,6.05a6.05,6.05,0,0,0-6,6.06v74.34a6.18,6.18,0,0,0,6.18,6.18H75.53V73.16a6.21,6.21,0,0,0-6.13-5.44,6.13,6.13,0,0,0,6.13-6.12ZM60,67.68a8.81,8.81,0,0,1,3.46,1.69,7.6,7.6,0,0,1,1.94,2.4,11.37,11.37,0,0,1,1.14,5.31v1.49l-.09,67h-54A3.46,3.46,0,0,1,9,142.1V77a11.24,11.24,0,0,1,.26-2.28A10.28,10.28,0,0,1,10.85,71a7.89,7.89,0,0,1,2.4-2.25,8.87,8.87,0,0,1,2.46-1,9.77,9.77,0,0,1-1.44-.54,8,8,0,0,1-2.87-2.36,12.59,12.59,0,0,1-2.23-6.08A22.32,22.32,0,0,1,9,55.83V9.12H63.06a3.45,3.45,0,0,1,3.46,3.45V55.82c0,.06,0,.31,0,.71a17.2,17.2,0,0,1-.33,3.34,12.43,12.43,0,0,1-1.67,4.34A8.17,8.17,0,0,1,60,67.68h0m4.44-4.76a15,15,0,0,0,1.38-6.39c0-.38,0-.62,0-.66h0V12.57a2.71,2.71,0,0,0-2.72-2.71H9.75v46A21.62,21.62,0,0,0,10,59.12a12.59,12.59,0,0,0,1.43,4.37,7.64,7.64,0,0,0,2.18,2.43,8.81,8.81,0,0,0,5.18,1.46h38a4.92,4.92,0,0,1,.56,0h0A8.53,8.53,0,0,0,61.73,66a7.86,7.86,0,0,0,2.69-3.12m-7.65-4.58h-38V18.75h38Zm.66,9.76-.64,0h-38a9.73,9.73,0,0,0-5.12,1.25A7.49,7.49,0,0,0,11,72.19,10.54,10.54,0,0,0,9.75,77v.07h0v65a2.7,2.7,0,0,0,2.72,2.71H65.68l.1-66.24V77.08a11.77,11.77,0,0,0-.62-4,7.26,7.26,0,0,0-1.55-2.56,7.77,7.77,0,0,0-4.15-2.22,10.49,10.49,0,0,0-2-.23m-.66,67.37h-38V77.08h38Z"/></g></g></svg>