<svg xmlns="http://www.w3.org/2000/svg" viewBox="0 0 75.53 154.46"><defs><style>.cls-1{fill:#000000;}</style></defs><title>Asset 4</title><g id="Layer_2" data-name="Layer 2"><g id="图层_1" data-name="图层 1"><path id="_Compound_Path_" data-name="&lt;Compound Path&gt;" class="cls-1" d="M75.53,62.57V6.18A6.18,6.18,0,0,0,69.35,0H0V27.24a6.18,6.18,0,0,0,6.18,6.18H9V9.09H63.06a3.46,3.46,0,0,1,3.46,3.46V57.79s0,.14,0,.31a12.09,12.09,0,0,1-.31,2.65,9.91,9.91,0,0,1-1.71,3.79A8,8,0,0,1,62,66.74a9,9,0,0,1-2.38.94,9.14,9.14,0,0,1,2.44,1,8.22,8.22,0,0,1,3,3,11,11,0,0,1,1.39,5.24v65.14a3.46,3.46,0,0,1-3.46,3.46H9V108.17H6.18A6.18,6.18,0,0,0,0,114.35v40.11H69.35a6.18,6.18,0,0,0,6.18-6.18V73.77a6.08,6.08,0,0,0-6.08-6.08,6.21,6.21,0,0,0,6.08-5.12M9.75,144.79H63.06a2.73,2.73,0,0,0,2.72-2.72v-65h0v-.11a10.89,10.89,0,0,0-.26-2.2A9.22,9.22,0,0,0,64,71.3a7.46,7.46,0,0,0-2.27-2,10.49,10.49,0,0,0-5.31-1.23H23.45v2.61a6.18,6.18,0,0,0,6.18,6.18H56.77v58.86h-38V108.17h-9Zm47-126h0V58.09H23.45v9.22h33a10.41,10.41,0,0,0,5.25-1.21,7.45,7.45,0,0,0,2.78-2.77,10.78,10.78,0,0,0,1.35-5.23v-.27h0l.37,0h-.37V12.55a2.71,2.71,0,0,0-.8-1.92,2.67,2.67,0,0,0-1.92-.8H9.75V33.42h9V18.75h38Z"/></g></g></svg>