<svg xmlns="http://www.w3.org/2000/svg" viewBox="0 0 75.53 154.46"><defs><style>.cls-1{fill:#000000;}</style></defs><title>Asset 7</title><g id="Layer_2" data-name="Layer 2"><g id="图层_1" data-name="图层 1"><path id="_Compound_Path_" data-name="&lt;Compound Path&gt;" class="cls-1" d="M66.46,70.44v75.09H9v-133a3.46,3.46,0,0,1,3.46-3.46H75.53V0H6.18A6.18,6.18,0,0,0,0,6.18v142.1a6.18,6.18,0,0,0,6.18,6.18H75.53V64.52a6.18,6.18,0,0,0-6.18-6.18H18.75V18.79h0l5.53,0H69.35a6.18,6.18,0,0,0,6.18-6.17V9.83H12.47a2.71,2.71,0,0,0-2.72,2.72V55.8a17.16,17.16,0,0,0,.66,5A9.43,9.43,0,0,0,12.05,64a8,8,0,0,0,4.39,2.76,10,10,0,0,0,2.31.28h44a3.56,3.56,0,0,1,3.72,3.38M9.75,144.79h56V70.89a3.09,3.09,0,0,0-3.09-3.09H18.75a10.48,10.48,0,0,1-2.87-.4,8.82,8.82,0,0,1-3.66-2.09,9.42,9.42,0,0,1-2-3,11.6,11.6,0,0,1-.44-1.18v83.62Zm9-67.7h38v58.62h-38V77.09Z"/></g></g></svg>