<svg xmlns="http://www.w3.org/2000/svg" viewBox="0 0 57.43 136.23"><title>Asset 20</title><g id="Layer_2" data-name="Layer 2"><g id="图层_1" data-name="图层 1"><path id="_Path_" data-name="&lt;Path&gt;" d="M57.41,23.58A23.93,23.93,0,0,0,33.39,0H24A24,24,0,0,0,0,24v9.18C0,47.41,7.18,58.27,18.86,65.28c13.36,8,23.54,14,23.54,34.05v12.85a9,9,0,0,1-9,9H24a9,9,0,0,1-9-9V90.85a3.36,3.36,0,0,0-3.36-3.37H0v24.7a24,24,0,0,0,24,24h9.35a24,24,0,0,0,24-24V99.33c0-21.7-9.35-34-22-41.73C23.71,50.58,15,45.74,15,33.22V24a9,9,0,0,1,9-9h9.35a8.58,8.58,0,0,1,9,9v9a3.52,3.52,0,0,0,3.52,3.51H57.43v-13Z"/></g></g></svg>