<svg xmlns="http://www.w3.org/2000/svg" viewBox="0 0 58.1 133.55"><title>Asset 3</title><g id="Layer_2" data-name="Layer 2"><g id="图层_1" data-name="图层 1"><path id="_Compound_Path_" data-name="&lt;Compound Path&gt;" d="M36.89,0a20.1,20.1,0,0,1,20,20v24a21.72,21.72,0,0,1-12.86,19.7,21.39,21.39,0,0,1,14,20v29.71a20.09,20.09,0,0,1-20,20H0V0Zm-.83,56.26c4.51-2,5.68-8.18,5.68-11.85V20c0-2.68-1.67-5.18-4.85-5.18H15v41.4Zm7,27.55c0-4.34-2.67-10.52-7.18-12.52H15v47.24H37.9c3.33,0,5.17-2,5.17-5Z"/></g></g></svg>