<svg xmlns="http://www.w3.org/2000/svg" viewBox="0 0 72.68 143.35"><title>Asset 18</title><g id="Layer_2" data-name="Layer 2"><g id="图层_1" data-name="图层 1"><g id="_Group_" data-name="&lt;Group&gt;"><path id="_Compound_Path_" data-name="&lt;Compound Path&gt;" d="M34.06,0H24A24,24,0,0,0,0,24v87.89a24,24,0,0,0,24,24h10a24,24,0,0,0,24-24V24a24,24,0,0,0-24-24m9,68.1v43.83a8.59,8.59,0,0,1-9,9H24a8.59,8.59,0,0,1-9-9V24a8.58,8.58,0,0,1,9-9h10a8.58,8.58,0,0,1,9,9V68.1Z"/><path id="_Path_" data-name="&lt;Path&gt;" d="M54,121.56c-10.6-5-14.76-7.84-17-19.2H20.48c1.53,11.67,6.74,20.75,17,26.88,7.37,4.42,14.2,5.32,18,14.11H72.68c-3.81-10-7.18-16.3-18.71-21.79"/></g></g></g></svg>